<svg width="64" height="64" viewBox="0 0 64 64" fill="none" xmlns="http://www.w3.org/2000/svg">
<path d="M33.7776 58.8889C41.6844 58.8948 46.5556 51.9472 46.5556 46.1944C46.5556 40.8996 42.2955 34.4167 32.8889 34.4167C21.2161 34.4167 14.4444 25.7821 14.4444 17.8056C14.4444 15.5865 14.9442 13.319 15.8416 11.1801L16.2143 10.2919L15.4567 10.8867C9.18948 15.8072 5.08333 23.3841 5.08333 32C5.08333 46.8973 17.1028 58.9167 32 58.9167C32.1187 58.9167 32.4294 58.9108 32.7618 58.9045L32.8555 58.9027C33.225 58.8958 33.6029 58.8889 33.7776 58.8889ZM33.7776 58.8889L33.7778 58.6389M33.7776 58.8889C33.7777 58.8889 33.7777 58.8889 33.7778 58.8889V58.6389M33.7778 58.6389C33.5853 58.6389 33.1536 58.647 32.7582 58.6545C32.4242 58.6608 32.1161 58.6667 32 58.6667C17.2408 58.6667 5.33333 46.7592 5.33333 32C5.33333 23.6507 9.22592 16.2849 15.2113 11.4033C15.2661 11.2639 15.3225 11.125 15.3806 10.9866L15.6111 11.0834L15.7655 11.28C15.6496 11.371 15.5345 11.4629 15.4201 11.5557C14.6315 13.5819 14.1944 15.7127 14.1944 17.8056C14.1944 25.9199 21.0778 34.6667 32.8889 34.6667C42.1532 34.6667 46.3056 41.0333 46.3056 46.1944C46.3056 51.8349 41.5219 58.6447 33.7778 58.6389ZM32 0.250034L32.0004 0.250034C33.4663 0.247942 34.1821 0.342897 35.2309 0.482044C35.3228 0.49424 35.4173 0.506775 35.5151 0.519614L35.5151 0.519664L35.5201 0.520217C51.3679 2.27861 63.75 15.6933 63.75 32C63.75 38.8086 61.6391 45.0896 57.9628 50.272L57.9573 50.2797L57.9525 50.2877C57.6164 50.8458 57.022 51.2223 56.3645 51.3591C55.707 51.4959 55.0117 51.3877 54.4809 51.01C53.95 50.6323 53.6199 50.0109 53.5336 49.3449C53.4474 48.6788 53.6083 47.9939 54.0254 47.4934L54.0316 47.4859L54.0372 47.478C57.1532 43.0856 58.9167 37.8233 58.9167 32C58.9167 17.1028 46.8972 5.08336 32 5.08336C24.0908 5.08336 19.2778 12.0405 19.2778 17.8056C19.2778 23.1145 23.481 29.5833 32.8889 29.5833C44.5628 29.5833 51.3889 38.2036 51.3889 46.1944C51.3889 54.671 44.4401 63.731 33.778 63.7222H33.7778C33.6608 63.7222 33.3532 63.728 33.0228 63.7343L32.924 63.7361C32.5542 63.7431 32.1755 63.75 32 63.75C14.4965 63.75 0.25 49.5034 0.25 32C0.25 16.3189 11.7261 3.39098 26.7003 0.85128C26.9732 0.808786 27.2457 0.764662 27.5184 0.720491C28.9667 0.485917 30.4231 0.250034 32 0.250034ZM27.8056 17.7778C27.8056 15.4929 29.7151 13.5834 32 13.5834C34.2849 13.5834 36.1944 15.4929 36.1944 17.7778C36.1944 20.0627 34.2849 21.9722 32 21.9722C29.7151 21.9722 27.8056 20.0627 27.8056 17.7778ZM27.8056 47.1111C27.8056 44.8262 29.7151 42.9167 32 42.9167C34.2849 42.9167 36.1944 44.8262 36.1944 47.1111C36.1944 49.3961 34.2849 51.3055 32 51.3055C29.7151 51.3055 27.8056 49.3961 27.8056 47.1111Z" fill="#19202C" stroke="white" stroke-width="0.5"/>
</svg>
