<svg width="65" height="64" viewBox="0 0 65 64" fill="none" xmlns="http://www.w3.org/2000/svg">
<path d="M32.8682 47.9233C41.6376 47.9233 48.7721 40.7803 48.7721 32.0024C48.7721 23.2202 41.6376 16.0772 32.8682 16.0772C24.0967 16.0772 16.9623 23.2202 16.9623 32.0024C16.9623 40.7803 24.0974 47.9233 32.8682 47.9233ZM32.8682 20.3901C39.2626 20.3901 44.4644 25.6003 44.4644 32.0024C44.4644 38.4045 39.2626 43.6105 32.8682 43.6105C26.4739 43.6105 21.2699 38.4045 21.2699 32.0024C21.2699 25.6003 26.4739 20.3901 32.8682 20.3901Z" fill="#19202C"/>
<path d="M47.9958 55.1681C38.8037 61.1911 26.932 61.1911 17.74 55.1681C16.7492 54.511 15.4118 54.7933 14.7598 55.7874C14.1078 56.7858 14.3855 58.1206 15.3805 58.7734C20.6917 62.2606 26.7807 64 32.8682 64C38.9557 64 45.0447 62.2606 50.3559 58.7727C51.351 58.1199 51.6287 56.7844 50.9767 55.7867C50.3268 54.7933 48.9908 54.511 47.9958 55.1681Z" fill="#19202C"/>
<path d="M9.1104 13.8699C8.12174 13.2171 6.78221 13.4951 6.1302 14.4893C-0.834478 25.1288 -0.834478 38.8724 6.1302 49.5112C6.54215 50.1427 7.23038 50.484 7.93281 50.484C8.33694 50.484 8.74675 50.3702 9.1104 50.1299C10.1055 49.4771 10.3832 48.1416 9.73115 47.1439C3.70897 37.9451 3.70897 26.0547 9.73115 16.8558C10.3825 15.8581 10.1047 14.5227 9.1104 13.8699Z" fill="#19202C"/>
<path d="M59.6069 14.4893C58.9591 13.4952 57.6231 13.2128 56.6267 13.8699C55.6316 14.5227 55.3539 15.8582 56.0059 16.8558C62.0259 26.0547 62.0259 37.9451 56.0059 47.144C55.3539 48.1424 55.6316 49.4771 56.6267 50.1299C56.9903 50.3703 57.3987 50.484 57.8043 50.484C58.5067 50.484 59.1949 50.1427 59.6069 49.5112C66.5694 38.8717 66.5694 25.1288 59.6069 14.4893Z" fill="#19202C"/>
<path d="M50.3581 5.23143C39.7314 -1.74381 26.0045 -1.74381 15.3785 5.23143C14.3856 5.88422 14.1079 7.21968 14.7599 8.21736C15.4119 9.21575 16.7415 9.48953 17.7422 8.83673C26.9299 2.80513 38.806 2.80513 47.9937 8.83673C48.3595 9.07709 48.7679 9.19086 49.1734 9.19086C49.8759 9.19086 50.5641 8.84953 50.976 8.21807C51.6288 7.21968 51.3511 5.88422 50.3581 5.23143Z" fill="#19202C"/>
</svg>
