<svg width="16" height="22" viewBox="0 0 16 22" fill="none" xmlns="http://www.w3.org/2000/svg">
<path fill-rule="evenodd" clip-rule="evenodd" d="M5.07275 8.57356C7.34311 8.42299 9.6272 8.42488 11.9246 8.5764V5.5977C11.9246 3.7156 10.381 2.17204 8.49889 2.17204C6.61678 2.17204 5.07275 3.7156 5.07275 5.5977V8.57356ZM8.49889 12.3397C9.48137 12.3397 10.2778 13.1361 10.2778 14.1185C10.2778 14.5437 10.1286 14.9339 9.88004 15.2397C9.56707 15.6242 9.41555 16.0504 9.41555 16.5456V17.0153C9.41555 17.8827 7.58175 17.8827 7.58175 17.0153V16.5456C7.58175 16.0504 7.43023 15.6242 7.11773 15.2397C6.86915 14.9339 6.71953 14.5437 6.71953 14.1185C6.71953 13.1361 7.51641 12.3397 8.49889 12.3397V12.3397ZM14.095 8.77952C15.1627 9.00727 15.9984 9.83255 15.9984 10.9448V19.0366C15.9984 20.254 15.0027 21.2502 13.7849 21.2502H3.21196C1.99463 21.2502 0.998413 20.254 0.998413 19.0366V10.9448C0.998413 9.83303 1.83459 9.01011 2.9023 8.78047V5.5977C2.9023 2.51768 5.41839 0.00158691 8.49841 0.00158691C11.5784 0.00158691 14.0945 2.51768 14.0945 5.5977V8.77952H14.095Z" fill="#FF0000"/>
</svg>
