<svg width="416" height="80" viewBox="0 0 416 80" fill="none" xmlns="http://www.w3.org/2000/svg">
<circle cx="64" cy="44" r="45.5" stroke="#FF0000" stroke-width="5"/>
<path d="M81.252 40.4582C84.1067 41.9566 84.1067 46.0435 81.252 47.5418L54.259 61.7095C51.5955 63.1074 48.4 61.1757 48.4 58.1677L48.4 29.8323C48.4 26.8243 51.5955 24.8926 54.259 26.2905L81.252 40.4582Z" fill="#FF0000"/>
<path d="M149.43 35.77C149.43 36.17 149.32 36.54 149.1 36.88L142.83 45.85V53.17C142.83 53.69 142.66 54.13 142.32 54.49C141.98 54.83 141.57 55 141.09 55C140.59 55 140.16 54.83 139.8 54.49C139.46 54.13 139.29 53.69 139.29 53.17V45.43L133.05 37.15C132.69 36.67 132.51 36.2 132.51 35.74C132.51 35.22 132.71 34.79 133.11 34.45C133.53 34.09 133.97 33.91 134.43 33.91C134.99 33.91 135.48 34.19 135.9 34.75L141.18 42.04L146.13 34.81C146.55 34.21 147.05 33.91 147.63 33.91C148.11 33.91 148.53 34.09 148.89 34.45C149.25 34.81 149.43 35.25 149.43 35.77ZM166.011 46.99C166.011 48.59 165.651 50.03 164.931 51.31C164.211 52.57 163.221 53.55 161.961 54.25C160.721 54.95 159.351 55.3 157.851 55.3C156.331 55.3 154.951 54.95 153.711 54.25C152.471 53.55 151.491 52.57 150.771 51.31C150.051 50.03 149.691 48.59 149.691 46.99C149.691 45.39 150.051 43.96 150.771 42.7C151.491 41.42 152.471 40.43 153.711 39.73C154.951 39.01 156.331 38.65 157.851 38.65C159.351 38.65 160.721 39.01 161.961 39.73C163.221 40.43 164.211 41.42 164.931 42.7C165.651 43.96 166.011 45.39 166.011 46.99ZM162.411 46.99C162.411 46.01 162.201 45.14 161.781 44.38C161.381 43.6 160.831 43 160.131 42.58C159.451 42.16 158.691 41.95 157.851 41.95C157.011 41.95 156.241 42.16 155.541 42.58C154.861 43 154.311 43.6 153.891 44.38C153.491 45.14 153.291 46.01 153.291 46.99C153.291 47.97 153.491 48.84 153.891 49.6C154.311 50.36 154.861 50.95 155.541 51.37C156.241 51.79 157.011 52 157.851 52C158.691 52 159.451 51.79 160.131 51.37C160.831 50.95 161.381 50.36 161.781 49.6C162.201 48.84 162.411 47.97 162.411 46.99ZM180.928 38.95C181.448 38.95 181.878 39.13 182.218 39.49C182.558 39.83 182.728 40.26 182.728 40.78V48.4C182.728 50.56 182.128 52.25 180.928 53.47C179.748 54.69 178.058 55.3 175.858 55.3C173.658 55.3 171.968 54.69 170.788 53.47C169.608 52.25 169.018 50.56 169.018 48.4V40.78C169.018 40.26 169.188 39.83 169.528 39.49C169.868 39.13 170.298 38.95 170.818 38.95C171.338 38.95 171.768 39.13 172.108 39.49C172.448 39.83 172.618 40.26 172.618 40.78V48.4C172.618 49.62 172.888 50.53 173.428 51.13C173.968 51.71 174.778 52 175.858 52C176.958 52 177.778 51.71 178.318 51.13C178.858 50.53 179.128 49.62 179.128 48.4V40.78C179.128 40.26 179.298 39.83 179.638 39.49C179.978 39.13 180.408 38.95 180.928 38.95ZM199.818 34C200.358 34 200.798 34.16 201.138 34.48C201.478 34.8 201.648 35.22 201.648 35.74C201.648 36.26 201.478 36.68 201.138 37C200.798 37.3 200.358 37.45 199.818 37.45H195.108V53.17C195.108 53.69 194.918 54.13 194.538 54.49C194.158 54.83 193.688 55 193.128 55C192.568 55 192.108 54.83 191.748 54.49C191.388 54.13 191.208 53.69 191.208 53.17V37.45H186.498C185.958 37.45 185.518 37.29 185.178 36.97C184.838 36.65 184.668 36.23 184.668 35.71C184.668 35.21 184.838 34.8 185.178 34.48C185.538 34.16 185.978 34 186.498 34H199.818ZM212.803 38.95C213.323 38.95 213.753 39.13 214.093 39.49C214.433 39.83 214.603 40.26 214.603 40.78V48.4C214.603 50.56 214.003 52.25 212.803 53.47C211.623 54.69 209.933 55.3 207.733 55.3C205.533 55.3 203.843 54.69 202.663 53.47C201.483 52.25 200.893 50.56 200.893 48.4V40.78C200.893 40.26 201.063 39.83 201.403 39.49C201.743 39.13 202.173 38.95 202.693 38.95C203.213 38.95 203.643 39.13 203.983 39.49C204.323 39.83 204.493 40.26 204.493 40.78V48.4C204.493 49.62 204.763 50.53 205.303 51.13C205.843 51.71 206.653 52 207.733 52C208.833 52 209.653 51.71 210.193 51.13C210.733 50.53 211.003 49.62 211.003 48.4V40.78C211.003 40.26 211.173 39.83 211.513 39.49C211.853 39.13 212.283 38.95 212.803 38.95ZM226.811 38.65C228.191 38.65 229.441 39.01 230.561 39.73C231.681 40.43 232.561 41.41 233.201 42.67C233.861 43.93 234.191 45.36 234.191 46.96C234.191 48.56 233.871 50 233.231 51.28C232.591 52.54 231.711 53.53 230.591 54.25C229.491 54.95 228.271 55.3 226.931 55.3C225.971 55.3 225.061 55.11 224.201 54.73C223.361 54.33 222.661 53.85 222.101 53.29V53.47C222.101 53.99 221.931 54.43 221.591 54.79C221.251 55.13 220.821 55.3 220.301 55.3C219.781 55.3 219.351 55.13 219.011 54.79C218.671 54.45 218.501 54.01 218.501 53.47V34.63C218.501 34.11 218.671 33.68 219.011 33.34C219.351 32.98 219.781 32.8 220.301 32.8C220.821 32.8 221.251 32.98 221.591 33.34C221.931 33.68 222.101 34.11 222.101 34.63V40.9C222.581 40.3 223.251 39.78 224.111 39.34C224.971 38.88 225.871 38.65 226.811 38.65ZM226.361 52C227.641 52 228.691 51.52 229.511 50.56C230.331 49.6 230.741 48.4 230.741 46.96C230.741 45.52 230.331 44.33 229.511 43.39C228.711 42.43 227.661 41.95 226.361 41.95C225.061 41.95 224.001 42.43 223.181 43.39C222.361 44.33 221.951 45.52 221.951 46.96C221.951 48.4 222.361 49.6 223.181 50.56C224.001 51.52 225.061 52 226.361 52ZM251.592 46.6C251.572 47.08 251.382 47.47 251.022 47.77C250.662 48.07 250.242 48.22 249.762 48.22H239.862C240.102 49.4 240.652 50.33 241.512 51.01C242.372 51.67 243.342 52 244.422 52C245.242 52 245.882 51.93 246.342 51.79C246.802 51.63 247.162 51.47 247.422 51.31C247.702 51.13 247.892 51.01 247.992 50.95C248.352 50.77 248.692 50.68 249.012 50.68C249.432 50.68 249.792 50.83 250.092 51.13C250.392 51.43 250.542 51.78 250.542 52.18C250.542 52.72 250.262 53.21 249.702 53.65C249.142 54.11 248.392 54.5 247.452 54.82C246.512 55.14 245.562 55.3 244.602 55.3C242.922 55.3 241.452 54.95 240.192 54.25C238.952 53.55 237.992 52.59 237.312 51.37C236.632 50.13 236.292 48.74 236.292 47.2C236.292 45.48 236.652 43.97 237.372 42.67C238.092 41.37 239.042 40.38 240.222 39.7C241.402 39 242.662 38.65 244.002 38.65C245.322 38.65 246.562 39.01 247.722 39.73C248.902 40.45 249.842 41.42 250.542 42.64C251.242 43.86 251.592 45.18 251.592 46.6ZM244.002 41.95C241.682 41.95 240.312 43.04 239.892 45.22H247.752V45.01C247.672 44.17 247.262 43.45 246.522 42.85C245.782 42.25 244.942 41.95 244.002 41.95ZM271.973 34C272.993 34 273.963 34.31 274.883 34.93C275.803 35.53 276.543 36.35 277.103 37.39C277.663 38.41 277.943 39.53 277.943 40.75C277.943 41.95 277.663 43.07 277.103 44.11C276.543 45.15 275.803 45.98 274.883 46.6C273.963 47.2 272.993 47.5 271.973 47.5H266.753V53.17C266.753 53.71 266.593 54.15 266.273 54.49C265.953 54.83 265.533 55 265.013 55C264.513 55 264.103 54.83 263.783 54.49C263.463 54.13 263.303 53.69 263.303 53.17V35.83C263.303 35.31 263.473 34.88 263.813 34.54C264.173 34.18 264.613 34 265.133 34H271.973ZM271.973 44.08C272.353 44.08 272.723 43.92 273.083 43.6C273.463 43.28 273.763 42.87 273.983 42.37C274.223 41.85 274.343 41.31 274.343 40.75C274.343 40.19 274.223 39.66 273.983 39.16C273.763 38.64 273.463 38.23 273.083 37.93C272.723 37.61 272.353 37.45 271.973 37.45H266.753V44.08H271.973ZM289.419 38.65C290.019 38.65 290.519 38.82 290.919 39.16C291.339 39.5 291.549 39.9 291.549 40.36C291.549 40.98 291.389 41.45 291.069 41.77C290.749 42.07 290.369 42.22 289.929 42.22C289.629 42.22 289.289 42.15 288.909 42.01C288.849 41.99 288.709 41.95 288.489 41.89C288.289 41.83 288.069 41.8 287.829 41.8C287.309 41.8 286.809 41.96 286.329 42.28C285.849 42.6 285.449 43.09 285.129 43.75C284.829 44.39 284.679 45.16 284.679 46.06V53.17C284.679 53.69 284.509 54.13 284.169 54.49C283.829 54.83 283.399 55 282.879 55C282.359 55 281.929 54.83 281.589 54.49C281.249 54.13 281.079 53.69 281.079 53.17V40.78C281.079 40.26 281.249 39.83 281.589 39.49C281.929 39.13 282.359 38.95 282.879 38.95C283.399 38.95 283.829 39.13 284.169 39.49C284.509 39.83 284.679 40.26 284.679 40.78V41.17C285.139 40.35 285.799 39.73 286.659 39.31C287.519 38.87 288.439 38.65 289.419 38.65ZM308.833 46.99C308.833 48.59 308.473 50.03 307.753 51.31C307.033 52.57 306.043 53.55 304.783 54.25C303.543 54.95 302.173 55.3 300.673 55.3C299.153 55.3 297.773 54.95 296.533 54.25C295.293 53.55 294.313 52.57 293.593 51.31C292.873 50.03 292.513 48.59 292.513 46.99C292.513 45.39 292.873 43.96 293.593 42.7C294.313 41.42 295.293 40.43 296.533 39.73C297.773 39.01 299.153 38.65 300.673 38.65C302.173 38.65 303.543 39.01 304.783 39.73C306.043 40.43 307.033 41.42 307.753 42.7C308.473 43.96 308.833 45.39 308.833 46.99ZM305.233 46.99C305.233 46.01 305.023 45.14 304.603 44.38C304.203 43.6 303.653 43 302.953 42.58C302.273 42.16 301.513 41.95 300.673 41.95C299.833 41.95 299.063 42.16 298.363 42.58C297.683 43 297.133 43.6 296.713 44.38C296.313 45.14 296.113 46.01 296.113 46.99C296.113 47.97 296.313 48.84 296.713 49.6C297.133 50.36 297.683 50.95 298.363 51.37C299.063 51.79 299.833 52 300.673 52C301.513 52 302.273 51.79 302.953 51.37C303.653 50.95 304.203 50.36 304.603 49.6C305.023 48.84 305.233 47.97 305.233 46.99ZM324.831 32.8C325.351 32.8 325.781 32.97 326.121 33.31C326.461 33.65 326.631 34.09 326.631 34.63V53.17C326.631 53.69 326.461 54.13 326.121 54.49C325.781 54.83 325.351 55 324.831 55C324.311 55 323.881 54.83 323.541 54.49C323.221 54.15 323.051 53.72 323.031 53.2C322.531 53.78 321.851 54.28 320.991 54.7C320.151 55.1 319.261 55.3 318.321 55.3C316.941 55.3 315.691 54.95 314.571 54.25C313.451 53.53 312.561 52.54 311.901 51.28C311.261 50.02 310.941 48.59 310.941 46.99C310.941 45.39 311.261 43.96 311.901 42.7C312.541 41.42 313.411 40.43 314.511 39.73C315.631 39.01 316.861 38.65 318.201 38.65C319.161 38.65 320.061 38.83 320.901 39.19C321.741 39.53 322.451 39.97 323.031 40.51V34.63C323.031 34.11 323.201 33.68 323.541 33.34C323.881 32.98 324.311 32.8 324.831 32.8ZM318.771 52C320.071 52 321.131 51.53 321.951 50.59C322.771 49.63 323.181 48.43 323.181 46.99C323.181 45.55 322.771 44.35 321.951 43.39C321.131 42.43 320.071 41.95 318.771 41.95C317.491 41.95 316.441 42.43 315.621 43.39C314.801 44.35 314.391 45.55 314.391 46.99C314.391 48.43 314.791 49.63 315.591 50.59C316.411 51.53 317.471 52 318.771 52ZM342.911 38.95C343.431 38.95 343.861 39.13 344.201 39.49C344.541 39.83 344.711 40.26 344.711 40.78V48.4C344.711 50.56 344.111 52.25 342.911 53.47C341.731 54.69 340.041 55.3 337.841 55.3C335.641 55.3 333.951 54.69 332.771 53.47C331.591 52.25 331.001 50.56 331.001 48.4V40.78C331.001 40.26 331.171 39.83 331.511 39.49C331.851 39.13 332.281 38.95 332.801 38.95C333.321 38.95 333.751 39.13 334.091 39.49C334.431 39.83 334.601 40.26 334.601 40.78V48.4C334.601 49.62 334.871 50.53 335.411 51.13C335.951 51.71 336.761 52 337.841 52C338.941 52 339.761 51.71 340.301 51.13C340.841 50.53 341.111 49.62 341.111 48.4V40.78C341.111 40.26 341.281 39.83 341.621 39.49C341.961 39.13 342.391 38.95 342.911 38.95ZM355.598 38.65C357.298 38.65 358.668 38.92 359.708 39.46C360.748 39.98 361.268 40.68 361.268 41.56C361.268 42 361.138 42.39 360.878 42.73C360.618 43.05 360.278 43.21 359.858 43.21C359.538 43.21 359.278 43.17 359.078 43.09C358.878 42.99 358.678 42.87 358.478 42.73C358.298 42.57 358.118 42.44 357.938 42.34C357.738 42.24 357.438 42.15 357.038 42.07C356.658 41.99 356.348 41.95 356.108 41.95C354.608 41.95 353.428 42.42 352.568 43.36C351.728 44.28 351.308 45.49 351.308 46.99C351.308 48.43 351.738 49.63 352.598 50.59C353.458 51.53 354.558 52 355.898 52C356.878 52 357.608 51.88 358.088 51.64C358.208 51.58 358.368 51.48 358.568 51.34C358.788 51.18 358.988 51.06 359.168 50.98C359.348 50.9 359.568 50.86 359.828 50.86C360.328 50.86 360.718 51.02 360.998 51.34C361.298 51.66 361.448 52.07 361.448 52.57C361.448 53.05 361.168 53.5 360.608 53.92C360.048 54.34 359.308 54.68 358.388 54.94C357.468 55.18 356.488 55.3 355.448 55.3C353.908 55.3 352.548 54.94 351.368 54.22C350.208 53.5 349.308 52.51 348.668 51.25C348.028 49.97 347.708 48.55 347.708 46.99C347.708 45.37 348.038 43.93 348.698 42.67C349.378 41.41 350.318 40.43 351.518 39.73C352.718 39.01 354.078 38.65 355.598 38.65ZM371.788 51.61C372.068 51.61 372.318 51.75 372.538 52.03C372.778 52.29 372.898 52.64 372.898 53.08C372.898 53.62 372.598 54.08 371.998 54.46C371.418 54.82 370.758 55 370.018 55C368.778 55 367.728 54.74 366.868 54.22C366.028 53.68 365.608 52.55 365.608 50.83V42.55H364.228C363.748 42.55 363.348 42.39 363.028 42.07C362.708 41.75 362.548 41.35 362.548 40.87C362.548 40.41 362.708 40.03 363.028 39.73C363.348 39.41 363.748 39.25 364.228 39.25H365.608V37.33C365.608 36.81 365.778 36.38 366.118 36.04C366.478 35.68 366.918 35.5 367.438 35.5C367.938 35.5 368.358 35.68 368.698 36.04C369.038 36.38 369.208 36.81 369.208 37.33V39.25H371.338C371.818 39.25 372.218 39.41 372.538 39.73C372.858 40.05 373.018 40.45 373.018 40.93C373.018 41.39 372.858 41.78 372.538 42.1C372.218 42.4 371.818 42.55 371.338 42.55H369.208V50.68C369.208 51.1 369.318 51.41 369.538 51.61C369.758 51.79 370.058 51.88 370.438 51.88C370.598 51.88 370.818 51.84 371.098 51.76C371.338 51.66 371.568 51.61 371.788 51.61ZM379.713 53.17C379.713 53.69 379.543 54.13 379.203 54.49C378.863 54.83 378.433 55 377.913 55C377.393 55 376.963 54.83 376.623 54.49C376.283 54.13 376.113 53.69 376.113 53.17V40.78C376.113 40.26 376.283 39.83 376.623 39.49C376.963 39.13 377.393 38.95 377.913 38.95C378.433 38.95 378.863 39.13 379.203 39.49C379.543 39.83 379.713 40.26 379.713 40.78V53.17ZM377.883 37C377.203 37 376.723 36.89 376.443 36.67C376.163 36.45 376.023 36.06 376.023 35.5V34.93C376.023 34.37 376.173 33.98 376.473 33.76C376.773 33.54 377.253 33.43 377.913 33.43C378.613 33.43 379.103 33.54 379.383 33.76C379.663 33.98 379.803 34.37 379.803 34.93V35.5C379.803 36.08 379.653 36.48 379.353 36.7C379.073 36.9 378.583 37 377.883 37ZM395.743 38.98C396.223 38.98 396.623 39.14 396.943 39.46C397.263 39.76 397.423 40.14 397.423 40.6C397.423 40.84 397.343 41.14 397.183 41.5L391.573 53.86C391.433 54.2 391.223 54.47 390.943 54.67C390.683 54.87 390.383 54.98 390.043 55L389.773 55.03C389.433 55.03 389.113 54.93 388.813 54.73C388.533 54.51 388.313 54.22 388.153 53.86L382.573 41.5C382.433 41.18 382.363 40.86 382.363 40.54C382.363 40.14 382.533 39.78 382.873 39.46C383.213 39.12 383.633 38.95 384.133 38.95C384.513 38.95 384.863 39.05 385.183 39.25C385.503 39.45 385.743 39.73 385.903 40.09L390.043 49.57L394.153 40.12C394.313 39.74 394.533 39.45 394.813 39.25C395.093 39.05 395.403 38.96 395.743 38.98ZM414.512 46.6C414.492 47.08 414.302 47.47 413.942 47.77C413.582 48.07 413.162 48.22 412.682 48.22H402.782C403.022 49.4 403.572 50.33 404.432 51.01C405.292 51.67 406.262 52 407.342 52C408.162 52 408.802 51.93 409.262 51.79C409.722 51.63 410.082 51.47 410.342 51.31C410.622 51.13 410.812 51.01 410.912 50.95C411.272 50.77 411.612 50.68 411.932 50.68C412.352 50.68 412.712 50.83 413.012 51.13C413.312 51.43 413.462 51.78 413.462 52.18C413.462 52.72 413.182 53.21 412.622 53.65C412.062 54.11 411.312 54.5 410.372 54.82C409.432 55.14 408.482 55.3 407.522 55.3C405.842 55.3 404.372 54.95 403.112 54.25C401.872 53.55 400.912 52.59 400.232 51.37C399.552 50.13 399.212 48.74 399.212 47.2C399.212 45.48 399.572 43.97 400.292 42.67C401.012 41.37 401.962 40.38 403.142 39.7C404.322 39 405.582 38.65 406.922 38.65C408.242 38.65 409.482 39.01 410.642 39.73C411.822 40.45 412.762 41.42 413.462 42.64C414.162 43.86 414.512 45.18 414.512 46.6ZM406.922 41.95C404.602 41.95 403.232 43.04 402.812 45.22H410.672V45.01C410.592 44.17 410.182 43.45 409.442 42.85C408.702 42.25 407.862 41.95 406.922 41.95Z" fill="white"/>
<path d="M149.1 36.88L149.182 36.9373L149.184 36.9343L149.1 36.88ZM142.83 45.85L142.748 45.7927L142.73 45.8185V45.85H142.83ZM142.32 54.49L142.391 54.5607L142.393 54.5587L142.32 54.49ZM139.8 54.49L139.727 54.5588L139.731 54.5627L139.8 54.49ZM139.29 45.43H139.39V45.3965L139.37 45.3698L139.29 45.43ZM133.05 37.15L132.97 37.21L132.97 37.2102L133.05 37.15ZM133.11 34.45L133.175 34.5262L133.175 34.5259L133.11 34.45ZM135.9 34.75L135.981 34.6913L135.98 34.69L135.9 34.75ZM141.18 42.04L141.099 42.0987L141.182 42.2137L141.263 42.0965L141.18 42.04ZM146.13 34.81L146.048 34.7526L146.047 34.7535L146.13 34.81ZM148.89 34.45L148.961 34.3793L148.961 34.3793L148.89 34.45ZM149.33 35.77C149.33 36.1505 149.226 36.5016 149.016 36.8257L149.184 36.9343C149.414 36.5784 149.53 36.1895 149.53 35.77H149.33ZM149.018 36.8227L142.748 45.7927L142.912 45.9073L149.182 36.9373L149.018 36.8227ZM142.73 45.85V53.17H142.93V45.85H142.73ZM142.73 53.17C142.73 53.6659 142.569 54.0809 142.247 54.4213L142.393 54.5587C142.751 54.1791 142.93 53.7141 142.93 53.17H142.73ZM142.249 54.4193C141.928 54.7406 141.543 54.9 141.09 54.9V55.1C141.597 55.1 142.032 54.9194 142.391 54.5607L142.249 54.4193ZM141.09 54.9C140.615 54.9 140.21 54.7396 139.869 54.4173L139.731 54.5627C140.11 54.9204 140.565 55.1 141.09 55.1V54.9ZM139.873 54.4213C139.551 54.0809 139.39 53.6659 139.39 53.17H139.19C139.19 53.7141 139.369 54.1791 139.727 54.5587L139.873 54.4213ZM139.39 53.17V45.43H139.19V53.17H139.39ZM139.37 45.3698L133.13 37.0898L132.97 37.2102L139.21 45.4902L139.37 45.3698ZM133.13 37.09C132.779 36.622 132.61 36.1726 132.61 35.74H132.41C132.41 36.2274 132.601 36.718 132.97 37.21L133.13 37.09ZM132.61 35.74C132.61 35.2497 132.797 34.8474 133.175 34.5262L133.045 34.3738C132.623 34.7326 132.41 35.1903 132.41 35.74H132.61ZM133.175 34.5259C133.581 34.1782 133.998 34.01 134.43 34.01V33.81C133.942 33.81 133.479 34.0018 133.045 34.3741L133.175 34.5259ZM134.43 34.01C134.951 34.01 135.414 34.2682 135.82 34.81L135.98 34.69C135.546 34.1118 135.029 33.81 134.43 33.81V34.01ZM135.819 34.8087L141.099 42.0987L141.261 41.9813L135.981 34.6913L135.819 34.8087ZM141.263 42.0965L146.213 34.8665L146.047 34.7535L141.097 41.9835L141.263 42.0965ZM146.212 34.8673C146.619 34.2862 147.091 34.01 147.63 34.01V33.81C147.009 33.81 146.481 34.1338 146.048 34.7527L146.212 34.8673ZM147.63 34.01C148.082 34.01 148.477 34.1782 148.819 34.5207L148.961 34.3793C148.583 34.0018 148.138 33.81 147.63 33.81V34.01ZM148.819 34.5207C149.16 34.8615 149.33 35.2759 149.33 35.77H149.53C149.53 35.2241 149.34 34.7585 148.961 34.3793L148.819 34.5207ZM164.931 51.31L165.017 51.3596L165.018 51.359L164.931 51.31ZM161.961 54.25L161.912 54.1626L161.911 54.1629L161.961 54.25ZM153.711 54.25L153.76 54.1629L153.76 54.1629L153.711 54.25ZM150.771 51.31L150.683 51.359L150.684 51.3596L150.771 51.31ZM150.771 42.7L150.857 42.7496L150.858 42.749L150.771 42.7ZM153.711 39.73L153.76 39.8171L153.761 39.8165L153.711 39.73ZM161.961 39.73L161.91 39.8165L161.912 39.8174L161.961 39.73ZM164.931 42.7L164.843 42.749L164.844 42.7496L164.931 42.7ZM161.781 44.38L161.692 44.4257L161.693 44.4284L161.781 44.38ZM160.131 42.58L160.078 42.6651L160.079 42.6657L160.131 42.58ZM155.541 42.58L155.489 42.4942L155.488 42.4949L155.541 42.58ZM153.891 44.38L153.803 44.3326L153.802 44.3334L153.891 44.38ZM153.891 49.6L153.802 49.6466L153.803 49.6484L153.891 49.6ZM155.541 51.37L155.488 51.4551L155.489 51.4557L155.541 51.37ZM160.131 51.37L160.079 51.2842L160.078 51.2849L160.131 51.37ZM161.781 49.6L161.693 49.5516L161.692 49.5534L161.781 49.6ZM165.911 46.99C165.911 48.5744 165.554 49.9973 164.843 51.261L165.018 51.359C165.747 50.0627 166.111 48.6056 166.111 46.99H165.911ZM164.844 51.2604C164.133 52.5046 163.156 53.4715 161.912 54.1626L162.009 54.3374C163.285 53.6285 164.288 52.6354 165.017 51.3596L164.844 51.2604ZM161.911 54.1629C160.687 54.854 159.334 55.2 157.851 55.2V55.4C159.367 55.4 160.754 55.046 162.01 54.3371L161.911 54.1629ZM157.851 55.2C156.347 55.2 154.984 54.8539 153.76 54.1629L153.661 54.3371C154.917 55.0461 156.315 55.4 157.851 55.4V55.2ZM153.76 54.1629C152.536 53.472 151.569 52.505 150.857 51.2604L150.684 51.3596C151.413 52.635 152.405 53.628 153.661 54.3371L153.76 54.1629ZM150.858 51.261C150.147 49.9973 149.791 48.5744 149.791 46.99H149.591C149.591 48.6056 149.954 50.0627 150.683 51.359L150.858 51.261ZM149.791 46.99C149.791 45.4056 150.147 43.993 150.857 42.7496L150.684 42.6504C149.954 43.927 149.591 45.3744 149.591 46.99H149.791ZM150.858 42.749C151.569 41.4844 152.536 40.5078 153.76 39.8171L153.661 39.6429C152.405 40.3522 151.412 41.3556 150.683 42.651L150.858 42.749ZM153.761 39.8165C154.985 39.1059 156.347 38.75 157.851 38.75V38.55C156.314 38.55 154.917 38.9141 153.66 39.6435L153.761 39.8165ZM157.851 38.75C159.334 38.75 160.686 39.1058 161.91 39.8165L162.011 39.6435C160.755 38.9142 159.367 38.55 157.851 38.55V38.75ZM161.912 39.8174C163.156 40.5083 164.132 41.4848 164.843 42.749L165.018 42.651C164.289 41.3552 163.286 40.3517 162.009 39.6426L161.912 39.8174ZM164.844 42.7496C165.554 43.993 165.911 45.4056 165.911 46.99H166.111C166.111 45.3744 165.747 43.927 165.017 42.6504L164.844 42.7496ZM162.511 46.99C162.511 45.9953 162.297 45.1083 161.868 44.3316L161.693 44.4284C162.104 45.1717 162.311 46.0247 162.311 46.99H162.511ZM161.87 44.3344C161.462 43.539 160.899 42.9246 160.182 42.4942L160.079 42.6657C160.762 43.0754 161.3 43.661 161.692 44.4256L161.87 44.3344ZM160.183 42.4949C159.487 42.0647 158.708 41.85 157.851 41.85V42.05C158.673 42.05 159.415 42.2553 160.078 42.6651L160.183 42.4949ZM157.851 41.85C156.993 41.85 156.205 42.0646 155.489 42.4942L155.592 42.6657C156.276 42.2554 157.028 42.05 157.851 42.05V41.85ZM155.488 42.4949C154.792 42.9251 154.23 43.5389 153.803 44.3326L153.979 44.4274C154.391 43.6611 154.93 43.0749 155.593 42.6651L155.488 42.4949ZM153.802 44.3334C153.394 45.1097 153.191 45.9961 153.191 46.99H153.391C153.391 46.0239 153.588 45.1703 153.979 44.4266L153.802 44.3334ZM153.191 46.99C153.191 47.9839 153.394 48.8703 153.802 49.6466L153.979 49.5534C153.588 48.8097 153.391 47.9561 153.391 46.99H153.191ZM153.803 49.6484C154.231 50.4221 154.792 51.0253 155.488 51.4551L155.593 51.2849C154.929 50.8747 154.391 50.2979 153.978 49.5516L153.803 49.6484ZM155.489 51.4557C156.205 51.8854 156.993 52.1 157.851 52.1V51.9C157.028 51.9 156.276 51.6946 155.592 51.2843L155.489 51.4557ZM157.851 52.1C158.708 52.1 159.487 51.8853 160.183 51.4551L160.078 51.2849C159.415 51.6947 158.673 51.9 157.851 51.9V52.1ZM160.182 51.4557C160.899 51.0258 161.461 50.4219 161.869 49.6466L161.692 49.5534C161.3 50.2981 160.763 50.8742 160.079 51.2843L160.182 51.4557ZM161.868 49.6484C162.297 48.8717 162.511 47.9847 162.511 46.99H162.311C162.311 47.9553 162.104 48.8083 161.693 49.5516L161.868 49.6484ZM182.218 39.49L182.146 39.5587L182.148 39.5607L182.218 39.49ZM180.928 53.47L180.857 53.3999L180.856 53.4005L180.928 53.47ZM170.788 53.47L170.716 53.5395L170.716 53.5395L170.788 53.47ZM169.528 39.49L169.599 39.5607L169.601 39.5587L169.528 39.49ZM172.108 39.49L172.036 39.5587L172.038 39.5607L172.108 39.49ZM173.428 51.13L173.354 51.1969L173.355 51.1981L173.428 51.13ZM178.318 51.13L178.392 51.1982L178.393 51.1969L178.318 51.13ZM179.638 39.49L179.709 39.5607L179.711 39.5587L179.638 39.49ZM180.928 39.05C181.422 39.05 181.826 39.2198 182.146 39.5587L182.291 39.4213C181.931 39.0402 181.474 38.85 180.928 38.85V39.05ZM182.148 39.5607C182.467 39.8803 182.628 40.2841 182.628 40.78H182.828C182.828 40.2359 182.649 39.7797 182.289 39.4193L182.148 39.5607ZM182.628 40.78V48.4H182.828V40.78H182.628ZM182.628 48.4C182.628 50.541 182.034 52.2032 180.857 53.3999L181 53.5401C182.223 52.2968 182.828 50.579 182.828 48.4H182.628ZM180.856 53.4005C179.7 54.5957 178.04 55.2 175.858 55.2V55.4C178.077 55.4 179.796 54.7843 181 53.5395L180.856 53.4005ZM175.858 55.2C173.677 55.2 172.016 54.5957 170.86 53.4005L170.716 53.5395C171.92 54.7843 173.64 55.4 175.858 55.4V55.2ZM170.86 53.4005C169.703 52.2038 169.118 50.5414 169.118 48.4H168.918C168.918 50.5786 169.514 52.2962 170.716 53.5395L170.86 53.4005ZM169.118 48.4V40.78H168.918V48.4H169.118ZM169.118 40.78C169.118 40.2841 169.279 39.8803 169.599 39.5607L169.458 39.4193C169.097 39.7797 168.918 40.2359 168.918 40.78H169.118ZM169.601 39.5587C169.921 39.2198 170.324 39.05 170.818 39.05V38.85C170.272 38.85 169.816 39.0402 169.456 39.4213L169.601 39.5587ZM170.818 39.05C171.312 39.05 171.716 39.2198 172.036 39.5587L172.181 39.4213C171.821 39.0402 171.364 38.85 170.818 38.85V39.05ZM172.038 39.5607C172.357 39.8803 172.518 40.2841 172.518 40.78H172.718C172.718 40.2359 172.539 39.7797 172.179 39.4193L172.038 39.5607ZM172.518 40.78V48.4H172.718V40.78H172.518ZM172.518 48.4C172.518 49.6324 172.791 50.5711 173.354 51.1969L173.503 51.0631C172.986 50.4889 172.718 49.6076 172.718 48.4H172.518ZM173.355 51.1981C173.92 51.805 174.761 52.1 175.858 52.1V51.9C174.796 51.9 174.017 51.615 173.502 51.0619L173.355 51.1981ZM175.858 52.1C176.975 52.1 177.826 51.8054 178.392 51.1981L178.245 51.0619C177.731 51.6146 176.942 51.9 175.858 51.9V52.1ZM178.393 51.1969C178.956 50.5711 179.228 49.6324 179.228 48.4H179.028C179.028 49.6076 178.761 50.4889 178.244 51.0631L178.393 51.1969ZM179.228 48.4V40.78H179.028V48.4H179.228ZM179.228 40.78C179.228 40.2841 179.389 39.8803 179.709 39.5607L179.568 39.4193C179.207 39.7797 179.028 40.2359 179.028 40.78H179.228ZM179.711 39.5587C180.031 39.2198 180.434 39.05 180.928 39.05V38.85C180.382 38.85 179.926 39.0402 179.566 39.4213L179.711 39.5587ZM201.138 34.48L201.069 34.5528L201.069 34.5528L201.138 34.48ZM201.138 37L201.204 37.075L201.206 37.0728L201.138 37ZM195.108 37.45V37.35H195.008V37.45H195.108ZM194.538 54.49L194.604 54.5646L194.606 54.5626L194.538 54.49ZM191.748 54.49L191.677 54.5607L191.679 54.5627L191.748 54.49ZM191.208 37.45H191.308V37.35H191.208V37.45ZM185.178 36.97L185.109 37.0428L185.109 37.0428L185.178 36.97ZM185.178 34.48L185.111 34.4052L185.109 34.4072L185.178 34.48ZM199.818 34.1C200.336 34.1 200.75 34.253 201.069 34.5528L201.206 34.4072C200.845 34.067 200.379 33.9 199.818 33.9V34.1ZM201.069 34.5528C201.387 34.8517 201.548 35.2441 201.548 35.74H201.748C201.748 35.1959 201.569 34.7483 201.206 34.4072L201.069 34.5528ZM201.548 35.74C201.548 36.2359 201.387 36.6283 201.069 36.9272L201.206 37.0728C201.569 36.7317 201.748 36.2841 201.748 35.74H201.548ZM201.071 36.925C200.753 37.2059 200.338 37.35 199.818 37.35V37.55C200.377 37.55 200.842 37.3941 201.204 37.075L201.071 36.925ZM199.818 37.35H195.108V37.55H199.818V37.35ZM195.008 37.45V53.17H195.208V37.45H195.008ZM195.008 53.17C195.008 53.6623 194.829 54.0761 194.469 54.4174L194.606 54.5626C195.006 54.1839 195.208 53.7177 195.208 53.17H195.008ZM194.471 54.4155C194.111 54.7374 193.666 54.9 193.128 54.9V55.1C193.71 55.1 194.204 54.9226 194.604 54.5645L194.471 54.4155ZM193.128 54.9C192.59 54.9 192.155 54.7374 191.816 54.4173L191.679 54.5627C192.06 54.9226 192.546 55.1 193.128 55.1V54.9ZM191.818 54.4193C191.477 54.0785 191.308 53.6641 191.308 53.17H191.108C191.108 53.7159 191.298 54.1815 191.677 54.5607L191.818 54.4193ZM191.308 53.17V37.45H191.108V53.17H191.308ZM191.208 37.35H186.498V37.55H191.208V37.35ZM186.498 37.35C185.979 37.35 185.565 37.197 185.246 36.8972L185.109 37.0428C185.47 37.383 185.936 37.55 186.498 37.55V37.35ZM185.246 36.8972C184.929 36.5983 184.768 36.2059 184.768 35.71H184.568C184.568 36.2541 184.747 36.7017 185.109 37.0428L185.246 36.8972ZM184.768 35.71C184.768 35.2354 184.928 34.8525 185.246 34.5528L185.109 34.4072C184.747 34.7475 184.568 35.1846 184.568 35.71H184.768ZM185.244 34.5547C185.584 34.2524 186 34.1 186.498 34.1V33.9C185.955 33.9 185.491 34.0676 185.111 34.4053L185.244 34.5547ZM186.498 34.1H199.818V33.9H186.498V34.1ZM214.093 39.49L214.021 39.5587L214.023 39.5607L214.093 39.49ZM212.803 53.47L212.732 53.3999L212.731 53.4005L212.803 53.47ZM202.663 53.47L202.591 53.5395L202.591 53.5395L202.663 53.47ZM201.403 39.49L201.474 39.5607L201.476 39.5587L201.403 39.49ZM203.983 39.49L203.911 39.5587L203.913 39.5607L203.983 39.49ZM205.303 51.13L205.229 51.1969L205.23 51.1981L205.303 51.13ZM210.193 51.13L210.267 51.1982L210.268 51.1969L210.193 51.13ZM211.513 39.49L211.584 39.5607L211.586 39.5587L211.513 39.49ZM212.803 39.05C213.297 39.05 213.701 39.2198 214.021 39.5587L214.166 39.4213C213.806 39.0402 213.349 38.85 212.803 38.85V39.05ZM214.023 39.5607C214.342 39.8803 214.503 40.2841 214.503 40.78H214.703C214.703 40.2359 214.524 39.7797 214.164 39.4193L214.023 39.5607ZM214.503 40.78V48.4H214.703V40.78H214.503ZM214.503 48.4C214.503 50.541 213.909 52.2032 212.732 53.3999L212.875 53.5401C214.098 52.2968 214.703 50.579 214.703 48.4H214.503ZM212.731 53.4005C211.575 54.5957 209.915 55.2 207.733 55.2V55.4C209.952 55.4 211.671 54.7843 212.875 53.5395L212.731 53.4005ZM207.733 55.2C205.552 55.2 203.891 54.5957 202.735 53.4005L202.591 53.5395C203.795 54.7843 205.515 55.4 207.733 55.4V55.2ZM202.735 53.4005C201.578 52.2038 200.993 50.5414 200.993 48.4H200.793C200.793 50.5786 201.389 52.2962 202.591 53.5395L202.735 53.4005ZM200.993 48.4V40.78H200.793V48.4H200.993ZM200.993 40.78C200.993 40.2841 201.154 39.8803 201.474 39.5607L201.333 39.4193C200.972 39.7797 200.793 40.2359 200.793 40.78H200.993ZM201.476 39.5587C201.796 39.2198 202.199 39.05 202.693 39.05V38.85C202.147 38.85 201.691 39.0402 201.331 39.4213L201.476 39.5587ZM202.693 39.05C203.187 39.05 203.591 39.2198 203.911 39.5587L204.056 39.4213C203.696 39.0402 203.239 38.85 202.693 38.85V39.05ZM203.913 39.5607C204.232 39.8803 204.393 40.2841 204.393 40.78H204.593C204.593 40.2359 204.414 39.7797 204.054 39.4193L203.913 39.5607ZM204.393 40.78V48.4H204.593V40.78H204.393ZM204.393 48.4C204.393 49.6324 204.666 50.5711 205.229 51.1969L205.378 51.0631C204.861 50.4889 204.593 49.6076 204.593 48.4H204.393ZM205.23 51.1981C205.795 51.805 206.636 52.1 207.733 52.1V51.9C206.671 51.9 205.892 51.615 205.377 51.0619L205.23 51.1981ZM207.733 52.1C208.85 52.1 209.701 51.8054 210.267 51.1981L210.12 51.0619C209.606 51.6146 208.817 51.9 207.733 51.9V52.1ZM210.268 51.1969C210.831 50.5711 211.103 49.6324 211.103 48.4H210.903C210.903 49.6076 210.636 50.4889 210.119 51.0631L210.268 51.1969ZM211.103 48.4V40.78H210.903V48.4H211.103ZM211.103 40.78C211.103 40.2841 211.264 39.8803 211.584 39.5607L211.443 39.4193C211.082 39.7797 210.903 40.2359 210.903 40.78H211.103ZM211.586 39.5587C211.906 39.2198 212.309 39.05 212.803 39.05V38.85C212.257 38.85 211.801 39.0402 211.441 39.4213L211.586 39.5587ZM230.561 39.73L230.507 39.8141L230.508 39.8148L230.561 39.73ZM233.201 42.67L233.112 42.7153L233.112 42.7164L233.201 42.67ZM233.231 51.28L233.32 51.3253L233.32 51.3247L233.231 51.28ZM230.591 54.25L230.644 54.3344L230.645 54.3341L230.591 54.25ZM224.201 54.73L224.158 54.8203L224.16 54.8215L224.201 54.73ZM222.101 53.29L222.171 53.2193L222.001 53.0486V53.29H222.101ZM221.591 54.79L221.662 54.8607L221.663 54.8587L221.591 54.79ZM219.011 54.79L218.94 54.8607L218.94 54.8607L219.011 54.79ZM219.011 33.34L219.082 33.4107L219.083 33.4087L219.011 33.34ZM221.591 33.34L221.518 33.4087L221.52 33.4107L221.591 33.34ZM222.101 40.9H222.001V41.1851L222.179 40.9625L222.101 40.9ZM224.111 39.34L224.156 39.429L224.158 39.4282L224.111 39.34ZM229.511 50.56L229.435 50.4951L229.435 50.4951L229.511 50.56ZM229.511 43.39L229.434 43.454L229.435 43.4557L229.511 43.39ZM223.181 43.39L223.256 43.4557L223.257 43.4549L223.181 43.39ZM223.181 50.56L223.105 50.6249L223.105 50.6249L223.181 50.56ZM226.811 38.75C228.172 38.75 229.403 39.1049 230.507 39.8141L230.615 39.6459C229.478 38.9151 228.209 38.55 226.811 38.55V38.75ZM230.508 39.8148C231.611 40.5045 232.479 41.4703 233.112 42.7153L233.29 42.6247C232.642 41.3497 231.75 40.3555 230.614 39.6452L230.508 39.8148ZM233.112 42.7164C233.764 43.9604 234.091 45.3741 234.091 46.96H234.291C234.291 45.3459 233.958 43.8996 233.289 42.6236L233.112 42.7164ZM234.091 46.96C234.091 48.5463 233.774 49.9707 233.141 51.2353L233.32 51.3247C233.968 50.0293 234.291 48.5737 234.291 46.96H234.091ZM233.142 51.2347C232.509 52.4799 231.641 53.4561 230.537 54.1659L230.645 54.3341C231.781 53.6039 232.672 52.6001 233.32 51.3253L233.142 51.2347ZM230.537 54.1656C229.454 54.8551 228.252 55.2 226.931 55.2V55.4C228.289 55.4 229.528 55.0449 230.644 54.3344L230.537 54.1656ZM226.931 55.2C225.984 55.2 225.088 55.0128 224.241 54.6385L224.16 54.8215C225.033 55.2072 225.957 55.4 226.931 55.4V55.2ZM224.244 54.6397C223.412 54.2438 222.722 53.77 222.171 53.2193L222.03 53.3607C222.599 53.93 223.309 54.4162 224.158 54.8203L224.244 54.6397ZM222.001 53.29V53.47H222.201V53.29H222.001ZM222.001 53.47C222.001 53.9659 221.84 54.3809 221.518 54.7213L221.663 54.8587C222.022 54.4791 222.201 54.0141 222.201 53.47H222.001ZM221.52 54.7193C221.2 55.0389 220.797 55.2 220.301 55.2V55.4C220.845 55.4 221.301 55.2211 221.661 54.8607L221.52 54.7193ZM220.301 55.2C219.805 55.2 219.401 55.0389 219.081 54.7193L218.94 54.8607C219.3 55.2211 219.757 55.4 220.301 55.4V55.2ZM219.081 54.7193C218.763 54.4004 218.601 53.987 218.601 53.47H218.401C218.401 54.033 218.579 54.4996 218.94 54.8607L219.081 54.7193ZM218.601 53.47V34.63H218.401V53.47H218.601ZM218.601 34.63C218.601 34.1341 218.762 33.7303 219.081 33.4107L218.94 33.2693C218.58 33.6297 218.401 34.0859 218.401 34.63H218.601ZM219.083 33.4087C219.404 33.0698 219.807 32.9 220.301 32.9V32.7C219.755 32.7 219.298 32.8902 218.938 33.2713L219.083 33.4087ZM220.301 32.9C220.795 32.9 221.198 33.0698 221.518 33.4087L221.663 33.2713C221.304 32.8902 220.847 32.7 220.301 32.7V32.9ZM221.52 33.4107C221.84 33.7303 222.001 34.1341 222.001 34.63H222.201C222.201 34.0859 222.022 33.6297 221.661 33.2693L221.52 33.4107ZM222.001 34.63V40.9H222.201V34.63H222.001ZM222.179 40.9625C222.648 40.376 223.306 39.8642 224.156 39.429L224.065 39.251C223.196 39.6958 222.514 40.224 222.023 40.8375L222.179 40.9625ZM224.158 39.4282C225.004 38.9756 225.888 38.75 226.811 38.75V38.55C225.854 38.55 224.938 38.7844 224.064 39.2518L224.158 39.4282ZM226.361 52.1C227.67 52.1 228.748 51.6075 229.587 50.6249L229.435 50.4951C228.634 51.4325 227.612 51.9 226.361 51.9V52.1ZM229.587 50.6249C230.424 49.6443 230.841 48.4203 230.841 46.96H230.641C230.641 48.3797 230.237 49.5557 229.435 50.4951L229.587 50.6249ZM230.841 46.96C230.841 45.4998 230.424 44.2853 229.586 43.3243L229.435 43.4557C230.237 44.3747 230.641 45.5402 230.641 46.96H230.841ZM229.588 43.326C228.768 42.3421 227.689 41.85 226.361 41.85V42.05C227.632 42.05 228.654 42.5179 229.434 43.454L229.588 43.326ZM226.361 41.85C225.033 41.85 223.944 42.3421 223.105 43.3251L223.257 43.4549C224.057 42.5179 225.089 42.05 226.361 42.05V41.85ZM223.105 43.3243C222.267 44.2853 221.851 45.4998 221.851 46.96H222.051C222.051 45.5402 222.454 44.3747 223.256 43.4557L223.105 43.3243ZM221.851 46.96C221.851 48.4203 222.267 49.6443 223.105 50.6249L223.257 50.4951C222.454 49.5557 222.051 48.3797 222.051 46.96H221.851ZM223.105 50.6249C223.944 51.6079 225.033 52.1 226.361 52.1V51.9C225.089 51.9 224.057 51.4321 223.257 50.4951L223.105 50.6249ZM251.592 46.6L251.692 46.6042V46.6H251.592ZM251.022 47.77L250.958 47.6932L251.022 47.77ZM239.862 48.22V48.12H239.74L239.764 48.2399L239.862 48.22ZM241.512 51.01L241.45 51.0884L241.451 51.0893L241.512 51.01ZM246.342 51.79L246.371 51.8857L246.375 51.8844L246.342 51.79ZM247.422 51.31L247.475 51.3952L247.476 51.3941L247.422 51.31ZM247.992 50.95L247.947 50.8603L247.941 50.8643L247.992 50.95ZM250.092 51.13L250.021 51.2007L250.092 51.13ZM249.702 53.65L249.64 53.5713L249.639 53.5727L249.702 53.65ZM247.452 54.82L247.42 54.7253L247.42 54.7253L247.452 54.82ZM240.192 54.25L240.143 54.3371L240.144 54.3374L240.192 54.25ZM237.312 51.37L237.225 51.4181L237.225 51.4187L237.312 51.37ZM237.372 42.67L237.285 42.6215L237.285 42.6215L237.372 42.67ZM240.222 39.7L240.272 39.7866L240.273 39.786L240.222 39.7ZM247.722 39.73L247.669 39.815L247.67 39.8154L247.722 39.73ZM250.542 42.64L250.629 42.5902L250.629 42.5902L250.542 42.64ZM239.892 45.22L239.794 45.2011L239.771 45.32H239.892V45.22ZM247.752 45.22V45.32H247.852V45.22H247.752ZM247.752 45.01H247.853L247.852 45.0005L247.752 45.01ZM251.492 46.5958C251.473 47.0484 251.296 47.4118 250.958 47.6932L251.086 47.8468C251.469 47.5282 251.671 47.1116 251.692 46.6042L251.492 46.5958ZM250.958 47.6932C250.617 47.9778 250.219 48.12 249.762 48.12V48.32C250.265 48.32 250.708 48.1622 251.086 47.8468L250.958 47.6932ZM249.762 48.12H239.862V48.32H249.762V48.12ZM239.764 48.2399C240.008 49.4406 240.57 50.3923 241.45 51.0884L241.574 50.9316C240.735 50.2677 240.196 49.3594 239.96 48.2001L239.764 48.2399ZM241.451 51.0893C242.329 51.7627 243.32 52.1 244.422 52.1V51.9C243.364 51.9 242.416 51.5773 241.573 50.9307L241.451 51.0893ZM244.422 52.1C245.246 52.1 245.898 52.0299 246.371 51.8857L246.313 51.6943C245.867 51.8301 245.238 51.9 244.422 51.9V52.1ZM246.375 51.8844C246.838 51.7233 247.206 51.5605 247.475 51.3952L247.37 51.2248C247.118 51.3795 246.766 51.5367 246.309 51.6956L246.375 51.8844ZM247.476 51.3941C247.756 51.214 247.945 51.0948 248.044 51.0357L247.941 50.8643C247.839 50.9252 247.648 51.046 247.368 51.2259L247.476 51.3941ZM248.037 51.0394C248.387 50.8646 248.711 50.78 249.012 50.78V50.58C248.673 50.58 248.318 50.6754 247.947 50.8606L248.037 51.0394ZM249.012 50.78C249.405 50.78 249.74 50.9193 250.021 51.2007L250.163 51.0593C249.844 50.7407 249.459 50.58 249.012 50.58V50.78ZM250.021 51.2007C250.304 51.4832 250.442 51.8083 250.442 52.18H250.642C250.642 51.7517 250.48 51.3768 250.163 51.0593L250.021 51.2007ZM250.442 52.18C250.442 52.6801 250.185 53.1438 249.64 53.5714L249.764 53.7286C250.34 53.2762 250.642 52.7599 250.642 52.18H250.442ZM249.639 53.5727C249.091 54.0228 248.353 54.4079 247.42 54.7253L247.484 54.9147C248.432 54.5921 249.194 54.1972 249.766 53.7273L249.639 53.5727ZM247.42 54.7253C246.49 55.0419 245.551 55.2 244.602 55.2V55.4C245.574 55.4 246.534 55.2381 247.484 54.9147L247.42 54.7253ZM244.602 55.2C242.936 55.2 241.484 54.8531 240.241 54.1626L240.144 54.3374C241.421 55.0469 242.908 55.4 244.602 55.4V55.2ZM240.241 54.1629C239.017 53.4718 238.07 52.5249 237.4 51.3213L237.225 51.4187C237.914 52.6551 238.887 53.6282 240.143 54.3371L240.241 54.1629ZM237.4 51.3219C236.729 50.0979 236.392 48.7247 236.392 47.2H236.192C236.192 48.7553 236.536 50.1621 237.225 51.4181L237.4 51.3219ZM236.392 47.2C236.392 45.4943 236.749 44.0014 237.46 42.7184L237.285 42.6215C236.555 43.9386 236.192 45.4657 236.192 47.2H236.392ZM237.46 42.7184C238.172 41.4329 239.109 40.4567 240.272 39.7866L240.172 39.6134C238.975 40.3033 238.013 41.3071 237.285 42.6215L237.46 42.7184ZM240.273 39.786C241.438 39.0949 242.681 38.75 244.002 38.75V38.55C242.644 38.55 241.366 38.9051 240.171 39.614L240.273 39.786ZM244.002 38.75C245.303 38.75 246.525 39.1044 247.669 39.815L247.775 39.645C246.6 38.9156 245.341 38.55 244.002 38.55V38.75ZM247.67 39.8154C248.835 40.5264 249.764 41.4841 250.455 42.6898L250.629 42.5902C249.921 41.3559 248.969 40.3736 247.774 39.6446L247.67 39.8154ZM250.455 42.6898C251.147 43.8945 251.492 45.1973 251.492 46.6H251.692C251.692 45.1627 251.338 43.8255 250.629 42.5902L250.455 42.6898ZM244.002 41.85C242.827 41.85 241.88 42.1262 241.172 42.6892C240.464 43.2527 240.007 44.0941 239.794 45.2011L239.99 45.2389C240.197 44.1659 240.635 43.3723 241.297 42.8458C241.959 42.3188 242.857 42.05 244.002 42.05V41.85ZM239.892 45.32H247.752V45.12H239.892V45.32ZM247.852 45.22V45.01H247.652V45.22H247.852ZM247.852 45.0005C247.769 44.1303 247.343 43.3868 246.585 42.7723L246.459 42.9277C247.181 43.5132 247.576 44.2097 247.653 45.0195L247.852 45.0005ZM246.585 42.7723C245.828 42.1581 244.965 41.85 244.002 41.85V42.05C244.919 42.05 245.737 42.3419 246.459 42.9277L246.585 42.7723ZM274.883 34.93L274.827 35.0129L274.828 35.0138L274.883 34.93ZM277.103 37.39L277.015 37.4374L277.015 37.4381L277.103 37.39ZM277.103 44.11L277.191 44.1574L277.191 44.1574L277.103 44.11ZM274.883 46.6L274.937 46.6838L274.939 46.6829L274.883 46.6ZM266.753 47.5V47.4H266.653V47.5H266.753ZM263.783 54.49L263.708 54.5565L263.71 54.5585L263.783 54.49ZM263.813 34.54L263.742 34.4693L263.742 34.4693L263.813 34.54ZM273.083 43.6L273.018 43.5235L273.016 43.5253L273.083 43.6ZM273.983 42.37L273.892 42.3281L273.891 42.3297L273.983 42.37ZM273.983 39.16L273.891 39.199L273.893 39.2033L273.983 39.16ZM273.083 37.93L273.016 38.0049L273.021 38.0085L273.083 37.93ZM266.753 37.45V37.35H266.653V37.45H266.753ZM266.753 44.08H266.653V44.18H266.753V44.08ZM271.973 34.1C272.971 34.1 273.922 34.403 274.827 35.0129L274.939 34.8471C274.004 34.217 273.014 33.9 271.973 33.9V34.1ZM274.828 35.0138C275.733 35.6039 276.462 36.411 277.015 37.4374L277.191 37.3426C276.623 36.289 275.872 35.4561 274.937 34.8462L274.828 35.0138ZM277.015 37.4381C277.567 38.4427 277.843 39.546 277.843 40.75H278.043C278.043 39.514 277.759 38.3773 277.19 37.3419L277.015 37.4381ZM277.843 40.75C277.843 41.9337 277.567 43.0374 277.015 44.0626L277.191 44.1574C277.759 43.1026 278.043 41.9663 278.043 40.75H277.843ZM277.015 44.0626C276.462 45.0893 275.733 45.9067 274.827 46.5171L274.939 46.6829C275.873 46.0533 276.624 45.2107 277.191 44.1574L277.015 44.0626ZM274.828 46.5162C273.923 47.1065 272.972 47.4 271.973 47.4V47.6C273.014 47.6 274.002 47.2935 274.937 46.6838L274.828 46.5162ZM271.973 47.4H266.753V47.6H271.973V47.4ZM266.653 47.5V53.17H266.853V47.5H266.653ZM266.653 53.17C266.653 53.6888 266.5 54.1029 266.2 54.4215L266.346 54.5585C266.686 54.1971 266.853 53.7312 266.853 53.17H266.653ZM266.2 54.4215C265.901 54.739 265.509 54.9 265.013 54.9V55.1C265.557 55.1 266.004 54.921 266.346 54.5585L266.2 54.4215ZM265.013 54.9C264.538 54.9 264.155 54.7398 263.856 54.4215L263.71 54.5585C264.05 54.9202 264.487 55.1 265.013 55.1V54.9ZM263.857 54.4236C263.555 54.0834 263.403 53.6676 263.403 53.17H263.203C263.203 53.7124 263.37 54.1766 263.708 54.5564L263.857 54.4236ZM263.403 53.17V35.83H263.203V53.17H263.403ZM263.403 35.83C263.403 35.3341 263.564 34.9303 263.883 34.6107L263.742 34.4693C263.382 34.8297 263.203 35.2859 263.203 35.83H263.403ZM263.883 34.6107C264.224 34.2699 264.639 34.1 265.133 34.1V33.9C264.587 33.9 264.121 34.0901 263.742 34.4693L263.883 34.6107ZM265.133 34.1H271.973V33.9H265.133V34.1ZM271.973 44.18C272.383 44.18 272.776 44.0065 273.149 43.6747L273.016 43.5253C272.67 43.8335 272.322 43.98 271.973 43.98V44.18ZM273.147 43.6765C273.54 43.3457 273.849 42.9228 274.074 42.4103L273.891 42.3297C273.677 42.8172 273.386 43.2143 273.018 43.5235L273.147 43.6765ZM274.074 42.4119C274.319 41.8791 274.443 41.3248 274.443 40.75H274.243C274.243 41.2952 274.126 41.8209 273.892 42.3281L274.074 42.4119ZM274.443 40.75C274.443 40.1752 274.319 39.6304 274.073 39.1167L273.893 39.2033C274.126 39.6896 274.243 40.2048 274.243 40.75H274.443ZM274.075 39.121C273.849 38.5881 273.54 38.1636 273.145 37.8515L273.021 38.0085C273.386 38.2964 273.676 38.6919 273.891 39.199L274.075 39.121ZM273.149 37.8553C272.776 37.5235 272.383 37.35 271.973 37.35V37.55C272.322 37.55 272.67 37.6965 273.016 38.0047L273.149 37.8553ZM271.973 37.35H266.753V37.55H271.973V37.35ZM266.653 37.45V44.08H266.853V37.45H266.653ZM266.753 44.18H271.973V43.98H266.753V44.18ZM290.919 39.16L290.854 39.2362L290.856 39.2377L290.919 39.16ZM291.069 41.77L291.137 41.843L291.14 41.8407L291.069 41.77ZM288.909 42.01L288.943 41.9161L288.941 41.9151L288.909 42.01ZM288.489 41.89L288.46 41.9858L288.463 41.9865L288.489 41.89ZM286.329 42.28L286.384 42.3632L286.384 42.3632L286.329 42.28ZM285.129 43.75L285.039 43.7064L285.038 43.7076L285.129 43.75ZM284.169 54.49L284.24 54.5607L284.242 54.5587L284.169 54.49ZM281.589 54.49L281.516 54.5587L281.518 54.5607L281.589 54.49ZM281.589 39.49L281.66 39.5607L281.662 39.5587L281.589 39.49ZM284.169 39.49L284.096 39.5587L284.098 39.5607L284.169 39.49ZM284.679 41.17H284.579V41.5527L284.766 41.2189L284.679 41.17ZM286.659 39.31L286.703 39.3999L286.704 39.399L286.659 39.31ZM289.419 38.75C289.999 38.75 290.475 38.9137 290.854 39.2362L290.984 39.0838C290.563 38.7263 290.039 38.55 289.419 38.55V38.75ZM290.856 39.2377C291.257 39.5624 291.449 39.9356 291.449 40.36H291.649C291.649 39.8644 291.421 39.4376 290.982 39.0823L290.856 39.2377ZM291.449 40.36C291.449 40.9635 291.293 41.4041 290.998 41.6993L291.14 41.8407C291.484 41.4959 291.649 40.9965 291.649 40.36H291.449ZM291.001 41.697C290.699 41.9796 290.344 42.12 289.929 42.12V42.32C290.394 42.32 290.799 42.1604 291.137 41.843L291.001 41.697ZM289.929 42.12C289.644 42.12 289.316 42.0534 288.943 41.9162L288.874 42.1038C289.262 42.2466 289.614 42.32 289.929 42.32V42.12ZM288.941 41.9151C288.877 41.8941 288.734 41.8533 288.515 41.7935L288.463 41.9865C288.683 42.0467 288.82 42.0859 288.877 42.1049L288.941 41.9151ZM288.518 41.7942C288.307 41.731 288.077 41.7 287.829 41.7V41.9C288.061 41.9 288.271 41.929 288.46 41.9858L288.518 41.7942ZM287.829 41.7C287.287 41.7 286.768 41.8671 286.273 42.1968L286.384 42.3632C286.85 42.0529 287.331 41.9 287.829 41.9V41.7ZM286.273 42.1968C285.775 42.529 285.365 43.0346 285.039 43.7064L285.219 43.7936C285.533 43.1454 285.923 42.671 286.384 42.3632L286.273 42.1968ZM285.038 43.7076C284.731 44.364 284.579 45.1492 284.579 46.06H284.779C284.779 45.1708 284.927 44.416 285.219 43.7924L285.038 43.7076ZM284.579 46.06V53.17H284.779V46.06H284.579ZM284.579 53.17C284.579 53.6659 284.418 54.0809 284.096 54.4213L284.242 54.5587C284.6 54.1791 284.779 53.7141 284.779 53.17H284.579ZM284.098 54.4193C283.779 54.7389 283.375 54.9 282.879 54.9V55.1C283.423 55.1 283.879 54.9211 284.24 54.5607L284.098 54.4193ZM282.879 54.9C282.383 54.9 281.979 54.7389 281.66 54.4193L281.518 54.5607C281.879 54.9211 282.335 55.1 282.879 55.1V54.9ZM281.662 54.4213C281.34 54.0809 281.179 53.6659 281.179 53.17H280.979C280.979 53.7141 281.158 54.1791 281.516 54.5587L281.662 54.4213ZM281.179 53.17V40.78H280.979V53.17H281.179ZM281.179 40.78C281.179 40.2841 281.34 39.8803 281.66 39.5607L281.518 39.4193C281.158 39.7797 280.979 40.2359 280.979 40.78H281.179ZM281.662 39.5587C281.982 39.2198 282.385 39.05 282.879 39.05V38.85C282.333 38.85 281.876 39.0402 281.516 39.4213L281.662 39.5587ZM282.879 39.05C283.373 39.05 283.776 39.2198 284.096 39.5587L284.242 39.4213C283.882 39.0402 283.425 38.85 282.879 38.85V39.05ZM284.098 39.5607C284.418 39.8803 284.579 40.2841 284.579 40.78H284.779C284.779 40.2359 284.6 39.7797 284.24 39.4193L284.098 39.5607ZM284.579 40.78V41.17H284.779V40.78H284.579ZM284.766 41.2189C285.216 40.417 285.861 39.8111 286.703 39.3999L286.615 39.2201C285.737 39.6489 285.062 40.283 284.592 41.1211L284.766 41.2189ZM286.704 39.399C287.55 38.9663 288.455 38.75 289.419 38.75V38.55C288.423 38.55 287.488 38.7737 286.613 39.221L286.704 39.399ZM307.753 51.31L307.84 51.3596L307.84 51.359L307.753 51.31ZM304.783 54.25L304.734 54.1626L304.734 54.1629L304.783 54.25ZM296.533 54.25L296.582 54.1629L296.582 54.1629L296.533 54.25ZM293.593 51.31L293.506 51.359L293.506 51.3596L293.593 51.31ZM293.593 42.7L293.68 42.7496L293.68 42.749L293.593 42.7ZM296.533 39.73L296.582 39.8171L296.583 39.8165L296.533 39.73ZM304.783 39.73L304.733 39.8165L304.734 39.8174L304.783 39.73ZM307.753 42.7L307.666 42.749L307.666 42.7496L307.753 42.7ZM304.603 44.38L304.514 44.4257L304.515 44.4284L304.603 44.38ZM302.953 42.58L302.9 42.6651L302.901 42.6657L302.953 42.58ZM298.363 42.58L298.311 42.4942L298.31 42.4949L298.363 42.58ZM296.713 44.38L296.625 44.3326L296.624 44.3334L296.713 44.38ZM296.713 49.6L296.624 49.6466L296.625 49.6484L296.713 49.6ZM298.363 51.37L298.31 51.4551L298.311 51.4557L298.363 51.37ZM302.953 51.37L302.901 51.2842L302.9 51.2849L302.953 51.37ZM304.603 49.6L304.515 49.5516L304.514 49.5534L304.603 49.6ZM308.733 46.99C308.733 48.5744 308.377 49.9973 307.666 51.261L307.84 51.359C308.569 50.0627 308.933 48.6056 308.933 46.99H308.733ZM307.666 51.2604C306.955 52.5046 305.978 53.4715 304.734 54.1626L304.831 54.3374C306.108 53.6285 307.111 52.6354 307.84 51.3596L307.666 51.2604ZM304.734 54.1629C303.51 54.854 302.157 55.2 300.673 55.2V55.4C302.189 55.4 303.576 55.046 304.832 54.3371L304.734 54.1629ZM300.673 55.2C299.169 55.2 297.806 54.8539 296.582 54.1629L296.484 54.3371C297.74 55.0461 299.137 55.4 300.673 55.4V55.2ZM296.582 54.1629C295.358 53.472 294.391 52.505 293.68 51.2604L293.506 51.3596C294.235 52.635 295.228 53.628 296.484 54.3371L296.582 54.1629ZM293.68 51.261C292.969 49.9973 292.613 48.5744 292.613 46.99H292.413C292.413 48.6056 292.777 50.0627 293.506 51.359L293.68 51.261ZM292.613 46.99C292.613 45.4056 292.969 43.993 293.68 42.7496L293.506 42.6504C292.777 43.927 292.413 45.3744 292.413 46.99H292.613ZM293.68 42.749C294.391 41.4844 295.358 40.5078 296.582 39.8171L296.484 39.6429C295.227 40.3522 294.234 41.3556 293.506 42.651L293.68 42.749ZM296.583 39.8165C297.807 39.1059 299.169 38.75 300.673 38.75V38.55C299.136 38.55 297.739 38.9141 296.483 39.6435L296.583 39.8165ZM300.673 38.75C302.156 38.75 303.509 39.1058 304.733 39.8165L304.833 39.6435C303.577 38.9142 302.19 38.55 300.673 38.55V38.75ZM304.734 39.8174C305.978 40.5083 306.955 41.4848 307.666 42.749L307.84 42.651C307.111 41.3552 306.108 40.3517 304.831 39.6426L304.734 39.8174ZM307.666 42.7496C308.377 43.993 308.733 45.4056 308.733 46.99H308.933C308.933 45.3744 308.569 43.927 307.84 42.6504L307.666 42.7496ZM305.333 46.99C305.333 45.9953 305.12 45.1083 304.69 44.3316L304.515 44.4284C304.926 45.1717 305.133 46.0247 305.133 46.99H305.333ZM304.692 44.3344C304.284 43.539 303.722 42.9246 303.004 42.4942L302.901 42.6657C303.584 43.0754 304.122 43.661 304.514 44.4256L304.692 44.3344ZM303.005 42.4949C302.309 42.0647 301.53 41.85 300.673 41.85V42.05C301.495 42.05 302.237 42.2553 302.9 42.6651L303.005 42.4949ZM300.673 41.85C299.815 41.85 299.027 42.0646 298.311 42.4942L298.414 42.6657C299.098 42.2554 299.85 42.05 300.673 42.05V41.85ZM298.31 42.4949C297.614 42.9251 297.052 43.5389 296.625 44.3326L296.801 44.4274C297.214 43.6611 297.752 43.0749 298.415 42.6651L298.31 42.4949ZM296.624 44.3334C296.216 45.1097 296.013 45.9961 296.013 46.99H296.213C296.213 46.0239 296.41 45.1703 296.801 44.4266L296.624 44.3334ZM296.013 46.99C296.013 47.9839 296.216 48.8703 296.624 49.6466L296.801 49.5534C296.41 48.8097 296.213 47.9561 296.213 46.99H296.013ZM296.625 49.6484C297.053 50.4221 297.614 51.0253 298.31 51.4551L298.415 51.2849C297.751 50.8747 297.213 50.2979 296.8 49.5516L296.625 49.6484ZM298.311 51.4557C299.027 51.8854 299.815 52.1 300.673 52.1V51.9C299.85 51.9 299.098 51.6946 298.414 51.2843L298.311 51.4557ZM300.673 52.1C301.53 52.1 302.309 51.8853 303.005 51.4551L302.9 51.2849C302.237 51.6947 301.495 51.9 300.673 51.9V52.1ZM303.004 51.4557C303.721 51.0258 304.283 50.4219 304.691 49.6466L304.514 49.5534C304.122 50.2981 303.585 50.8742 302.901 51.2843L303.004 51.4557ZM304.69 49.6484C305.12 48.8717 305.333 47.9847 305.333 46.99H305.133C305.133 47.9553 304.926 48.8083 304.515 49.5516L304.69 49.6484ZM326.121 33.31L326.191 33.2393L326.121 33.31ZM326.121 54.49L326.191 54.5607L326.193 54.5587L326.121 54.49ZM323.541 54.49L323.468 54.5586L323.47 54.5607L323.541 54.49ZM323.031 53.2L323.131 53.1962L323.121 52.9423L322.955 53.1347L323.031 53.2ZM320.991 54.7L321.034 54.7903L321.035 54.7899L320.991 54.7ZM314.571 54.25L314.517 54.3341L314.518 54.3348L314.571 54.25ZM311.901 51.28L311.811 51.3253L311.812 51.3264L311.901 51.28ZM311.901 42.7L311.99 42.7453L311.99 42.7447L311.901 42.7ZM314.511 39.73L314.564 39.8144L314.565 39.8141L314.511 39.73ZM320.901 39.19L320.861 39.2819L320.863 39.2827L320.901 39.19ZM323.031 40.51L322.962 40.5832L323.131 40.7397V40.51H323.031ZM323.541 33.34L323.611 33.4107L323.613 33.4087L323.541 33.34ZM321.951 50.59L322.026 50.6557L322.027 50.6549L321.951 50.59ZM321.951 43.39L321.875 43.4549L321.875 43.4549L321.951 43.39ZM315.621 43.39L315.697 43.4549L315.697 43.4549L315.621 43.39ZM315.591 50.59L315.514 50.654L315.515 50.6557L315.591 50.59ZM324.831 32.9C325.326 32.9 325.73 33.0611 326.05 33.3807L326.191 33.2393C325.831 32.8789 325.375 32.7 324.831 32.7V32.9ZM326.05 33.3807C326.369 33.6996 326.531 34.113 326.531 34.63H326.731C326.731 34.067 326.552 33.6004 326.191 33.2393L326.05 33.3807ZM326.531 34.63V53.17H326.731V34.63H326.531ZM326.531 53.17C326.531 53.6659 326.369 54.0809 326.048 54.4213L326.193 54.5587C326.552 54.1791 326.731 53.7141 326.731 53.17H326.531ZM326.05 54.4193C325.73 54.7389 325.326 54.9 324.831 54.9V55.1C325.375 55.1 325.831 54.9211 326.191 54.5607L326.05 54.4193ZM324.831 54.9C324.335 54.9 323.931 54.7389 323.611 54.4193L323.47 54.5607C323.83 54.9211 324.286 55.1 324.831 55.1V54.9ZM323.613 54.4215C323.312 54.1011 323.15 53.695 323.131 53.1962L322.931 53.2038C322.952 53.745 323.129 54.1989 323.468 54.5585L323.613 54.4215ZM322.955 53.1347C322.466 53.7022 321.798 54.1947 320.947 54.6101L321.035 54.7899C321.904 54.3653 322.596 53.8578 323.106 53.2653L322.955 53.1347ZM320.948 54.6097C320.121 55.0033 319.246 55.2 318.321 55.2V55.4C319.275 55.4 320.18 55.1967 321.034 54.7903L320.948 54.6097ZM318.321 55.2C316.958 55.2 315.727 54.8548 314.624 54.1652L314.518 54.3348C315.654 55.0452 316.923 55.4 318.321 55.4V55.2ZM314.625 54.1659C313.52 53.4559 312.642 52.4793 311.989 51.2336L311.812 51.3264C312.48 52.6007 313.381 53.6041 314.517 54.3341L314.625 54.1659ZM311.99 51.2347C311.358 49.9905 311.041 48.5764 311.041 46.99H310.841C310.841 48.6036 311.163 50.0495 311.811 51.3253L311.99 51.2347ZM311.041 46.99C311.041 45.4036 311.358 43.9895 311.99 42.7453L311.811 42.6547C311.163 43.9305 310.841 45.3764 310.841 46.99H311.041ZM311.99 42.7447C312.623 41.4793 313.481 40.5037 314.564 39.8144L314.457 39.6456C313.34 40.3563 312.458 41.3607 311.811 42.6553L311.99 42.7447ZM314.565 39.8141C315.668 39.1046 316.88 38.75 318.201 38.75V38.55C316.842 38.55 315.593 38.9154 314.457 39.6459L314.565 39.8141ZM318.201 38.75C319.148 38.75 320.034 38.9275 320.861 39.2819L320.94 39.0981C320.087 38.7325 319.173 38.55 318.201 38.55V38.75ZM320.863 39.2827C321.693 39.6188 322.393 40.0526 322.962 40.5832L323.099 40.4368C322.509 39.8874 321.788 39.4412 320.938 39.0973L320.863 39.2827ZM323.131 40.51V34.63H322.931V40.51H323.131ZM323.131 34.63C323.131 34.1341 323.292 33.7303 323.611 33.4107L323.47 33.2693C323.11 33.6297 322.931 34.0859 322.931 34.63H323.131ZM323.613 33.4087C323.933 33.0698 324.337 32.9 324.831 32.9V32.7C324.285 32.7 323.828 32.8902 323.468 33.2713L323.613 33.4087ZM318.771 52.1C320.098 52.1 321.186 51.6185 322.026 50.6557L321.875 50.5243C321.075 51.4415 320.043 51.9 318.771 51.9V52.1ZM322.027 50.6549C322.864 49.6743 323.281 48.4503 323.281 46.99H323.081C323.081 48.4097 322.677 49.5857 321.875 50.5251L322.027 50.6549ZM323.281 46.99C323.281 45.5297 322.864 44.3057 322.027 43.3251L321.875 43.4549C322.677 44.3943 323.081 45.5703 323.081 46.99H323.281ZM322.027 43.3251C321.187 42.3421 320.099 41.85 318.771 41.85V42.05C320.042 42.05 321.074 42.5179 321.875 43.4549L322.027 43.3251ZM318.771 41.85C317.462 41.85 316.384 42.3425 315.545 43.3251L315.697 43.4549C316.497 42.5175 317.519 42.05 318.771 42.05V41.85ZM315.545 43.3251C314.707 44.3057 314.291 45.5297 314.291 46.99H314.491C314.491 45.5703 314.894 44.3943 315.697 43.4549L315.545 43.3251ZM314.291 46.99C314.291 48.4496 314.697 49.6734 315.514 50.654L315.667 50.526C314.885 49.5866 314.491 48.4104 314.491 46.99H314.291ZM315.515 50.6557C316.355 51.6185 317.443 52.1 318.771 52.1V51.9C317.498 51.9 316.466 51.4415 315.666 50.5243L315.515 50.6557ZM344.201 39.49L344.128 39.5587L344.13 39.5607L344.201 39.49ZM342.911 53.47L342.839 53.3999L342.839 53.4005L342.911 53.47ZM332.771 53.47L332.699 53.5395L332.699 53.5395L332.771 53.47ZM331.511 39.49L331.582 39.5607L331.583 39.5587L331.511 39.49ZM334.091 39.49L334.018 39.5587L334.02 39.5607L334.091 39.49ZM335.411 51.13L335.336 51.1969L335.338 51.1981L335.411 51.13ZM340.301 51.13L340.374 51.1982L340.375 51.1969L340.301 51.13ZM341.621 39.49L341.692 39.5607L341.693 39.5587L341.621 39.49ZM342.911 39.05C343.405 39.05 343.808 39.2198 344.128 39.5587L344.273 39.4213C343.914 39.0402 343.457 38.85 342.911 38.85V39.05ZM344.13 39.5607C344.45 39.8803 344.611 40.2841 344.611 40.78H344.811C344.811 40.2359 344.632 39.7797 344.271 39.4193L344.13 39.5607ZM344.611 40.78V48.4H344.811V40.78H344.611ZM344.611 48.4C344.611 50.541 344.017 52.2032 342.839 53.3999L342.982 53.5401C344.205 52.2968 344.811 50.579 344.811 48.4H344.611ZM342.839 53.4005C341.683 54.5957 340.022 55.2 337.841 55.2V55.4C340.059 55.4 341.779 54.7843 342.983 53.5395L342.839 53.4005ZM337.841 55.2C335.659 55.2 333.999 54.5957 332.843 53.4005L332.699 53.5395C333.903 54.7843 335.622 55.4 337.841 55.4V55.2ZM332.843 53.4005C331.685 52.2038 331.101 50.5414 331.101 48.4H330.901C330.901 50.5786 331.496 52.2962 332.699 53.5395L332.843 53.4005ZM331.101 48.4V40.78H330.901V48.4H331.101ZM331.101 40.78C331.101 40.2841 331.262 39.8803 331.581 39.5607L331.44 39.4193C331.08 39.7797 330.901 40.2359 330.901 40.78H331.101ZM331.583 39.5587C331.904 39.2198 332.307 39.05 332.801 39.05V38.85C332.255 38.85 331.798 39.0402 331.438 39.4213L331.583 39.5587ZM332.801 39.05C333.295 39.05 333.698 39.2198 334.018 39.5587L334.163 39.4213C333.804 39.0402 333.347 38.85 332.801 38.85V39.05ZM334.02 39.5607C334.34 39.8803 334.501 40.2841 334.501 40.78H334.701C334.701 40.2359 334.522 39.7797 334.161 39.4193L334.02 39.5607ZM334.501 40.78V48.4H334.701V40.78H334.501ZM334.501 48.4C334.501 49.6324 334.773 50.5711 335.336 51.1969L335.485 51.0631C334.968 50.4889 334.701 49.6076 334.701 48.4H334.501ZM335.338 51.1981C335.903 51.805 336.743 52.1 337.841 52.1V51.9C336.778 51.9 335.999 51.615 335.484 51.0619L335.338 51.1981ZM337.841 52.1C338.957 52.1 339.809 51.8054 340.374 51.1981L340.228 51.0619C339.713 51.6146 338.924 51.9 337.841 51.9V52.1ZM340.375 51.1969C340.938 50.5711 341.211 49.6324 341.211 48.4H341.011C341.011 49.6076 340.743 50.4889 340.226 51.0631L340.375 51.1969ZM341.211 48.4V40.78H341.011V48.4H341.211ZM341.211 40.78C341.211 40.2841 341.372 39.8803 341.691 39.5607L341.55 39.4193C341.19 39.7797 341.011 40.2359 341.011 40.78H341.211ZM341.693 39.5587C342.014 39.2198 342.417 39.05 342.911 39.05V38.85C342.365 38.85 341.908 39.0402 341.548 39.4213L341.693 39.5587ZM359.708 39.46L359.662 39.5488L359.663 39.5494L359.708 39.46ZM360.878 42.73L360.956 42.7931L360.958 42.7907L360.878 42.73ZM359.078 43.09L359.033 43.1798L359.041 43.1828L359.078 43.09ZM358.478 42.73L358.411 42.8052L358.421 42.8119L358.478 42.73ZM357.938 42.34L357.987 42.2525L357.983 42.2506L357.938 42.34ZM357.038 42.07L357.018 42.1679L357.019 42.1681L357.038 42.07ZM352.568 43.36L352.494 43.2925L352.494 43.2926L352.568 43.36ZM352.598 50.59L352.524 50.6567L352.524 50.6575L352.598 50.59ZM358.088 51.64L358.043 51.5506L358.043 51.5506L358.088 51.64ZM358.568 51.34L358.626 51.4219L358.627 51.4209L358.568 51.34ZM359.168 50.98L359.209 51.0714L359.209 51.0714L359.168 50.98ZM360.998 51.34L360.923 51.4059L360.925 51.4084L360.998 51.34ZM360.608 53.92L360.668 54L360.668 54L360.608 53.92ZM358.388 54.94L358.413 55.0368L358.415 55.0362L358.388 54.94ZM351.368 54.22L351.315 54.305L351.316 54.3054L351.368 54.22ZM348.668 51.25L348.579 51.2947L348.579 51.2953L348.668 51.25ZM348.698 42.67L348.61 42.6225L348.61 42.6236L348.698 42.67ZM351.518 39.73L351.569 39.8164L351.57 39.8157L351.518 39.73ZM355.598 38.75C357.289 38.75 358.641 39.0187 359.662 39.5487L359.754 39.3713C358.695 38.8213 357.308 38.55 355.598 38.55V38.75ZM359.663 39.5494C360.682 40.0589 361.168 40.7303 361.168 41.56H361.368C361.368 40.6297 360.814 39.9011 359.753 39.3706L359.663 39.5494ZM361.168 41.56C361.168 41.9787 361.045 42.3472 360.799 42.6693L360.958 42.7907C361.231 42.4328 361.368 42.0213 361.368 41.56H361.168ZM360.801 42.6669C360.56 42.9631 360.249 43.11 359.858 43.11V43.31C360.308 43.31 360.676 43.1369 360.956 42.7931L360.801 42.6669ZM359.858 43.11C359.545 43.11 359.299 43.0707 359.115 42.9972L359.041 43.1828C359.257 43.2693 359.531 43.31 359.858 43.31V43.11ZM359.123 43.0006C358.928 42.9029 358.732 42.7855 358.536 42.6481L358.421 42.8119C358.625 42.9545 358.829 43.0771 359.033 43.1794L359.123 43.0006ZM358.545 42.6553C358.36 42.4912 358.174 42.3567 357.987 42.2526L357.89 42.4274C358.062 42.5233 358.236 42.6488 358.412 42.8047L358.545 42.6553ZM357.983 42.2506C357.771 42.1446 357.461 42.0525 357.058 41.9719L357.019 42.1681C357.416 42.2475 357.705 42.3354 357.893 42.4294L357.983 42.2506ZM357.059 41.9721C356.676 41.8915 356.358 41.85 356.108 41.85V42.05C356.338 42.05 356.641 42.0885 357.018 42.1679L357.059 41.9721ZM356.108 41.85C354.586 41.85 353.377 42.3281 352.494 43.2925L352.642 43.4275C353.48 42.5119 354.631 42.05 356.108 42.05V41.85ZM352.494 43.2926C351.634 44.2346 351.208 45.4704 351.208 46.99H351.408C351.408 45.5096 351.822 44.3254 352.642 43.4274L352.494 43.2926ZM351.208 46.99C351.208 48.4515 351.645 49.6762 352.524 50.6567L352.673 50.5233C351.831 49.5838 351.408 48.4085 351.408 46.99H351.208ZM352.524 50.6575C353.404 51.6194 354.532 52.1 355.898 52.1V51.9C354.585 51.9 353.512 51.4406 352.672 50.5225L352.524 50.6575ZM355.898 52.1C356.883 52.1 357.632 51.98 358.133 51.7294L358.043 51.5506C357.585 51.78 356.873 51.9 355.898 51.9V52.1ZM358.133 51.7294C358.26 51.6662 358.424 51.5629 358.626 51.4219L358.511 51.2581C358.312 51.3971 358.157 51.4938 358.043 51.5506L358.133 51.7294ZM358.627 51.4209C358.843 51.2636 359.037 51.1477 359.209 51.0714L359.128 50.8886C358.939 50.9723 358.733 51.0964 358.509 51.2591L358.627 51.4209ZM359.209 51.0714C359.373 50.9986 359.578 50.96 359.828 50.96V50.76C359.558 50.76 359.324 50.8014 359.128 50.8886L359.209 51.0714ZM359.828 50.96C360.305 50.96 360.665 51.1114 360.923 51.4059L361.073 51.2741C360.771 50.9286 360.351 50.76 359.828 50.76V50.96ZM360.925 51.4084C361.205 51.7072 361.348 52.0916 361.348 52.57H361.548C361.548 52.0484 361.391 51.6128 361.071 51.2716L360.925 51.4084ZM361.348 52.57C361.348 53.006 361.095 53.4298 360.548 53.84L360.668 54C361.241 53.5702 361.548 53.094 361.548 52.57H361.348ZM360.548 53.84C360.001 54.2505 359.273 54.586 358.361 54.8438L358.415 55.0362C359.343 54.774 360.095 54.4295 360.668 54L360.548 53.84ZM358.363 54.8432C357.452 55.0809 356.48 55.2 355.448 55.2V55.4C356.496 55.4 357.484 55.2791 358.413 55.0368L358.363 54.8432ZM355.448 55.2C353.924 55.2 352.583 54.844 351.42 54.1346L351.316 54.3054C352.514 55.036 353.892 55.4 355.448 55.4V55.2ZM351.421 54.135C350.277 53.425 349.389 52.449 348.757 51.2047L348.579 51.2953C349.227 52.571 350.139 53.575 351.315 54.305L351.421 54.135ZM348.758 51.2053C348.125 49.9404 347.808 48.5359 347.808 46.99H347.608C347.608 48.5641 347.931 49.9996 348.579 51.2947L348.758 51.2053ZM347.808 46.99C347.808 45.3839 348.135 43.9602 348.787 42.7164L348.61 42.6236C347.941 43.8998 347.608 45.3561 347.608 46.99H347.808ZM348.786 42.7175C349.458 41.4731 350.385 40.5068 351.569 39.8164L351.468 39.6436C350.251 40.3532 349.299 41.3469 348.61 42.6225L348.786 42.7175ZM351.57 39.8157C352.753 39.1059 354.095 38.75 355.598 38.75V38.55C354.062 38.55 352.684 38.9141 351.467 39.6443L351.57 39.8157ZM372.538 52.03L372.459 52.092L372.464 52.0978L372.538 52.03ZM371.998 54.46L372.05 54.545L372.051 54.5445L371.998 54.46ZM366.868 54.22L366.814 54.3041L366.816 54.3056L366.868 54.22ZM365.608 42.55H365.708V42.45H365.608V42.55ZM363.028 39.73L363.096 39.803L363.098 39.8007L363.028 39.73ZM365.608 39.25V39.35H365.708V39.25H365.608ZM366.118 36.04L366.047 35.9693L366.047 35.9693L366.118 36.04ZM368.698 36.04L368.625 36.1087L368.627 36.1107L368.698 36.04ZM369.208 39.25H369.108V39.35H369.208V39.25ZM372.538 39.73L372.467 39.8007L372.467 39.8007L372.538 39.73ZM372.538 42.1L372.606 42.173L372.608 42.1707L372.538 42.1ZM369.208 42.55V42.45H369.108V42.55H369.208ZM369.538 51.61L369.47 51.6841L369.474 51.6874L369.538 51.61ZM371.098 51.76L371.125 51.8568L371.136 51.8523L371.098 51.76ZM371.788 51.71C372.029 51.71 372.252 51.8287 372.459 52.0918L372.616 51.9682C372.383 51.6713 372.106 51.51 371.788 51.51V51.71ZM372.464 52.0978C372.683 52.3351 372.798 52.6587 372.798 53.08H372.998C372.998 52.6213 372.872 52.2449 372.611 51.9622L372.464 52.0978ZM372.798 53.08C372.798 53.5751 372.525 54.0074 371.944 54.3755L372.051 54.5445C372.67 54.1526 372.998 53.6649 372.998 53.08H372.798ZM371.945 54.375C371.382 54.7244 370.741 54.9 370.018 54.9V55.1C370.775 55.1 371.453 54.9156 372.05 54.545L371.945 54.375ZM370.018 54.9C368.792 54.9 367.761 54.643 366.919 54.1344L366.816 54.3056C367.695 54.837 368.764 55.1 370.018 55.1V54.9ZM366.922 54.1359C366.126 53.6245 365.708 52.5406 365.708 50.83H365.508C365.508 52.5594 365.929 53.7355 366.814 54.3041L366.922 54.1359ZM365.708 50.83V42.55H365.508V50.83H365.708ZM365.608 42.45H364.228V42.65H365.608V42.45ZM364.228 42.45C363.772 42.45 363.398 42.2993 363.098 41.9993L362.957 42.1407C363.297 42.4807 363.723 42.65 364.228 42.65V42.45ZM363.098 41.9993C362.798 41.6993 362.648 41.3253 362.648 40.87H362.448C362.448 41.3747 362.617 41.8007 362.957 42.1407L363.098 41.9993ZM362.648 40.87C362.648 40.4361 362.797 40.083 363.096 39.803L362.959 39.657C362.618 39.977 362.448 40.3839 362.448 40.87H362.648ZM363.098 39.8007C363.398 39.5007 363.772 39.35 364.228 39.35V39.15C363.723 39.15 363.297 39.3193 362.957 39.6593L363.098 39.8007ZM364.228 39.35H365.608V39.15H364.228V39.35ZM365.708 39.25V37.33H365.508V39.25H365.708ZM365.708 37.33C365.708 36.8341 365.869 36.4303 366.188 36.1107L366.047 35.9693C365.687 36.3297 365.508 36.7859 365.508 37.33H365.708ZM366.188 36.1107C366.529 35.7699 366.944 35.6 367.438 35.6V35.4C366.892 35.4 366.426 35.5901 366.047 35.9693L366.188 36.1107ZM367.438 35.6C367.91 35.6 368.304 35.7689 368.625 36.1087L368.77 35.9713C368.411 35.5911 367.965 35.4 367.438 35.4V35.6ZM368.627 36.1107C368.947 36.4303 369.108 36.8341 369.108 37.33H369.308C369.308 36.7859 369.129 36.3297 368.768 35.9693L368.627 36.1107ZM369.108 37.33V39.25H369.308V37.33H369.108ZM369.208 39.35H371.338V39.15H369.208V39.35ZM371.338 39.35C371.793 39.35 372.167 39.5007 372.467 39.8007L372.608 39.6593C372.268 39.3193 371.842 39.15 371.338 39.15V39.35ZM372.467 39.8007C372.767 40.1007 372.918 40.4747 372.918 40.93H373.118C373.118 40.4253 372.948 39.9993 372.608 39.6593L372.467 39.8007ZM372.918 40.93C372.918 41.364 372.768 41.7284 372.467 42.0293L372.608 42.1707C372.947 41.8316 373.118 41.416 373.118 40.93H372.918ZM372.469 42.027C372.17 42.308 371.795 42.45 371.338 42.45V42.65C371.84 42.65 372.266 42.492 372.606 42.173L372.469 42.027ZM371.338 42.45H369.208V42.65H371.338V42.45ZM369.108 42.55V50.68H369.308V42.55H369.108ZM369.108 50.68C369.108 51.1162 369.222 51.4583 369.47 51.684L369.605 51.536C369.413 51.3617 369.308 51.0838 369.308 50.68H369.108ZM369.474 51.6874C369.717 51.8863 370.042 51.98 370.438 51.98V51.78C370.073 51.78 369.798 51.6937 369.601 51.5326L369.474 51.6874ZM370.438 51.98C370.612 51.98 370.842 51.937 371.125 51.8562L371.07 51.6638C370.793 51.743 370.584 51.78 370.438 51.78V51.98ZM371.136 51.8523C371.366 51.7565 371.583 51.71 371.788 51.71V51.51C371.552 51.51 371.309 51.5635 371.059 51.6677L371.136 51.8523ZM379.203 54.49L379.274 54.5607L379.276 54.5587L379.203 54.49ZM376.623 54.49L376.55 54.5587L376.552 54.5607L376.623 54.49ZM376.623 39.49L376.694 39.5607L376.696 39.5587L376.623 39.49ZM379.203 39.49L379.13 39.5587L379.132 39.5607L379.203 39.49ZM376.443 36.67L376.381 36.7486L376.381 36.7486L376.443 36.67ZM376.473 33.76L376.532 33.8406L376.532 33.8406L376.473 33.76ZM379.383 33.76L379.321 33.8386L379.321 33.8386L379.383 33.76ZM379.353 36.7L379.411 36.7814L379.412 36.7806L379.353 36.7ZM379.613 53.17C379.613 53.6659 379.452 54.0809 379.13 54.4213L379.276 54.5587C379.634 54.1791 379.813 53.7141 379.813 53.17H379.613ZM379.132 54.4193C378.813 54.7389 378.409 54.9 377.913 54.9V55.1C378.457 55.1 378.913 54.9211 379.274 54.5607L379.132 54.4193ZM377.913 54.9C377.417 54.9 377.013 54.7389 376.694 54.4193L376.552 54.5607C376.913 54.9211 377.369 55.1 377.913 55.1V54.9ZM376.696 54.4213C376.374 54.0809 376.213 53.6659 376.213 53.17H376.013C376.013 53.7141 376.192 54.1791 376.55 54.5587L376.696 54.4213ZM376.213 53.17V40.78H376.013V53.17H376.213ZM376.213 40.78C376.213 40.2841 376.374 39.8803 376.694 39.5607L376.552 39.4193C376.192 39.7797 376.013 40.2359 376.013 40.78H376.213ZM376.696 39.5587C377.016 39.2198 377.419 39.05 377.913 39.05V38.85C377.367 38.85 376.91 39.0402 376.55 39.4213L376.696 39.5587ZM377.913 39.05C378.407 39.05 378.81 39.2198 379.13 39.5587L379.276 39.4213C378.916 39.0402 378.459 38.85 377.913 38.85V39.05ZM379.132 39.5607C379.452 39.8803 379.613 40.2841 379.613 40.78H379.813C379.813 40.2359 379.634 39.7797 379.274 39.4193L379.132 39.5607ZM379.613 40.78V53.17H379.813V40.78H379.613ZM377.883 36.9C377.208 36.9 376.757 36.7896 376.505 36.5914L376.381 36.7486C376.689 36.9904 377.198 37.1 377.883 37.1V36.9ZM376.505 36.5914C376.26 36.3991 376.123 36.047 376.123 35.5H375.923C375.923 36.073 376.066 36.5009 376.381 36.7486L376.505 36.5914ZM376.123 35.5V34.93H375.923V35.5H376.123ZM376.123 34.93C376.123 34.3851 376.269 34.0337 376.532 33.8406L376.414 33.6794C376.077 33.9263 375.923 34.3549 375.923 34.93H376.123ZM376.532 33.8406C376.806 33.6397 377.26 33.53 377.913 33.53V33.33C377.246 33.33 376.74 33.4403 376.414 33.6794L376.532 33.8406ZM377.913 33.53C378.609 33.53 379.069 33.6406 379.321 33.8386L379.445 33.6814C379.137 33.4394 378.617 33.33 377.913 33.33V33.53ZM379.321 33.8386C379.566 34.0309 379.703 34.383 379.703 34.93H379.903C379.903 34.357 379.76 33.9291 379.445 33.6814L379.321 33.8386ZM379.703 34.93V35.5H379.903V34.93H379.703ZM379.703 35.5C379.703 36.0664 379.556 36.4269 379.294 36.6194L379.412 36.7806C379.75 36.5331 379.903 36.0936 379.903 35.5H379.703ZM379.295 36.6186C379.042 36.7992 378.58 36.9 377.883 36.9V37.1C378.586 37.1 379.104 37.0008 379.411 36.7814L379.295 36.6186ZM395.743 38.98L395.737 39.08H395.743V38.98ZM396.943 39.46L396.872 39.5307L396.874 39.533L396.943 39.46ZM397.183 41.5L397.274 41.5413L397.274 41.5406L397.183 41.5ZM391.573 53.86L391.482 53.8186L391.48 53.8219L391.573 53.86ZM390.943 54.67L390.885 54.5886L390.882 54.5907L390.943 54.67ZM390.043 55L390.037 54.9L390.032 54.9006L390.043 55ZM389.773 55.03V55.1306L389.784 55.1294L389.773 55.03ZM388.813 54.73L388.751 54.8089L388.757 54.8132L388.813 54.73ZM388.153 53.86L388.244 53.8194L388.244 53.8189L388.153 53.86ZM382.573 41.5L382.481 41.5401L382.482 41.5411L382.573 41.5ZM382.873 39.46L382.941 39.5329L382.944 39.5307L382.873 39.46ZM385.183 39.25L385.236 39.1652L385.236 39.1652L385.183 39.25ZM385.903 40.09L385.995 40.05L385.994 40.0494L385.903 40.09ZM390.043 49.57L389.951 49.61L390.043 49.8203L390.135 49.6099L390.043 49.57ZM394.153 40.12L394.245 40.1599L394.245 40.1588L394.153 40.12ZM395.743 39.08C396.198 39.08 396.572 39.2307 396.872 39.5307L397.014 39.3893C396.674 39.0493 396.248 38.88 395.743 38.88V39.08ZM396.874 39.533C397.173 39.813 397.323 40.1661 397.323 40.6H397.523C397.523 40.1139 397.353 39.707 397.011 39.387L396.874 39.533ZM397.323 40.6C397.323 40.8198 397.249 41.105 397.092 41.4594L397.274 41.5406C397.437 41.175 397.523 40.8602 397.523 40.6H397.323ZM397.092 41.4587L391.482 53.8187L391.664 53.9013L397.274 41.5413L397.092 41.4587ZM391.48 53.8219C391.347 54.1458 391.148 54.4003 390.885 54.5886L391.001 54.7514C391.297 54.5397 391.519 54.2542 391.665 53.8981L391.48 53.8219ZM390.882 54.5907C390.638 54.778 390.358 54.8813 390.037 54.9002L390.049 55.0998C390.408 55.0787 390.727 54.962 391.004 54.7493L390.882 54.5907ZM390.032 54.9006L389.762 54.9306L389.784 55.1294L390.054 55.0994L390.032 54.9006ZM389.773 54.93C389.454 54.93 389.153 54.8365 388.868 54.6468L388.757 54.8132C389.073 55.0235 389.412 55.13 389.773 55.13V54.93ZM388.875 54.6514C388.609 54.4425 388.398 54.1661 388.244 53.8194L388.062 53.9006C388.227 54.2739 388.457 54.5775 388.751 54.8086L388.875 54.6514ZM388.244 53.8189L382.664 41.4589L382.482 41.5411L388.062 53.9011L388.244 53.8189ZM382.665 41.4599C382.53 41.1514 382.463 40.845 382.463 40.54H382.263C382.263 40.875 382.336 41.2086 382.481 41.5401L382.665 41.4599ZM382.463 40.54C382.463 40.1722 382.618 39.8374 382.941 39.5328L382.804 39.3872C382.448 39.7226 382.263 40.1078 382.263 40.54H382.463ZM382.944 39.5307C383.264 39.2103 383.658 39.05 384.133 39.05V38.85C383.608 38.85 383.162 39.0297 382.802 39.3893L382.944 39.5307ZM384.133 39.05C384.494 39.05 384.826 39.1448 385.13 39.3348L385.236 39.1652C384.9 38.9552 384.531 38.85 384.133 38.85V39.05ZM385.13 39.3348C385.432 39.5237 385.659 39.788 385.812 40.1306L385.994 40.0494C385.827 39.672 385.574 39.3763 385.236 39.1652L385.13 39.3348ZM385.811 40.13L389.951 49.61L390.135 49.53L385.995 40.05L385.811 40.13ZM390.135 49.6099L394.245 40.1599L394.061 40.0801L389.951 49.5301L390.135 49.6099ZM394.245 40.1588C394.399 39.7925 394.609 39.5186 394.871 39.3314L394.755 39.1686C394.457 39.3814 394.226 39.6875 394.061 40.0812L394.245 40.1588ZM394.871 39.3314C395.133 39.1445 395.42 39.0612 395.737 39.0798L395.749 38.8802C395.386 38.8588 395.053 38.9555 394.755 39.1686L394.871 39.3314ZM414.512 46.6L414.612 46.6042V46.6H414.512ZM413.942 47.77L413.878 47.6932L413.942 47.77ZM402.782 48.22V48.12H402.66L402.684 48.2399L402.782 48.22ZM404.432 51.01L404.37 51.0884L404.371 51.0893L404.432 51.01ZM409.262 51.79L409.291 51.8857L409.295 51.8844L409.262 51.79ZM410.342 51.31L410.395 51.3952L410.396 51.3941L410.342 51.31ZM410.912 50.95L410.867 50.8603L410.861 50.8643L410.912 50.95ZM413.012 51.13L412.941 51.2007L413.012 51.13ZM412.622 53.65L412.56 53.5713L412.559 53.5727L412.622 53.65ZM410.372 54.82L410.34 54.7253L410.34 54.7253L410.372 54.82ZM403.112 54.25L403.063 54.3371L403.064 54.3374L403.112 54.25ZM400.232 51.37L400.144 51.4181L400.145 51.4187L400.232 51.37ZM400.292 42.67L400.205 42.6215L400.205 42.6215L400.292 42.67ZM403.142 39.7L403.192 39.7866L403.193 39.786L403.142 39.7ZM410.642 39.73L410.589 39.815L410.59 39.8154L410.642 39.73ZM413.462 42.64L413.549 42.5902L413.549 42.5902L413.462 42.64ZM402.812 45.22L402.714 45.2011L402.691 45.32H402.812V45.22ZM410.672 45.22V45.32H410.772V45.22H410.672ZM410.672 45.01H410.773L410.772 45.0005L410.672 45.01ZM414.412 46.5958C414.393 47.0484 414.216 47.4118 413.878 47.6932L414.006 47.8468C414.388 47.5282 414.591 47.1116 414.612 46.6042L414.412 46.5958ZM413.878 47.6932C413.537 47.9778 413.139 48.12 412.682 48.12V48.32C413.185 48.32 413.628 48.1622 414.006 47.8468L413.878 47.6932ZM412.682 48.12H402.782V48.32H412.682V48.12ZM402.684 48.2399C402.928 49.4406 403.49 50.3923 404.37 51.0884L404.494 50.9316C403.655 50.2677 403.116 49.3594 402.88 48.2001L402.684 48.2399ZM404.371 51.0893C405.249 51.7627 406.24 52.1 407.342 52.1V51.9C406.284 51.9 405.336 51.5773 404.493 50.9307L404.371 51.0893ZM407.342 52.1C408.166 52.1 408.817 52.0299 409.291 51.8857L409.233 51.6943C408.787 51.8301 408.158 51.9 407.342 51.9V52.1ZM409.295 51.8844C409.758 51.7233 410.126 51.5605 410.395 51.3952L410.29 51.2248C410.038 51.3795 409.686 51.5367 409.229 51.6956L409.295 51.8844ZM410.396 51.3941C410.676 51.214 410.865 51.0948 410.964 51.0357L410.861 50.8643C410.759 50.9252 410.568 51.046 410.288 51.2259L410.396 51.3941ZM410.957 51.0394C411.306 50.8646 411.631 50.78 411.932 50.78V50.58C411.593 50.58 411.238 50.6754 410.867 50.8606L410.957 51.0394ZM411.932 50.78C412.325 50.78 412.66 50.9193 412.941 51.2007L413.083 51.0593C412.764 50.7407 412.379 50.58 411.932 50.58V50.78ZM412.941 51.2007C413.224 51.4832 413.362 51.8083 413.362 52.18H413.562C413.562 51.7517 413.4 51.3768 413.083 51.0593L412.941 51.2007ZM413.362 52.18C413.362 52.6801 413.105 53.1438 412.56 53.5714L412.684 53.7286C413.26 53.2762 413.562 52.7599 413.562 52.18H413.362ZM412.559 53.5727C412.011 54.0228 411.272 54.4079 410.34 54.7253L410.404 54.9147C411.352 54.5921 412.114 54.1972 412.686 53.7273L412.559 53.5727ZM410.34 54.7253C409.41 55.0419 408.471 55.2 407.522 55.2V55.4C408.493 55.4 409.454 55.2381 410.404 54.9147L410.34 54.7253ZM407.522 55.2C405.856 55.2 404.404 54.8531 403.161 54.1626L403.064 54.3374C404.341 55.0469 405.828 55.4 407.522 55.4V55.2ZM403.161 54.1629C401.937 53.4718 400.99 52.5249 400.319 51.3213L400.145 51.4187C400.834 52.6551 401.807 53.6282 403.063 54.3371L403.161 54.1629ZM400.32 51.3219C399.649 50.0979 399.312 48.7247 399.312 47.2H399.112C399.112 48.7553 399.456 50.1621 400.144 51.4181L400.32 51.3219ZM399.312 47.2C399.312 45.4943 399.669 44.0014 400.38 42.7184L400.205 42.6215C399.475 43.9386 399.112 45.4657 399.112 47.2H399.312ZM400.38 42.7184C401.092 41.4329 402.029 40.4567 403.192 39.7866L403.092 39.6134C401.895 40.3033 400.933 41.3071 400.205 42.6215L400.38 42.7184ZM403.193 39.786C404.358 39.0949 405.601 38.75 406.922 38.75V38.55C405.564 38.55 404.286 38.9051 403.091 39.614L403.193 39.786ZM406.922 38.75C408.223 38.75 409.445 39.1044 410.589 39.815L410.695 39.645C409.52 38.9156 408.261 38.55 406.922 38.55V38.75ZM410.59 39.8154C411.755 40.5264 412.684 41.4841 413.375 42.6898L413.549 42.5902C412.841 41.3559 411.889 40.3736 410.694 39.6446L410.59 39.8154ZM413.375 42.6898C414.067 43.8945 414.412 45.1973 414.412 46.6H414.612C414.612 45.1627 414.258 43.8255 413.549 42.5902L413.375 42.6898ZM406.922 41.85C405.747 41.85 404.8 42.1262 404.092 42.6892C403.384 43.2527 402.927 44.0941 402.714 45.2011L402.91 45.2389C403.117 44.1659 403.555 43.3723 404.217 42.8458C404.879 42.3188 405.777 42.05 406.922 42.05V41.85ZM402.812 45.32H410.672V45.12H402.812V45.32ZM410.772 45.22V45.01H410.572V45.22H410.772ZM410.772 45.0005C410.689 44.1303 410.263 43.3868 409.505 42.7723L409.379 42.9277C410.101 43.5132 410.495 44.2097 410.573 45.0195L410.772 45.0005ZM409.505 42.7723C408.748 42.1581 407.885 41.85 406.922 41.85V42.05C407.839 42.05 408.657 42.3419 409.379 42.9277L409.505 42.7723Z" fill="white"/>
</svg>
