<svg width="374" height="70" viewBox="0 0 374 70" fill="none" xmlns="http://www.w3.org/2000/svg">
<circle cx="34.875" cy="34.875" r="32.875" stroke="#FF0000" stroke-width="4"/>
<path d="M47.7841 31.8482C50.6012 33.3556 50.6012 37.3944 47.7841 38.9018L29.5122 48.6792C26.8476 50.105 23.625 48.1745 23.625 45.1524L23.625 25.5976C23.625 22.5755 26.8476 20.645 29.5122 22.0708L47.7841 31.8482Z" fill="#FF0000"/>
<path d="M107.43 26.77C107.43 27.17 107.32 27.54 107.1 27.88L100.83 36.85V44.17C100.83 44.69 100.66 45.13 100.32 45.49C99.98 45.83 99.57 46 99.09 46C98.59 46 98.16 45.83 97.8 45.49C97.46 45.13 97.29 44.69 97.29 44.17V36.43L91.05 28.15C90.69 27.67 90.51 27.2 90.51 26.74C90.51 26.22 90.71 25.79 91.11 25.45C91.53 25.09 91.97 24.91 92.43 24.91C92.99 24.91 93.48 25.19 93.9 25.75L99.18 33.04L104.13 25.81C104.55 25.21 105.05 24.91 105.63 24.91C106.11 24.91 106.53 25.09 106.89 25.45C107.25 25.81 107.43 26.25 107.43 26.77ZM124.011 37.99C124.011 39.59 123.651 41.03 122.931 42.31C122.211 43.57 121.221 44.55 119.961 45.25C118.721 45.95 117.351 46.3 115.851 46.3C114.331 46.3 112.951 45.95 111.711 45.25C110.471 44.55 109.491 43.57 108.771 42.31C108.051 41.03 107.691 39.59 107.691 37.99C107.691 36.39 108.051 34.96 108.771 33.7C109.491 32.42 110.471 31.43 111.711 30.73C112.951 30.01 114.331 29.65 115.851 29.65C117.351 29.65 118.721 30.01 119.961 30.73C121.221 31.43 122.211 32.42 122.931 33.7C123.651 34.96 124.011 36.39 124.011 37.99ZM120.411 37.99C120.411 37.01 120.201 36.14 119.781 35.38C119.381 34.6 118.831 34 118.131 33.58C117.451 33.16 116.691 32.95 115.851 32.95C115.011 32.95 114.241 33.16 113.541 33.58C112.861 34 112.311 34.6 111.891 35.38C111.491 36.14 111.291 37.01 111.291 37.99C111.291 38.97 111.491 39.84 111.891 40.6C112.311 41.36 112.861 41.95 113.541 42.37C114.241 42.79 115.011 43 115.851 43C116.691 43 117.451 42.79 118.131 42.37C118.831 41.95 119.381 41.36 119.781 40.6C120.201 39.84 120.411 38.97 120.411 37.99ZM138.928 29.95C139.448 29.95 139.878 30.13 140.218 30.49C140.558 30.83 140.728 31.26 140.728 31.78V39.4C140.728 41.56 140.128 43.25 138.928 44.47C137.748 45.69 136.058 46.3 133.858 46.3C131.658 46.3 129.968 45.69 128.788 44.47C127.608 43.25 127.018 41.56 127.018 39.4V31.78C127.018 31.26 127.188 30.83 127.528 30.49C127.868 30.13 128.298 29.95 128.818 29.95C129.338 29.95 129.768 30.13 130.108 30.49C130.448 30.83 130.618 31.26 130.618 31.78V39.4C130.618 40.62 130.888 41.53 131.428 42.13C131.968 42.71 132.778 43 133.858 43C134.958 43 135.778 42.71 136.318 42.13C136.858 41.53 137.128 40.62 137.128 39.4V31.78C137.128 31.26 137.298 30.83 137.638 30.49C137.978 30.13 138.408 29.95 138.928 29.95ZM157.818 25C158.358 25 158.798 25.16 159.138 25.48C159.478 25.8 159.648 26.22 159.648 26.74C159.648 27.26 159.478 27.68 159.138 28C158.798 28.3 158.358 28.45 157.818 28.45H153.108V44.17C153.108 44.69 152.918 45.13 152.538 45.49C152.158 45.83 151.688 46 151.128 46C150.568 46 150.108 45.83 149.748 45.49C149.388 45.13 149.208 44.69 149.208 44.17V28.45H144.498C143.958 28.45 143.518 28.29 143.178 27.97C142.838 27.65 142.668 27.23 142.668 26.71C142.668 26.21 142.838 25.8 143.178 25.48C143.538 25.16 143.978 25 144.498 25H157.818ZM170.803 29.95C171.323 29.95 171.753 30.13 172.093 30.49C172.433 30.83 172.603 31.26 172.603 31.78V39.4C172.603 41.56 172.003 43.25 170.803 44.47C169.623 45.69 167.933 46.3 165.733 46.3C163.533 46.3 161.843 45.69 160.663 44.47C159.483 43.25 158.893 41.56 158.893 39.4V31.78C158.893 31.26 159.063 30.83 159.403 30.49C159.743 30.13 160.173 29.95 160.693 29.95C161.213 29.95 161.643 30.13 161.983 30.49C162.323 30.83 162.493 31.26 162.493 31.78V39.4C162.493 40.62 162.763 41.53 163.303 42.13C163.843 42.71 164.653 43 165.733 43C166.833 43 167.653 42.71 168.193 42.13C168.733 41.53 169.003 40.62 169.003 39.4V31.78C169.003 31.26 169.173 30.83 169.513 30.49C169.853 30.13 170.283 29.95 170.803 29.95ZM184.811 29.65C186.191 29.65 187.441 30.01 188.561 30.73C189.681 31.43 190.561 32.41 191.201 33.67C191.861 34.93 192.191 36.36 192.191 37.96C192.191 39.56 191.871 41 191.231 42.28C190.591 43.54 189.711 44.53 188.591 45.25C187.491 45.95 186.271 46.3 184.931 46.3C183.971 46.3 183.061 46.11 182.201 45.73C181.361 45.33 180.661 44.85 180.101 44.29V44.47C180.101 44.99 179.931 45.43 179.591 45.79C179.251 46.13 178.821 46.3 178.301 46.3C177.781 46.3 177.351 46.13 177.011 45.79C176.671 45.45 176.501 45.01 176.501 44.47V25.63C176.501 25.11 176.671 24.68 177.011 24.34C177.351 23.98 177.781 23.8 178.301 23.8C178.821 23.8 179.251 23.98 179.591 24.34C179.931 24.68 180.101 25.11 180.101 25.63V31.9C180.581 31.3 181.251 30.78 182.111 30.34C182.971 29.88 183.871 29.65 184.811 29.65ZM184.361 43C185.641 43 186.691 42.52 187.511 41.56C188.331 40.6 188.741 39.4 188.741 37.96C188.741 36.52 188.331 35.33 187.511 34.39C186.711 33.43 185.661 32.95 184.361 32.95C183.061 32.95 182.001 33.43 181.181 34.39C180.361 35.33 179.951 36.52 179.951 37.96C179.951 39.4 180.361 40.6 181.181 41.56C182.001 42.52 183.061 43 184.361 43ZM209.592 37.6C209.572 38.08 209.382 38.47 209.022 38.77C208.662 39.07 208.242 39.22 207.762 39.22H197.862C198.102 40.4 198.652 41.33 199.512 42.01C200.372 42.67 201.342 43 202.422 43C203.242 43 203.882 42.93 204.342 42.79C204.802 42.63 205.162 42.47 205.422 42.31C205.702 42.13 205.892 42.01 205.992 41.95C206.352 41.77 206.692 41.68 207.012 41.68C207.432 41.68 207.792 41.83 208.092 42.13C208.392 42.43 208.542 42.78 208.542 43.18C208.542 43.72 208.262 44.21 207.702 44.65C207.142 45.11 206.392 45.5 205.452 45.82C204.512 46.14 203.562 46.3 202.602 46.3C200.922 46.3 199.452 45.95 198.192 45.25C196.952 44.55 195.992 43.59 195.312 42.37C194.632 41.13 194.292 39.74 194.292 38.2C194.292 36.48 194.652 34.97 195.372 33.67C196.092 32.37 197.042 31.38 198.222 30.7C199.402 30 200.662 29.65 202.002 29.65C203.322 29.65 204.562 30.01 205.722 30.73C206.902 31.45 207.842 32.42 208.542 33.64C209.242 34.86 209.592 36.18 209.592 37.6ZM202.002 32.95C199.682 32.95 198.312 34.04 197.892 36.22H205.752V36.01C205.672 35.17 205.262 34.45 204.522 33.85C203.782 33.25 202.942 32.95 202.002 32.95ZM229.973 25C230.993 25 231.963 25.31 232.883 25.93C233.803 26.53 234.543 27.35 235.103 28.39C235.663 29.41 235.943 30.53 235.943 31.75C235.943 32.95 235.663 34.07 235.103 35.11C234.543 36.15 233.803 36.98 232.883 37.6C231.963 38.2 230.993 38.5 229.973 38.5H224.753V44.17C224.753 44.71 224.593 45.15 224.273 45.49C223.953 45.83 223.533 46 223.013 46C222.513 46 222.103 45.83 221.783 45.49C221.463 45.13 221.303 44.69 221.303 44.17V26.83C221.303 26.31 221.473 25.88 221.813 25.54C222.173 25.18 222.613 25 223.133 25H229.973ZM229.973 35.08C230.353 35.08 230.723 34.92 231.083 34.6C231.463 34.28 231.763 33.87 231.983 33.37C232.223 32.85 232.343 32.31 232.343 31.75C232.343 31.19 232.223 30.66 231.983 30.16C231.763 29.64 231.463 29.23 231.083 28.93C230.723 28.61 230.353 28.45 229.973 28.45H224.753V35.08H229.973ZM247.419 29.65C248.019 29.65 248.519 29.82 248.919 30.16C249.339 30.5 249.549 30.9 249.549 31.36C249.549 31.98 249.389 32.45 249.069 32.77C248.749 33.07 248.369 33.22 247.929 33.22C247.629 33.22 247.289 33.15 246.909 33.01C246.849 32.99 246.709 32.95 246.489 32.89C246.289 32.83 246.069 32.8 245.829 32.8C245.309 32.8 244.809 32.96 244.329 33.28C243.849 33.6 243.449 34.09 243.129 34.75C242.829 35.39 242.679 36.16 242.679 37.06V44.17C242.679 44.69 242.509 45.13 242.169 45.49C241.829 45.83 241.399 46 240.879 46C240.359 46 239.929 45.83 239.589 45.49C239.249 45.13 239.079 44.69 239.079 44.17V31.78C239.079 31.26 239.249 30.83 239.589 30.49C239.929 30.13 240.359 29.95 240.879 29.95C241.399 29.95 241.829 30.13 242.169 30.49C242.509 30.83 242.679 31.26 242.679 31.78V32.17C243.139 31.35 243.799 30.73 244.659 30.31C245.519 29.87 246.439 29.65 247.419 29.65ZM266.833 37.99C266.833 39.59 266.473 41.03 265.753 42.31C265.033 43.57 264.043 44.55 262.783 45.25C261.543 45.95 260.173 46.3 258.673 46.3C257.153 46.3 255.773 45.95 254.533 45.25C253.293 44.55 252.313 43.57 251.593 42.31C250.873 41.03 250.513 39.59 250.513 37.99C250.513 36.39 250.873 34.96 251.593 33.7C252.313 32.42 253.293 31.43 254.533 30.73C255.773 30.01 257.153 29.65 258.673 29.65C260.173 29.65 261.543 30.01 262.783 30.73C264.043 31.43 265.033 32.42 265.753 33.7C266.473 34.96 266.833 36.39 266.833 37.99ZM263.233 37.99C263.233 37.01 263.023 36.14 262.603 35.38C262.203 34.6 261.653 34 260.953 33.58C260.273 33.16 259.513 32.95 258.673 32.95C257.833 32.95 257.063 33.16 256.363 33.58C255.683 34 255.133 34.6 254.713 35.38C254.313 36.14 254.113 37.01 254.113 37.99C254.113 38.97 254.313 39.84 254.713 40.6C255.133 41.36 255.683 41.95 256.363 42.37C257.063 42.79 257.833 43 258.673 43C259.513 43 260.273 42.79 260.953 42.37C261.653 41.95 262.203 41.36 262.603 40.6C263.023 39.84 263.233 38.97 263.233 37.99ZM282.831 23.8C283.351 23.8 283.781 23.97 284.121 24.31C284.461 24.65 284.631 25.09 284.631 25.63V44.17C284.631 44.69 284.461 45.13 284.121 45.49C283.781 45.83 283.351 46 282.831 46C282.311 46 281.881 45.83 281.541 45.49C281.221 45.15 281.051 44.72 281.031 44.2C280.531 44.78 279.851 45.28 278.991 45.7C278.151 46.1 277.261 46.3 276.321 46.3C274.941 46.3 273.691 45.95 272.571 45.25C271.451 44.53 270.561 43.54 269.901 42.28C269.261 41.02 268.941 39.59 268.941 37.99C268.941 36.39 269.261 34.96 269.901 33.7C270.541 32.42 271.411 31.43 272.511 30.73C273.631 30.01 274.861 29.65 276.201 29.65C277.161 29.65 278.061 29.83 278.901 30.19C279.741 30.53 280.451 30.97 281.031 31.51V25.63C281.031 25.11 281.201 24.68 281.541 24.34C281.881 23.98 282.311 23.8 282.831 23.8ZM276.771 43C278.071 43 279.131 42.53 279.951 41.59C280.771 40.63 281.181 39.43 281.181 37.99C281.181 36.55 280.771 35.35 279.951 34.39C279.131 33.43 278.071 32.95 276.771 32.95C275.491 32.95 274.441 33.43 273.621 34.39C272.801 35.35 272.391 36.55 272.391 37.99C272.391 39.43 272.791 40.63 273.591 41.59C274.411 42.53 275.471 43 276.771 43ZM300.911 29.95C301.431 29.95 301.861 30.13 302.201 30.49C302.541 30.83 302.711 31.26 302.711 31.78V39.4C302.711 41.56 302.111 43.25 300.911 44.47C299.731 45.69 298.041 46.3 295.841 46.3C293.641 46.3 291.951 45.69 290.771 44.47C289.591 43.25 289.001 41.56 289.001 39.4V31.78C289.001 31.26 289.171 30.83 289.511 30.49C289.851 30.13 290.281 29.95 290.801 29.95C291.321 29.95 291.751 30.13 292.091 30.49C292.431 30.83 292.601 31.26 292.601 31.78V39.4C292.601 40.62 292.871 41.53 293.411 42.13C293.951 42.71 294.761 43 295.841 43C296.941 43 297.761 42.71 298.301 42.13C298.841 41.53 299.111 40.62 299.111 39.4V31.78C299.111 31.26 299.281 30.83 299.621 30.49C299.961 30.13 300.391 29.95 300.911 29.95ZM313.598 29.65C315.298 29.65 316.668 29.92 317.708 30.46C318.748 30.98 319.268 31.68 319.268 32.56C319.268 33 319.138 33.39 318.878 33.73C318.618 34.05 318.278 34.21 317.858 34.21C317.538 34.21 317.278 34.17 317.078 34.09C316.878 33.99 316.678 33.87 316.478 33.73C316.298 33.57 316.118 33.44 315.938 33.34C315.738 33.24 315.438 33.15 315.038 33.07C314.658 32.99 314.348 32.95 314.108 32.95C312.608 32.95 311.428 33.42 310.568 34.36C309.728 35.28 309.308 36.49 309.308 37.99C309.308 39.43 309.738 40.63 310.598 41.59C311.458 42.53 312.558 43 313.898 43C314.878 43 315.608 42.88 316.088 42.64C316.208 42.58 316.368 42.48 316.568 42.34C316.788 42.18 316.988 42.06 317.168 41.98C317.348 41.9 317.568 41.86 317.828 41.86C318.328 41.86 318.718 42.02 318.998 42.34C319.298 42.66 319.448 43.07 319.448 43.57C319.448 44.05 319.168 44.5 318.608 44.92C318.048 45.34 317.308 45.68 316.388 45.94C315.468 46.18 314.488 46.3 313.448 46.3C311.908 46.3 310.548 45.94 309.368 45.22C308.208 44.5 307.308 43.51 306.668 42.25C306.028 40.97 305.708 39.55 305.708 37.99C305.708 36.37 306.038 34.93 306.698 33.67C307.378 32.41 308.318 31.43 309.518 30.73C310.718 30.01 312.078 29.65 313.598 29.65ZM329.788 42.61C330.068 42.61 330.318 42.75 330.538 43.03C330.778 43.29 330.898 43.64 330.898 44.08C330.898 44.62 330.598 45.08 329.998 45.46C329.418 45.82 328.758 46 328.018 46C326.778 46 325.728 45.74 324.868 45.22C324.028 44.68 323.608 43.55 323.608 41.83V33.55H322.228C321.748 33.55 321.348 33.39 321.028 33.07C320.708 32.75 320.548 32.35 320.548 31.87C320.548 31.41 320.708 31.03 321.028 30.73C321.348 30.41 321.748 30.25 322.228 30.25H323.608V28.33C323.608 27.81 323.778 27.38 324.118 27.04C324.478 26.68 324.918 26.5 325.438 26.5C325.938 26.5 326.358 26.68 326.698 27.04C327.038 27.38 327.208 27.81 327.208 28.33V30.25H329.338C329.818 30.25 330.218 30.41 330.538 30.73C330.858 31.05 331.018 31.45 331.018 31.93C331.018 32.39 330.858 32.78 330.538 33.1C330.218 33.4 329.818 33.55 329.338 33.55H327.208V41.68C327.208 42.1 327.318 42.41 327.538 42.61C327.758 42.79 328.058 42.88 328.438 42.88C328.598 42.88 328.818 42.84 329.098 42.76C329.338 42.66 329.568 42.61 329.788 42.61ZM337.713 44.17C337.713 44.69 337.543 45.13 337.203 45.49C336.863 45.83 336.433 46 335.913 46C335.393 46 334.963 45.83 334.623 45.49C334.283 45.13 334.113 44.69 334.113 44.17V31.78C334.113 31.26 334.283 30.83 334.623 30.49C334.963 30.13 335.393 29.95 335.913 29.95C336.433 29.95 336.863 30.13 337.203 30.49C337.543 30.83 337.713 31.26 337.713 31.78V44.17ZM335.883 28C335.203 28 334.723 27.89 334.443 27.67C334.163 27.45 334.023 27.06 334.023 26.5V25.93C334.023 25.37 334.173 24.98 334.473 24.76C334.773 24.54 335.253 24.43 335.913 24.43C336.613 24.43 337.103 24.54 337.383 24.76C337.663 24.98 337.803 25.37 337.803 25.93V26.5C337.803 27.08 337.653 27.48 337.353 27.7C337.073 27.9 336.583 28 335.883 28ZM353.743 29.98C354.223 29.98 354.623 30.14 354.943 30.46C355.263 30.76 355.423 31.14 355.423 31.6C355.423 31.84 355.343 32.14 355.183 32.5L349.573 44.86C349.433 45.2 349.223 45.47 348.943 45.67C348.683 45.87 348.383 45.98 348.043 46L347.773 46.03C347.433 46.03 347.113 45.93 346.813 45.73C346.533 45.51 346.313 45.22 346.153 44.86L340.573 32.5C340.433 32.18 340.363 31.86 340.363 31.54C340.363 31.14 340.533 30.78 340.873 30.46C341.213 30.12 341.633 29.95 342.133 29.95C342.513 29.95 342.863 30.05 343.183 30.25C343.503 30.45 343.743 30.73 343.903 31.09L348.043 40.57L352.153 31.12C352.313 30.74 352.533 30.45 352.813 30.25C353.093 30.05 353.403 29.96 353.743 29.98ZM372.512 37.6C372.492 38.08 372.302 38.47 371.942 38.77C371.582 39.07 371.162 39.22 370.682 39.22H360.782C361.022 40.4 361.572 41.33 362.432 42.01C363.292 42.67 364.262 43 365.342 43C366.162 43 366.802 42.93 367.262 42.79C367.722 42.63 368.082 42.47 368.342 42.31C368.622 42.13 368.812 42.01 368.912 41.95C369.272 41.77 369.612 41.68 369.932 41.68C370.352 41.68 370.712 41.83 371.012 42.13C371.312 42.43 371.462 42.78 371.462 43.18C371.462 43.72 371.182 44.21 370.622 44.65C370.062 45.11 369.312 45.5 368.372 45.82C367.432 46.14 366.482 46.3 365.522 46.3C363.842 46.3 362.372 45.95 361.112 45.25C359.872 44.55 358.912 43.59 358.232 42.37C357.552 41.13 357.212 39.74 357.212 38.2C357.212 36.48 357.572 34.97 358.292 33.67C359.012 32.37 359.962 31.38 361.142 30.7C362.322 30 363.582 29.65 364.922 29.65C366.242 29.65 367.482 30.01 368.642 30.73C369.822 31.45 370.762 32.42 371.462 33.64C372.162 34.86 372.512 36.18 372.512 37.6ZM364.922 32.95C362.602 32.95 361.232 34.04 360.812 36.22H368.672V36.01C368.592 35.17 368.182 34.45 367.442 33.85C366.702 33.25 365.862 32.95 364.922 32.95Z" fill="white"/>
<path d="M107.1 27.88L107.182 27.9373L107.184 27.9343L107.1 27.88ZM100.83 36.85L100.748 36.7927L100.73 36.8185V36.85H100.83ZM100.32 45.49L100.391 45.5607L100.393 45.5587L100.32 45.49ZM97.8 45.49L97.7272 45.5588L97.7313 45.5627L97.8 45.49ZM97.29 36.43H97.39V36.3965L97.3699 36.3698L97.29 36.43ZM91.05 28.15L90.97 28.21L90.9701 28.2102L91.05 28.15ZM91.11 25.45L91.1748 25.5262L91.1751 25.5259L91.11 25.45ZM93.9 25.75L93.981 25.6913L93.98 25.69L93.9 25.75ZM99.18 33.04L99.099 33.0987L99.1823 33.2137L99.2625 33.0965L99.18 33.04ZM104.13 25.81L104.048 25.7526L104.047 25.7535L104.13 25.81ZM106.89 25.45L106.961 25.3793L106.961 25.3793L106.89 25.45ZM107.33 26.77C107.33 27.1505 107.226 27.5016 107.016 27.8257L107.184 27.9343C107.414 27.5784 107.53 27.1895 107.53 26.77H107.33ZM107.018 27.8227L100.748 36.7927L100.912 36.9073L107.182 27.9373L107.018 27.8227ZM100.73 36.85V44.17H100.93V36.85H100.73ZM100.73 44.17C100.73 44.6659 100.569 45.0809 100.247 45.4213L100.393 45.5587C100.751 45.1791 100.93 44.7141 100.93 44.17H100.73ZM100.249 45.4193C99.928 45.7406 99.5434 45.9 99.09 45.9V46.1C99.5966 46.1 100.032 45.9194 100.391 45.5607L100.249 45.4193ZM99.09 45.9C98.6153 45.9 98.2099 45.7396 97.8687 45.4173L97.7313 45.5627C98.1101 45.9204 98.5647 46.1 99.09 46.1V45.9ZM97.8727 45.4213C97.5512 45.0809 97.39 44.6659 97.39 44.17H97.19C97.19 44.7141 97.3688 45.1791 97.7273 45.5587L97.8727 45.4213ZM97.39 44.17V36.43H97.19V44.17H97.39ZM97.3699 36.3698L91.1299 28.0898L90.9701 28.2102L97.2101 36.4902L97.3699 36.3698ZM91.13 28.09C90.779 27.622 90.61 27.1726 90.61 26.74H90.41C90.41 27.2274 90.601 27.718 90.97 28.21L91.13 28.09ZM90.61 26.74C90.61 26.2497 90.7969 25.8474 91.1748 25.5262L91.0452 25.3738C90.6231 25.7326 90.41 26.1903 90.41 26.74H90.61ZM91.1751 25.5259C91.5808 25.1782 91.9985 25.01 92.43 25.01V24.81C91.9415 24.81 91.4792 25.0018 91.0449 25.3741L91.1751 25.5259ZM92.43 25.01C92.9507 25.01 93.4136 25.2682 93.82 25.81L93.98 25.69C93.5464 25.1118 93.0293 24.81 92.43 24.81V25.01ZM93.819 25.8087L99.099 33.0987L99.261 32.9813L93.981 25.6913L93.819 25.8087ZM99.2625 33.0965L104.213 25.8665L104.047 25.7535L99.0975 32.9835L99.2625 33.0965ZM104.212 25.8673C104.619 25.2862 105.091 25.01 105.63 25.01V24.81C105.009 24.81 104.481 25.1338 104.048 25.7527L104.212 25.8673ZM105.63 25.01C106.082 25.01 106.477 25.1782 106.819 25.5207L106.961 25.3793C106.583 25.0018 106.138 24.81 105.63 24.81V25.01ZM106.819 25.5207C107.16 25.8615 107.33 26.2759 107.33 26.77H107.53C107.53 26.2241 107.34 25.7585 106.961 25.3793L106.819 25.5207ZM122.931 42.31L123.017 42.3596L123.018 42.359L122.931 42.31ZM119.961 45.25L119.912 45.1626L119.911 45.1629L119.961 45.25ZM111.711 45.25L111.76 45.1629L111.76 45.1629L111.711 45.25ZM108.771 42.31L108.683 42.359L108.684 42.3596L108.771 42.31ZM108.771 33.7L108.857 33.7496L108.858 33.749L108.771 33.7ZM111.711 30.73L111.76 30.8171L111.761 30.8165L111.711 30.73ZM119.961 30.73L119.91 30.8165L119.912 30.8174L119.961 30.73ZM122.931 33.7L122.843 33.749L122.844 33.7496L122.931 33.7ZM119.781 35.38L119.692 35.4257L119.693 35.4284L119.781 35.38ZM118.131 33.58L118.078 33.6651L118.079 33.6657L118.131 33.58ZM113.541 33.58L113.489 33.4942L113.488 33.4949L113.541 33.58ZM111.891 35.38L111.803 35.3326L111.802 35.3334L111.891 35.38ZM111.891 40.6L111.802 40.6466L111.803 40.6484L111.891 40.6ZM113.541 42.37L113.488 42.4551L113.489 42.4557L113.541 42.37ZM118.131 42.37L118.079 42.2842L118.078 42.2849L118.131 42.37ZM119.781 40.6L119.693 40.5516L119.692 40.5534L119.781 40.6ZM123.911 37.99C123.911 39.5744 123.554 40.9973 122.843 42.261L123.018 42.359C123.747 41.0627 124.111 39.6056 124.111 37.99H123.911ZM122.844 42.2604C122.133 43.5046 121.156 44.4715 119.912 45.1626L120.009 45.3374C121.285 44.6285 122.288 43.6354 123.017 42.3596L122.844 42.2604ZM119.911 45.1629C118.687 45.854 117.334 46.2 115.851 46.2V46.4C117.367 46.4 118.754 46.046 120.01 45.3371L119.911 45.1629ZM115.851 46.2C114.347 46.2 112.984 45.8539 111.76 45.1629L111.661 45.3371C112.917 46.0461 114.315 46.4 115.851 46.4V46.2ZM111.76 45.1629C110.536 44.472 109.569 43.505 108.857 42.2604L108.684 42.3596C109.413 43.635 110.405 44.628 111.661 45.3371L111.76 45.1629ZM108.858 42.261C108.147 40.9973 107.791 39.5744 107.791 37.99H107.591C107.591 39.6056 107.954 41.0627 108.683 42.359L108.858 42.261ZM107.791 37.99C107.791 36.4056 108.147 34.993 108.857 33.7496L108.684 33.6504C107.954 34.927 107.591 36.3744 107.591 37.99H107.791ZM108.858 33.749C109.569 32.4844 110.536 31.5078 111.76 30.8171L111.661 30.6429C110.405 31.3522 109.412 32.3556 108.683 33.651L108.858 33.749ZM111.761 30.8165C112.985 30.1059 114.347 29.75 115.851 29.75V29.55C114.314 29.55 112.917 29.9141 111.66 30.6435L111.761 30.8165ZM115.851 29.75C117.334 29.75 118.686 30.1058 119.91 30.8165L120.011 30.6435C118.755 29.9142 117.367 29.55 115.851 29.55V29.75ZM119.912 30.8174C121.156 31.5083 122.132 32.4848 122.843 33.749L123.018 33.651C122.289 32.3552 121.286 31.3517 120.009 30.6426L119.912 30.8174ZM122.844 33.7496C123.554 34.993 123.911 36.4056 123.911 37.99H124.111C124.111 36.3744 123.747 34.927 123.017 33.6504L122.844 33.7496ZM120.511 37.99C120.511 36.9953 120.297 36.1083 119.868 35.3316L119.693 35.4284C120.104 36.1717 120.311 37.0247 120.311 37.99H120.511ZM119.87 35.3344C119.462 34.539 118.899 33.9246 118.182 33.4942L118.079 33.6657C118.762 34.0754 119.3 34.661 119.692 35.4256L119.87 35.3344ZM118.183 33.4949C117.487 33.0647 116.708 32.85 115.851 32.85V33.05C116.673 33.05 117.415 33.2553 118.078 33.6651L118.183 33.4949ZM115.851 32.85C114.993 32.85 114.205 33.0646 113.489 33.4942L113.592 33.6657C114.276 33.2554 115.028 33.05 115.851 33.05V32.85ZM113.488 33.4949C112.792 33.9251 112.23 34.5389 111.803 35.3326L111.979 35.4274C112.391 34.6611 112.93 34.0749 113.593 33.6651L113.488 33.4949ZM111.802 35.3334C111.394 36.1097 111.191 36.9961 111.191 37.99H111.391C111.391 37.0239 111.588 36.1703 111.979 35.4266L111.802 35.3334ZM111.191 37.99C111.191 38.9839 111.394 39.8703 111.802 40.6466L111.979 40.5534C111.588 39.8097 111.391 38.9561 111.391 37.99H111.191ZM111.803 40.6484C112.231 41.4221 112.792 42.0253 113.488 42.4551L113.593 42.2849C112.929 41.8747 112.391 41.2979 111.978 40.5516L111.803 40.6484ZM113.489 42.4557C114.205 42.8854 114.993 43.1 115.851 43.1V42.9C115.028 42.9 114.276 42.6946 113.592 42.2843L113.489 42.4557ZM115.851 43.1C116.708 43.1 117.487 42.8853 118.183 42.4551L118.078 42.2849C117.415 42.6947 116.673 42.9 115.851 42.9V43.1ZM118.182 42.4557C118.899 42.0258 119.461 41.4219 119.869 40.6466L119.692 40.5534C119.3 41.2981 118.763 41.8742 118.079 42.2843L118.182 42.4557ZM119.868 40.6484C120.297 39.8717 120.511 38.9847 120.511 37.99H120.311C120.311 38.9553 120.104 39.8083 119.693 40.5516L119.868 40.6484ZM140.218 30.49L140.146 30.5587L140.148 30.5607L140.218 30.49ZM138.928 44.47L138.857 44.3999L138.856 44.4005L138.928 44.47ZM128.788 44.47L128.716 44.5395L128.716 44.5395L128.788 44.47ZM127.528 30.49L127.599 30.5607L127.601 30.5587L127.528 30.49ZM130.108 30.49L130.036 30.5587L130.038 30.5607L130.108 30.49ZM131.428 42.13L131.354 42.1969L131.355 42.1981L131.428 42.13ZM136.318 42.13L136.392 42.1982L136.393 42.1969L136.318 42.13ZM137.638 30.49L137.709 30.5607L137.711 30.5587L137.638 30.49ZM138.928 30.05C139.422 30.05 139.826 30.2198 140.146 30.5587L140.291 30.4213C139.931 30.0402 139.474 29.85 138.928 29.85V30.05ZM140.148 30.5607C140.467 30.8803 140.628 31.2841 140.628 31.78H140.828C140.828 31.2359 140.649 30.7797 140.289 30.4193L140.148 30.5607ZM140.628 31.78V39.4H140.828V31.78H140.628ZM140.628 39.4C140.628 41.541 140.034 43.2032 138.857 44.3999L139 44.5401C140.223 43.2968 140.828 41.579 140.828 39.4H140.628ZM138.856 44.4005C137.7 45.5957 136.04 46.2 133.858 46.2V46.4C136.077 46.4 137.796 45.7843 139 44.5395L138.856 44.4005ZM133.858 46.2C131.677 46.2 130.016 45.5957 128.86 44.4005L128.716 44.5395C129.92 45.7843 131.64 46.4 133.858 46.4V46.2ZM128.86 44.4005C127.703 43.2038 127.118 41.5414 127.118 39.4H126.918C126.918 41.5786 127.514 43.2962 128.716 44.5395L128.86 44.4005ZM127.118 39.4V31.78H126.918V39.4H127.118ZM127.118 31.78C127.118 31.2841 127.279 30.8803 127.599 30.5607L127.458 30.4193C127.097 30.7797 126.918 31.2359 126.918 31.78H127.118ZM127.601 30.5587C127.921 30.2198 128.324 30.05 128.818 30.05V29.85C128.272 29.85 127.816 30.0402 127.456 30.4213L127.601 30.5587ZM128.818 30.05C129.312 30.05 129.716 30.2198 130.036 30.5587L130.181 30.4213C129.821 30.0402 129.364 29.85 128.818 29.85V30.05ZM130.038 30.5607C130.357 30.8803 130.518 31.2841 130.518 31.78H130.718C130.718 31.2359 130.539 30.7797 130.179 30.4193L130.038 30.5607ZM130.518 31.78V39.4H130.718V31.78H130.518ZM130.518 39.4C130.518 40.6324 130.791 41.5711 131.354 42.1969L131.503 42.0631C130.986 41.4889 130.718 40.6076 130.718 39.4H130.518ZM131.355 42.1981C131.92 42.805 132.761 43.1 133.858 43.1V42.9C132.796 42.9 132.017 42.615 131.502 42.0619L131.355 42.1981ZM133.858 43.1C134.975 43.1 135.826 42.8054 136.392 42.1981L136.245 42.0619C135.731 42.6146 134.942 42.9 133.858 42.9V43.1ZM136.393 42.1969C136.956 41.5711 137.228 40.6324 137.228 39.4H137.028C137.028 40.6076 136.761 41.4889 136.244 42.0631L136.393 42.1969ZM137.228 39.4V31.78H137.028V39.4H137.228ZM137.228 31.78C137.228 31.2841 137.389 30.8803 137.709 30.5607L137.568 30.4193C137.207 30.7797 137.028 31.2359 137.028 31.78H137.228ZM137.711 30.5587C138.031 30.2198 138.434 30.05 138.928 30.05V29.85C138.382 29.85 137.926 30.0402 137.566 30.4213L137.711 30.5587ZM159.138 25.48L159.069 25.5528L159.069 25.5528L159.138 25.48ZM159.138 28L159.204 28.075L159.206 28.0728L159.138 28ZM153.108 28.45V28.35H153.008V28.45H153.108ZM152.538 45.49L152.604 45.5646L152.606 45.5626L152.538 45.49ZM149.748 45.49L149.677 45.5607L149.679 45.5627L149.748 45.49ZM149.208 28.45H149.308V28.35H149.208V28.45ZM143.178 27.97L143.109 28.0428L143.109 28.0428L143.178 27.97ZM143.178 25.48L143.111 25.4052L143.109 25.4072L143.178 25.48ZM157.818 25.1C158.336 25.1 158.75 25.253 159.069 25.5528L159.206 25.4072C158.845 25.067 158.379 24.9 157.818 24.9V25.1ZM159.069 25.5528C159.387 25.8517 159.548 26.2441 159.548 26.74H159.748C159.748 26.1959 159.569 25.7483 159.206 25.4072L159.069 25.5528ZM159.548 26.74C159.548 27.2359 159.387 27.6283 159.069 27.9272L159.206 28.0728C159.569 27.7317 159.748 27.2841 159.748 26.74H159.548ZM159.071 27.925C158.753 28.2059 158.338 28.35 157.818 28.35V28.55C158.377 28.55 158.842 28.3941 159.204 28.075L159.071 27.925ZM157.818 28.35H153.108V28.55H157.818V28.35ZM153.008 28.45V44.17H153.208V28.45H153.008ZM153.008 44.17C153.008 44.6623 152.829 45.0761 152.469 45.4174L152.606 45.5626C153.006 45.1839 153.208 44.7177 153.208 44.17H153.008ZM152.471 45.4155C152.111 45.7374 151.666 45.9 151.128 45.9V46.1C151.71 46.1 152.204 45.9226 152.604 45.5645L152.471 45.4155ZM151.128 45.9C150.59 45.9 150.155 45.7374 149.816 45.4173L149.679 45.5627C150.06 45.9226 150.546 46.1 151.128 46.1V45.9ZM149.818 45.4193C149.477 45.0785 149.308 44.6641 149.308 44.17H149.108C149.108 44.7159 149.298 45.1815 149.677 45.5607L149.818 45.4193ZM149.308 44.17V28.45H149.108V44.17H149.308ZM149.208 28.35H144.498V28.55H149.208V28.35ZM144.498 28.35C143.979 28.35 143.565 28.197 143.246 27.8972L143.109 28.0428C143.47 28.383 143.936 28.55 144.498 28.55V28.35ZM143.246 27.8972C142.929 27.5983 142.768 27.2059 142.768 26.71H142.568C142.568 27.2541 142.747 27.7017 143.109 28.0428L143.246 27.8972ZM142.768 26.71C142.768 26.2354 142.928 25.8525 143.246 25.5528L143.109 25.4072C142.747 25.7475 142.568 26.1846 142.568 26.71H142.768ZM143.244 25.5547C143.584 25.2524 144 25.1 144.498 25.1V24.9C143.955 24.9 143.491 25.0676 143.111 25.4053L143.244 25.5547ZM144.498 25.1H157.818V24.9H144.498V25.1ZM172.093 30.49L172.021 30.5587L172.023 30.5607L172.093 30.49ZM170.803 44.47L170.732 44.3999L170.731 44.4005L170.803 44.47ZM160.663 44.47L160.591 44.5395L160.591 44.5395L160.663 44.47ZM159.403 30.49L159.474 30.5607L159.476 30.5587L159.403 30.49ZM161.983 30.49L161.911 30.5587L161.913 30.5607L161.983 30.49ZM163.303 42.13L163.229 42.1969L163.23 42.1981L163.303 42.13ZM168.193 42.13L168.267 42.1982L168.268 42.1969L168.193 42.13ZM169.513 30.49L169.584 30.5607L169.586 30.5587L169.513 30.49ZM170.803 30.05C171.297 30.05 171.701 30.2198 172.021 30.5587L172.166 30.4213C171.806 30.0402 171.349 29.85 170.803 29.85V30.05ZM172.023 30.5607C172.342 30.8803 172.503 31.2841 172.503 31.78H172.703C172.703 31.2359 172.524 30.7797 172.164 30.4193L172.023 30.5607ZM172.503 31.78V39.4H172.703V31.78H172.503ZM172.503 39.4C172.503 41.541 171.909 43.2032 170.732 44.3999L170.875 44.5401C172.098 43.2968 172.703 41.579 172.703 39.4H172.503ZM170.731 44.4005C169.575 45.5957 167.915 46.2 165.733 46.2V46.4C167.952 46.4 169.671 45.7843 170.875 44.5395L170.731 44.4005ZM165.733 46.2C163.552 46.2 161.891 45.5957 160.735 44.4005L160.591 44.5395C161.795 45.7843 163.515 46.4 165.733 46.4V46.2ZM160.735 44.4005C159.578 43.2038 158.993 41.5414 158.993 39.4H158.793C158.793 41.5786 159.389 43.2962 160.591 44.5395L160.735 44.4005ZM158.993 39.4V31.78H158.793V39.4H158.993ZM158.993 31.78C158.993 31.2841 159.154 30.8803 159.474 30.5607L159.333 30.4193C158.972 30.7797 158.793 31.2359 158.793 31.78H158.993ZM159.476 30.5587C159.796 30.2198 160.199 30.05 160.693 30.05V29.85C160.147 29.85 159.691 30.0402 159.331 30.4213L159.476 30.5587ZM160.693 30.05C161.187 30.05 161.591 30.2198 161.911 30.5587L162.056 30.4213C161.696 30.0402 161.239 29.85 160.693 29.85V30.05ZM161.913 30.5607C162.232 30.8803 162.393 31.2841 162.393 31.78H162.593C162.593 31.2359 162.414 30.7797 162.054 30.4193L161.913 30.5607ZM162.393 31.78V39.4H162.593V31.78H162.393ZM162.393 39.4C162.393 40.6324 162.666 41.5711 163.229 42.1969L163.378 42.0631C162.861 41.4889 162.593 40.6076 162.593 39.4H162.393ZM163.23 42.1981C163.795 42.805 164.636 43.1 165.733 43.1V42.9C164.671 42.9 163.892 42.615 163.377 42.0619L163.23 42.1981ZM165.733 43.1C166.85 43.1 167.701 42.8054 168.267 42.1981L168.12 42.0619C167.606 42.6146 166.817 42.9 165.733 42.9V43.1ZM168.268 42.1969C168.831 41.5711 169.103 40.6324 169.103 39.4H168.903C168.903 40.6076 168.636 41.4889 168.119 42.0631L168.268 42.1969ZM169.103 39.4V31.78H168.903V39.4H169.103ZM169.103 31.78C169.103 31.2841 169.264 30.8803 169.584 30.5607L169.443 30.4193C169.082 30.7797 168.903 31.2359 168.903 31.78H169.103ZM169.586 30.5587C169.906 30.2198 170.309 30.05 170.803 30.05V29.85C170.257 29.85 169.801 30.0402 169.441 30.4213L169.586 30.5587ZM188.561 30.73L188.507 30.8141L188.508 30.8148L188.561 30.73ZM191.201 33.67L191.112 33.7153L191.112 33.7164L191.201 33.67ZM191.231 42.28L191.32 42.3253L191.32 42.3247L191.231 42.28ZM188.591 45.25L188.644 45.3344L188.645 45.3341L188.591 45.25ZM182.201 45.73L182.158 45.8203L182.16 45.8215L182.201 45.73ZM180.101 44.29L180.171 44.2193L180.001 44.0486V44.29H180.101ZM179.591 45.79L179.662 45.8607L179.663 45.8587L179.591 45.79ZM177.011 45.79L176.94 45.8607L176.94 45.8607L177.011 45.79ZM177.011 24.34L177.082 24.4107L177.083 24.4087L177.011 24.34ZM179.591 24.34L179.518 24.4087L179.52 24.4107L179.591 24.34ZM180.101 31.9H180.001V32.1851L180.179 31.9625L180.101 31.9ZM182.111 30.34L182.156 30.429L182.158 30.4282L182.111 30.34ZM187.511 41.56L187.435 41.4951L187.435 41.4951L187.511 41.56ZM187.511 34.39L187.434 34.454L187.435 34.4557L187.511 34.39ZM181.181 34.39L181.256 34.4557L181.257 34.4549L181.181 34.39ZM181.181 41.56L181.105 41.6249L181.105 41.6249L181.181 41.56ZM184.811 29.75C186.172 29.75 187.403 30.1049 188.507 30.8141L188.615 30.6459C187.478 29.9151 186.209 29.55 184.811 29.55V29.75ZM188.508 30.8148C189.611 31.5045 190.479 32.4703 191.112 33.7153L191.29 33.6247C190.642 32.3497 189.75 31.3555 188.614 30.6452L188.508 30.8148ZM191.112 33.7164C191.764 34.9604 192.091 36.3741 192.091 37.96H192.291C192.291 36.3459 191.958 34.8996 191.289 33.6236L191.112 33.7164ZM192.091 37.96C192.091 39.5463 191.774 40.9707 191.141 42.2353L191.32 42.3247C191.968 41.0293 192.291 39.5737 192.291 37.96H192.091ZM191.142 42.2347C190.509 43.4799 189.641 44.4561 188.537 45.1659L188.645 45.3341C189.781 44.6039 190.672 43.6001 191.32 42.3253L191.142 42.2347ZM188.537 45.1656C187.454 45.8551 186.252 46.2 184.931 46.2V46.4C186.289 46.4 187.528 46.0449 188.644 45.3344L188.537 45.1656ZM184.931 46.2C183.984 46.2 183.088 46.0128 182.241 45.6385L182.16 45.8215C183.033 46.2072 183.957 46.4 184.931 46.4V46.2ZM182.244 45.6397C181.412 45.2438 180.722 44.77 180.171 44.2193L180.03 44.3607C180.599 44.93 181.309 45.4162 182.158 45.8203L182.244 45.6397ZM180.001 44.29V44.47H180.201V44.29H180.001ZM180.001 44.47C180.001 44.9659 179.84 45.3809 179.518 45.7213L179.663 45.8587C180.022 45.4791 180.201 45.0141 180.201 44.47H180.001ZM179.52 45.7193C179.2 46.0389 178.797 46.2 178.301 46.2V46.4C178.845 46.4 179.301 46.2211 179.661 45.8607L179.52 45.7193ZM178.301 46.2C177.805 46.2 177.401 46.0389 177.081 45.7193L176.94 45.8607C177.3 46.2211 177.757 46.4 178.301 46.4V46.2ZM177.081 45.7193C176.763 45.4004 176.601 44.987 176.601 44.47H176.401C176.401 45.033 176.579 45.4996 176.94 45.8607L177.081 45.7193ZM176.601 44.47V25.63H176.401V44.47H176.601ZM176.601 25.63C176.601 25.1341 176.762 24.7303 177.081 24.4107L176.94 24.2693C176.58 24.6297 176.401 25.0859 176.401 25.63H176.601ZM177.083 24.4087C177.404 24.0698 177.807 23.9 178.301 23.9V23.7C177.755 23.7 177.298 23.8902 176.938 24.2713L177.083 24.4087ZM178.301 23.9C178.795 23.9 179.198 24.0698 179.518 24.4087L179.663 24.2713C179.304 23.8902 178.847 23.7 178.301 23.7V23.9ZM179.52 24.4107C179.84 24.7303 180.001 25.1341 180.001 25.63H180.201C180.201 25.0859 180.022 24.6297 179.661 24.2693L179.52 24.4107ZM180.001 25.63V31.9H180.201V25.63H180.001ZM180.179 31.9625C180.648 31.376 181.306 30.8642 182.156 30.429L182.065 30.251C181.196 30.6958 180.514 31.224 180.023 31.8375L180.179 31.9625ZM182.158 30.4282C183.004 29.9756 183.888 29.75 184.811 29.75V29.55C183.854 29.55 182.938 29.7844 182.064 30.2518L182.158 30.4282ZM184.361 43.1C185.67 43.1 186.748 42.6075 187.587 41.6249L187.435 41.4951C186.634 42.4325 185.612 42.9 184.361 42.9V43.1ZM187.587 41.6249C188.424 40.6443 188.841 39.4203 188.841 37.96H188.641C188.641 39.3797 188.237 40.5557 187.435 41.4951L187.587 41.6249ZM188.841 37.96C188.841 36.4998 188.424 35.2853 187.586 34.3243L187.435 34.4557C188.237 35.3747 188.641 36.5402 188.641 37.96H188.841ZM187.588 34.326C186.768 33.3421 185.689 32.85 184.361 32.85V33.05C185.632 33.05 186.654 33.5179 187.434 34.454L187.588 34.326ZM184.361 32.85C183.033 32.85 181.944 33.3421 181.105 34.3251L181.257 34.4549C182.057 33.5179 183.089 33.05 184.361 33.05V32.85ZM181.105 34.3243C180.267 35.2853 179.851 36.4998 179.851 37.96H180.051C180.051 36.5402 180.454 35.3747 181.256 34.4557L181.105 34.3243ZM179.851 37.96C179.851 39.4203 180.267 40.6443 181.105 41.6249L181.257 41.4951C180.454 40.5557 180.051 39.3797 180.051 37.96H179.851ZM181.105 41.6249C181.944 42.6079 183.033 43.1 184.361 43.1V42.9C183.089 42.9 182.057 42.4321 181.257 41.4951L181.105 41.6249ZM209.592 37.6L209.692 37.6042V37.6H209.592ZM209.022 38.77L208.958 38.6932L209.022 38.77ZM197.862 39.22V39.12H197.74L197.764 39.2399L197.862 39.22ZM199.512 42.01L199.45 42.0884L199.451 42.0893L199.512 42.01ZM204.342 42.79L204.371 42.8857L204.375 42.8844L204.342 42.79ZM205.422 42.31L205.475 42.3952L205.476 42.3941L205.422 42.31ZM205.992 41.95L205.947 41.8603L205.941 41.8643L205.992 41.95ZM208.092 42.13L208.021 42.2007L208.092 42.13ZM207.702 44.65L207.64 44.5713L207.639 44.5727L207.702 44.65ZM205.452 45.82L205.42 45.7253L205.42 45.7253L205.452 45.82ZM198.192 45.25L198.143 45.3371L198.144 45.3374L198.192 45.25ZM195.312 42.37L195.225 42.4181L195.225 42.4187L195.312 42.37ZM195.372 33.67L195.285 33.6215L195.285 33.6215L195.372 33.67ZM198.222 30.7L198.272 30.7866L198.273 30.786L198.222 30.7ZM205.722 30.73L205.669 30.815L205.67 30.8154L205.722 30.73ZM208.542 33.64L208.629 33.5902L208.629 33.5902L208.542 33.64ZM197.892 36.22L197.794 36.2011L197.771 36.32H197.892V36.22ZM205.752 36.22V36.32H205.852V36.22H205.752ZM205.752 36.01H205.853L205.852 36.0005L205.752 36.01ZM209.492 37.5958C209.473 38.0484 209.296 38.4118 208.958 38.6932L209.086 38.8468C209.469 38.5282 209.671 38.1116 209.692 37.6042L209.492 37.5958ZM208.958 38.6932C208.617 38.9778 208.219 39.12 207.762 39.12V39.32C208.265 39.32 208.708 39.1622 209.086 38.8468L208.958 38.6932ZM207.762 39.12H197.862V39.32H207.762V39.12ZM197.764 39.2399C198.008 40.4406 198.57 41.3923 199.45 42.0884L199.574 41.9316C198.735 41.2677 198.196 40.3594 197.96 39.2001L197.764 39.2399ZM199.451 42.0893C200.329 42.7627 201.32 43.1 202.422 43.1V42.9C201.364 42.9 200.416 42.5773 199.573 41.9307L199.451 42.0893ZM202.422 43.1C203.246 43.1 203.898 43.0299 204.371 42.8857L204.313 42.6943C203.867 42.8301 203.238 42.9 202.422 42.9V43.1ZM204.375 42.8844C204.838 42.7233 205.206 42.5605 205.475 42.3952L205.37 42.2248C205.118 42.3795 204.766 42.5367 204.309 42.6956L204.375 42.8844ZM205.476 42.3941C205.756 42.214 205.945 42.0948 206.044 42.0357L205.941 41.8643C205.839 41.9252 205.648 42.046 205.368 42.2259L205.476 42.3941ZM206.037 42.0394C206.387 41.8646 206.711 41.78 207.012 41.78V41.58C206.673 41.58 206.318 41.6754 205.947 41.8606L206.037 42.0394ZM207.012 41.78C207.405 41.78 207.74 41.9193 208.021 42.2007L208.163 42.0593C207.844 41.7407 207.459 41.58 207.012 41.58V41.78ZM208.021 42.2007C208.304 42.4832 208.442 42.8083 208.442 43.18H208.642C208.642 42.7517 208.48 42.3768 208.163 42.0593L208.021 42.2007ZM208.442 43.18C208.442 43.6801 208.185 44.1438 207.64 44.5714L207.764 44.7286C208.34 44.2762 208.642 43.7599 208.642 43.18H208.442ZM207.639 44.5727C207.091 45.0228 206.353 45.4079 205.42 45.7253L205.484 45.9147C206.432 45.5921 207.194 45.1972 207.766 44.7273L207.639 44.5727ZM205.42 45.7253C204.49 46.0419 203.551 46.2 202.602 46.2V46.4C203.574 46.4 204.534 46.2381 205.484 45.9147L205.42 45.7253ZM202.602 46.2C200.936 46.2 199.484 45.8531 198.241 45.1626L198.144 45.3374C199.421 46.0469 200.908 46.4 202.602 46.4V46.2ZM198.241 45.1629C197.017 44.4718 196.07 43.5249 195.4 42.3213L195.225 42.4187C195.914 43.6551 196.887 44.6282 198.143 45.3371L198.241 45.1629ZM195.4 42.3219C194.729 41.0979 194.392 39.7247 194.392 38.2H194.192C194.192 39.7553 194.536 41.1621 195.225 42.4181L195.4 42.3219ZM194.392 38.2C194.392 36.4943 194.749 35.0014 195.46 33.7184L195.285 33.6215C194.555 34.9386 194.192 36.4657 194.192 38.2H194.392ZM195.46 33.7184C196.172 32.4329 197.109 31.4567 198.272 30.7866L198.172 30.6134C196.975 31.3033 196.013 32.3071 195.285 33.6215L195.46 33.7184ZM198.273 30.786C199.438 30.0949 200.681 29.75 202.002 29.75V29.55C200.644 29.55 199.366 29.9051 198.171 30.614L198.273 30.786ZM202.002 29.75C203.303 29.75 204.525 30.1044 205.669 30.815L205.775 30.645C204.6 29.9156 203.341 29.55 202.002 29.55V29.75ZM205.67 30.8154C206.835 31.5264 207.764 32.4841 208.455 33.6898L208.629 33.5902C207.921 32.3559 206.969 31.3736 205.774 30.6446L205.67 30.8154ZM208.455 33.6898C209.147 34.8945 209.492 36.1973 209.492 37.6H209.692C209.692 36.1627 209.338 34.8255 208.629 33.5902L208.455 33.6898ZM202.002 32.85C200.827 32.85 199.88 33.1262 199.172 33.6892C198.464 34.2527 198.007 35.0941 197.794 36.2011L197.99 36.2389C198.197 35.1659 198.635 34.3723 199.297 33.8458C199.959 33.3188 200.857 33.05 202.002 33.05V32.85ZM197.892 36.32H205.752V36.12H197.892V36.32ZM205.852 36.22V36.01H205.652V36.22H205.852ZM205.852 36.0005C205.769 35.1303 205.343 34.3868 204.585 33.7723L204.459 33.9277C205.181 34.5132 205.576 35.2097 205.653 36.0195L205.852 36.0005ZM204.585 33.7723C203.828 33.1581 202.965 32.85 202.002 32.85V33.05C202.919 33.05 203.737 33.3419 204.459 33.9277L204.585 33.7723ZM232.883 25.93L232.827 26.0129L232.828 26.0138L232.883 25.93ZM235.103 28.39L235.015 28.4374L235.015 28.4381L235.103 28.39ZM235.103 35.11L235.191 35.1574L235.191 35.1574L235.103 35.11ZM232.883 37.6L232.937 37.6838L232.939 37.6829L232.883 37.6ZM224.753 38.5V38.4H224.653V38.5H224.753ZM221.783 45.49L221.708 45.5565L221.71 45.5585L221.783 45.49ZM221.813 25.54L221.742 25.4693L221.742 25.4693L221.813 25.54ZM231.083 34.6L231.018 34.5235L231.016 34.5253L231.083 34.6ZM231.983 33.37L231.892 33.3281L231.891 33.3297L231.983 33.37ZM231.983 30.16L231.891 30.199L231.893 30.2033L231.983 30.16ZM231.083 28.93L231.016 29.0049L231.021 29.0085L231.083 28.93ZM224.753 28.45V28.35H224.653V28.45H224.753ZM224.753 35.08H224.653V35.18H224.753V35.08ZM229.973 25.1C230.971 25.1 231.922 25.403 232.827 26.0129L232.939 25.8471C232.004 25.217 231.014 24.9 229.973 24.9V25.1ZM232.828 26.0138C233.733 26.6039 234.462 27.411 235.015 28.4374L235.191 28.3426C234.623 27.289 233.872 26.4561 232.937 25.8462L232.828 26.0138ZM235.015 28.4381C235.567 29.4427 235.843 30.546 235.843 31.75H236.043C236.043 30.514 235.759 29.3773 235.19 28.3419L235.015 28.4381ZM235.843 31.75C235.843 32.9337 235.567 34.0374 235.015 35.0626L235.191 35.1574C235.759 34.1026 236.043 32.9663 236.043 31.75H235.843ZM235.015 35.0626C234.462 36.0893 233.733 36.9067 232.827 37.5171L232.939 37.6829C233.873 37.0533 234.624 36.2107 235.191 35.1574L235.015 35.0626ZM232.828 37.5162C231.923 38.1065 230.972 38.4 229.973 38.4V38.6C231.014 38.6 232.002 38.2935 232.937 37.6838L232.828 37.5162ZM229.973 38.4H224.753V38.6H229.973V38.4ZM224.653 38.5V44.17H224.853V38.5H224.653ZM224.653 44.17C224.653 44.6888 224.5 45.1029 224.2 45.4215L224.346 45.5585C224.686 45.1971 224.853 44.7312 224.853 44.17H224.653ZM224.2 45.4215C223.901 45.739 223.509 45.9 223.013 45.9V46.1C223.557 46.1 224.004 45.921 224.346 45.5585L224.2 45.4215ZM223.013 45.9C222.538 45.9 222.155 45.7398 221.856 45.4215L221.71 45.5585C222.05 45.9202 222.487 46.1 223.013 46.1V45.9ZM221.857 45.4236C221.555 45.0834 221.403 44.6676 221.403 44.17H221.203C221.203 44.7124 221.37 45.1766 221.708 45.5564L221.857 45.4236ZM221.403 44.17V26.83H221.203V44.17H221.403ZM221.403 26.83C221.403 26.3341 221.564 25.9303 221.883 25.6107L221.742 25.4693C221.382 25.8297 221.203 26.2859 221.203 26.83H221.403ZM221.883 25.6107C222.224 25.2699 222.639 25.1 223.133 25.1V24.9C222.587 24.9 222.121 25.0901 221.742 25.4693L221.883 25.6107ZM223.133 25.1H229.973V24.9H223.133V25.1ZM229.973 35.18C230.383 35.18 230.776 35.0065 231.149 34.6747L231.016 34.5253C230.67 34.8335 230.322 34.98 229.973 34.98V35.18ZM231.147 34.6765C231.54 34.3457 231.849 33.9228 232.074 33.4103L231.891 33.3297C231.677 33.8172 231.386 34.2143 231.018 34.5235L231.147 34.6765ZM232.074 33.4119C232.319 32.8791 232.443 32.3248 232.443 31.75H232.243C232.243 32.2952 232.126 32.8209 231.892 33.3281L232.074 33.4119ZM232.443 31.75C232.443 31.1752 232.319 30.6304 232.073 30.1167L231.893 30.2033C232.126 30.6896 232.243 31.2048 232.243 31.75H232.443ZM232.075 30.121C231.849 29.5881 231.54 29.1636 231.145 28.8515L231.021 29.0085C231.386 29.2964 231.676 29.6919 231.891 30.199L232.075 30.121ZM231.149 28.8553C230.776 28.5235 230.383 28.35 229.973 28.35V28.55C230.322 28.55 230.67 28.6965 231.016 29.0047L231.149 28.8553ZM229.973 28.35H224.753V28.55H229.973V28.35ZM224.653 28.45V35.08H224.853V28.45H224.653ZM224.753 35.18H229.973V34.98H224.753V35.18ZM248.919 30.16L248.854 30.2362L248.856 30.2377L248.919 30.16ZM249.069 32.77L249.137 32.843L249.14 32.8407L249.069 32.77ZM246.909 33.01L246.943 32.9161L246.941 32.9151L246.909 33.01ZM246.489 32.89L246.46 32.9858L246.463 32.9865L246.489 32.89ZM244.329 33.28L244.384 33.3632L244.384 33.3632L244.329 33.28ZM243.129 34.75L243.039 34.7064L243.038 34.7076L243.129 34.75ZM242.169 45.49L242.24 45.5607L242.242 45.5587L242.169 45.49ZM239.589 45.49L239.516 45.5587L239.518 45.5607L239.589 45.49ZM239.589 30.49L239.66 30.5607L239.662 30.5587L239.589 30.49ZM242.169 30.49L242.096 30.5587L242.098 30.5607L242.169 30.49ZM242.679 32.17H242.579V32.5527L242.766 32.2189L242.679 32.17ZM244.659 30.31L244.703 30.3999L244.704 30.399L244.659 30.31ZM247.419 29.75C247.999 29.75 248.475 29.9137 248.854 30.2362L248.984 30.0838C248.563 29.7263 248.039 29.55 247.419 29.55V29.75ZM248.856 30.2377C249.257 30.5624 249.449 30.9356 249.449 31.36H249.649C249.649 30.8644 249.421 30.4376 248.982 30.0823L248.856 30.2377ZM249.449 31.36C249.449 31.9635 249.293 32.4041 248.998 32.6993L249.14 32.8407C249.484 32.4959 249.649 31.9965 249.649 31.36H249.449ZM249.001 32.697C248.699 32.9796 248.344 33.12 247.929 33.12V33.32C248.394 33.32 248.799 33.1604 249.137 32.843L249.001 32.697ZM247.929 33.12C247.644 33.12 247.316 33.0534 246.943 32.9162L246.874 33.1038C247.262 33.2466 247.614 33.32 247.929 33.32V33.12ZM246.941 32.9151C246.877 32.8941 246.734 32.8533 246.515 32.7935L246.463 32.9865C246.683 33.0467 246.82 33.0859 246.877 33.1049L246.941 32.9151ZM246.518 32.7942C246.307 32.731 246.077 32.7 245.829 32.7V32.9C246.061 32.9 246.271 32.929 246.46 32.9858L246.518 32.7942ZM245.829 32.7C245.287 32.7 244.768 32.8671 244.273 33.1968L244.384 33.3632C244.85 33.0529 245.331 32.9 245.829 32.9V32.7ZM244.273 33.1968C243.775 33.529 243.365 34.0346 243.039 34.7064L243.219 34.7936C243.533 34.1454 243.923 33.671 244.384 33.3632L244.273 33.1968ZM243.038 34.7076C242.731 35.364 242.579 36.1492 242.579 37.06H242.779C242.779 36.1708 242.927 35.416 243.219 34.7924L243.038 34.7076ZM242.579 37.06V44.17H242.779V37.06H242.579ZM242.579 44.17C242.579 44.6659 242.418 45.0809 242.096 45.4213L242.242 45.5587C242.6 45.1791 242.779 44.7141 242.779 44.17H242.579ZM242.098 45.4193C241.779 45.7389 241.375 45.9 240.879 45.9V46.1C241.423 46.1 241.879 45.9211 242.24 45.5607L242.098 45.4193ZM240.879 45.9C240.383 45.9 239.979 45.7389 239.66 45.4193L239.518 45.5607C239.879 45.9211 240.335 46.1 240.879 46.1V45.9ZM239.662 45.4213C239.34 45.0809 239.179 44.6659 239.179 44.17H238.979C238.979 44.7141 239.158 45.1791 239.516 45.5587L239.662 45.4213ZM239.179 44.17V31.78H238.979V44.17H239.179ZM239.179 31.78C239.179 31.2841 239.34 30.8803 239.66 30.5607L239.518 30.4193C239.158 30.7797 238.979 31.2359 238.979 31.78H239.179ZM239.662 30.5587C239.982 30.2198 240.385 30.05 240.879 30.05V29.85C240.333 29.85 239.876 30.0402 239.516 30.4213L239.662 30.5587ZM240.879 30.05C241.373 30.05 241.776 30.2198 242.096 30.5587L242.242 30.4213C241.882 30.0402 241.425 29.85 240.879 29.85V30.05ZM242.098 30.5607C242.418 30.8803 242.579 31.2841 242.579 31.78H242.779C242.779 31.2359 242.6 30.7797 242.24 30.4193L242.098 30.5607ZM242.579 31.78V32.17H242.779V31.78H242.579ZM242.766 32.2189C243.216 31.417 243.861 30.8111 244.703 30.3999L244.615 30.2201C243.737 30.6489 243.062 31.283 242.592 32.1211L242.766 32.2189ZM244.704 30.399C245.55 29.9663 246.455 29.75 247.419 29.75V29.55C246.423 29.55 245.488 29.7737 244.613 30.221L244.704 30.399ZM265.753 42.31L265.84 42.3596L265.84 42.359L265.753 42.31ZM262.783 45.25L262.734 45.1626L262.734 45.1629L262.783 45.25ZM254.533 45.25L254.582 45.1629L254.582 45.1629L254.533 45.25ZM251.593 42.31L251.506 42.359L251.506 42.3596L251.593 42.31ZM251.593 33.7L251.68 33.7496L251.68 33.749L251.593 33.7ZM254.533 30.73L254.582 30.8171L254.583 30.8165L254.533 30.73ZM262.783 30.73L262.733 30.8165L262.734 30.8174L262.783 30.73ZM265.753 33.7L265.666 33.749L265.666 33.7496L265.753 33.7ZM262.603 35.38L262.514 35.4257L262.515 35.4284L262.603 35.38ZM260.953 33.58L260.9 33.6651L260.901 33.6657L260.953 33.58ZM256.363 33.58L256.311 33.4942L256.31 33.4949L256.363 33.58ZM254.713 35.38L254.625 35.3326L254.624 35.3334L254.713 35.38ZM254.713 40.6L254.624 40.6466L254.625 40.6484L254.713 40.6ZM256.363 42.37L256.31 42.4551L256.311 42.4557L256.363 42.37ZM260.953 42.37L260.901 42.2842L260.9 42.2849L260.953 42.37ZM262.603 40.6L262.515 40.5516L262.514 40.5534L262.603 40.6ZM266.733 37.99C266.733 39.5744 266.377 40.9973 265.666 42.261L265.84 42.359C266.569 41.0627 266.933 39.6056 266.933 37.99H266.733ZM265.666 42.2604C264.955 43.5046 263.978 44.4715 262.734 45.1626L262.831 45.3374C264.108 44.6285 265.111 43.6354 265.84 42.3596L265.666 42.2604ZM262.734 45.1629C261.51 45.854 260.157 46.2 258.673 46.2V46.4C260.189 46.4 261.576 46.046 262.832 45.3371L262.734 45.1629ZM258.673 46.2C257.169 46.2 255.806 45.8539 254.582 45.1629L254.484 45.3371C255.74 46.0461 257.137 46.4 258.673 46.4V46.2ZM254.582 45.1629C253.358 44.472 252.391 43.505 251.68 42.2604L251.506 42.3596C252.235 43.635 253.228 44.628 254.484 45.3371L254.582 45.1629ZM251.68 42.261C250.969 40.9973 250.613 39.5744 250.613 37.99H250.413C250.413 39.6056 250.777 41.0627 251.506 42.359L251.68 42.261ZM250.613 37.99C250.613 36.4056 250.969 34.993 251.68 33.7496L251.506 33.6504C250.777 34.927 250.413 36.3744 250.413 37.99H250.613ZM251.68 33.749C252.391 32.4844 253.358 31.5078 254.582 30.8171L254.484 30.6429C253.227 31.3522 252.234 32.3556 251.506 33.651L251.68 33.749ZM254.583 30.8165C255.807 30.1059 257.169 29.75 258.673 29.75V29.55C257.136 29.55 255.739 29.9141 254.483 30.6435L254.583 30.8165ZM258.673 29.75C260.156 29.75 261.509 30.1058 262.733 30.8165L262.833 30.6435C261.577 29.9142 260.19 29.55 258.673 29.55V29.75ZM262.734 30.8174C263.978 31.5083 264.955 32.4848 265.666 33.749L265.84 33.651C265.111 32.3552 264.108 31.3517 262.831 30.6426L262.734 30.8174ZM265.666 33.7496C266.377 34.993 266.733 36.4056 266.733 37.99H266.933C266.933 36.3744 266.569 34.927 265.84 33.6504L265.666 33.7496ZM263.333 37.99C263.333 36.9953 263.12 36.1083 262.69 35.3316L262.515 35.4284C262.926 36.1717 263.133 37.0247 263.133 37.99H263.333ZM262.692 35.3344C262.284 34.539 261.722 33.9246 261.004 33.4942L260.901 33.6657C261.584 34.0754 262.122 34.661 262.514 35.4256L262.692 35.3344ZM261.005 33.4949C260.309 33.0647 259.53 32.85 258.673 32.85V33.05C259.495 33.05 260.237 33.2553 260.9 33.6651L261.005 33.4949ZM258.673 32.85C257.815 32.85 257.027 33.0646 256.311 33.4942L256.414 33.6657C257.098 33.2554 257.85 33.05 258.673 33.05V32.85ZM256.31 33.4949C255.614 33.9251 255.052 34.5389 254.625 35.3326L254.801 35.4274C255.214 34.6611 255.752 34.0749 256.415 33.6651L256.31 33.4949ZM254.624 35.3334C254.216 36.1097 254.013 36.9961 254.013 37.99H254.213C254.213 37.0239 254.41 36.1703 254.801 35.4266L254.624 35.3334ZM254.013 37.99C254.013 38.9839 254.216 39.8703 254.624 40.6466L254.801 40.5534C254.41 39.8097 254.213 38.9561 254.213 37.99H254.013ZM254.625 40.6484C255.053 41.4221 255.614 42.0253 256.31 42.4551L256.415 42.2849C255.751 41.8747 255.213 41.2979 254.8 40.5516L254.625 40.6484ZM256.311 42.4557C257.027 42.8854 257.815 43.1 258.673 43.1V42.9C257.85 42.9 257.098 42.6946 256.414 42.2843L256.311 42.4557ZM258.673 43.1C259.53 43.1 260.309 42.8853 261.005 42.4551L260.9 42.2849C260.237 42.6947 259.495 42.9 258.673 42.9V43.1ZM261.004 42.4557C261.721 42.0258 262.283 41.4219 262.691 40.6466L262.514 40.5534C262.122 41.2981 261.585 41.8742 260.901 42.2843L261.004 42.4557ZM262.69 40.6484C263.12 39.8717 263.333 38.9847 263.333 37.99H263.133C263.133 38.9553 262.926 39.8083 262.515 40.5516L262.69 40.6484ZM284.121 24.31L284.191 24.2393L284.121 24.31ZM284.121 45.49L284.191 45.5607L284.193 45.5587L284.121 45.49ZM281.541 45.49L281.468 45.5586L281.47 45.5607L281.541 45.49ZM281.031 44.2L281.131 44.1962L281.121 43.9423L280.955 44.1347L281.031 44.2ZM278.991 45.7L279.034 45.7903L279.035 45.7899L278.991 45.7ZM272.571 45.25L272.517 45.3341L272.518 45.3348L272.571 45.25ZM269.901 42.28L269.811 42.3253L269.812 42.3264L269.901 42.28ZM269.901 33.7L269.99 33.7453L269.99 33.7447L269.901 33.7ZM272.511 30.73L272.564 30.8144L272.565 30.8141L272.511 30.73ZM278.901 30.19L278.861 30.2819L278.863 30.2827L278.901 30.19ZM281.031 31.51L280.962 31.5832L281.131 31.7397V31.51H281.031ZM281.541 24.34L281.611 24.4107L281.613 24.4087L281.541 24.34ZM279.951 41.59L280.026 41.6557L280.027 41.6549L279.951 41.59ZM279.951 34.39L279.875 34.4549L279.875 34.4549L279.951 34.39ZM273.621 34.39L273.697 34.4549L273.697 34.4549L273.621 34.39ZM273.591 41.59L273.514 41.654L273.515 41.6557L273.591 41.59ZM282.831 23.9C283.326 23.9 283.73 24.0611 284.05 24.3807L284.191 24.2393C283.831 23.8789 283.375 23.7 282.831 23.7V23.9ZM284.05 24.3807C284.369 24.6996 284.531 25.113 284.531 25.63H284.731C284.731 25.067 284.552 24.6004 284.191 24.2393L284.05 24.3807ZM284.531 25.63V44.17H284.731V25.63H284.531ZM284.531 44.17C284.531 44.6659 284.369 45.0809 284.048 45.4213L284.193 45.5587C284.552 45.1791 284.731 44.7141 284.731 44.17H284.531ZM284.05 45.4193C283.73 45.7389 283.326 45.9 282.831 45.9V46.1C283.375 46.1 283.831 45.9211 284.191 45.5607L284.05 45.4193ZM282.831 45.9C282.335 45.9 281.931 45.7389 281.611 45.4193L281.47 45.5607C281.83 45.9211 282.286 46.1 282.831 46.1V45.9ZM281.613 45.4215C281.312 45.1011 281.15 44.695 281.131 44.1962L280.931 44.2038C280.952 44.745 281.129 45.1989 281.468 45.5585L281.613 45.4215ZM280.955 44.1347C280.466 44.7022 279.798 45.1947 278.947 45.6101L279.035 45.7899C279.904 45.3653 280.596 44.8578 281.106 44.2653L280.955 44.1347ZM278.948 45.6097C278.121 46.0033 277.246 46.2 276.321 46.2V46.4C277.275 46.4 278.18 46.1967 279.034 45.7903L278.948 45.6097ZM276.321 46.2C274.958 46.2 273.727 45.8548 272.624 45.1652L272.518 45.3348C273.654 46.0452 274.923 46.4 276.321 46.4V46.2ZM272.625 45.1659C271.52 44.4559 270.642 43.4793 269.989 42.2336L269.812 42.3264C270.48 43.6007 271.381 44.6041 272.517 45.3341L272.625 45.1659ZM269.99 42.2347C269.358 40.9905 269.041 39.5764 269.041 37.99H268.841C268.841 39.6036 269.163 41.0495 269.811 42.3253L269.99 42.2347ZM269.041 37.99C269.041 36.4036 269.358 34.9895 269.99 33.7453L269.811 33.6547C269.163 34.9305 268.841 36.3764 268.841 37.99H269.041ZM269.99 33.7447C270.623 32.4793 271.481 31.5037 272.564 30.8144L272.457 30.6456C271.34 31.3563 270.458 32.3607 269.811 33.6553L269.99 33.7447ZM272.565 30.8141C273.668 30.1046 274.88 29.75 276.201 29.75V29.55C274.842 29.55 273.593 29.9154 272.457 30.6459L272.565 30.8141ZM276.201 29.75C277.148 29.75 278.034 29.9275 278.861 30.2819L278.94 30.0981C278.087 29.7325 277.173 29.55 276.201 29.55V29.75ZM278.863 30.2827C279.693 30.6188 280.393 31.0526 280.962 31.5832L281.099 31.4368C280.509 30.8874 279.788 30.4412 278.938 30.0973L278.863 30.2827ZM281.131 31.51V25.63H280.931V31.51H281.131ZM281.131 25.63C281.131 25.1341 281.292 24.7303 281.611 24.4107L281.47 24.2693C281.11 24.6297 280.931 25.0859 280.931 25.63H281.131ZM281.613 24.4087C281.933 24.0698 282.337 23.9 282.831 23.9V23.7C282.285 23.7 281.828 23.8902 281.468 24.2713L281.613 24.4087ZM276.771 43.1C278.098 43.1 279.186 42.6185 280.026 41.6557L279.875 41.5243C279.075 42.4415 278.043 42.9 276.771 42.9V43.1ZM280.027 41.6549C280.864 40.6743 281.281 39.4503 281.281 37.99H281.081C281.081 39.4097 280.677 40.5857 279.875 41.5251L280.027 41.6549ZM281.281 37.99C281.281 36.5297 280.864 35.3057 280.027 34.3251L279.875 34.4549C280.677 35.3943 281.081 36.5703 281.081 37.99H281.281ZM280.027 34.3251C279.187 33.3421 278.099 32.85 276.771 32.85V33.05C278.042 33.05 279.074 33.5179 279.875 34.4549L280.027 34.3251ZM276.771 32.85C275.462 32.85 274.384 33.3425 273.545 34.3251L273.697 34.4549C274.497 33.5175 275.519 33.05 276.771 33.05V32.85ZM273.545 34.3251C272.707 35.3057 272.291 36.5297 272.291 37.99H272.491C272.491 36.5703 272.894 35.3943 273.697 34.4549L273.545 34.3251ZM272.291 37.99C272.291 39.4496 272.697 40.6734 273.514 41.654L273.667 41.526C272.885 40.5866 272.491 39.4104 272.491 37.99H272.291ZM273.515 41.6557C274.355 42.6185 275.443 43.1 276.771 43.1V42.9C275.498 42.9 274.466 42.4415 273.666 41.5243L273.515 41.6557ZM302.201 30.49L302.128 30.5587L302.13 30.5607L302.201 30.49ZM300.911 44.47L300.839 44.3999L300.839 44.4005L300.911 44.47ZM290.771 44.47L290.699 44.5395L290.699 44.5395L290.771 44.47ZM289.511 30.49L289.582 30.5607L289.583 30.5587L289.511 30.49ZM292.091 30.49L292.018 30.5587L292.02 30.5607L292.091 30.49ZM293.411 42.13L293.336 42.1969L293.338 42.1981L293.411 42.13ZM298.301 42.13L298.374 42.1982L298.375 42.1969L298.301 42.13ZM299.621 30.49L299.692 30.5607L299.693 30.5587L299.621 30.49ZM300.911 30.05C301.405 30.05 301.808 30.2198 302.128 30.5587L302.273 30.4213C301.914 30.0402 301.457 29.85 300.911 29.85V30.05ZM302.13 30.5607C302.45 30.8803 302.611 31.2841 302.611 31.78H302.811C302.811 31.2359 302.632 30.7797 302.271 30.4193L302.13 30.5607ZM302.611 31.78V39.4H302.811V31.78H302.611ZM302.611 39.4C302.611 41.541 302.017 43.2032 300.839 44.3999L300.982 44.5401C302.205 43.2968 302.811 41.579 302.811 39.4H302.611ZM300.839 44.4005C299.683 45.5957 298.022 46.2 295.841 46.2V46.4C298.059 46.4 299.779 45.7843 300.983 44.5395L300.839 44.4005ZM295.841 46.2C293.659 46.2 291.999 45.5957 290.843 44.4005L290.699 44.5395C291.903 45.7843 293.622 46.4 295.841 46.4V46.2ZM290.843 44.4005C289.685 43.2038 289.101 41.5414 289.101 39.4H288.901C288.901 41.5786 289.496 43.2962 290.699 44.5395L290.843 44.4005ZM289.101 39.4V31.78H288.901V39.4H289.101ZM289.101 31.78C289.101 31.2841 289.262 30.8803 289.581 30.5607L289.44 30.4193C289.08 30.7797 288.901 31.2359 288.901 31.78H289.101ZM289.583 30.5587C289.904 30.2198 290.307 30.05 290.801 30.05V29.85C290.255 29.85 289.798 30.0402 289.438 30.4213L289.583 30.5587ZM290.801 30.05C291.295 30.05 291.698 30.2198 292.018 30.5587L292.163 30.4213C291.804 30.0402 291.347 29.85 290.801 29.85V30.05ZM292.02 30.5607C292.34 30.8803 292.501 31.2841 292.501 31.78H292.701C292.701 31.2359 292.522 30.7797 292.161 30.4193L292.02 30.5607ZM292.501 31.78V39.4H292.701V31.78H292.501ZM292.501 39.4C292.501 40.6324 292.773 41.5711 293.336 42.1969L293.485 42.0631C292.968 41.4889 292.701 40.6076 292.701 39.4H292.501ZM293.338 42.1981C293.903 42.805 294.743 43.1 295.841 43.1V42.9C294.778 42.9 293.999 42.615 293.484 42.0619L293.338 42.1981ZM295.841 43.1C296.957 43.1 297.809 42.8054 298.374 42.1981L298.228 42.0619C297.713 42.6146 296.924 42.9 295.841 42.9V43.1ZM298.375 42.1969C298.938 41.5711 299.211 40.6324 299.211 39.4H299.011C299.011 40.6076 298.743 41.4889 298.226 42.0631L298.375 42.1969ZM299.211 39.4V31.78H299.011V39.4H299.211ZM299.211 31.78C299.211 31.2841 299.372 30.8803 299.691 30.5607L299.55 30.4193C299.19 30.7797 299.011 31.2359 299.011 31.78H299.211ZM299.693 30.5587C300.014 30.2198 300.417 30.05 300.911 30.05V29.85C300.365 29.85 299.908 30.0402 299.548 30.4213L299.693 30.5587ZM317.708 30.46L317.662 30.5488L317.663 30.5494L317.708 30.46ZM318.878 33.73L318.956 33.7931L318.958 33.7907L318.878 33.73ZM317.078 34.09L317.033 34.1798L317.041 34.1828L317.078 34.09ZM316.478 33.73L316.411 33.8052L316.421 33.8119L316.478 33.73ZM315.938 33.34L315.987 33.2525L315.983 33.2506L315.938 33.34ZM315.038 33.07L315.018 33.1679L315.019 33.1681L315.038 33.07ZM310.568 34.36L310.494 34.2925L310.494 34.2926L310.568 34.36ZM310.598 41.59L310.524 41.6567L310.524 41.6575L310.598 41.59ZM316.088 42.64L316.043 42.5506L316.043 42.5506L316.088 42.64ZM316.568 42.34L316.626 42.4219L316.627 42.4209L316.568 42.34ZM317.168 41.98L317.209 42.0714L317.209 42.0714L317.168 41.98ZM318.998 42.34L318.923 42.4059L318.925 42.4084L318.998 42.34ZM318.608 44.92L318.668 45L318.668 45L318.608 44.92ZM316.388 45.94L316.413 46.0368L316.415 46.0362L316.388 45.94ZM309.368 45.22L309.315 45.305L309.316 45.3054L309.368 45.22ZM306.668 42.25L306.579 42.2947L306.579 42.2953L306.668 42.25ZM306.698 33.67L306.61 33.6225L306.61 33.6236L306.698 33.67ZM309.518 30.73L309.569 30.8164L309.57 30.8157L309.518 30.73ZM313.598 29.75C315.289 29.75 316.641 30.0187 317.662 30.5487L317.754 30.3713C316.695 29.8213 315.308 29.55 313.598 29.55V29.75ZM317.663 30.5494C318.682 31.0589 319.168 31.7303 319.168 32.56H319.368C319.368 31.6297 318.814 30.9011 317.753 30.3706L317.663 30.5494ZM319.168 32.56C319.168 32.9787 319.045 33.3472 318.799 33.6693L318.958 33.7907C319.231 33.4328 319.368 33.0213 319.368 32.56H319.168ZM318.801 33.6669C318.56 33.9631 318.249 34.11 317.858 34.11V34.31C318.308 34.31 318.676 34.1369 318.956 33.7931L318.801 33.6669ZM317.858 34.11C317.545 34.11 317.299 34.0707 317.115 33.9972L317.041 34.1828C317.257 34.2693 317.531 34.31 317.858 34.31V34.11ZM317.123 34.0006C316.928 33.9029 316.732 33.7855 316.536 33.6481L316.421 33.8119C316.625 33.9545 316.829 34.0771 317.033 34.1794L317.123 34.0006ZM316.545 33.6553C316.36 33.4912 316.174 33.3567 315.987 33.2526L315.89 33.4274C316.062 33.5233 316.236 33.6488 316.412 33.8047L316.545 33.6553ZM315.983 33.2506C315.771 33.1446 315.461 33.0525 315.058 32.9719L315.019 33.1681C315.416 33.2475 315.705 33.3354 315.893 33.4294L315.983 33.2506ZM315.059 32.9721C314.676 32.8915 314.358 32.85 314.108 32.85V33.05C314.338 33.05 314.641 33.0885 315.018 33.1679L315.059 32.9721ZM314.108 32.85C312.586 32.85 311.377 33.3281 310.494 34.2925L310.642 34.4275C311.48 33.5119 312.631 33.05 314.108 33.05V32.85ZM310.494 34.2926C309.634 35.2346 309.208 36.4704 309.208 37.99H309.408C309.408 36.5096 309.822 35.3254 310.642 34.4274L310.494 34.2926ZM309.208 37.99C309.208 39.4515 309.645 40.6762 310.524 41.6567L310.673 41.5233C309.831 40.5838 309.408 39.4085 309.408 37.99H309.208ZM310.524 41.6575C311.404 42.6194 312.532 43.1 313.898 43.1V42.9C312.585 42.9 311.512 42.4406 310.672 41.5225L310.524 41.6575ZM313.898 43.1C314.883 43.1 315.632 42.98 316.133 42.7294L316.043 42.5506C315.585 42.78 314.873 42.9 313.898 42.9V43.1ZM316.133 42.7294C316.26 42.6662 316.424 42.5629 316.626 42.4219L316.511 42.2581C316.312 42.3971 316.157 42.4938 316.043 42.5506L316.133 42.7294ZM316.627 42.4209C316.843 42.2636 317.037 42.1477 317.209 42.0714L317.128 41.8886C316.939 41.9723 316.733 42.0964 316.509 42.2591L316.627 42.4209ZM317.209 42.0714C317.373 41.9986 317.578 41.96 317.828 41.96V41.76C317.558 41.76 317.324 41.8014 317.128 41.8886L317.209 42.0714ZM317.828 41.96C318.305 41.96 318.665 42.1114 318.923 42.4059L319.073 42.2741C318.771 41.9286 318.351 41.76 317.828 41.76V41.96ZM318.925 42.4084C319.205 42.7072 319.348 43.0916 319.348 43.57H319.548C319.548 43.0484 319.391 42.6128 319.071 42.2716L318.925 42.4084ZM319.348 43.57C319.348 44.006 319.095 44.4298 318.548 44.84L318.668 45C319.241 44.5702 319.548 44.094 319.548 43.57H319.348ZM318.548 44.84C318.001 45.2505 317.273 45.586 316.361 45.8438L316.415 46.0362C317.343 45.774 318.095 45.4295 318.668 45L318.548 44.84ZM316.363 45.8432C315.452 46.0809 314.48 46.2 313.448 46.2V46.4C314.496 46.4 315.484 46.2791 316.413 46.0368L316.363 45.8432ZM313.448 46.2C311.924 46.2 310.583 45.844 309.42 45.1346L309.316 45.3054C310.514 46.036 311.892 46.4 313.448 46.4V46.2ZM309.421 45.135C308.277 44.425 307.389 43.449 306.757 42.2047L306.579 42.2953C307.227 43.571 308.139 44.575 309.315 45.305L309.421 45.135ZM306.758 42.2053C306.125 40.9404 305.808 39.5359 305.808 37.99H305.608C305.608 39.5641 305.931 40.9996 306.579 42.2947L306.758 42.2053ZM305.808 37.99C305.808 36.3839 306.135 34.9602 306.787 33.7164L306.61 33.6236C305.941 34.8998 305.608 36.3561 305.608 37.99H305.808ZM306.786 33.7175C307.458 32.4731 308.385 31.5068 309.569 30.8164L309.468 30.6436C308.251 31.3532 307.299 32.3469 306.61 33.6225L306.786 33.7175ZM309.57 30.8157C310.753 30.1059 312.095 29.75 313.598 29.75V29.55C312.062 29.55 310.684 29.9141 309.467 30.6443L309.57 30.8157ZM330.538 43.03L330.459 43.092L330.464 43.0978L330.538 43.03ZM329.998 45.46L330.05 45.545L330.051 45.5445L329.998 45.46ZM324.868 45.22L324.814 45.3041L324.816 45.3056L324.868 45.22ZM323.608 33.55H323.708V33.45H323.608V33.55ZM321.028 30.73L321.096 30.803L321.098 30.8007L321.028 30.73ZM323.608 30.25V30.35H323.708V30.25H323.608ZM324.118 27.04L324.047 26.9693L324.047 26.9693L324.118 27.04ZM326.698 27.04L326.625 27.1087L326.627 27.1107L326.698 27.04ZM327.208 30.25H327.108V30.35H327.208V30.25ZM330.538 30.73L330.467 30.8007L330.467 30.8007L330.538 30.73ZM330.538 33.1L330.606 33.173L330.608 33.1707L330.538 33.1ZM327.208 33.55V33.45H327.108V33.55H327.208ZM327.538 42.61L327.47 42.6841L327.474 42.6874L327.538 42.61ZM329.098 42.76L329.125 42.8568L329.136 42.8523L329.098 42.76ZM329.788 42.71C330.029 42.71 330.252 42.8287 330.459 43.0918L330.616 42.9682C330.383 42.6713 330.106 42.51 329.788 42.51V42.71ZM330.464 43.0978C330.683 43.3351 330.798 43.6587 330.798 44.08H330.998C330.998 43.6213 330.872 43.2449 330.611 42.9622L330.464 43.0978ZM330.798 44.08C330.798 44.5751 330.525 45.0074 329.944 45.3755L330.051 45.5445C330.67 45.1526 330.998 44.6649 330.998 44.08H330.798ZM329.945 45.375C329.382 45.7244 328.741 45.9 328.018 45.9V46.1C328.775 46.1 329.453 45.9156 330.05 45.545L329.945 45.375ZM328.018 45.9C326.792 45.9 325.761 45.643 324.919 45.1344L324.816 45.3056C325.695 45.837 326.764 46.1 328.018 46.1V45.9ZM324.922 45.1359C324.126 44.6245 323.708 43.5406 323.708 41.83H323.508C323.508 43.5594 323.929 44.7355 324.814 45.3041L324.922 45.1359ZM323.708 41.83V33.55H323.508V41.83H323.708ZM323.608 33.45H322.228V33.65H323.608V33.45ZM322.228 33.45C321.772 33.45 321.398 33.2993 321.098 32.9993L320.957 33.1407C321.297 33.4807 321.723 33.65 322.228 33.65V33.45ZM321.098 32.9993C320.798 32.6993 320.648 32.3253 320.648 31.87H320.448C320.448 32.3747 320.617 32.8007 320.957 33.1407L321.098 32.9993ZM320.648 31.87C320.648 31.4361 320.797 31.083 321.096 30.803L320.959 30.657C320.618 30.977 320.448 31.3839 320.448 31.87H320.648ZM321.098 30.8007C321.398 30.5007 321.772 30.35 322.228 30.35V30.15C321.723 30.15 321.297 30.3193 320.957 30.6593L321.098 30.8007ZM322.228 30.35H323.608V30.15H322.228V30.35ZM323.708 30.25V28.33H323.508V30.25H323.708ZM323.708 28.33C323.708 27.8341 323.869 27.4303 324.188 27.1107L324.047 26.9693C323.687 27.3297 323.508 27.7859 323.508 28.33H323.708ZM324.188 27.1107C324.529 26.7699 324.944 26.6 325.438 26.6V26.4C324.892 26.4 324.426 26.5901 324.047 26.9693L324.188 27.1107ZM325.438 26.6C325.91 26.6 326.304 26.7689 326.625 27.1087L326.77 26.9713C326.411 26.5911 325.965 26.4 325.438 26.4V26.6ZM326.627 27.1107C326.947 27.4303 327.108 27.8341 327.108 28.33H327.308C327.308 27.7859 327.129 27.3297 326.768 26.9693L326.627 27.1107ZM327.108 28.33V30.25H327.308V28.33H327.108ZM327.208 30.35H329.338V30.15H327.208V30.35ZM329.338 30.35C329.793 30.35 330.167 30.5007 330.467 30.8007L330.608 30.6593C330.268 30.3193 329.842 30.15 329.338 30.15V30.35ZM330.467 30.8007C330.767 31.1007 330.918 31.4747 330.918 31.93H331.118C331.118 31.4253 330.948 30.9993 330.608 30.6593L330.467 30.8007ZM330.918 31.93C330.918 32.364 330.768 32.7284 330.467 33.0293L330.608 33.1707C330.947 32.8316 331.118 32.416 331.118 31.93H330.918ZM330.469 33.027C330.17 33.308 329.795 33.45 329.338 33.45V33.65C329.84 33.65 330.266 33.492 330.606 33.173L330.469 33.027ZM329.338 33.45H327.208V33.65H329.338V33.45ZM327.108 33.55V41.68H327.308V33.55H327.108ZM327.108 41.68C327.108 42.1162 327.222 42.4583 327.47 42.684L327.605 42.536C327.413 42.3617 327.308 42.0838 327.308 41.68H327.108ZM327.474 42.6874C327.717 42.8863 328.042 42.98 328.438 42.98V42.78C328.073 42.78 327.798 42.6937 327.601 42.5326L327.474 42.6874ZM328.438 42.98C328.612 42.98 328.842 42.937 329.125 42.8562L329.07 42.6638C328.793 42.743 328.584 42.78 328.438 42.78V42.98ZM329.136 42.8523C329.366 42.7565 329.583 42.71 329.788 42.71V42.51C329.552 42.51 329.309 42.5635 329.059 42.6677L329.136 42.8523ZM337.203 45.49L337.274 45.5607L337.276 45.5587L337.203 45.49ZM334.623 45.49L334.55 45.5587L334.552 45.5607L334.623 45.49ZM334.623 30.49L334.694 30.5607L334.696 30.5587L334.623 30.49ZM337.203 30.49L337.13 30.5587L337.132 30.5607L337.203 30.49ZM334.443 27.67L334.381 27.7486L334.381 27.7486L334.443 27.67ZM334.473 24.76L334.532 24.8406L334.532 24.8406L334.473 24.76ZM337.383 24.76L337.321 24.8386L337.321 24.8386L337.383 24.76ZM337.353 27.7L337.411 27.7814L337.412 27.7806L337.353 27.7ZM337.613 44.17C337.613 44.6659 337.452 45.0809 337.13 45.4213L337.276 45.5587C337.634 45.1791 337.813 44.7141 337.813 44.17H337.613ZM337.132 45.4193C336.813 45.7389 336.409 45.9 335.913 45.9V46.1C336.457 46.1 336.913 45.9211 337.274 45.5607L337.132 45.4193ZM335.913 45.9C335.417 45.9 335.013 45.7389 334.694 45.4193L334.552 45.5607C334.913 45.9211 335.369 46.1 335.913 46.1V45.9ZM334.696 45.4213C334.374 45.0809 334.213 44.6659 334.213 44.17H334.013C334.013 44.7141 334.192 45.1791 334.55 45.5587L334.696 45.4213ZM334.213 44.17V31.78H334.013V44.17H334.213ZM334.213 31.78C334.213 31.2841 334.374 30.8803 334.694 30.5607L334.552 30.4193C334.192 30.7797 334.013 31.2359 334.013 31.78H334.213ZM334.696 30.5587C335.016 30.2198 335.419 30.05 335.913 30.05V29.85C335.367 29.85 334.91 30.0402 334.55 30.4213L334.696 30.5587ZM335.913 30.05C336.407 30.05 336.81 30.2198 337.13 30.5587L337.276 30.4213C336.916 30.0402 336.459 29.85 335.913 29.85V30.05ZM337.132 30.5607C337.452 30.8803 337.613 31.2841 337.613 31.78H337.813C337.813 31.2359 337.634 30.7797 337.274 30.4193L337.132 30.5607ZM337.613 31.78V44.17H337.813V31.78H337.613ZM335.883 27.9C335.208 27.9 334.757 27.7896 334.505 27.5914L334.381 27.7486C334.689 27.9904 335.198 28.1 335.883 28.1V27.9ZM334.505 27.5914C334.26 27.3991 334.123 27.047 334.123 26.5H333.923C333.923 27.073 334.066 27.5009 334.381 27.7486L334.505 27.5914ZM334.123 26.5V25.93H333.923V26.5H334.123ZM334.123 25.93C334.123 25.3851 334.269 25.0337 334.532 24.8406L334.414 24.6794C334.077 24.9263 333.923 25.3549 333.923 25.93H334.123ZM334.532 24.8406C334.806 24.6397 335.26 24.53 335.913 24.53V24.33C335.246 24.33 334.74 24.4403 334.414 24.6794L334.532 24.8406ZM335.913 24.53C336.609 24.53 337.069 24.6406 337.321 24.8386L337.445 24.6814C337.137 24.4394 336.617 24.33 335.913 24.33V24.53ZM337.321 24.8386C337.566 25.0309 337.703 25.383 337.703 25.93H337.903C337.903 25.357 337.76 24.9291 337.445 24.6814L337.321 24.8386ZM337.703 25.93V26.5H337.903V25.93H337.703ZM337.703 26.5C337.703 27.0664 337.556 27.4269 337.294 27.6194L337.412 27.7806C337.75 27.5331 337.903 27.0936 337.903 26.5H337.703ZM337.295 27.6186C337.042 27.7992 336.58 27.9 335.883 27.9V28.1C336.586 28.1 337.104 28.0008 337.411 27.7814L337.295 27.6186ZM353.743 29.98L353.737 30.08H353.743V29.98ZM354.943 30.46L354.872 30.5307L354.874 30.533L354.943 30.46ZM355.183 32.5L355.274 32.5413L355.274 32.5406L355.183 32.5ZM349.573 44.86L349.482 44.8186L349.48 44.8219L349.573 44.86ZM348.943 45.67L348.885 45.5886L348.882 45.5907L348.943 45.67ZM348.043 46L348.037 45.9L348.032 45.9006L348.043 46ZM347.773 46.03V46.1306L347.784 46.1294L347.773 46.03ZM346.813 45.73L346.751 45.8089L346.757 45.8132L346.813 45.73ZM346.153 44.86L346.244 44.8194L346.244 44.8189L346.153 44.86ZM340.573 32.5L340.481 32.5401L340.482 32.5411L340.573 32.5ZM340.873 30.46L340.941 30.5329L340.944 30.5307L340.873 30.46ZM343.183 30.25L343.236 30.1652L343.236 30.1652L343.183 30.25ZM343.903 31.09L343.995 31.05L343.994 31.0494L343.903 31.09ZM348.043 40.57L347.951 40.61L348.043 40.8203L348.135 40.6099L348.043 40.57ZM352.153 31.12L352.245 31.1599L352.245 31.1588L352.153 31.12ZM353.743 30.08C354.198 30.08 354.572 30.2307 354.872 30.5307L355.014 30.3893C354.674 30.0493 354.248 29.88 353.743 29.88V30.08ZM354.874 30.533C355.173 30.813 355.323 31.1661 355.323 31.6H355.523C355.523 31.1139 355.353 30.707 355.011 30.387L354.874 30.533ZM355.323 31.6C355.323 31.8198 355.249 32.105 355.092 32.4594L355.274 32.5406C355.437 32.175 355.523 31.8602 355.523 31.6H355.323ZM355.092 32.4587L349.482 44.8187L349.664 44.9013L355.274 32.5413L355.092 32.4587ZM349.48 44.8219C349.347 45.1458 349.148 45.4003 348.885 45.5886L349.001 45.7514C349.297 45.5397 349.519 45.2542 349.665 44.8981L349.48 44.8219ZM348.882 45.5907C348.638 45.778 348.358 45.8813 348.037 45.9002L348.049 46.0998C348.408 46.0787 348.727 45.962 349.004 45.7493L348.882 45.5907ZM348.032 45.9006L347.762 45.9306L347.784 46.1294L348.054 46.0994L348.032 45.9006ZM347.773 45.93C347.454 45.93 347.153 45.8365 346.868 45.6468L346.757 45.8132C347.073 46.0235 347.412 46.13 347.773 46.13V45.93ZM346.875 45.6514C346.609 45.4425 346.398 45.1661 346.244 44.8194L346.062 44.9006C346.227 45.2739 346.457 45.5775 346.751 45.8086L346.875 45.6514ZM346.244 44.8189L340.664 32.4589L340.482 32.5411L346.062 44.9011L346.244 44.8189ZM340.665 32.4599C340.53 32.1514 340.463 31.845 340.463 31.54H340.263C340.263 31.875 340.336 32.2086 340.481 32.5401L340.665 32.4599ZM340.463 31.54C340.463 31.1722 340.618 30.8374 340.941 30.5328L340.804 30.3872C340.448 30.7226 340.263 31.1078 340.263 31.54H340.463ZM340.944 30.5307C341.264 30.2103 341.658 30.05 342.133 30.05V29.85C341.608 29.85 341.162 30.0297 340.802 30.3893L340.944 30.5307ZM342.133 30.05C342.494 30.05 342.826 30.1448 343.13 30.3348L343.236 30.1652C342.9 29.9552 342.531 29.85 342.133 29.85V30.05ZM343.13 30.3348C343.432 30.5237 343.659 30.788 343.812 31.1306L343.994 31.0494C343.827 30.672 343.574 30.3763 343.236 30.1652L343.13 30.3348ZM343.811 31.13L347.951 40.61L348.135 40.53L343.995 31.05L343.811 31.13ZM348.135 40.6099L352.245 31.1599L352.061 31.0801L347.951 40.5301L348.135 40.6099ZM352.245 31.1588C352.399 30.7925 352.609 30.5186 352.871 30.3314L352.755 30.1686C352.457 30.3814 352.226 30.6875 352.061 31.0812L352.245 31.1588ZM352.871 30.3314C353.133 30.1445 353.42 30.0612 353.737 30.0798L353.749 29.8802C353.386 29.8588 353.053 29.9555 352.755 30.1686L352.871 30.3314ZM372.512 37.6L372.612 37.6042V37.6H372.512ZM371.942 38.77L371.878 38.6932L371.942 38.77ZM360.782 39.22V39.12H360.66L360.684 39.2399L360.782 39.22ZM362.432 42.01L362.37 42.0884L362.371 42.0893L362.432 42.01ZM367.262 42.79L367.291 42.8857L367.295 42.8844L367.262 42.79ZM368.342 42.31L368.395 42.3952L368.396 42.3941L368.342 42.31ZM368.912 41.95L368.867 41.8603L368.861 41.8643L368.912 41.95ZM371.012 42.13L370.941 42.2007L371.012 42.13ZM370.622 44.65L370.56 44.5713L370.559 44.5727L370.622 44.65ZM368.372 45.82L368.34 45.7253L368.34 45.7253L368.372 45.82ZM361.112 45.25L361.063 45.3371L361.064 45.3374L361.112 45.25ZM358.232 42.37L358.144 42.4181L358.145 42.4187L358.232 42.37ZM358.292 33.67L358.205 33.6215L358.205 33.6215L358.292 33.67ZM361.142 30.7L361.192 30.7866L361.193 30.786L361.142 30.7ZM368.642 30.73L368.589 30.815L368.59 30.8154L368.642 30.73ZM371.462 33.64L371.549 33.5902L371.549 33.5902L371.462 33.64ZM360.812 36.22L360.714 36.2011L360.691 36.32H360.812V36.22ZM368.672 36.22V36.32H368.772V36.22H368.672ZM368.672 36.01H368.773L368.772 36.0005L368.672 36.01ZM372.412 37.5958C372.393 38.0484 372.216 38.4118 371.878 38.6932L372.006 38.8468C372.388 38.5282 372.591 38.1116 372.612 37.6042L372.412 37.5958ZM371.878 38.6932C371.537 38.9778 371.139 39.12 370.682 39.12V39.32C371.185 39.32 371.628 39.1622 372.006 38.8468L371.878 38.6932ZM370.682 39.12H360.782V39.32H370.682V39.12ZM360.684 39.2399C360.928 40.4406 361.49 41.3923 362.37 42.0884L362.494 41.9316C361.655 41.2677 361.116 40.3594 360.88 39.2001L360.684 39.2399ZM362.371 42.0893C363.249 42.7627 364.24 43.1 365.342 43.1V42.9C364.284 42.9 363.336 42.5773 362.493 41.9307L362.371 42.0893ZM365.342 43.1C366.166 43.1 366.817 43.0299 367.291 42.8857L367.233 42.6943C366.787 42.8301 366.158 42.9 365.342 42.9V43.1ZM367.295 42.8844C367.758 42.7233 368.126 42.5605 368.395 42.3952L368.29 42.2248C368.038 42.3795 367.686 42.5367 367.229 42.6956L367.295 42.8844ZM368.396 42.3941C368.676 42.214 368.865 42.0948 368.964 42.0357L368.861 41.8643C368.759 41.9252 368.568 42.046 368.288 42.2259L368.396 42.3941ZM368.957 42.0394C369.306 41.8646 369.631 41.78 369.932 41.78V41.58C369.593 41.58 369.238 41.6754 368.867 41.8606L368.957 42.0394ZM369.932 41.78C370.325 41.78 370.66 41.9193 370.941 42.2007L371.083 42.0593C370.764 41.7407 370.379 41.58 369.932 41.58V41.78ZM370.941 42.2007C371.224 42.4832 371.362 42.8083 371.362 43.18H371.562C371.562 42.7517 371.4 42.3768 371.083 42.0593L370.941 42.2007ZM371.362 43.18C371.362 43.6801 371.105 44.1438 370.56 44.5714L370.684 44.7286C371.26 44.2762 371.562 43.7599 371.562 43.18H371.362ZM370.559 44.5727C370.011 45.0228 369.272 45.4079 368.34 45.7253L368.404 45.9147C369.352 45.5921 370.114 45.1972 370.686 44.7273L370.559 44.5727ZM368.34 45.7253C367.41 46.0419 366.471 46.2 365.522 46.2V46.4C366.493 46.4 367.454 46.2381 368.404 45.9147L368.34 45.7253ZM365.522 46.2C363.856 46.2 362.404 45.8531 361.161 45.1626L361.064 45.3374C362.341 46.0469 363.828 46.4 365.522 46.4V46.2ZM361.161 45.1629C359.937 44.4718 358.99 43.5249 358.319 42.3213L358.145 42.4187C358.834 43.6551 359.807 44.6282 361.063 45.3371L361.161 45.1629ZM358.32 42.3219C357.649 41.0979 357.312 39.7247 357.312 38.2H357.112C357.112 39.7553 357.456 41.1621 358.144 42.4181L358.32 42.3219ZM357.312 38.2C357.312 36.4943 357.669 35.0014 358.38 33.7184L358.205 33.6215C357.475 34.9386 357.112 36.4657 357.112 38.2H357.312ZM358.38 33.7184C359.092 32.4329 360.029 31.4567 361.192 30.7866L361.092 30.6134C359.895 31.3033 358.933 32.3071 358.205 33.6215L358.38 33.7184ZM361.193 30.786C362.358 30.0949 363.601 29.75 364.922 29.75V29.55C363.564 29.55 362.286 29.9051 361.091 30.614L361.193 30.786ZM364.922 29.75C366.223 29.75 367.445 30.1044 368.589 30.815L368.695 30.645C367.52 29.9156 366.261 29.55 364.922 29.55V29.75ZM368.59 30.8154C369.755 31.5264 370.684 32.4841 371.375 33.6898L371.549 33.5902C370.841 32.3559 369.889 31.3736 368.694 30.6446L368.59 30.8154ZM371.375 33.6898C372.067 34.8945 372.412 36.1973 372.412 37.6H372.612C372.612 36.1627 372.258 34.8255 371.549 33.5902L371.375 33.6898ZM364.922 32.85C363.747 32.85 362.8 33.1262 362.092 33.6892C361.384 34.2527 360.927 35.0941 360.714 36.2011L360.91 36.2389C361.117 35.1659 361.555 34.3723 362.217 33.8458C362.879 33.3188 363.777 33.05 364.922 33.05V32.85ZM360.812 36.32H368.672V36.12H360.812V36.32ZM368.772 36.22V36.01H368.572V36.22H368.772ZM368.772 36.0005C368.689 35.1303 368.263 34.3868 367.505 33.7723L367.379 33.9277C368.101 34.5132 368.495 35.2097 368.573 36.0195L368.772 36.0005ZM367.505 33.7723C366.748 33.1581 365.885 32.85 364.922 32.85V33.05C365.839 33.05 366.657 33.3419 367.379 33.9277L367.505 33.7723Z" fill="white"/>
</svg>
