<svg width="221" height="40" viewBox="0 0 221 40" fill="none" xmlns="http://www.w3.org/2000/svg">
<circle cx="20" cy="20" r="18.75" stroke="#FF0000" stroke-width="2.5"/>
<path d="M27.4695 18.6718C28.54 19.2337 28.54 20.7663 27.4695 21.3282L15.6971 27.5071C14.6983 28.0313 13.5 27.3069 13.5 26.1789L13.5 13.8211C13.5 12.6931 14.6983 11.9687 15.6971 12.4929L27.4695 18.6718Z" fill="#FF0000"/>
<path d="M60.458 15.462C60.458 15.702 60.392 15.924 60.26 16.128L56.498 21.51V25.902C56.498 26.214 56.396 26.478 56.192 26.694C55.988 26.898 55.742 27 55.454 27C55.154 27 54.896 26.898 54.68 26.694C54.476 26.478 54.374 26.214 54.374 25.902V21.258L50.63 16.29C50.414 16.002 50.306 15.72 50.306 15.444C50.306 15.132 50.426 14.874 50.666 14.67C50.918 14.454 51.182 14.346 51.458 14.346C51.794 14.346 52.088 14.514 52.34 14.85L55.508 19.224L58.478 14.886C58.73 14.526 59.03 14.346 59.378 14.346C59.666 14.346 59.918 14.454 60.134 14.67C60.35 14.886 60.458 15.15 60.458 15.462ZM70.4064 22.194C70.4064 23.154 70.1904 24.018 69.7584 24.786C69.3264 25.542 68.7324 26.13 67.9764 26.55C67.2324 26.97 66.4104 27.18 65.5104 27.18C64.5984 27.18 63.7704 26.97 63.0264 26.55C62.2824 26.13 61.6944 25.542 61.2624 24.786C60.8304 24.018 60.6144 23.154 60.6144 22.194C60.6144 21.234 60.8304 20.376 61.2624 19.62C61.6944 18.852 62.2824 18.258 63.0264 17.838C63.7704 17.406 64.5984 17.19 65.5104 17.19C66.4104 17.19 67.2324 17.406 67.9764 17.838C68.7324 18.258 69.3264 18.852 69.7584 19.62C70.1904 20.376 70.4064 21.234 70.4064 22.194ZM68.2464 22.194C68.2464 21.606 68.1204 21.084 67.8684 20.628C67.6284 20.16 67.2984 19.8 66.8784 19.548C66.4704 19.296 66.0144 19.17 65.5104 19.17C65.0064 19.17 64.5444 19.296 64.1244 19.548C63.7164 19.8 63.3864 20.16 63.1344 20.628C62.8944 21.084 62.7744 21.606 62.7744 22.194C62.7744 22.782 62.8944 23.304 63.1344 23.76C63.3864 24.216 63.7164 24.57 64.1244 24.822C64.5444 25.074 65.0064 25.2 65.5104 25.2C66.0144 25.2 66.4704 25.074 66.8784 24.822C67.2984 24.57 67.6284 24.216 67.8684 23.76C68.1204 23.304 68.2464 22.782 68.2464 22.194ZM79.357 17.37C79.669 17.37 79.927 17.478 80.131 17.694C80.335 17.898 80.437 18.156 80.437 18.468V23.04C80.437 24.336 80.077 25.35 79.357 26.082C78.649 26.814 77.635 27.18 76.315 27.18C74.995 27.18 73.981 26.814 73.273 26.082C72.565 25.35 72.211 24.336 72.211 23.04V18.468C72.211 18.156 72.313 17.898 72.517 17.694C72.721 17.478 72.979 17.37 73.291 17.37C73.603 17.37 73.861 17.478 74.065 17.694C74.269 17.898 74.371 18.156 74.371 18.468V23.04C74.371 23.772 74.533 24.318 74.857 24.678C75.181 25.026 75.667 25.2 76.315 25.2C76.975 25.2 77.467 25.026 77.791 24.678C78.115 24.318 78.277 23.772 78.277 23.04V18.468C78.277 18.156 78.379 17.898 78.583 17.694C78.787 17.478 79.045 17.37 79.357 17.37ZM90.6905 14.4C91.0145 14.4 91.2785 14.496 91.4825 14.688C91.6865 14.88 91.7885 15.132 91.7885 15.444C91.7885 15.756 91.6865 16.008 91.4825 16.2C91.2785 16.38 91.0145 16.47 90.6905 16.47H87.8645V25.902C87.8645 26.214 87.7505 26.478 87.5225 26.694C87.2945 26.898 87.0125 27 86.6765 27C86.3405 27 86.0645 26.898 85.8485 26.694C85.6325 26.478 85.5245 26.214 85.5245 25.902V16.47H82.6985C82.3745 16.47 82.1105 16.374 81.9065 16.182C81.7025 15.99 81.6005 15.738 81.6005 15.426C81.6005 15.126 81.7025 14.88 81.9065 14.688C82.1225 14.496 82.3865 14.4 82.6985 14.4H90.6905ZM98.482 17.37C98.794 17.37 99.052 17.478 99.256 17.694C99.46 17.898 99.562 18.156 99.562 18.468V23.04C99.562 24.336 99.202 25.35 98.482 26.082C97.774 26.814 96.76 27.18 95.44 27.18C94.12 27.18 93.106 26.814 92.398 26.082C91.69 25.35 91.336 24.336 91.336 23.04V18.468C91.336 18.156 91.438 17.898 91.642 17.694C91.846 17.478 92.104 17.37 92.416 17.37C92.728 17.37 92.986 17.478 93.19 17.694C93.394 17.898 93.496 18.156 93.496 18.468V23.04C93.496 23.772 93.658 24.318 93.982 24.678C94.306 25.026 94.792 25.2 95.44 25.2C96.1 25.2 96.592 25.026 96.916 24.678C97.24 24.318 97.402 23.772 97.402 23.04V18.468C97.402 18.156 97.504 17.898 97.708 17.694C97.912 17.478 98.17 17.37 98.482 17.37ZM106.886 17.19C107.714 17.19 108.464 17.406 109.136 17.838C109.808 18.258 110.336 18.846 110.72 19.602C111.116 20.358 111.314 21.216 111.314 22.176C111.314 23.136 111.122 24 110.738 24.768C110.354 25.524 109.826 26.118 109.154 26.55C108.494 26.97 107.762 27.18 106.958 27.18C106.382 27.18 105.836 27.066 105.32 26.838C104.816 26.598 104.396 26.31 104.06 25.974V26.082C104.06 26.394 103.958 26.658 103.754 26.874C103.55 27.078 103.292 27.18 102.98 27.18C102.668 27.18 102.41 27.078 102.206 26.874C102.002 26.67 101.9 26.406 101.9 26.082V14.778C101.9 14.466 102.002 14.208 102.206 14.004C102.41 13.788 102.668 13.68 102.98 13.68C103.292 13.68 103.55 13.788 103.754 14.004C103.958 14.208 104.06 14.466 104.06 14.778V18.54C104.348 18.18 104.75 17.868 105.266 17.604C105.782 17.328 106.322 17.19 106.886 17.19ZM106.616 25.2C107.384 25.2 108.014 24.912 108.506 24.336C108.998 23.76 109.244 23.04 109.244 22.176C109.244 21.312 108.998 20.598 108.506 20.034C108.026 19.458 107.396 19.17 106.616 19.17C105.836 19.17 105.2 19.458 104.708 20.034C104.216 20.598 103.97 21.312 103.97 22.176C103.97 23.04 104.216 23.76 104.708 24.336C105.2 24.912 105.836 25.2 106.616 25.2ZM121.755 21.96C121.743 22.248 121.629 22.482 121.413 22.662C121.197 22.842 120.945 22.932 120.657 22.932H114.717C114.861 23.64 115.191 24.198 115.707 24.606C116.223 25.002 116.805 25.2 117.453 25.2C117.945 25.2 118.329 25.158 118.605 25.074C118.881 24.978 119.097 24.882 119.253 24.786C119.421 24.678 119.535 24.606 119.595 24.57C119.811 24.462 120.015 24.408 120.207 24.408C120.459 24.408 120.675 24.498 120.855 24.678C121.035 24.858 121.125 25.068 121.125 25.308C121.125 25.632 120.957 25.926 120.621 26.19C120.285 26.466 119.835 26.7 119.271 26.892C118.707 27.084 118.137 27.18 117.561 27.18C116.553 27.18 115.671 26.97 114.915 26.55C114.171 26.13 113.595 25.554 113.187 24.822C112.779 24.078 112.575 23.244 112.575 22.32C112.575 21.288 112.791 20.382 113.223 19.602C113.655 18.822 114.225 18.228 114.933 17.82C115.641 17.4 116.397 17.19 117.201 17.19C117.993 17.19 118.737 17.406 119.433 17.838C120.141 18.27 120.705 18.852 121.125 19.584C121.545 20.316 121.755 21.108 121.755 21.96ZM117.201 19.17C115.809 19.17 114.987 19.824 114.735 21.132H119.451V21.006C119.403 20.502 119.157 20.07 118.713 19.71C118.269 19.35 117.765 19.17 117.201 19.17ZM133.984 14.4C134.596 14.4 135.178 14.586 135.73 14.958C136.282 15.318 136.726 15.81 137.062 16.434C137.398 17.046 137.566 17.718 137.566 18.45C137.566 19.17 137.398 19.842 137.062 20.466C136.726 21.09 136.282 21.588 135.73 21.96C135.178 22.32 134.596 22.5 133.984 22.5H130.852V25.902C130.852 26.226 130.756 26.49 130.564 26.694C130.372 26.898 130.12 27 129.808 27C129.508 27 129.262 26.898 129.07 26.694C128.878 26.478 128.782 26.214 128.782 25.902V15.498C128.782 15.186 128.884 14.928 129.088 14.724C129.304 14.508 129.568 14.4 129.88 14.4H133.984ZM133.984 20.448C134.212 20.448 134.434 20.352 134.65 20.16C134.878 19.968 135.058 19.722 135.19 19.422C135.334 19.11 135.406 18.786 135.406 18.45C135.406 18.114 135.334 17.796 135.19 17.496C135.058 17.184 134.878 16.938 134.65 16.758C134.434 16.566 134.212 16.47 133.984 16.47H130.852V20.448H133.984ZM144.451 17.19C144.811 17.19 145.111 17.292 145.351 17.496C145.603 17.7 145.729 17.94 145.729 18.216C145.729 18.588 145.633 18.87 145.441 19.062C145.249 19.242 145.021 19.332 144.757 19.332C144.577 19.332 144.373 19.29 144.145 19.206C144.109 19.194 144.025 19.17 143.893 19.134C143.773 19.098 143.641 19.08 143.497 19.08C143.185 19.08 142.885 19.176 142.597 19.368C142.309 19.56 142.069 19.854 141.877 20.25C141.697 20.634 141.607 21.096 141.607 21.636V25.902C141.607 26.214 141.505 26.478 141.301 26.694C141.097 26.898 140.839 27 140.527 27C140.215 27 139.957 26.898 139.753 26.694C139.549 26.478 139.447 26.214 139.447 25.902V18.468C139.447 18.156 139.549 17.898 139.753 17.694C139.957 17.478 140.215 17.37 140.527 17.37C140.839 17.37 141.097 17.478 141.301 17.694C141.505 17.898 141.607 18.156 141.607 18.468V18.702C141.883 18.21 142.279 17.838 142.795 17.586C143.311 17.322 143.863 17.19 144.451 17.19ZM156.1 22.194C156.1 23.154 155.884 24.018 155.452 24.786C155.02 25.542 154.426 26.13 153.67 26.55C152.926 26.97 152.104 27.18 151.204 27.18C150.292 27.18 149.464 26.97 148.72 26.55C147.976 26.13 147.388 25.542 146.956 24.786C146.524 24.018 146.308 23.154 146.308 22.194C146.308 21.234 146.524 20.376 146.956 19.62C147.388 18.852 147.976 18.258 148.72 17.838C149.464 17.406 150.292 17.19 151.204 17.19C152.104 17.19 152.926 17.406 153.67 17.838C154.426 18.258 155.02 18.852 155.452 19.62C155.884 20.376 156.1 21.234 156.1 22.194ZM153.94 22.194C153.94 21.606 153.814 21.084 153.562 20.628C153.322 20.16 152.992 19.8 152.572 19.548C152.164 19.296 151.708 19.17 151.204 19.17C150.7 19.17 150.238 19.296 149.818 19.548C149.41 19.8 149.08 20.16 148.828 20.628C148.588 21.084 148.468 21.606 148.468 22.194C148.468 22.782 148.588 23.304 148.828 23.76C149.08 24.216 149.41 24.57 149.818 24.822C150.238 25.074 150.7 25.2 151.204 25.2C151.708 25.2 152.164 25.074 152.572 24.822C152.992 24.57 153.322 24.216 153.562 23.76C153.814 23.304 153.94 22.782 153.94 22.194ZM165.698 13.68C166.01 13.68 166.268 13.782 166.472 13.986C166.676 14.19 166.778 14.454 166.778 14.778V25.902C166.778 26.214 166.676 26.478 166.472 26.694C166.268 26.898 166.01 27 165.698 27C165.386 27 165.128 26.898 164.924 26.694C164.732 26.49 164.63 26.232 164.618 25.92C164.318 26.268 163.91 26.568 163.394 26.82C162.89 27.06 162.356 27.18 161.792 27.18C160.964 27.18 160.214 26.97 159.542 26.55C158.87 26.118 158.336 25.524 157.94 24.768C157.556 24.012 157.364 23.154 157.364 22.194C157.364 21.234 157.556 20.376 157.94 19.62C158.324 18.852 158.846 18.258 159.506 17.838C160.178 17.406 160.916 17.19 161.72 17.19C162.296 17.19 162.836 17.298 163.34 17.514C163.844 17.718 164.27 17.982 164.618 18.306V14.778C164.618 14.466 164.72 14.208 164.924 14.004C165.128 13.788 165.386 13.68 165.698 13.68ZM162.062 25.2C162.842 25.2 163.478 24.918 163.97 24.354C164.462 23.778 164.708 23.058 164.708 22.194C164.708 21.33 164.462 20.61 163.97 20.034C163.478 19.458 162.842 19.17 162.062 19.17C161.294 19.17 160.664 19.458 160.172 20.034C159.68 20.61 159.434 21.33 159.434 22.194C159.434 23.058 159.674 23.778 160.154 24.354C160.646 24.918 161.282 25.2 162.062 25.2ZM176.546 17.37C176.858 17.37 177.116 17.478 177.32 17.694C177.524 17.898 177.626 18.156 177.626 18.468V23.04C177.626 24.336 177.266 25.35 176.546 26.082C175.838 26.814 174.824 27.18 173.504 27.18C172.184 27.18 171.17 26.814 170.462 26.082C169.754 25.35 169.4 24.336 169.4 23.04V18.468C169.4 18.156 169.502 17.898 169.706 17.694C169.91 17.478 170.168 17.37 170.48 17.37C170.792 17.37 171.05 17.478 171.254 17.694C171.458 17.898 171.56 18.156 171.56 18.468V23.04C171.56 23.772 171.722 24.318 172.046 24.678C172.37 25.026 172.856 25.2 173.504 25.2C174.164 25.2 174.656 25.026 174.98 24.678C175.304 24.318 175.466 23.772 175.466 23.04V18.468C175.466 18.156 175.568 17.898 175.772 17.694C175.976 17.478 176.234 17.37 176.546 17.37ZM184.159 17.19C185.179 17.19 186.001 17.352 186.625 17.676C187.249 17.988 187.561 18.408 187.561 18.936C187.561 19.2 187.483 19.434 187.327 19.638C187.171 19.83 186.967 19.926 186.715 19.926C186.523 19.926 186.367 19.902 186.247 19.854C186.127 19.794 186.007 19.722 185.887 19.638C185.779 19.542 185.671 19.464 185.563 19.404C185.443 19.344 185.263 19.29 185.023 19.242C184.795 19.194 184.609 19.17 184.465 19.17C183.565 19.17 182.857 19.452 182.341 20.016C181.837 20.568 181.585 21.294 181.585 22.194C181.585 23.058 181.843 23.778 182.359 24.354C182.875 24.918 183.535 25.2 184.339 25.2C184.927 25.2 185.365 25.128 185.653 24.984C185.725 24.948 185.821 24.888 185.941 24.804C186.073 24.708 186.193 24.636 186.301 24.588C186.409 24.54 186.541 24.516 186.697 24.516C186.997 24.516 187.231 24.612 187.399 24.804C187.579 24.996 187.669 25.242 187.669 25.542C187.669 25.83 187.501 26.1 187.165 26.352C186.829 26.604 186.385 26.808 185.833 26.964C185.281 27.108 184.693 27.18 184.069 27.18C183.145 27.18 182.329 26.964 181.621 26.532C180.925 26.1 180.385 25.506 180.001 24.75C179.617 23.982 179.425 23.13 179.425 22.194C179.425 21.222 179.623 20.358 180.019 19.602C180.427 18.846 180.991 18.258 181.711 17.838C182.431 17.406 183.247 17.19 184.159 17.19ZM193.873 24.966C194.041 24.966 194.191 25.05 194.323 25.218C194.467 25.374 194.539 25.584 194.539 25.848C194.539 26.172 194.359 26.448 193.999 26.676C193.651 26.892 193.255 27 192.811 27C192.067 27 191.437 26.844 190.921 26.532C190.417 26.208 190.165 25.53 190.165 24.498V19.53H189.337C189.049 19.53 188.809 19.434 188.617 19.242C188.425 19.05 188.329 18.81 188.329 18.522C188.329 18.246 188.425 18.018 188.617 17.838C188.809 17.646 189.049 17.55 189.337 17.55H190.165V16.398C190.165 16.086 190.267 15.828 190.471 15.624C190.687 15.408 190.951 15.3 191.263 15.3C191.563 15.3 191.815 15.408 192.019 15.624C192.223 15.828 192.325 16.086 192.325 16.398V17.55H193.603C193.891 17.55 194.131 17.646 194.323 17.838C194.515 18.03 194.611 18.27 194.611 18.558C194.611 18.834 194.515 19.068 194.323 19.26C194.131 19.44 193.891 19.53 193.603 19.53H192.325V24.408C192.325 24.66 192.391 24.846 192.523 24.966C192.655 25.074 192.835 25.128 193.063 25.128C193.159 25.128 193.291 25.104 193.459 25.056C193.603 24.996 193.741 24.966 193.873 24.966ZM198.628 25.902C198.628 26.214 198.526 26.478 198.322 26.694C198.118 26.898 197.86 27 197.548 27C197.236 27 196.978 26.898 196.774 26.694C196.57 26.478 196.468 26.214 196.468 25.902V18.468C196.468 18.156 196.57 17.898 196.774 17.694C196.978 17.478 197.236 17.37 197.548 17.37C197.86 17.37 198.118 17.478 198.322 17.694C198.526 17.898 198.628 18.156 198.628 18.468V25.902ZM197.53 16.2C197.122 16.2 196.834 16.134 196.666 16.002C196.498 15.87 196.414 15.636 196.414 15.3V14.958C196.414 14.622 196.504 14.388 196.684 14.256C196.864 14.124 197.152 14.058 197.548 14.058C197.968 14.058 198.262 14.124 198.43 14.256C198.598 14.388 198.682 14.622 198.682 14.958V15.3C198.682 15.648 198.592 15.888 198.412 16.02C198.244 16.14 197.95 16.2 197.53 16.2ZM208.246 17.388C208.534 17.388 208.774 17.484 208.966 17.676C209.158 17.856 209.254 18.084 209.254 18.36C209.254 18.504 209.206 18.684 209.11 18.9L205.744 26.316C205.66 26.52 205.534 26.682 205.366 26.802C205.21 26.922 205.03 26.988 204.826 27L204.664 27.018C204.46 27.018 204.268 26.958 204.088 26.838C203.92 26.706 203.788 26.532 203.692 26.316L200.344 18.9C200.26 18.708 200.218 18.516 200.218 18.324C200.218 18.084 200.32 17.868 200.524 17.676C200.728 17.472 200.98 17.37 201.28 17.37C201.508 17.37 201.718 17.43 201.91 17.55C202.102 17.67 202.246 17.838 202.342 18.054L204.826 23.742L207.292 18.072C207.388 17.844 207.52 17.67 207.688 17.55C207.856 17.43 208.042 17.376 208.246 17.388ZM219.507 21.96C219.495 22.248 219.381 22.482 219.165 22.662C218.949 22.842 218.697 22.932 218.409 22.932H212.469C212.613 23.64 212.943 24.198 213.459 24.606C213.975 25.002 214.557 25.2 215.205 25.2C215.697 25.2 216.081 25.158 216.357 25.074C216.633 24.978 216.849 24.882 217.005 24.786C217.173 24.678 217.287 24.606 217.347 24.57C217.563 24.462 217.767 24.408 217.959 24.408C218.211 24.408 218.427 24.498 218.607 24.678C218.787 24.858 218.877 25.068 218.877 25.308C218.877 25.632 218.709 25.926 218.373 26.19C218.037 26.466 217.587 26.7 217.023 26.892C216.459 27.084 215.889 27.18 215.313 27.18C214.305 27.18 213.423 26.97 212.667 26.55C211.923 26.13 211.347 25.554 210.939 24.822C210.531 24.078 210.327 23.244 210.327 22.32C210.327 21.288 210.543 20.382 210.975 19.602C211.407 18.822 211.977 18.228 212.685 17.82C213.393 17.4 214.149 17.19 214.953 17.19C215.745 17.19 216.489 17.406 217.185 17.838C217.893 18.27 218.457 18.852 218.877 19.584C219.297 20.316 219.507 21.108 219.507 21.96ZM214.953 19.17C213.561 19.17 212.739 19.824 212.487 21.132H217.203V21.006C217.155 20.502 216.909 20.07 216.465 19.71C216.021 19.35 215.517 19.17 214.953 19.17Z" fill="#ffffff"/>
<path d="M60.26 16.128L60.342 16.1853L60.344 16.1823L60.26 16.128ZM56.498 21.51L56.416 21.4527L56.398 21.4785V21.51H56.498ZM56.192 26.694L56.2627 26.7647L56.2647 26.7627L56.192 26.694ZM54.68 26.694L54.6072 26.7628L54.6113 26.7667L54.68 26.694ZM54.374 21.258H54.474V21.2245L54.4539 21.1978L54.374 21.258ZM50.63 16.29L50.55 16.35L50.5501 16.3502L50.63 16.29ZM50.666 14.67L50.7308 14.7462L50.7311 14.7459L50.666 14.67ZM52.34 14.85L52.421 14.7913L52.42 14.79L52.34 14.85ZM55.508 19.224L55.427 19.2827L55.5103 19.3977L55.5905 19.2805L55.508 19.224ZM58.478 14.886L58.3961 14.8286L58.3955 14.8295L58.478 14.886ZM60.134 14.67L60.2047 14.5993L60.134 14.67ZM60.358 15.462C60.358 15.6825 60.2977 15.8856 60.176 16.0737L60.344 16.1823C60.4863 15.9624 60.558 15.7215 60.558 15.462H60.358ZM60.178 16.0707L56.416 21.4527L56.58 21.5673L60.342 16.1853L60.178 16.0707ZM56.398 21.51V25.902H56.598V21.51H56.398ZM56.398 25.902C56.398 26.1899 56.3048 26.4289 56.1193 26.6253L56.2647 26.7627C56.4872 26.5271 56.598 26.2381 56.598 25.902H56.398ZM56.1213 26.6233C55.936 26.8086 55.7154 26.9 55.454 26.9V27.1C55.7686 27.1 56.04 26.9874 56.2627 26.7647L56.1213 26.6233ZM55.454 26.9C55.1793 26.9 54.9459 26.8076 54.7487 26.6213L54.6113 26.7667C54.8461 26.9884 55.1287 27.1 55.454 27.1V26.9ZM54.7527 26.6253C54.5672 26.4289 54.474 26.1899 54.474 25.902H54.274C54.274 26.2381 54.3848 26.5271 54.6073 26.7627L54.7527 26.6253ZM54.474 25.902V21.258H54.274V25.902H54.474ZM54.4539 21.1978L50.7099 16.2298L50.5501 16.3502L54.2941 21.3182L54.4539 21.1978ZM50.71 16.23C50.503 15.954 50.406 15.6926 50.406 15.444H50.206C50.206 15.7474 50.325 16.05 50.55 16.35L50.71 16.23ZM50.406 15.444C50.406 15.1617 50.5129 14.9314 50.7308 14.7462L50.6012 14.5938C50.3391 14.8166 50.206 15.1023 50.206 15.444H50.406ZM50.7311 14.7459C50.9688 14.5422 51.2105 14.446 51.458 14.446V14.246C51.1535 14.246 50.8672 14.3658 50.6009 14.5941L50.7311 14.7459ZM51.458 14.446C51.7547 14.446 52.0216 14.5922 52.26 14.91L52.42 14.79C52.1544 14.4358 51.8333 14.246 51.458 14.246V14.446ZM52.259 14.9087L55.427 19.2827L55.589 19.1653L52.421 14.7913L52.259 14.9087ZM55.5905 19.2805L58.5605 14.9425L58.3955 14.8295L55.4255 19.1675L55.5905 19.2805ZM58.5599 14.9433C58.7987 14.6022 59.0712 14.446 59.378 14.446V14.246C58.9888 14.246 58.6613 14.4498 58.3961 14.8287L58.5599 14.9433ZM59.378 14.446C59.6377 14.446 59.8648 14.5422 60.0633 14.7407L60.2047 14.5993C59.9712 14.3658 59.6943 14.246 59.378 14.246V14.446ZM60.0633 14.7407C60.2601 14.9375 60.358 15.1759 60.358 15.462H60.558C60.558 15.1241 60.4399 14.8345 60.2047 14.5993L60.0633 14.7407ZM69.7584 24.786L69.8452 24.8356L69.8455 24.835L69.7584 24.786ZM67.9764 26.55L67.9278 26.4626L67.9272 26.4629L67.9764 26.55ZM63.0264 26.55L63.0755 26.4629L63.0264 26.55ZM61.2624 24.786L61.1752 24.835L61.1756 24.8356L61.2624 24.786ZM61.2624 19.62L61.3492 19.6696L61.3495 19.669L61.2624 19.62ZM63.0264 17.838L63.0755 17.9251L63.0766 17.9245L63.0264 17.838ZM67.9764 17.838L67.9262 17.9245L67.9278 17.9254L67.9764 17.838ZM69.7584 19.62L69.6712 19.669L69.6716 19.6696L69.7584 19.62ZM67.8684 20.628L67.7794 20.6737L67.7809 20.6764L67.8684 20.628ZM66.8784 19.548L66.8258 19.6331L66.8269 19.6337L66.8784 19.548ZM64.1244 19.548L64.0729 19.4622L64.0718 19.4629L64.1244 19.548ZM63.1344 20.628L63.0463 20.5806L63.0459 20.5814L63.1344 20.628ZM63.1344 23.76L63.0459 23.8066L63.0469 23.8084L63.1344 23.76ZM64.1244 24.822L64.0718 24.9071L64.0729 24.9077L64.1244 24.822ZM66.8784 24.822L66.8269 24.7362L66.8258 24.7369L66.8784 24.822ZM67.8684 23.76L67.7808 23.7116L67.7799 23.7134L67.8684 23.76ZM70.3064 22.194C70.3064 23.1384 70.0941 23.9853 69.6712 24.737L69.8455 24.835C70.2867 24.0507 70.5064 23.1696 70.5064 22.194H70.3064ZM69.6716 24.7364C69.2485 25.4766 68.6677 26.0515 67.9278 26.4626L68.0249 26.6374C68.797 26.2085 69.4042 25.6074 69.8452 24.8356L69.6716 24.7364ZM67.9272 26.4629C67.199 26.874 66.3941 27.08 65.5104 27.08V27.28C66.4266 27.28 67.2657 27.066 68.0255 26.6371L67.9272 26.4629ZM65.5104 27.08C64.6144 27.08 63.8035 26.8739 63.0755 26.4629L62.9772 26.6371C63.7372 27.0661 64.5824 27.28 65.5104 27.28V27.08ZM63.0755 26.4629C62.3476 26.052 61.7724 25.477 61.3492 24.7364L61.1756 24.8356C61.6163 25.607 62.2172 26.208 62.9772 26.6371L63.0755 26.4629ZM61.3495 24.737C60.9267 23.9853 60.7144 23.1384 60.7144 22.194H60.5144C60.5144 23.1696 60.7341 24.0507 61.1752 24.835L61.3495 24.737ZM60.7144 22.194C60.7144 21.2496 60.9267 20.409 61.3492 19.6696L61.1756 19.5704C60.7341 20.343 60.5144 21.2184 60.5144 22.194H60.7144ZM61.3495 19.669C61.7729 18.9164 62.348 18.3358 63.0755 17.9251L62.9772 17.7509C62.2168 18.1802 61.6159 18.7876 61.1752 19.571L61.3495 19.669ZM63.0766 17.9245C63.8044 17.5019 64.6149 17.29 65.5104 17.29V17.09C64.5818 17.09 63.7363 17.3101 62.9762 17.7515L63.0766 17.9245ZM65.5104 17.29C66.3936 17.29 67.1981 17.5018 67.9262 17.9245L68.0266 17.7515C67.2666 17.3102 66.4272 17.09 65.5104 17.09V17.29ZM67.9278 17.9254C68.6673 18.3363 69.2481 18.9168 69.6712 19.669L69.8455 19.571C69.4046 18.7872 68.7974 18.1797 68.0249 17.7506L67.9278 17.9254ZM69.6716 19.6696C70.0941 20.409 70.3064 21.2496 70.3064 22.194H70.5064C70.5064 21.2184 70.2867 20.343 69.8452 19.5704L69.6716 19.6696ZM68.3464 22.194C68.3464 21.5913 68.2171 21.0523 67.9559 20.5796L67.7809 20.6764C68.0237 21.1157 68.1464 21.6207 68.1464 22.194H68.3464ZM67.9574 20.5824C67.7095 20.099 67.367 19.7246 66.9298 19.4622L66.8269 19.6337C67.2297 19.8754 67.5473 20.221 67.7794 20.6736L67.9574 20.5824ZM66.9309 19.4629C66.5063 19.2007 66.0319 19.07 65.5104 19.07V19.27C65.9968 19.27 66.4344 19.3913 66.8258 19.6331L66.9309 19.4629ZM65.5104 19.07C64.9888 19.07 64.5089 19.2006 64.0729 19.4622L64.1758 19.6337C64.5798 19.3914 65.0239 19.27 65.5104 19.27V19.07ZM64.0718 19.4629C63.6473 19.7251 63.3057 20.0989 63.0463 20.5806L63.2224 20.6754C63.467 20.2211 63.7854 19.8749 64.1769 19.6331L64.0718 19.4629ZM63.0459 20.5814C62.7973 21.0537 62.6744 21.5921 62.6744 22.194H62.8744C62.8744 21.6199 62.9914 21.1143 63.2229 20.6746L63.0459 20.5814ZM62.6744 22.194C62.6744 22.7959 62.7973 23.3343 63.0459 23.8066L63.2229 23.7134C62.9914 23.2737 62.8744 22.7681 62.8744 22.194H62.6744ZM63.0469 23.8084C63.3064 24.2781 63.648 24.6453 64.0718 24.9071L64.1769 24.7369C63.7848 24.4947 63.4663 24.1539 63.2219 23.7116L63.0469 23.8084ZM64.0729 24.9077C64.5089 25.1694 64.9888 25.3 65.5104 25.3V25.1C65.0239 25.1 64.5798 24.9786 64.1758 24.7363L64.0729 24.9077ZM65.5104 25.3C66.0319 25.3 66.5063 25.1693 66.9309 24.9071L66.8258 24.7369C66.4344 24.9787 65.9968 25.1 65.5104 25.1V25.3ZM66.9298 24.9077C67.3664 24.6458 67.7088 24.2779 67.9569 23.8066L67.7799 23.7134C67.5479 24.1541 67.2304 24.4942 66.8269 24.7363L66.9298 24.9077ZM67.9559 23.8084C68.2171 23.3357 68.3464 22.7967 68.3464 22.194H68.1464C68.1464 22.7673 68.0237 23.2723 67.7809 23.7116L67.9559 23.8084ZM80.131 17.694L80.0583 17.7627L80.0603 17.7647L80.131 17.694ZM79.357 26.082L79.2857 26.0119L79.2851 26.0125L79.357 26.082ZM73.273 26.082L73.2011 26.1515L73.273 26.082ZM72.517 17.694L72.5878 17.7647L72.5897 17.7627L72.517 17.694ZM74.065 17.694L73.9923 17.7627L73.9943 17.7647L74.065 17.694ZM74.857 24.678L74.7827 24.7449L74.7838 24.7461L74.857 24.678ZM77.791 24.678L77.8642 24.7462L77.8653 24.7449L77.791 24.678ZM78.583 17.694L78.6538 17.7647L78.6557 17.7627L78.583 17.694ZM79.357 17.47C79.6431 17.47 79.8742 17.5678 80.0583 17.7627L80.2037 17.6253C79.9798 17.3882 79.695 17.27 79.357 17.27V17.47ZM80.0603 17.7647C80.2439 17.9483 80.337 18.1801 80.337 18.468H80.537C80.537 18.1319 80.4261 17.8477 80.2017 17.6233L80.0603 17.7647ZM80.337 18.468V23.04H80.537V18.468H80.337ZM80.337 23.04C80.337 24.317 79.9828 25.3032 79.2857 26.0119L79.4283 26.1521C80.1712 25.3968 80.537 24.355 80.537 23.04H80.337ZM79.2851 26.0125C78.6011 26.7197 77.6163 27.08 76.315 27.08V27.28C77.6537 27.28 78.6969 26.9083 79.4289 26.1515L79.2851 26.0125ZM76.315 27.08C75.0137 27.08 74.0289 26.7197 73.3449 26.0125L73.2011 26.1515C73.9331 26.9083 74.9763 27.28 76.315 27.28V27.08ZM73.3449 26.0125C72.6595 25.3038 72.311 24.3174 72.311 23.04H72.111C72.111 24.3546 72.4705 25.3962 73.2011 26.1515L73.3449 26.0125ZM72.311 23.04V18.468H72.111V23.04H72.311ZM72.311 18.468C72.311 18.1801 72.4041 17.9483 72.5877 17.7647L72.4463 17.6233C72.2219 17.8477 72.111 18.1319 72.111 18.468H72.311ZM72.5897 17.7627C72.7738 17.5678 73.005 17.47 73.291 17.47V17.27C72.9531 17.27 72.6682 17.3882 72.4443 17.6253L72.5897 17.7627ZM73.291 17.47C73.5771 17.47 73.8082 17.5678 73.9923 17.7627L74.1377 17.6253C73.9138 17.3882 73.629 17.27 73.291 17.27V17.47ZM73.9943 17.7647C74.1779 17.9483 74.271 18.1801 74.271 18.468H74.471C74.471 18.1319 74.3601 17.8477 74.1357 17.6233L73.9943 17.7647ZM74.271 18.468V23.04H74.471V18.468H74.271ZM74.271 23.04C74.271 23.7844 74.4355 24.3591 74.7827 24.7449L74.9313 24.6111C74.6306 24.2769 74.471 23.7596 74.471 23.04H74.271ZM74.7838 24.7461C75.1328 25.121 75.6497 25.3 76.315 25.3V25.1C75.6843 25.1 75.2292 24.931 74.9302 24.6099L74.7838 24.7461ZM76.315 25.3C76.9917 25.3 77.5149 25.1214 77.8642 24.7461L77.7178 24.6099C77.4192 24.9306 76.9583 25.1 76.315 25.1V25.3ZM77.8653 24.7449C78.2126 24.3591 78.377 23.7844 78.377 23.04H78.177C78.177 23.7596 78.0175 24.2769 77.7167 24.6111L77.8653 24.7449ZM78.377 23.04V18.468H78.177V23.04H78.377ZM78.377 18.468C78.377 18.1801 78.4701 17.9483 78.6537 17.7647L78.5123 17.6233C78.2879 17.8477 78.177 18.1319 78.177 18.468H78.377ZM78.6557 17.7627C78.8398 17.5678 79.071 17.47 79.357 17.47V17.27C79.0191 17.27 78.7342 17.3882 78.5103 17.6253L78.6557 17.7627ZM91.4825 14.688L91.414 14.7608L91.4825 14.688ZM91.4825 16.2L91.5487 16.275L91.5511 16.2728L91.4825 16.2ZM87.8645 16.47V16.37H87.7645V16.47H87.8645ZM87.5225 26.694L87.5893 26.7686L87.5913 26.7666L87.5225 26.694ZM85.8485 26.694L85.7778 26.7647L85.7799 26.7667L85.8485 26.694ZM85.5245 16.47H85.6245V16.37H85.5245V16.47ZM81.9065 16.182L81.838 16.2548L81.9065 16.182ZM81.9065 14.688L81.8401 14.6132L81.838 14.6152L81.9065 14.688ZM90.6905 14.5C90.9934 14.5 91.2315 14.589 91.414 14.7608L91.5511 14.6152C91.3256 14.403 91.0357 14.3 90.6905 14.3V14.5ZM91.414 14.7608C91.5955 14.9317 91.6885 15.1561 91.6885 15.444H91.8885C91.8885 15.1079 91.7776 14.8283 91.5511 14.6152L91.414 14.7608ZM91.6885 15.444C91.6885 15.7319 91.5955 15.9563 91.414 16.1272L91.5511 16.2728C91.7776 16.0597 91.8885 15.7801 91.8885 15.444H91.6885ZM91.4164 16.125C91.234 16.2859 90.9951 16.37 90.6905 16.37V16.57C91.034 16.57 91.3231 16.4741 91.5487 16.275L91.4164 16.125ZM90.6905 16.37H87.8645V16.57H90.6905V16.37ZM87.7645 16.47V25.902H87.9645V16.47H87.7645ZM87.7645 25.902C87.7645 26.1863 87.662 26.4241 87.4538 26.6214L87.5913 26.7666C87.8391 26.5319 87.9645 26.2417 87.9645 25.902H87.7645ZM87.4559 26.6195C87.2481 26.8054 86.9906 26.9 86.6765 26.9V27.1C87.0345 27.1 87.341 26.9906 87.5892 26.7685L87.4559 26.6195ZM86.6765 26.9C86.3625 26.9 86.1122 26.8054 85.9172 26.6213L85.7799 26.7667C86.0169 26.9906 86.3186 27.1 86.6765 27.1V26.9ZM85.9193 26.6233C85.7225 26.4265 85.6245 26.1881 85.6245 25.902H85.4245C85.4245 26.2399 85.5426 26.5295 85.7778 26.7647L85.9193 26.6233ZM85.6245 25.902V16.47H85.4245V25.902H85.6245ZM85.5245 16.37H82.6985V16.57H85.5245V16.37ZM82.6985 16.37C82.3957 16.37 82.1576 16.281 81.9751 16.1092L81.838 16.2548C82.0635 16.467 82.3534 16.57 82.6985 16.57V16.37ZM81.9751 16.1092C81.7936 15.9383 81.7005 15.7139 81.7005 15.426H81.5005C81.5005 15.7621 81.6115 16.0417 81.838 16.2548L81.9751 16.1092ZM81.7005 15.426C81.7005 15.1514 81.7927 14.9325 81.9751 14.7608L81.838 14.6152C81.6124 14.8275 81.5005 15.1006 81.5005 15.426H81.7005ZM81.973 14.7627C82.1692 14.5884 82.4089 14.5 82.6985 14.5V14.3C82.3642 14.3 82.0759 14.4036 81.8401 14.6133L81.973 14.7627ZM82.6985 14.5H90.6905V14.3H82.6985V14.5ZM99.256 17.694L99.1833 17.7627L99.1853 17.7647L99.256 17.694ZM98.482 26.082L98.4107 26.0119L98.4101 26.0125L98.482 26.082ZM92.398 26.082L92.3261 26.1515L92.398 26.082ZM91.642 17.694L91.7128 17.7647L91.7147 17.7627L91.642 17.694ZM93.19 17.694L93.1173 17.7627L93.1193 17.7647L93.19 17.694ZM93.982 24.678L93.9077 24.7449L93.9088 24.7461L93.982 24.678ZM96.916 24.678L96.9892 24.7462L96.9903 24.7449L96.916 24.678ZM97.708 17.694L97.7788 17.7647L97.7807 17.7627L97.708 17.694ZM98.482 17.47C98.7681 17.47 98.9992 17.5678 99.1833 17.7627L99.3287 17.6253C99.1048 17.3882 98.82 17.27 98.482 17.27V17.47ZM99.1853 17.7647C99.3689 17.9483 99.462 18.1801 99.462 18.468H99.662C99.662 18.1319 99.5511 17.8477 99.3267 17.6233L99.1853 17.7647ZM99.462 18.468V23.04H99.662V18.468H99.462ZM99.462 23.04C99.462 24.317 99.1078 25.3032 98.4107 26.0119L98.5533 26.1521C99.2962 25.3968 99.662 24.355 99.662 23.04H99.462ZM98.4101 26.0125C97.7261 26.7197 96.7413 27.08 95.44 27.08V27.28C96.7787 27.28 97.8219 26.9083 98.5539 26.1515L98.4101 26.0125ZM95.44 27.08C94.1387 27.08 93.1539 26.7197 92.4699 26.0125L92.3261 26.1515C93.0581 26.9083 94.1013 27.28 95.44 27.28V27.08ZM92.4699 26.0125C91.7845 25.3038 91.436 24.3174 91.436 23.04H91.236C91.236 24.3546 91.5955 25.3962 92.3261 26.1515L92.4699 26.0125ZM91.436 23.04V18.468H91.236V23.04H91.436ZM91.436 18.468C91.436 18.1801 91.5291 17.9483 91.7127 17.7647L91.5713 17.6233C91.3469 17.8477 91.236 18.1319 91.236 18.468H91.436ZM91.7147 17.7627C91.8988 17.5678 92.13 17.47 92.416 17.47V17.27C92.0781 17.27 91.7932 17.3882 91.5693 17.6253L91.7147 17.7627ZM92.416 17.47C92.7021 17.47 92.9332 17.5678 93.1173 17.7627L93.2627 17.6253C93.0388 17.3882 92.754 17.27 92.416 17.27V17.47ZM93.1193 17.7647C93.3029 17.9483 93.396 18.1801 93.396 18.468H93.596C93.596 18.1319 93.4851 17.8477 93.2607 17.6233L93.1193 17.7647ZM93.396 18.468V23.04H93.596V18.468H93.396ZM93.396 23.04C93.396 23.7844 93.5605 24.3591 93.9077 24.7449L94.0563 24.6111C93.7556 24.2769 93.596 23.7596 93.596 23.04H93.396ZM93.9088 24.7461C94.2578 25.121 94.7747 25.3 95.44 25.3V25.1C94.8093 25.1 94.3542 24.931 94.0552 24.6099L93.9088 24.7461ZM95.44 25.3C96.1167 25.3 96.6399 25.1214 96.9892 24.7461L96.8428 24.6099C96.5442 24.9306 96.0833 25.1 95.44 25.1V25.3ZM96.9903 24.7449C97.3376 24.3591 97.502 23.7844 97.502 23.04H97.302C97.302 23.7596 97.1425 24.2769 96.8417 24.6111L96.9903 24.7449ZM97.502 23.04V18.468H97.302V23.04H97.502ZM97.502 18.468C97.502 18.1801 97.5951 17.9483 97.7787 17.7647L97.6373 17.6233C97.4129 17.8477 97.302 18.1319 97.302 18.468H97.502ZM97.7807 17.7627C97.9648 17.5678 98.196 17.47 98.482 17.47V17.27C98.1441 17.27 97.8592 17.3882 97.6353 17.6253L97.7807 17.7627ZM109.136 17.838L109.082 17.9221L109.083 17.9228L109.136 17.838ZM110.72 19.602L110.631 19.6473L110.632 19.6484L110.72 19.602ZM110.738 24.768L110.828 24.8133L110.828 24.8127L110.738 24.768ZM109.154 26.55L109.208 26.6344L109.209 26.6341L109.154 26.55ZM105.32 26.838L105.277 26.9283L105.28 26.9295L105.32 26.838ZM104.06 25.974L104.131 25.9033L103.96 25.7326V25.974H104.06ZM103.754 26.874L103.825 26.9447L103.827 26.9427L103.754 26.874ZM102.206 26.874L102.136 26.9447L102.206 26.874ZM102.206 14.004L102.277 14.0747L102.279 14.0727L102.206 14.004ZM103.754 14.004L103.682 14.0727L103.684 14.0747L103.754 14.004ZM104.06 18.54H103.96V18.8251L104.139 18.6025L104.06 18.54ZM105.266 17.604L105.312 17.693L105.314 17.6922L105.266 17.604ZM108.506 24.336L108.43 24.2711L108.506 24.336ZM108.506 20.034L108.43 20.098L108.431 20.0997L108.506 20.034ZM104.708 20.034L104.784 20.0997L104.785 20.0989L104.708 20.034ZM104.708 24.336L104.632 24.4009L104.708 24.336ZM106.886 17.29C107.696 17.29 108.427 17.5009 109.082 17.9221L109.191 17.7539C108.502 17.3111 107.733 17.09 106.886 17.09V17.29ZM109.083 17.9228C109.739 18.3325 110.255 18.9063 110.631 19.6473L110.81 19.5567C110.418 18.7857 109.878 18.1835 109.189 17.7532L109.083 17.9228ZM110.632 19.6484C111.019 20.3884 111.214 21.2301 111.214 22.176H111.414C111.414 21.2019 111.213 20.3276 110.809 19.5556L110.632 19.6484ZM111.214 22.176C111.214 23.1223 111.025 23.9707 110.649 24.7233L110.828 24.8127C111.22 24.0293 111.414 23.1497 111.414 22.176H111.214ZM110.649 24.7227C110.273 25.4639 109.757 26.0441 109.1 26.4659L109.209 26.6341C109.896 26.1919 110.436 25.5841 110.828 24.8133L110.649 24.7227ZM109.101 26.4656C108.457 26.8751 107.744 27.08 106.958 27.08V27.28C107.781 27.28 108.532 27.0649 109.208 26.6344L109.101 26.4656ZM106.958 27.08C106.396 27.08 105.864 26.9688 105.361 26.7465L105.28 26.9295C105.809 27.1632 106.369 27.28 106.958 27.28V27.08ZM105.363 26.7477C104.868 26.5118 104.458 26.23 104.131 25.9033L103.99 26.0447C104.335 26.39 104.765 26.6842 105.277 26.9283L105.363 26.7477ZM103.96 25.974V26.082H104.16V25.974H103.96ZM103.96 26.082C103.96 26.3699 103.867 26.6089 103.682 26.8053L103.827 26.9427C104.05 26.7071 104.16 26.4181 104.16 26.082H103.96ZM103.684 26.8033C103.5 26.9869 103.268 27.08 102.98 27.08V27.28C103.317 27.28 103.601 27.1691 103.825 26.9447L103.684 26.8033ZM102.98 27.08C102.693 27.08 102.461 26.9869 102.277 26.8033L102.136 26.9447C102.36 27.1691 102.644 27.28 102.98 27.28V27.08ZM102.277 26.8033C102.094 26.6204 102 26.383 102 26.082H101.8C101.8 26.429 101.911 26.7196 102.136 26.9447L102.277 26.8033ZM102 26.082V14.778H101.8V26.082H102ZM102 14.778C102 14.4901 102.094 14.2583 102.277 14.0747L102.136 13.9333C101.911 14.1577 101.8 14.4419 101.8 14.778H102ZM102.279 14.0727C102.463 13.8778 102.694 13.78 102.98 13.78V13.58C102.643 13.58 102.358 13.6982 102.134 13.9353L102.279 14.0727ZM102.98 13.78C103.267 13.78 103.498 13.8778 103.682 14.0727L103.827 13.9353C103.603 13.6982 103.318 13.58 102.98 13.58V13.78ZM103.684 14.0747C103.867 14.2583 103.96 14.4901 103.96 14.778H104.16C104.16 14.4419 104.05 14.1577 103.825 13.9333L103.684 14.0747ZM103.96 14.778V18.54H104.16V14.778H103.96ZM104.139 18.6025C104.416 18.256 104.805 17.9522 105.312 17.693L105.221 17.515C104.695 17.7838 104.281 18.104 103.982 18.4775L104.139 18.6025ZM105.314 17.6922C105.816 17.4236 106.34 17.29 106.886 17.29V17.09C106.305 17.09 105.749 17.2324 105.219 17.5158L105.314 17.6922ZM106.616 25.3C107.413 25.3 108.071 24.9995 108.583 24.4009L108.43 24.2711C107.958 24.8245 107.356 25.1 106.616 25.1V25.3ZM108.583 24.4009C109.092 23.8043 109.344 23.0603 109.344 22.176H109.144C109.144 23.0197 108.905 23.7157 108.43 24.2711L108.583 24.4009ZM109.344 22.176C109.344 21.2918 109.092 20.5533 108.582 19.9683L108.431 20.0997C108.905 20.6427 109.144 21.3322 109.144 22.176H109.344ZM108.583 19.97C108.083 19.3701 107.425 19.07 106.616 19.07V19.27C107.368 19.27 107.97 19.5459 108.43 20.098L108.583 19.97ZM106.616 19.07C105.808 19.07 105.144 19.3701 104.632 19.9691L104.785 20.0989C105.257 19.5459 105.865 19.27 106.616 19.27V19.07ZM104.633 19.9683C104.123 20.5533 103.87 21.2918 103.87 22.176H104.07C104.07 21.3322 104.31 20.6427 104.784 20.0997L104.633 19.9683ZM103.87 22.176C103.87 23.0603 104.123 23.8043 104.632 24.4009L104.785 24.2711C104.31 23.7157 104.07 23.0197 104.07 22.176H103.87ZM104.632 24.4009C105.144 24.9999 105.808 25.3 106.616 25.3V25.1C105.865 25.1 105.257 24.8241 104.785 24.2711L104.632 24.4009ZM121.755 21.96L121.855 21.9642V21.96H121.755ZM114.717 22.932V22.832H114.595L114.619 22.9519L114.717 22.932ZM115.707 24.606L115.645 24.6845L115.646 24.6853L115.707 24.606ZM118.605 25.074L118.634 25.1697L118.638 25.1684L118.605 25.074ZM119.253 24.786L119.306 24.8712L119.307 24.8701L119.253 24.786ZM119.595 24.57L119.55 24.4803L119.544 24.4843L119.595 24.57ZM120.621 26.19L120.56 26.1113L120.558 26.1127L120.621 26.19ZM119.271 26.892L119.239 26.7973L119.271 26.892ZM114.915 26.55L114.866 26.6371L114.867 26.6374L114.915 26.55ZM113.187 24.822L113.1 24.8701L113.1 24.8707L113.187 24.822ZM113.223 19.602L113.136 19.5535L113.223 19.602ZM114.933 17.82L114.983 17.9066L114.984 17.906L114.933 17.82ZM119.433 17.838L119.381 17.923L119.381 17.9234L119.433 17.838ZM121.125 19.584L121.212 19.5342L121.125 19.584ZM114.735 21.132L114.637 21.1131L114.614 21.232H114.735V21.132ZM119.451 21.132V21.232H119.551V21.132H119.451ZM119.451 21.006H119.552L119.551 20.9965L119.451 21.006ZM121.655 21.9558C121.645 22.2164 121.543 22.4238 121.349 22.5852L121.477 22.7388C121.716 22.5402 121.842 22.2796 121.855 21.9642L121.655 21.9558ZM121.349 22.5852C121.152 22.7498 120.923 22.832 120.657 22.832V23.032C120.968 23.032 121.243 22.9342 121.477 22.7388L121.349 22.5852ZM120.657 22.832H114.717V23.032H120.657V22.832ZM114.619 22.9519C114.768 23.6806 115.109 24.2603 115.645 24.6844L115.769 24.5276C115.274 24.1357 114.955 23.5994 114.815 22.9121L114.619 22.9519ZM115.646 24.6853C116.18 25.0947 116.783 25.3 117.453 25.3V25.1C116.827 25.1 116.267 24.9093 115.768 24.5267L115.646 24.6853ZM117.453 25.3C117.949 25.3 118.345 25.2579 118.634 25.1697L118.576 24.9783C118.314 25.0581 117.941 25.1 117.453 25.1V25.3ZM118.638 25.1684C118.917 25.0713 119.141 24.9725 119.306 24.8712L119.201 24.7008C119.054 24.7915 118.845 24.8847 118.572 24.9796L118.638 25.1684ZM119.307 24.8701C119.476 24.762 119.588 24.6908 119.647 24.6557L119.544 24.4843C119.482 24.5212 119.367 24.594 119.199 24.7019L119.307 24.8701ZM119.64 24.6594C119.846 24.5566 120.034 24.508 120.207 24.508V24.308C119.996 24.308 119.777 24.3674 119.551 24.4806L119.64 24.6594ZM120.207 24.508C120.432 24.508 120.623 24.5872 120.785 24.7487L120.926 24.6073C120.727 24.4087 120.486 24.308 120.207 24.308V24.508ZM120.785 24.7487C120.947 24.9112 121.025 25.0963 121.025 25.308H121.225C121.225 25.0397 121.124 24.8048 120.926 24.6073L120.785 24.7487ZM121.025 25.308C121.025 25.5921 120.88 25.8598 120.56 26.1114L120.683 26.2686C121.035 25.9922 121.225 25.6719 121.225 25.308H121.025ZM120.558 26.1127C120.234 26.3788 119.796 26.6079 119.239 26.7973L119.304 26.9867C119.875 26.7921 120.337 26.5532 120.685 26.2673L120.558 26.1127ZM119.239 26.7973C118.685 26.9859 118.126 27.08 117.561 27.08V27.28C118.149 27.28 118.73 27.1821 119.304 26.9867L119.239 26.7973ZM117.561 27.08C116.567 27.08 115.703 26.8731 114.964 26.4626L114.867 26.6374C115.64 27.0669 116.539 27.28 117.561 27.28V27.08ZM114.964 26.4629C114.236 26.0518 113.674 25.4889 113.275 24.7733L113.1 24.8707C113.517 25.6191 114.106 26.2082 114.866 26.6371L114.964 26.4629ZM113.275 24.7739C112.876 24.0459 112.675 23.2287 112.675 22.32H112.475C112.475 23.2593 112.683 24.1101 113.1 24.8701L113.275 24.7739ZM112.675 22.32C112.675 21.3023 112.888 20.4134 113.311 19.6504L113.136 19.5535C112.694 20.3506 112.475 21.2737 112.475 22.32H112.675ZM113.311 19.6504C113.735 18.8849 114.292 18.3047 114.983 17.9066L114.883 17.7334C114.158 18.1513 113.576 18.7591 113.136 19.5535L113.311 19.6504ZM114.984 17.906C115.677 17.4949 116.416 17.29 117.201 17.29V17.09C116.379 17.09 115.605 17.3051 114.882 17.734L114.984 17.906ZM117.201 17.29C117.974 17.29 118.7 17.5004 119.381 17.923L119.486 17.753C118.775 17.3116 118.013 17.09 117.201 17.09V17.29ZM119.381 17.9234C120.075 18.3464 120.627 18.9161 121.039 19.6338L121.212 19.5342C120.784 18.7879 120.208 18.1936 119.485 17.7526L119.381 17.9234ZM121.039 19.6338C121.45 20.3505 121.655 21.1253 121.655 21.96H121.855C121.855 21.0907 121.641 20.2815 121.212 19.5342L121.039 19.6338ZM117.201 19.07C116.49 19.07 115.912 19.2372 115.479 19.5822C115.044 19.9277 114.766 20.4421 114.637 21.1131L114.834 21.1509C114.956 20.5139 115.215 20.0473 115.603 19.7388C115.991 19.4298 116.521 19.27 117.201 19.27V19.07ZM114.735 21.232H119.451V21.032H114.735V21.232ZM119.551 21.132V21.006H119.351V21.132H119.551ZM119.551 20.9965C119.5 20.4623 119.238 20.0068 118.776 19.6323L118.65 19.7877C119.076 20.1332 119.307 20.5417 119.352 21.0155L119.551 20.9965ZM118.776 19.6323C118.315 19.2581 117.789 19.07 117.201 19.07V19.27C117.742 19.27 118.224 19.4419 118.65 19.7877L118.776 19.6323ZM135.73 14.958L135.674 15.0409L135.675 15.0418L135.73 14.958ZM137.062 16.434L136.974 16.4814L136.974 16.4821L137.062 16.434ZM137.062 20.466L137.15 20.5134L137.062 20.466ZM135.73 21.96L135.784 22.0438L135.786 22.0429L135.73 21.96ZM130.852 22.5V22.4H130.752V22.5H130.852ZM129.07 26.694L128.995 26.7605L128.997 26.7625L129.07 26.694ZM129.088 14.724L129.017 14.6533V14.6533L129.088 14.724ZM134.65 20.16L134.585 20.0835L134.583 20.0853L134.65 20.16ZM135.19 19.422L135.099 19.3801L135.098 19.3817L135.19 19.422ZM135.19 17.496L135.097 17.535L135.099 17.5393L135.19 17.496ZM134.65 16.758L134.583 16.8329L134.588 16.8365L134.65 16.758ZM130.852 16.47V16.37H130.752V16.47H130.852ZM130.852 20.448H130.752V20.548H130.852V20.448ZM133.984 14.5C134.574 14.5 135.137 14.679 135.674 15.0409L135.786 14.8751C135.219 14.493 134.617 14.3 133.984 14.3V14.5ZM135.675 15.0418C136.212 15.3919 136.645 15.871 136.974 16.4814L137.15 16.3866C136.806 15.749 136.351 15.2441 135.784 14.8742L135.675 15.0418ZM136.974 16.4821C137.301 17.0787 137.466 17.734 137.466 18.45H137.666C137.666 17.702 137.494 17.0133 137.149 16.3859L136.974 16.4821ZM137.466 18.45C137.466 19.1537 137.302 19.8094 136.974 20.4186L137.15 20.5134C137.494 19.8746 137.666 19.1863 137.666 18.45H137.466ZM136.974 20.4186C136.645 21.0293 136.211 21.5147 135.674 21.8771L135.786 22.0429C136.352 21.6613 136.807 21.1507 137.15 20.5134L136.974 20.4186ZM135.675 21.8762C135.138 22.2265 134.575 22.4 133.984 22.4V22.6C134.617 22.6 135.217 22.4135 135.784 22.0438L135.675 21.8762ZM133.984 22.4H130.852V22.6H133.984V22.4ZM130.752 22.5V25.902H130.952V22.5H130.752ZM130.752 25.902C130.752 26.2048 130.663 26.4429 130.491 26.6255L130.636 26.7625C130.849 26.5371 130.952 26.2472 130.952 25.902H130.752ZM130.491 26.6255C130.32 26.807 130.096 26.9 129.808 26.9V27.1C130.144 27.1 130.423 26.989 130.636 26.7625L130.491 26.6255ZM129.808 26.9C129.533 26.9 129.314 26.8078 129.142 26.6255L128.997 26.7625C129.209 26.9882 129.482 27.1 129.808 27.1V26.9ZM129.144 26.6276C128.97 26.4314 128.882 26.1916 128.882 25.902H128.682C128.682 26.2364 128.785 26.5246 128.995 26.7604L129.144 26.6276ZM128.882 25.902V15.498H128.682V25.902H128.882ZM128.882 15.498C128.882 15.2101 128.975 14.9783 129.158 14.7947L129.017 14.6533C128.793 14.8777 128.682 15.1619 128.682 15.498H128.882ZM129.158 14.7947C129.355 14.5979 129.594 14.5 129.88 14.5V14.3C129.542 14.3 129.252 14.4181 129.017 14.6533L129.158 14.7947ZM129.88 14.5H133.984V14.3H129.88V14.5ZM133.984 20.548C134.242 20.548 134.487 20.4385 134.716 20.2347L134.583 20.0853C134.38 20.2655 134.181 20.348 133.984 20.348V20.548ZM134.714 20.2365C134.955 20.0337 135.144 19.7748 135.281 19.4623L135.098 19.3817C134.972 19.6692 134.8 19.9023 134.585 20.0835L134.714 20.2365ZM135.28 19.4639C135.43 19.1391 135.506 18.8008 135.506 18.45H135.306C135.306 18.7712 135.237 19.0809 135.099 19.3801L135.28 19.4639ZM135.506 18.45C135.506 18.0992 135.43 17.7664 135.28 17.4527L135.099 17.5393C135.237 17.8256 135.306 18.1288 135.306 18.45H135.506ZM135.282 17.457C135.144 17.1321 134.955 16.8716 134.712 16.6795L134.588 16.8365C134.8 17.0044 134.971 17.2359 135.098 17.535L135.282 17.457ZM134.716 16.6833C134.487 16.4795 134.242 16.37 133.984 16.37V16.57C134.181 16.57 134.38 16.6525 134.583 16.8327L134.716 16.6833ZM133.984 16.37H130.852V16.57H133.984V16.37ZM130.752 16.47V20.448H130.952V16.47H130.752ZM130.852 20.548H133.984V20.348H130.852V20.548ZM145.351 17.496L145.287 17.5722L145.288 17.5737L145.351 17.496ZM145.441 19.062L145.51 19.135L145.512 19.1327L145.441 19.062ZM144.145 19.206L144.18 19.1121L144.177 19.1111L144.145 19.206ZM143.893 19.134L143.865 19.2298L143.867 19.2305L143.893 19.134ZM142.597 19.368L142.653 19.4512L142.597 19.368ZM141.877 20.25L141.787 20.2064L141.787 20.2076L141.877 20.25ZM141.301 26.694L141.372 26.7647L141.374 26.7627L141.301 26.694ZM139.753 26.694L139.681 26.7627L139.683 26.7647L139.753 26.694ZM139.753 17.694L139.824 17.7647L139.826 17.7627L139.753 17.694ZM141.301 17.694L141.229 17.7627L141.231 17.7647L141.301 17.694ZM141.607 18.702H141.507V19.0847L141.695 18.7509L141.607 18.702ZM142.795 17.586L142.839 17.6759L142.841 17.675L142.795 17.586ZM144.451 17.29C144.791 17.29 145.067 17.3857 145.287 17.5722L145.416 17.4198C145.155 17.1983 144.831 17.09 144.451 17.09V17.29ZM145.288 17.5737C145.522 17.7624 145.629 17.9756 145.629 18.216H145.829C145.829 17.9044 145.685 17.6376 145.414 17.4183L145.288 17.5737ZM145.629 18.216C145.629 18.5715 145.538 18.8241 145.371 18.9913L145.512 19.1327C145.729 18.9159 145.829 18.6045 145.829 18.216H145.629ZM145.373 18.989C145.2 19.1516 144.996 19.232 144.757 19.232V19.432C145.047 19.432 145.299 19.3324 145.51 19.135L145.373 18.989ZM144.757 19.232C144.592 19.232 144.4 19.1934 144.18 19.1122L144.111 19.2998C144.346 19.3866 144.562 19.432 144.757 19.432V19.232ZM144.177 19.1111C144.138 19.0981 144.051 19.0733 143.92 19.0375L143.867 19.2305C144 19.2667 144.081 19.2899 144.114 19.3009L144.177 19.1111ZM143.922 19.0382C143.791 18.999 143.65 18.98 143.497 18.98V19.18C143.633 19.18 143.755 19.197 143.865 19.2298L143.922 19.0382ZM143.497 18.98C143.163 18.98 142.844 19.0831 142.542 19.2848L142.653 19.4512C142.926 19.2689 143.207 19.18 143.497 19.18V18.98ZM142.542 19.2848C142.236 19.489 141.985 19.7986 141.787 20.2064L141.967 20.2936C142.154 19.9094 142.383 19.631 142.653 19.4512L142.542 19.2848ZM141.787 20.2076C141.599 20.608 141.507 21.0852 141.507 21.636H141.707C141.707 21.1068 141.796 20.66 141.968 20.2924L141.787 20.2076ZM141.507 21.636V25.902H141.707V21.636H141.507ZM141.507 25.902C141.507 26.1899 141.414 26.4289 141.229 26.6253L141.374 26.7627C141.597 26.5271 141.707 26.2381 141.707 25.902H141.507ZM141.231 26.6233C141.047 26.8069 140.815 26.9 140.527 26.9V27.1C140.863 27.1 141.148 26.9891 141.372 26.7647L141.231 26.6233ZM140.527 26.9C140.239 26.9 140.008 26.8069 139.824 26.6233L139.683 26.7647C139.907 26.9891 140.191 27.1 140.527 27.1V26.9ZM139.826 26.6253C139.641 26.4289 139.547 26.1899 139.547 25.902H139.347C139.347 26.2381 139.458 26.5271 139.681 26.7627L139.826 26.6253ZM139.547 25.902V18.468H139.347V25.902H139.547ZM139.547 18.468C139.547 18.1801 139.64 17.9483 139.824 17.7647L139.683 17.6233C139.458 17.8477 139.347 18.1319 139.347 18.468H139.547ZM139.826 17.7627C140.01 17.5678 140.241 17.47 140.527 17.47V17.27C140.189 17.27 139.905 17.3882 139.681 17.6253L139.826 17.7627ZM140.527 17.47C140.813 17.47 141.045 17.5678 141.229 17.7627L141.374 17.6253C141.15 17.3882 140.865 17.27 140.527 17.27V17.47ZM141.231 17.7647C141.414 17.9483 141.507 18.1801 141.507 18.468H141.707C141.707 18.1319 141.596 17.8477 141.372 17.6233L141.231 17.7647ZM141.507 18.468V18.702H141.707V18.468H141.507ZM141.695 18.7509C141.96 18.277 142.341 17.9191 142.839 17.6759L142.751 17.4961C142.218 17.7569 141.806 18.143 141.52 18.6531L141.695 18.7509ZM142.841 17.675C143.343 17.4183 143.879 17.29 144.451 17.29V17.09C143.848 17.09 143.28 17.2257 142.75 17.497L142.841 17.675ZM155.452 24.786L155.539 24.8356L155.539 24.835L155.452 24.786ZM153.67 26.55L153.621 26.4626L153.621 26.4629L153.67 26.55ZM148.72 26.55L148.769 26.4629L148.72 26.55ZM146.956 24.786L146.869 24.835L146.869 24.8356L146.956 24.786ZM146.956 19.62L147.043 19.6696L147.043 19.669L146.956 19.62ZM148.72 17.838L148.769 17.9251L148.77 17.9245L148.72 17.838ZM153.67 17.838L153.62 17.9245L153.621 17.9254L153.67 17.838ZM155.452 19.62L155.365 19.669L155.365 19.6696L155.452 19.62ZM153.562 20.628L153.473 20.6737L153.474 20.6764L153.562 20.628ZM152.572 19.548L152.519 19.6331L152.52 19.6337L152.572 19.548ZM149.818 19.548L149.766 19.4622L149.765 19.4629L149.818 19.548ZM148.828 20.628L148.74 20.5806L148.739 20.5814L148.828 20.628ZM148.828 23.76L148.739 23.8066L148.74 23.8084L148.828 23.76ZM149.818 24.822L149.765 24.9071L149.766 24.9077L149.818 24.822ZM152.572 24.822L152.52 24.7362L152.519 24.7369L152.572 24.822ZM153.562 23.76L153.474 23.7116L153.473 23.7134L153.562 23.76ZM156 22.194C156 23.1384 155.787 23.9853 155.365 24.737L155.539 24.835C155.98 24.0507 156.2 23.1696 156.2 22.194H156ZM155.365 24.7364C154.942 25.4766 154.361 26.0515 153.621 26.4626L153.718 26.6374C154.49 26.2085 155.098 25.6074 155.539 24.8356L155.365 24.7364ZM153.621 26.4629C152.892 26.874 152.087 27.08 151.204 27.08V27.28C152.12 27.28 152.959 27.066 153.719 26.6371L153.621 26.4629ZM151.204 27.08C150.308 27.08 149.497 26.8739 148.769 26.4629L148.671 26.6371C149.431 27.0661 150.276 27.28 151.204 27.28V27.08ZM148.769 26.4629C148.041 26.052 147.466 25.477 147.043 24.7364L146.869 24.8356C147.31 25.607 147.911 26.208 148.671 26.6371L148.769 26.4629ZM147.043 24.737C146.62 23.9853 146.408 23.1384 146.408 22.194H146.208C146.208 23.1696 146.427 24.0507 146.869 24.835L147.043 24.737ZM146.408 22.194C146.408 21.2496 146.62 20.409 147.043 19.6696L146.869 19.5704C146.427 20.343 146.208 21.2184 146.208 22.194H146.408ZM147.043 19.669C147.466 18.9164 148.041 18.3358 148.769 17.9251L148.671 17.7509C147.91 18.1802 147.309 18.7876 146.869 19.571L147.043 19.669ZM148.77 17.9245C149.498 17.5019 150.308 17.29 151.204 17.29V17.09C150.275 17.09 149.43 17.3101 148.67 17.7515L148.77 17.9245ZM151.204 17.29C152.087 17.29 152.891 17.5018 153.62 17.9245L153.72 17.7515C152.96 17.3102 152.121 17.09 151.204 17.09V17.29ZM153.621 17.9254C154.361 18.3363 154.941 18.9168 155.365 19.669L155.539 19.571C155.098 18.7872 154.491 18.1797 153.718 17.7506L153.621 17.9254ZM155.365 19.6696C155.787 20.409 156 21.2496 156 22.194H156.2C156.2 21.2184 155.98 20.343 155.539 19.5704L155.365 19.6696ZM154.04 22.194C154.04 21.5913 153.91 21.0523 153.649 20.5796L153.474 20.6764C153.717 21.1157 153.84 21.6207 153.84 22.194H154.04ZM153.651 20.5824C153.403 20.099 153.06 19.7246 152.623 19.4622L152.52 19.6337C152.923 19.8754 153.241 20.221 153.473 20.6736L153.651 20.5824ZM152.624 19.4629C152.2 19.2007 151.725 19.07 151.204 19.07V19.27C151.69 19.27 152.128 19.3913 152.519 19.6331L152.624 19.4629ZM151.204 19.07C150.682 19.07 150.202 19.2006 149.766 19.4622L149.869 19.6337C150.273 19.3914 150.717 19.27 151.204 19.27V19.07ZM149.765 19.4629C149.341 19.7251 148.999 20.0989 148.74 20.5806L148.916 20.6754C149.16 20.2211 149.479 19.8749 149.87 19.6331L149.765 19.4629ZM148.739 20.5814C148.491 21.0537 148.368 21.5921 148.368 22.194H148.568C148.568 21.6199 148.685 21.1143 148.916 20.6746L148.739 20.5814ZM148.368 22.194C148.368 22.7959 148.491 23.3343 148.739 23.8066L148.916 23.7134C148.685 23.2737 148.568 22.7681 148.568 22.194H148.368ZM148.74 23.8084C149 24.2781 149.341 24.6453 149.765 24.9071L149.87 24.7369C149.478 24.4947 149.16 24.1539 148.915 23.7116L148.74 23.8084ZM149.766 24.9077C150.202 25.1694 150.682 25.3 151.204 25.3V25.1C150.717 25.1 150.273 24.9786 149.869 24.7363L149.766 24.9077ZM151.204 25.3C151.725 25.3 152.2 25.1693 152.624 24.9071L152.519 24.7369C152.128 24.9787 151.69 25.1 151.204 25.1V25.3ZM152.623 24.9077C153.06 24.6458 153.402 24.2779 153.65 23.8066L153.473 23.7134C153.241 24.1541 152.924 24.4942 152.52 24.7363L152.623 24.9077ZM153.649 23.8084C153.91 23.3357 154.04 22.7967 154.04 22.194H153.84C153.84 22.7673 153.717 23.2723 153.474 23.7116L153.649 23.8084ZM166.472 26.694L166.543 26.7647L166.545 26.7627L166.472 26.694ZM164.924 26.694L164.852 26.7626L164.854 26.7647L164.924 26.694ZM164.618 25.92L164.718 25.9162L164.709 25.6623L164.543 25.8547L164.618 25.92ZM163.394 26.82L163.437 26.9103L163.438 26.9099L163.394 26.82ZM159.542 26.55L159.488 26.6341L159.489 26.6348L159.542 26.55ZM157.94 24.768L157.851 24.8133L157.852 24.8144L157.94 24.768ZM157.94 19.62L158.03 19.6653L158.03 19.6647L157.94 19.62ZM159.506 17.838L159.56 17.9224L159.56 17.9221L159.506 17.838ZM163.34 17.514L163.301 17.6059L163.303 17.6067L163.34 17.514ZM164.618 18.306L164.55 18.3792L164.718 18.5357V18.306H164.618ZM164.924 14.004L164.995 14.0747L164.997 14.0727L164.924 14.004ZM163.97 24.354L164.046 24.4197L164.046 24.4189L163.97 24.354ZM163.97 20.034L163.894 20.0989L163.97 20.034ZM160.172 20.034L160.248 20.0989L160.172 20.034ZM160.154 24.354L160.078 24.418L160.079 24.4197L160.154 24.354ZM165.698 13.78C165.986 13.78 166.218 13.8731 166.402 14.0567L166.543 13.9153C166.319 13.6909 166.035 13.58 165.698 13.58V13.78ZM166.402 14.0567C166.585 14.2396 166.678 14.477 166.678 14.778H166.878C166.878 14.431 166.768 14.1404 166.543 13.9153L166.402 14.0567ZM166.678 14.778V25.902H166.878V14.778H166.678ZM166.678 25.902C166.678 26.1899 166.585 26.4289 166.4 26.6253L166.545 26.7627C166.768 26.5271 166.878 26.2381 166.878 25.902H166.678ZM166.402 26.6233C166.218 26.8069 165.986 26.9 165.698 26.9V27.1C166.035 27.1 166.319 26.9891 166.543 26.7647L166.402 26.6233ZM165.698 26.9C165.411 26.9 165.179 26.8069 164.995 26.6233L164.854 26.7647C165.078 26.9891 165.362 27.1 165.698 27.1V26.9ZM164.997 26.6255C164.824 26.4411 164.729 26.207 164.718 25.9162L164.518 25.9238C164.531 26.257 164.641 26.5389 164.852 26.7625L164.997 26.6255ZM164.543 25.8547C164.253 26.1902 163.857 26.4827 163.35 26.7301L163.438 26.9099C163.963 26.6533 164.383 26.3458 164.694 25.9853L164.543 25.8547ZM163.351 26.7297C162.861 26.9633 162.342 27.08 161.792 27.08V27.28C162.371 27.28 162.92 27.1567 163.437 26.9103L163.351 26.7297ZM161.792 27.08C160.982 27.08 160.251 26.8748 159.595 26.4652L159.489 26.6348C160.178 27.0652 160.947 27.28 161.792 27.28V27.08ZM159.596 26.4659C158.94 26.0439 158.417 25.4633 158.029 24.7216L157.852 24.8144C158.255 25.5847 158.801 26.1921 159.488 26.6341L159.596 26.4659ZM158.03 24.7227C157.654 23.9825 157.464 23.1404 157.464 22.194H157.264C157.264 23.1676 157.459 24.0415 157.851 24.8133L158.03 24.7227ZM157.464 22.194C157.464 21.2476 157.654 20.4055 158.03 19.6653L157.851 19.5747C157.459 20.3465 157.264 21.2204 157.264 22.194H157.464ZM158.03 19.6647C158.407 18.9113 158.917 18.3317 159.56 17.9224L159.453 17.7536C158.776 18.1843 158.242 18.7927 157.851 19.5753L158.03 19.6647ZM159.56 17.9221C160.216 17.5006 160.935 17.29 161.72 17.29V17.09C160.897 17.09 160.141 17.3114 159.452 17.7539L159.56 17.9221ZM161.72 17.29C162.284 17.29 162.81 17.3955 163.301 17.6059L163.38 17.4221C162.863 17.2005 162.309 17.09 161.72 17.09V17.29ZM163.303 17.6067C163.797 17.8068 164.212 18.0646 164.55 18.3792L164.687 18.2328C164.328 17.8994 163.892 17.6292 163.378 17.4213L163.303 17.6067ZM164.718 18.306V14.778H164.518V18.306H164.718ZM164.718 14.778C164.718 14.4901 164.811 14.2583 164.995 14.0747L164.854 13.9333C164.629 14.1577 164.518 14.4419 164.518 14.778H164.718ZM164.997 14.0727C165.181 13.8778 165.412 13.78 165.698 13.78V13.58C165.36 13.58 165.076 13.6982 164.852 13.9353L164.997 14.0727ZM162.062 25.3C162.87 25.3 163.534 25.0065 164.046 24.4197L163.895 24.2883C163.423 24.8295 162.815 25.1 162.062 25.1V25.3ZM164.046 24.4189C164.556 23.8223 164.808 23.0783 164.808 22.194H164.608C164.608 23.0377 164.369 23.7337 163.894 24.2891L164.046 24.4189ZM164.808 22.194C164.808 21.3097 164.556 20.5657 164.046 19.9691L163.894 20.0989C164.369 20.6543 164.608 21.3503 164.608 22.194H164.808ZM164.046 19.9691C163.535 19.3701 162.871 19.07 162.062 19.07V19.27C162.814 19.27 163.422 19.5459 163.894 20.0989L164.046 19.9691ZM162.062 19.07C161.266 19.07 160.608 19.3705 160.096 19.9691L160.248 20.0989C160.721 19.5455 161.323 19.27 162.062 19.27V19.07ZM160.096 19.9691C159.587 20.5657 159.334 21.3097 159.334 22.194H159.534C159.534 21.3503 159.774 20.6543 160.248 20.0989L160.096 19.9691ZM159.334 22.194C159.334 23.0776 159.58 23.8214 160.078 24.418L160.231 24.29C159.768 23.7346 159.534 23.0384 159.534 22.194H159.334ZM160.079 24.4197C160.591 25.0065 161.255 25.3 162.062 25.3V25.1C161.31 25.1 160.702 24.8295 160.23 24.2883L160.079 24.4197ZM177.32 17.694L177.248 17.7627L177.25 17.7647L177.32 17.694ZM176.546 26.082L176.475 26.0119L176.475 26.0125L176.546 26.082ZM170.462 26.082L170.391 26.1515L170.462 26.082ZM169.706 17.694L169.777 17.7647L169.779 17.7627L169.706 17.694ZM171.254 17.694L171.182 17.7627L171.184 17.7647L171.254 17.694ZM172.046 24.678L171.972 24.7449L171.973 24.7461L172.046 24.678ZM174.98 24.678L175.054 24.7462L175.055 24.7449L174.98 24.678ZM175.772 17.694L175.843 17.7647L175.845 17.7627L175.772 17.694ZM176.546 17.47C176.833 17.47 177.064 17.5678 177.248 17.7627L177.393 17.6253C177.169 17.3882 176.884 17.27 176.546 17.27V17.47ZM177.25 17.7647C177.433 17.9483 177.526 18.1801 177.526 18.468H177.726C177.726 18.1319 177.616 17.8477 177.391 17.6233L177.25 17.7647ZM177.526 18.468V23.04H177.726V18.468H177.526ZM177.526 23.04C177.526 24.317 177.172 25.3032 176.475 26.0119L176.618 26.1521C177.361 25.3968 177.726 24.355 177.726 23.04H177.526ZM176.475 26.0125C175.791 26.7197 174.806 27.08 173.504 27.08V27.28C174.843 27.28 175.886 26.9083 176.618 26.1515L176.475 26.0125ZM173.504 27.08C172.203 27.08 171.218 26.7197 170.534 26.0125L170.391 26.1515C171.123 26.9083 172.166 27.28 173.504 27.28V27.08ZM170.534 26.0125C169.849 25.3038 169.5 24.3174 169.5 23.04H169.3C169.3 24.3546 169.66 25.3962 170.391 26.1515L170.534 26.0125ZM169.5 23.04V18.468H169.3V23.04H169.5ZM169.5 18.468C169.5 18.1801 169.594 17.9483 169.777 17.7647L169.636 17.6233C169.411 17.8477 169.3 18.1319 169.3 18.468H169.5ZM169.779 17.7627C169.963 17.5678 170.194 17.47 170.48 17.47V17.27C170.143 17.27 169.858 17.3882 169.634 17.6253L169.779 17.7627ZM170.48 17.47C170.767 17.47 170.998 17.5678 171.182 17.7627L171.327 17.6253C171.103 17.3882 170.818 17.27 170.48 17.27V17.47ZM171.184 17.7647C171.367 17.9483 171.46 18.1801 171.46 18.468H171.66C171.66 18.1319 171.55 17.8477 171.325 17.6233L171.184 17.7647ZM171.46 18.468V23.04H171.66V18.468H171.46ZM171.46 23.04C171.46 23.7844 171.625 24.3591 171.972 24.7449L172.121 24.6111C171.82 24.2769 171.66 23.7596 171.66 23.04H171.46ZM171.973 24.7461C172.322 25.121 172.839 25.3 173.504 25.3V25.1C172.874 25.1 172.419 24.931 172.12 24.6099L171.973 24.7461ZM173.504 25.3C174.181 25.3 174.704 25.1214 175.054 24.7461L174.907 24.6099C174.609 24.9306 174.148 25.1 173.504 25.1V25.3ZM175.055 24.7449C175.402 24.3591 175.566 23.7844 175.566 23.04H175.366C175.366 23.7596 175.207 24.2769 174.906 24.6111L175.055 24.7449ZM175.566 23.04V18.468H175.366V23.04H175.566ZM175.566 18.468C175.566 18.1801 175.66 17.9483 175.843 17.7647L175.702 17.6233C175.477 17.8477 175.366 18.1319 175.366 18.468H175.566ZM175.845 17.7627C176.029 17.5678 176.26 17.47 176.546 17.47V17.27C176.209 17.27 175.924 17.3882 175.7 17.6253L175.845 17.7627ZM186.625 17.676L186.579 17.7648L186.58 17.7654L186.625 17.676ZM187.327 19.638L187.405 19.7011L187.406 19.6987L187.327 19.638ZM186.247 19.854L186.202 19.9438L186.21 19.9468L186.247 19.854ZM185.887 19.638L185.82 19.7132L185.83 19.7199L185.887 19.638ZM185.563 19.404L185.612 19.3165L185.608 19.3146L185.563 19.404ZM185.023 19.242L185.002 19.3399L185.003 19.3401L185.023 19.242ZM182.341 20.016L182.267 19.9485L182.267 19.9486L182.341 20.016ZM182.359 24.354L182.284 24.4207L182.285 24.4215L182.359 24.354ZM185.653 24.984L185.608 24.8946L185.653 24.984ZM185.941 24.804L185.998 24.8859L186 24.8849L185.941 24.804ZM186.301 24.588L186.342 24.6794L186.301 24.588ZM187.399 24.804L187.324 24.8699L187.326 24.8724L187.399 24.804ZM187.165 26.352L187.225 26.432L187.165 26.352ZM185.833 26.964L185.858 27.0608L185.86 27.0602L185.833 26.964ZM181.621 26.532L181.568 26.617L181.569 26.6174L181.621 26.532ZM180.001 24.75L179.911 24.7947L179.912 24.7953L180.001 24.75ZM180.019 19.602L179.931 19.5545L179.93 19.5556L180.019 19.602ZM181.711 17.838L181.761 17.9244L181.762 17.9237L181.711 17.838ZM184.159 17.29C185.17 17.29 185.974 17.4507 186.579 17.7647L186.671 17.5873C186.028 17.2533 185.188 17.09 184.159 17.09V17.29ZM186.58 17.7654C187.183 18.0669 187.461 18.4583 187.461 18.936H187.661C187.661 18.3577 187.315 17.9091 186.67 17.5866L186.58 17.7654ZM187.461 18.936C187.461 19.1787 187.39 19.3912 187.247 19.5773L187.406 19.6987C187.576 19.4768 187.661 19.2213 187.661 18.936H187.461ZM187.249 19.5749C187.113 19.7431 186.937 19.826 186.715 19.826V20.026C186.996 20.026 187.229 19.9169 187.405 19.7011L187.249 19.5749ZM186.715 19.826C186.53 19.826 186.388 19.8027 186.284 19.7612L186.21 19.9468C186.346 20.0013 186.516 20.026 186.715 20.026V19.826ZM186.292 19.7646C186.176 19.7069 186.061 19.6375 185.944 19.5561L185.83 19.7199C185.953 19.8065 186.077 19.8811 186.202 19.9434L186.292 19.7646ZM185.953 19.5633C185.841 19.4632 185.727 19.3807 185.611 19.3166L185.514 19.4914C185.615 19.5473 185.717 19.6208 185.82 19.7127L185.953 19.5633ZM185.608 19.3146C185.476 19.2486 185.285 19.1925 185.043 19.1439L185.003 19.3401C185.24 19.3875 185.41 19.4394 185.518 19.4934L185.608 19.3146ZM185.044 19.1441C184.812 19.0955 184.619 19.07 184.465 19.07V19.27C184.599 19.27 184.777 19.2925 185.002 19.3399L185.044 19.1441ZM184.465 19.07C183.542 19.07 182.805 19.3601 182.267 19.9485L182.415 20.0835C182.908 19.5439 183.588 19.27 184.465 19.27V19.07ZM182.267 19.9486C181.743 20.5226 181.485 21.2744 181.485 22.194H181.685C181.685 21.3136 181.931 20.6134 182.415 20.0834L182.267 19.9486ZM181.485 22.194C181.485 23.0795 181.75 23.8242 182.284 24.4207L182.433 24.2873C181.936 23.7318 181.685 23.0365 181.685 22.194H181.485ZM182.285 24.4215C182.821 25.0074 183.508 25.3 184.339 25.3V25.1C183.561 25.1 182.929 24.8286 182.433 24.2865L182.285 24.4215ZM184.339 25.3C184.932 25.3 185.389 25.228 185.698 25.0734L185.608 24.8946C185.341 25.028 184.922 25.1 184.339 25.1V25.3ZM185.698 25.0734C185.776 25.0342 185.877 24.9709 185.998 24.8859L185.884 24.7221C185.765 24.8051 185.674 24.8618 185.608 24.8946L185.698 25.0734ZM186 24.8849C186.128 24.7916 186.242 24.7237 186.342 24.6794L186.26 24.4966C186.144 24.5483 186.018 24.6244 185.882 24.7231L186 24.8849ZM186.342 24.6794C186.433 24.6386 186.551 24.616 186.697 24.616V24.416C186.531 24.416 186.384 24.4414 186.26 24.4966L186.342 24.6794ZM186.697 24.616C186.974 24.616 187.178 24.7034 187.324 24.8699L187.474 24.7381C187.284 24.5206 187.02 24.416 186.697 24.416V24.616ZM187.326 24.8724C187.486 25.0432 187.569 25.2636 187.569 25.542H187.769C187.769 25.2204 187.672 24.9488 187.472 24.7356L187.326 24.8724ZM187.569 25.542C187.569 25.786 187.428 26.0298 187.105 26.272L187.225 26.432C187.574 26.1702 187.769 25.874 187.769 25.542H187.569ZM187.105 26.272C186.782 26.5145 186.35 26.714 185.806 26.8678L185.86 27.0602C186.42 26.902 186.876 26.6935 187.225 26.432L187.105 26.272ZM185.808 26.8672C185.265 27.0089 184.685 27.08 184.069 27.08V27.28C184.701 27.28 185.297 27.2071 185.858 27.0608L185.808 26.8672ZM184.069 27.08C183.161 27.08 182.364 26.868 181.673 26.4466L181.569 26.6174C182.294 27.06 183.129 27.28 184.069 27.28V27.08ZM181.674 26.447C180.994 26.025 180.466 25.445 180.09 24.7047L179.912 24.7953C180.304 25.567 180.856 26.175 181.568 26.617L181.674 26.447ZM180.09 24.7053C179.714 23.9524 179.525 23.1159 179.525 22.194H179.325C179.325 23.1441 179.52 24.0116 179.911 24.7947L180.09 24.7053ZM179.525 22.194C179.525 21.2359 179.72 20.3882 180.107 19.6484L179.93 19.5556C179.526 20.3278 179.325 21.2081 179.325 22.194H179.525ZM180.107 19.6495C180.506 18.9091 181.058 18.3348 181.761 17.9244L181.661 17.7516C180.924 18.1812 180.347 18.7829 179.931 19.5545L180.107 19.6495ZM181.762 17.9237C182.465 17.5019 183.263 17.29 184.159 17.29V17.09C183.23 17.09 182.396 17.3101 181.659 17.7523L181.762 17.9237ZM194.323 25.218L194.244 25.28L194.249 25.2858L194.323 25.218ZM193.999 26.676L194.051 26.761L194.052 26.7605L193.999 26.676ZM190.921 26.532L190.867 26.6161L190.869 26.6176L190.921 26.532ZM190.165 19.53H190.265V19.43H190.165V19.53ZM188.617 17.838L188.685 17.911L188.687 17.9087L188.617 17.838ZM190.165 17.55V17.65H190.265V17.55H190.165ZM190.471 15.624L190.4 15.5533L190.471 15.624ZM192.019 15.624L191.946 15.6927L191.948 15.6947L192.019 15.624ZM192.325 17.55H192.225V17.65H192.325V17.55ZM194.323 17.838L194.252 17.9087L194.323 17.838ZM194.323 19.26L194.391 19.333L194.393 19.3307L194.323 19.26ZM192.325 19.53V19.43H192.225V19.53H192.325ZM192.523 24.966L192.455 25.0401L192.459 25.0434L192.523 24.966ZM193.459 25.056L193.486 25.1528L193.497 25.1483L193.459 25.056ZM193.873 25.066C194.002 25.066 194.125 25.1287 194.244 25.2798L194.401 25.1562C194.256 24.9713 194.079 24.866 193.873 24.866V25.066ZM194.249 25.2858C194.372 25.4191 194.439 25.6027 194.439 25.848H194.639C194.639 25.5653 194.561 25.3289 194.396 25.1502L194.249 25.2858ZM194.439 25.848C194.439 26.1271 194.286 26.3754 193.945 26.5915L194.052 26.7605C194.431 26.5206 194.639 26.2169 194.639 25.848H194.439ZM193.946 26.591C193.615 26.7964 193.238 26.9 192.811 26.9V27.1C193.272 27.1 193.686 26.9876 194.051 26.761L193.946 26.591ZM192.811 26.9C192.081 26.9 191.469 26.747 190.972 26.4464L190.869 26.6176C191.404 26.941 192.053 27.1 192.811 27.1V26.9ZM190.975 26.4479C190.515 26.1525 190.265 25.5206 190.265 24.498H190.065C190.065 25.5394 190.318 26.2635 190.867 26.6161L190.975 26.4479ZM190.265 24.498V19.53H190.065V24.498H190.265ZM190.165 19.43H189.337V19.63H190.165V19.43ZM189.337 19.43C189.073 19.43 188.859 19.3433 188.687 19.1713L188.546 19.3127C188.758 19.5247 189.024 19.63 189.337 19.63V19.43ZM188.687 19.1713C188.515 18.9993 188.429 18.7853 188.429 18.522H188.229C188.229 18.8347 188.334 19.1007 188.546 19.3127L188.687 19.1713ZM188.429 18.522C188.429 18.2721 188.514 18.071 188.685 17.911L188.548 17.765C188.335 17.965 188.229 18.2199 188.229 18.522H188.429ZM188.687 17.9087C188.859 17.7367 189.073 17.65 189.337 17.65V17.45C189.024 17.45 188.758 17.5553 188.546 17.7673L188.687 17.9087ZM189.337 17.65H190.165V17.45H189.337V17.65ZM190.265 17.55V16.398H190.065V17.55H190.265ZM190.265 16.398C190.265 16.1101 190.358 15.8783 190.541 15.6947L190.4 15.5533C190.176 15.7777 190.065 16.0619 190.065 16.398H190.265ZM190.541 15.6947C190.738 15.4979 190.976 15.4 191.263 15.4V15.2C190.925 15.2 190.635 15.3181 190.4 15.5533L190.541 15.6947ZM191.263 15.4C191.535 15.4 191.761 15.4969 191.946 15.6927L192.091 15.5553C191.868 15.3191 191.59 15.2 191.263 15.2V15.4ZM191.948 15.6947C192.132 15.8783 192.225 16.1101 192.225 16.398H192.425C192.425 16.0619 192.314 15.7777 192.089 15.5533L191.948 15.6947ZM192.225 16.398V17.55H192.425V16.398H192.225ZM192.325 17.65H193.603V17.45H192.325V17.65ZM193.603 17.65C193.866 17.65 194.08 17.7367 194.252 17.9087L194.393 17.7673C194.181 17.5553 193.915 17.45 193.603 17.45V17.65ZM194.252 17.9087C194.424 18.0807 194.511 18.2947 194.511 18.558H194.711C194.711 18.2453 194.605 17.9793 194.393 17.7673L194.252 17.9087ZM194.511 18.558C194.511 18.808 194.425 19.0164 194.252 19.1893L194.393 19.3307C194.604 19.1196 194.711 18.86 194.711 18.558H194.511ZM194.254 19.187C194.083 19.348 193.868 19.43 193.603 19.43V19.63C193.913 19.63 194.179 19.532 194.391 19.333L194.254 19.187ZM193.603 19.43H192.325V19.63H193.603V19.43ZM192.225 19.53V24.408H192.425V19.53H192.225ZM192.225 24.408C192.225 24.6762 192.295 24.8943 192.455 25.04L192.59 24.892C192.486 24.7977 192.425 24.6438 192.425 24.408H192.225ZM192.459 25.0434C192.614 25.1703 192.819 25.228 193.063 25.228V25.028C192.85 25.028 192.695 24.9777 192.586 24.8886L192.459 25.0434ZM193.063 25.228C193.173 25.228 193.315 25.201 193.486 25.1522L193.431 24.9598C193.266 25.007 193.145 25.028 193.063 25.028V25.228ZM193.497 25.1483C193.631 25.0925 193.756 25.066 193.873 25.066V24.866C193.725 24.866 193.574 24.8995 193.42 24.9637L193.497 25.1483ZM198.322 26.694L198.393 26.7647L198.395 26.7627L198.322 26.694ZM196.774 26.694L196.701 26.7627L196.703 26.7647L196.774 26.694ZM196.774 17.694L196.845 17.7647L196.847 17.7627L196.774 17.694ZM198.322 17.694L198.249 17.7627L198.251 17.7647L198.322 17.694ZM196.666 16.002L196.604 16.0806L196.666 16.002ZM196.684 14.256L196.743 14.3366L196.684 14.256ZM198.43 14.256L198.368 14.3346V14.3346L198.43 14.256ZM198.412 16.02L198.47 16.1014L198.471 16.1006L198.412 16.02ZM198.528 25.902C198.528 26.1899 198.435 26.4289 198.249 26.6253L198.395 26.7627C198.617 26.5271 198.728 26.2381 198.728 25.902H198.528ZM198.251 26.6233C198.067 26.8069 197.836 26.9 197.548 26.9V27.1C197.884 27.1 198.168 26.9891 198.393 26.7647L198.251 26.6233ZM197.548 26.9C197.26 26.9 197.028 26.8069 196.845 26.6233L196.703 26.7647C196.927 26.9891 197.212 27.1 197.548 27.1V26.9ZM196.847 26.6253C196.661 26.4289 196.568 26.1899 196.568 25.902H196.368C196.368 26.2381 196.479 26.5271 196.701 26.7627L196.847 26.6253ZM196.568 25.902V18.468H196.368V25.902H196.568ZM196.568 18.468C196.568 18.1801 196.661 17.9483 196.845 17.7647L196.703 17.6233C196.479 17.8477 196.368 18.1319 196.368 18.468H196.568ZM196.847 17.7627C197.031 17.5678 197.262 17.47 197.548 17.47V17.27C197.21 17.27 196.925 17.3882 196.701 17.6253L196.847 17.7627ZM197.548 17.47C197.834 17.47 198.065 17.5678 198.249 17.7627L198.395 17.6253C198.171 17.3882 197.886 17.27 197.548 17.27V17.47ZM198.251 17.7647C198.435 17.9483 198.528 18.1801 198.528 18.468H198.728C198.728 18.1319 198.617 17.8477 198.393 17.6233L198.251 17.7647ZM198.528 18.468V25.902H198.728V18.468H198.528ZM197.53 16.1C197.127 16.1 196.868 16.0336 196.728 15.9234L196.604 16.0806C196.8 16.2344 197.117 16.3 197.53 16.3V16.1ZM196.728 15.9234C196.595 15.8191 196.514 15.623 196.514 15.3H196.314C196.314 15.649 196.401 15.9209 196.604 16.0806L196.728 15.9234ZM196.514 15.3V14.958H196.314V15.3H196.514ZM196.514 14.958C196.514 14.6371 196.6 14.4417 196.743 14.3366L196.625 14.1754C196.408 14.3343 196.314 14.6069 196.314 14.958H196.514ZM196.743 14.3366C196.897 14.2237 197.159 14.158 197.548 14.158V13.958C197.145 13.958 196.831 14.0243 196.625 14.1754L196.743 14.3366ZM197.548 14.158C197.964 14.158 198.228 14.2246 198.368 14.3346L198.492 14.1774C198.296 14.0234 197.972 13.958 197.548 13.958V14.158ZM198.368 14.3346C198.501 14.4389 198.582 14.635 198.582 14.958H198.782C198.782 14.609 198.695 14.3371 198.492 14.1774L198.368 14.3346ZM198.582 14.958V15.3H198.782V14.958H198.582ZM198.582 15.3C198.582 15.6344 198.495 15.8349 198.353 15.9394L198.471 16.1006C198.688 15.9411 198.782 15.6616 198.782 15.3H198.582ZM198.354 15.9386C198.213 16.0392 197.947 16.1 197.53 16.1V16.3C197.953 16.3 198.275 16.2408 198.47 16.1014L198.354 15.9386ZM208.246 17.388L208.24 17.488H208.246V17.388ZM208.966 17.676L208.895 17.7467L208.897 17.749L208.966 17.676ZM209.11 18.9L209.201 18.9413L209.201 18.9406L209.11 18.9ZM205.744 26.316L205.653 26.2746L205.651 26.2779L205.744 26.316ZM205.366 26.802L205.308 26.7206L205.305 26.7227L205.366 26.802ZM204.826 27L204.82 26.9L204.815 26.9006L204.826 27ZM204.664 27.018V27.1186L204.675 27.1174L204.664 27.018ZM204.088 26.838L204.026 26.9169L204.032 26.9212L204.088 26.838ZM203.692 26.316L203.783 26.2754L203.783 26.2749L203.692 26.316ZM200.344 18.9L200.252 18.9401L200.253 18.9411L200.344 18.9ZM200.524 17.676L200.592 17.7489L200.594 17.7467L200.524 17.676ZM201.91 17.55L201.963 17.4652L201.91 17.55ZM202.342 18.054L202.433 18.014L202.433 18.0134L202.342 18.054ZM204.826 23.742L204.734 23.782L204.826 23.9923L204.917 23.7819L204.826 23.742ZM207.292 18.072L207.383 18.1119L207.384 18.1108L207.292 18.072ZM208.246 17.488C208.509 17.488 208.723 17.5747 208.895 17.7467L209.036 17.6053C208.824 17.3933 208.558 17.288 208.246 17.288V17.488ZM208.897 17.749C209.068 17.909 209.154 18.1101 209.154 18.36H209.354C209.354 18.0579 209.247 17.803 209.034 17.603L208.897 17.749ZM209.154 18.36C209.154 18.4838 209.112 18.649 209.018 18.8594L209.201 18.9406C209.3 18.719 209.354 18.5242 209.354 18.36H209.154ZM209.019 18.8587L205.653 26.2747L205.835 26.3573L209.201 18.9413L209.019 18.8587ZM205.651 26.2779C205.574 26.4658 205.459 26.6123 205.308 26.7206L205.424 26.8834C205.608 26.7517 205.746 26.5742 205.836 26.3541L205.651 26.2779ZM205.305 26.7227C205.165 26.83 205.005 26.8893 204.82 26.9002L204.832 27.0998C205.055 27.0867 205.254 27.014 205.427 26.8813L205.305 26.7227ZM204.815 26.9006L204.653 26.9186L204.675 27.1174L204.837 27.0994L204.815 26.9006ZM204.664 26.918C204.481 26.918 204.308 26.8645 204.143 26.7548L204.032 26.9212C204.228 27.0515 204.439 27.118 204.664 27.118V26.918ZM204.15 26.7594C203.996 26.6385 203.873 26.4781 203.783 26.2754L203.6 26.3566C203.702 26.5859 203.844 26.7735 204.026 26.9166L204.15 26.7594ZM203.783 26.2749L200.435 18.8589L200.253 18.9411L203.601 26.3571L203.783 26.2749ZM200.435 18.8599C200.356 18.6794 200.318 18.501 200.318 18.324H200.118C200.118 18.531 200.163 18.7366 200.252 18.9401L200.435 18.8599ZM200.318 18.324C200.318 18.1162 200.405 17.9254 200.592 17.7488L200.455 17.6032C200.235 17.8106 200.118 18.0518 200.118 18.324H200.318ZM200.594 17.7467C200.779 17.5623 201.005 17.47 201.28 17.47V17.27C200.954 17.27 200.677 17.3817 200.453 17.6053L200.594 17.7467ZM201.28 17.47C201.489 17.47 201.681 17.5248 201.857 17.6348L201.963 17.4652C201.755 17.3352 201.526 17.27 201.28 17.27V17.47ZM201.857 17.6348C202.031 17.7437 202.162 17.896 202.25 18.0946L202.433 18.0134C202.329 17.78 202.172 17.5963 201.963 17.4652L201.857 17.6348ZM202.25 18.094L204.734 23.782L204.917 23.702L202.433 18.014L202.25 18.094ZM204.917 23.7819L207.383 18.1119L207.2 18.0321L204.734 23.7021L204.917 23.7819ZM207.384 18.1108C207.474 17.8965 207.596 17.7386 207.746 17.6314L207.63 17.4686C207.444 17.6014 207.301 17.7915 207.2 18.0332L207.384 18.1108ZM207.746 17.6314C207.895 17.5245 208.059 17.4772 208.24 17.4878L208.252 17.2882C208.025 17.2748 207.816 17.3355 207.63 17.4686L207.746 17.6314ZM219.507 21.96L219.607 21.9642V21.96H219.507ZM212.469 22.932V22.832H212.347L212.371 22.9519L212.469 22.932ZM213.459 24.606L213.397 24.6845L213.398 24.6853L213.459 24.606ZM216.357 25.074L216.386 25.1697L216.39 25.1684L216.357 25.074ZM217.005 24.786L217.058 24.8712L217.059 24.8701L217.005 24.786ZM217.347 24.57L217.302 24.4803L217.296 24.4843L217.347 24.57ZM218.373 26.19L218.311 26.1113L218.31 26.1127L218.373 26.19ZM217.023 26.892L216.991 26.7973L217.023 26.892ZM212.667 26.55L212.618 26.6371L212.619 26.6374L212.667 26.55ZM210.939 24.822L210.852 24.8701L210.852 24.8707L210.939 24.822ZM210.975 19.602L210.888 19.5535L210.975 19.602ZM212.685 17.82L212.735 17.9066L212.736 17.906L212.685 17.82ZM217.185 17.838L217.133 17.923L217.133 17.9234L217.185 17.838ZM218.877 19.584L218.964 19.5342L218.877 19.584ZM212.487 21.132L212.389 21.1131L212.366 21.232H212.487V21.132ZM217.203 21.132V21.232H217.303V21.132H217.203ZM217.203 21.006H217.304L217.303 20.9965L217.203 21.006ZM219.407 21.9558C219.396 22.2164 219.295 22.4238 219.101 22.5852L219.229 22.7388C219.468 22.5402 219.594 22.2796 219.607 21.9642L219.407 21.9558ZM219.101 22.5852C218.904 22.7498 218.674 22.832 218.409 22.832V23.032C218.72 23.032 218.995 22.9342 219.229 22.7388L219.101 22.5852ZM218.409 22.832H212.469V23.032H218.409V22.832ZM212.371 22.9519C212.519 23.6806 212.861 24.2603 213.397 24.6844L213.521 24.5276C213.026 24.1357 212.707 23.5994 212.567 22.9121L212.371 22.9519ZM213.398 24.6853C213.932 25.0947 214.535 25.3 215.205 25.3V25.1C214.579 25.1 214.019 24.9093 213.52 24.5267L213.398 24.6853ZM215.205 25.3C215.701 25.3 216.097 25.2579 216.386 25.1697L216.328 24.9783C216.066 25.0581 215.693 25.1 215.205 25.1V25.3ZM216.39 25.1684C216.669 25.0713 216.893 24.9725 217.058 24.8712L216.953 24.7008C216.806 24.7915 216.597 24.8847 216.324 24.9796L216.39 25.1684ZM217.059 24.8701C217.228 24.762 217.34 24.6908 217.399 24.6557L217.296 24.4843C217.234 24.5212 217.119 24.594 216.951 24.7019L217.059 24.8701ZM217.392 24.6594C217.598 24.5566 217.786 24.508 217.959 24.508V24.308C217.748 24.308 217.529 24.3674 217.303 24.4806L217.392 24.6594ZM217.959 24.508C218.184 24.508 218.375 24.5872 218.537 24.7487L218.678 24.6073C218.479 24.4087 218.238 24.308 217.959 24.308V24.508ZM218.537 24.7487C218.699 24.9112 218.777 25.0963 218.777 25.308H218.977C218.977 25.0397 218.875 24.8048 218.678 24.6073L218.537 24.7487ZM218.777 25.308C218.777 25.5921 218.632 25.8598 218.311 26.1114L218.435 26.2686C218.787 25.9922 218.977 25.6719 218.977 25.308H218.777ZM218.31 26.1127C217.986 26.3788 217.548 26.6079 216.991 26.7973L217.055 26.9867C217.627 26.7921 218.089 26.5532 218.437 26.2673L218.31 26.1127ZM216.991 26.7973C216.437 26.9859 215.878 27.08 215.313 27.08V27.28C215.901 27.28 216.481 27.1821 217.055 26.9867L216.991 26.7973ZM215.313 27.08C214.319 27.08 213.455 26.8731 212.716 26.4626L212.619 26.6374C213.392 27.0669 214.291 27.28 215.313 27.28V27.08ZM212.716 26.4629C211.988 26.0518 211.425 25.4889 211.027 24.7733L210.852 24.8707C211.269 25.6191 211.858 26.2082 212.618 26.6371L212.716 26.4629ZM211.027 24.7739C210.628 24.0459 210.427 23.2287 210.427 22.32H210.227C210.227 23.2593 210.435 24.1101 210.852 24.8701L211.027 24.7739ZM210.427 22.32C210.427 21.3023 210.64 20.4134 211.063 19.6504L210.888 19.5535C210.446 20.3506 210.227 21.2737 210.227 22.32H210.427ZM211.063 19.6504C211.487 18.8849 212.044 18.3047 212.735 17.9066L212.635 17.7334C211.91 18.1513 211.328 18.7591 210.888 19.5535L211.063 19.6504ZM212.736 17.906C213.429 17.4949 214.168 17.29 214.953 17.29V17.09C214.131 17.09 213.357 17.3051 212.634 17.734L212.736 17.906ZM214.953 17.29C215.726 17.29 216.452 17.5004 217.133 17.923L217.238 17.753C216.527 17.3116 215.765 17.09 214.953 17.09V17.29ZM217.133 17.9234C217.827 18.3464 218.379 18.9161 218.791 19.6338L218.964 19.5342C218.536 18.7879 217.96 18.1936 217.237 17.7526L217.133 17.9234ZM218.791 19.6338C219.202 20.3505 219.407 21.1253 219.407 21.96H219.607C219.607 21.0907 219.393 20.2815 218.964 19.5342L218.791 19.6338ZM214.953 19.07C214.242 19.07 213.664 19.2372 213.23 19.5822C212.796 19.9277 212.518 20.4421 212.389 21.1131L212.585 21.1509C212.708 20.5139 212.967 20.0473 213.355 19.7388C213.743 19.4298 214.273 19.27 214.953 19.27V19.07ZM212.487 21.232H217.203V21.032H212.487V21.232ZM217.303 21.132V21.006H217.103V21.132H217.303ZM217.303 20.9965C217.252 20.4623 216.99 20.0068 216.528 19.6323L216.402 19.7877C216.828 20.1332 217.059 20.5417 217.104 21.0155L217.303 20.9965ZM216.528 19.6323C216.067 19.2581 215.541 19.07 214.953 19.07V19.27C215.494 19.27 215.976 19.4419 216.402 19.7877L216.528 19.6323Z" fill="green"/>
</svg>
