<svg width="197" height="33" viewBox="0 0 197 33" fill="none" xmlns="http://www.w3.org/2000/svg">
<path d="M189.5 31.5C125.9 33.1 42.3333 32.1667 8.49995 31.5C4.4999 31.4243 1.99995 30.5 0.999949 25C0.199949 20.6 0.666616 11.1667 0.999949 7C1.39995 2.2 6.16662 1 8.49995 1C57.7 -0.599995 149.667 0.333338 189.5 1C193.9 1 195.333 4.33334 195.5 6C197.9 16.4 196.5 25 195.5 28C193.9 30.4 190.833 31.3333 189.5 31.5Z" fill="#FF0000"/>
<path d="M31.296 11.744C31.296 11.9573 31.2373 12.1547 31.12 12.336L27.776 17.12V21.024C27.776 21.3013 27.6853 21.536 27.504 21.728C27.3227 21.9093 27.104 22 26.848 22C26.5813 22 26.352 21.9093 26.16 21.728C25.9787 21.536 25.888 21.3013 25.888 21.024V16.896L22.56 12.48C22.368 12.224 22.272 11.9733 22.272 11.728C22.272 11.4507 22.3787 11.2213 22.592 11.04C22.816 10.848 23.0507 10.752 23.296 10.752C23.5947 10.752 23.856 10.9013 24.08 11.2L26.896 15.088L29.536 11.232C29.76 10.912 30.0267 10.752 30.336 10.752C30.592 10.752 30.816 10.848 31.008 11.04C31.2 11.232 31.296 11.4667 31.296 11.744ZM40.139 17.728C40.139 18.5813 39.947 19.3493 39.563 20.032C39.179 20.704 38.651 21.2267 37.979 21.6C37.3177 21.9733 36.587 22.16 35.787 22.16C34.9763 22.16 34.2403 21.9733 33.579 21.6C32.9177 21.2267 32.395 20.704 32.011 20.032C31.627 19.3493 31.435 18.5813 31.435 17.728C31.435 16.8747 31.627 16.112 32.011 15.44C32.395 14.7573 32.9177 14.2293 33.579 13.856C34.2403 13.472 34.9763 13.28 35.787 13.28C36.587 13.28 37.3177 13.472 37.979 13.856C38.651 14.2293 39.179 14.7573 39.563 15.44C39.947 16.112 40.139 16.8747 40.139 17.728ZM38.219 17.728C38.219 17.2053 38.107 16.7413 37.883 16.336C37.6697 15.92 37.3763 15.6 37.003 15.376C36.6403 15.152 36.235 15.04 35.787 15.04C35.339 15.04 34.9283 15.152 34.555 15.376C34.1923 15.6 33.899 15.92 33.675 16.336C33.4617 16.7413 33.355 17.2053 33.355 17.728C33.355 18.2507 33.4617 18.7147 33.675 19.12C33.899 19.5253 34.1923 19.84 34.555 20.064C34.9283 20.288 35.339 20.4 35.787 20.4C36.235 20.4 36.6403 20.288 37.003 20.064C37.3763 19.84 37.6697 19.5253 37.883 19.12C38.107 18.7147 38.219 18.2507 38.219 17.728ZM48.0951 13.44C48.3725 13.44 48.6018 13.536 48.7831 13.728C48.9645 13.9093 49.0551 14.1387 49.0551 14.416V18.48C49.0551 19.632 48.7351 20.5333 48.0951 21.184C47.4658 21.8347 46.5645 22.16 45.3911 22.16C44.2178 22.16 43.3165 21.8347 42.6871 21.184C42.0578 20.5333 41.7431 19.632 41.7431 18.48V14.416C41.7431 14.1387 41.8338 13.9093 42.0151 13.728C42.1965 13.536 42.4258 13.44 42.7031 13.44C42.9805 13.44 43.2098 13.536 43.3911 13.728C43.5725 13.9093 43.6631 14.1387 43.6631 14.416V18.48C43.6631 19.1307 43.8071 19.616 44.0951 19.936C44.3831 20.2453 44.8151 20.4 45.3911 20.4C45.9778 20.4 46.4151 20.2453 46.7031 19.936C46.9911 19.616 47.1351 19.1307 47.1351 18.48V14.416C47.1351 14.1387 47.2258 13.9093 47.4071 13.728C47.5885 13.536 47.8178 13.44 48.0951 13.44ZM58.1694 10.8C58.4574 10.8 58.692 10.8853 58.8734 11.056C59.0547 11.2267 59.1454 11.4507 59.1454 11.728C59.1454 12.0053 59.0547 12.2293 58.8734 12.4C58.692 12.56 58.4574 12.64 58.1694 12.64H55.6574V21.024C55.6574 21.3013 55.556 21.536 55.3534 21.728C55.1507 21.9093 54.9 22 54.6014 22C54.3027 22 54.0574 21.9093 53.8654 21.728C53.6734 21.536 53.5774 21.3013 53.5774 21.024V12.64H51.0654C50.7774 12.64 50.5427 12.5547 50.3614 12.384C50.18 12.2133 50.0894 11.9893 50.0894 11.712C50.0894 11.4453 50.18 11.2267 50.3614 11.056C50.5534 10.8853 50.788 10.8 51.0654 10.8H58.1694ZM65.0951 13.44C65.3725 13.44 65.6018 13.536 65.7831 13.728C65.9645 13.9093 66.0551 14.1387 66.0551 14.416V18.48C66.0551 19.632 65.7351 20.5333 65.0951 21.184C64.4658 21.8347 63.5645 22.16 62.3911 22.16C61.2178 22.16 60.3165 21.8347 59.6871 21.184C59.0578 20.5333 58.7431 19.632 58.7431 18.48V14.416C58.7431 14.1387 58.8338 13.9093 59.0151 13.728C59.1965 13.536 59.4258 13.44 59.7031 13.44C59.9805 13.44 60.2098 13.536 60.3911 13.728C60.5725 13.9093 60.6631 14.1387 60.6631 14.416V18.48C60.6631 19.1307 60.8071 19.616 61.0951 19.936C61.3831 20.2453 61.8151 20.4 62.3911 20.4C62.9778 20.4 63.4151 20.2453 63.7031 19.936C63.9911 19.616 64.1351 19.1307 64.1351 18.48V14.416C64.1351 14.1387 64.2258 13.9093 64.4071 13.728C64.5885 13.536 64.8178 13.44 65.0951 13.44ZM72.5658 13.28C73.3018 13.28 73.9684 13.472 74.5658 13.856C75.1631 14.2293 75.6324 14.752 75.9738 15.424C76.3258 16.096 76.5017 16.8587 76.5017 17.712C76.5017 18.5653 76.3311 19.3333 75.9898 20.016C75.6484 20.688 75.1791 21.216 74.5818 21.6C73.9951 21.9733 73.3444 22.16 72.6298 22.16C72.1178 22.16 71.6324 22.0587 71.1738 21.856C70.7258 21.6427 70.3524 21.3867 70.0538 21.088V21.184C70.0538 21.4613 69.9631 21.696 69.7818 21.888C69.6004 22.0693 69.3711 22.16 69.0938 22.16C68.8164 22.16 68.5871 22.0693 68.4058 21.888C68.2244 21.7067 68.1338 21.472 68.1338 21.184V11.136C68.1338 10.8587 68.2244 10.6293 68.4058 10.448C68.5871 10.256 68.8164 10.16 69.0938 10.16C69.3711 10.16 69.6004 10.256 69.7818 10.448C69.9631 10.6293 70.0538 10.8587 70.0538 11.136V14.48C70.3098 14.16 70.6671 13.8827 71.1258 13.648C71.5844 13.4027 72.0644 13.28 72.5658 13.28ZM72.3258 20.4C73.0084 20.4 73.5684 20.144 74.0058 19.632C74.4431 19.12 74.6618 18.48 74.6618 17.712C74.6618 16.944 74.4431 16.3093 74.0058 15.808C73.5791 15.296 73.0191 15.04 72.3258 15.04C71.6324 15.04 71.0671 15.296 70.6298 15.808C70.1924 16.3093 69.9738 16.944 69.9738 17.712C69.9738 18.48 70.1924 19.12 70.6298 19.632C71.0671 20.144 71.6324 20.4 72.3258 20.4ZM85.7825 17.52C85.7718 17.776 85.6705 17.984 85.4785 18.144C85.2865 18.304 85.0625 18.384 84.8065 18.384H79.5265C79.6545 19.0133 79.9478 19.5093 80.4065 19.872C80.8652 20.224 81.3825 20.4 81.9585 20.4C82.3958 20.4 82.7372 20.3627 82.9825 20.288C83.2278 20.2027 83.4198 20.1173 83.5585 20.032C83.7078 19.936 83.8092 19.872 83.8625 19.84C84.0545 19.744 84.2358 19.696 84.4065 19.696C84.6305 19.696 84.8225 19.776 84.9825 19.936C85.1425 20.096 85.2225 20.2827 85.2225 20.496C85.2225 20.784 85.0732 21.0453 84.7745 21.28C84.4758 21.5253 84.0758 21.7333 83.5745 21.904C83.0732 22.0747 82.5665 22.16 82.0545 22.16C81.1585 22.16 80.3745 21.9733 79.7025 21.6C79.0412 21.2267 78.5292 20.7147 78.1665 20.064C77.8038 19.4027 77.6225 18.6613 77.6225 17.84C77.6225 16.9227 77.8145 16.1173 78.1985 15.424C78.5825 14.7307 79.0892 14.2027 79.7185 13.84C80.3478 13.4667 81.0198 13.28 81.7345 13.28C82.4385 13.28 83.0998 13.472 83.7185 13.856C84.3478 14.24 84.8492 14.7573 85.2225 15.408C85.5958 16.0587 85.7825 16.7627 85.7825 17.52ZM81.7345 15.04C80.4972 15.04 79.7665 15.6213 79.5425 16.784H83.7345V16.672C83.6918 16.224 83.4732 15.84 83.0785 15.52C82.6838 15.2 82.2358 15.04 81.7345 15.04ZM96.6521 10.8C97.1961 10.8 97.7135 10.9653 98.2041 11.296C98.6948 11.616 99.0895 12.0533 99.3881 12.608C99.6868 13.152 99.8361 13.7493 99.8361 14.4C99.8361 15.04 99.6868 15.6373 99.3881 16.192C99.0895 16.7467 98.6948 17.1893 98.2041 17.52C97.7135 17.84 97.1961 18 96.6521 18H93.8681V21.024C93.8681 21.312 93.7828 21.5467 93.6121 21.728C93.4415 21.9093 93.2175 22 92.9401 22C92.6735 22 92.4548 21.9093 92.2841 21.728C92.1135 21.536 92.0281 21.3013 92.0281 21.024V11.776C92.0281 11.4987 92.1188 11.2693 92.3001 11.088C92.4921 10.896 92.7268 10.8 93.0041 10.8H96.6521ZM96.6521 16.176C96.8548 16.176 97.0521 16.0907 97.2441 15.92C97.4468 15.7493 97.6068 15.5307 97.7241 15.264C97.8521 14.9867 97.9161 14.6987 97.9161 14.4C97.9161 14.1013 97.8521 13.8187 97.7241 13.552C97.6068 13.2747 97.4468 13.056 97.2441 12.896C97.0521 12.7253 96.8548 12.64 96.6521 12.64H93.8681V16.176H96.6521ZM105.957 13.28C106.277 13.28 106.543 13.3707 106.757 13.552C106.981 13.7333 107.093 13.9467 107.093 14.192C107.093 14.5227 107.007 14.7733 106.837 14.944C106.666 15.104 106.463 15.184 106.229 15.184C106.069 15.184 105.887 15.1467 105.685 15.072C105.653 15.0613 105.578 15.04 105.461 15.008C105.354 14.976 105.237 14.96 105.109 14.96C104.831 14.96 104.565 15.0453 104.309 15.216C104.053 15.3867 103.839 15.648 103.669 16C103.509 16.3413 103.429 16.752 103.429 17.232V21.024C103.429 21.3013 103.338 21.536 103.157 21.728C102.975 21.9093 102.746 22 102.469 22C102.191 22 101.962 21.9093 101.781 21.728C101.599 21.536 101.509 21.3013 101.509 21.024V14.416C101.509 14.1387 101.599 13.9093 101.781 13.728C101.962 13.536 102.191 13.44 102.469 13.44C102.746 13.44 102.975 13.536 103.157 13.728C103.338 13.9093 103.429 14.1387 103.429 14.416V14.624C103.674 14.1867 104.026 13.856 104.485 13.632C104.943 13.3973 105.434 13.28 105.957 13.28ZM116.311 17.728C116.311 18.5813 116.119 19.3493 115.735 20.032C115.351 20.704 114.823 21.2267 114.151 21.6C113.49 21.9733 112.759 22.16 111.959 22.16C111.148 22.16 110.412 21.9733 109.751 21.6C109.09 21.2267 108.567 20.704 108.183 20.032C107.799 19.3493 107.607 18.5813 107.607 17.728C107.607 16.8747 107.799 16.112 108.183 15.44C108.567 14.7573 109.09 14.2293 109.751 13.856C110.412 13.472 111.148 13.28 111.959 13.28C112.759 13.28 113.49 13.472 114.151 13.856C114.823 14.2293 115.351 14.7573 115.735 15.44C116.119 16.112 116.311 16.8747 116.311 17.728ZM114.391 17.728C114.391 17.2053 114.279 16.7413 114.055 16.336C113.842 15.92 113.548 15.6 113.175 15.376C112.812 15.152 112.407 15.04 111.959 15.04C111.511 15.04 111.1 15.152 110.727 15.376C110.364 15.6 110.071 15.92 109.847 16.336C109.634 16.7413 109.527 17.2053 109.527 17.728C109.527 18.2507 109.634 18.7147 109.847 19.12C110.071 19.5253 110.364 19.84 110.727 20.064C111.1 20.288 111.511 20.4 111.959 20.4C112.407 20.4 112.812 20.288 113.175 20.064C113.548 19.84 113.842 19.5253 114.055 19.12C114.279 18.7147 114.391 18.2507 114.391 17.728ZM124.843 10.16C125.12 10.16 125.35 10.2507 125.531 10.432C125.712 10.6133 125.803 10.848 125.803 11.136V21.024C125.803 21.3013 125.712 21.536 125.531 21.728C125.35 21.9093 125.12 22 124.843 22C124.566 22 124.336 21.9093 124.155 21.728C123.984 21.5467 123.894 21.3173 123.883 21.04C123.616 21.3493 123.254 21.616 122.795 21.84C122.347 22.0533 121.872 22.16 121.371 22.16C120.635 22.16 119.968 21.9733 119.371 21.6C118.774 21.216 118.299 20.688 117.947 20.016C117.606 19.344 117.435 18.5813 117.435 17.728C117.435 16.8747 117.606 16.112 117.947 15.44C118.288 14.7573 118.752 14.2293 119.339 13.856C119.936 13.472 120.592 13.28 121.307 13.28C121.819 13.28 122.299 13.376 122.747 13.568C123.195 13.7493 123.574 13.984 123.883 14.272V11.136C123.883 10.8587 123.974 10.6293 124.155 10.448C124.336 10.256 124.566 10.16 124.843 10.16ZM121.611 20.4C122.304 20.4 122.87 20.1493 123.307 19.648C123.744 19.136 123.963 18.496 123.963 17.728C123.963 16.96 123.744 16.32 123.307 15.808C122.87 15.296 122.304 15.04 121.611 15.04C120.928 15.04 120.368 15.296 119.931 15.808C119.494 16.32 119.275 16.96 119.275 17.728C119.275 18.496 119.488 19.136 119.915 19.648C120.352 20.1493 120.918 20.4 121.611 20.4ZM134.486 13.44C134.763 13.44 134.992 13.536 135.174 13.728C135.355 13.9093 135.446 14.1387 135.446 14.416V18.48C135.446 19.632 135.126 20.5333 134.486 21.184C133.856 21.8347 132.955 22.16 131.782 22.16C130.608 22.16 129.707 21.8347 129.078 21.184C128.448 20.5333 128.134 19.632 128.134 18.48V14.416C128.134 14.1387 128.224 13.9093 128.406 13.728C128.587 13.536 128.816 13.44 129.094 13.44C129.371 13.44 129.6 13.536 129.782 13.728C129.963 13.9093 130.054 14.1387 130.054 14.416V18.48C130.054 19.1307 130.198 19.616 130.486 19.936C130.774 20.2453 131.206 20.4 131.782 20.4C132.368 20.4 132.806 20.2453 133.094 19.936C133.382 19.616 133.526 19.1307 133.526 18.48V14.416C133.526 14.1387 133.616 13.9093 133.798 13.728C133.979 13.536 134.208 13.44 134.486 13.44ZM141.252 13.28C142.159 13.28 142.89 13.424 143.444 13.712C143.999 13.9893 144.276 14.3627 144.276 14.832C144.276 15.0667 144.207 15.2747 144.068 15.456C143.93 15.6267 143.748 15.712 143.524 15.712C143.354 15.712 143.215 15.6907 143.108 15.648C143.002 15.5947 142.895 15.5307 142.788 15.456C142.692 15.3707 142.596 15.3013 142.5 15.248C142.394 15.1947 142.234 15.1467 142.02 15.104C141.818 15.0613 141.652 15.04 141.524 15.04C140.724 15.04 140.095 15.2907 139.636 15.792C139.188 16.2827 138.964 16.928 138.964 17.728C138.964 18.496 139.194 19.136 139.652 19.648C140.111 20.1493 140.698 20.4 141.412 20.4C141.935 20.4 142.324 20.336 142.58 20.208C142.644 20.176 142.73 20.1227 142.836 20.048C142.954 19.9627 143.06 19.8987 143.156 19.856C143.252 19.8133 143.37 19.792 143.508 19.792C143.775 19.792 143.983 19.8773 144.132 20.048C144.292 20.2187 144.372 20.4373 144.372 20.704C144.372 20.96 144.223 21.2 143.924 21.424C143.626 21.648 143.231 21.8293 142.74 21.968C142.25 22.096 141.727 22.16 141.172 22.16C140.351 22.16 139.626 21.968 138.996 21.584C138.378 21.2 137.898 20.672 137.556 20C137.215 19.3173 137.044 18.56 137.044 17.728C137.044 16.864 137.22 16.096 137.572 15.424C137.935 14.752 138.436 14.2293 139.076 13.856C139.716 13.472 140.442 13.28 141.252 13.28ZM149.887 20.192C150.036 20.192 150.169 20.2667 150.287 20.416C150.415 20.5547 150.479 20.7413 150.479 20.976C150.479 21.264 150.319 21.5093 149.999 21.712C149.689 21.904 149.337 22 148.943 22C148.281 22 147.721 21.8613 147.263 21.584C146.815 21.296 146.591 20.6933 146.591 19.776V15.36H145.855C145.599 15.36 145.385 15.2747 145.215 15.104C145.044 14.9333 144.959 14.72 144.959 14.464C144.959 14.2187 145.044 14.016 145.215 13.856C145.385 13.6853 145.599 13.6 145.855 13.6H146.591V12.576C146.591 12.2987 146.681 12.0693 146.863 11.888C147.055 11.696 147.289 11.6 147.567 11.6C147.833 11.6 148.057 11.696 148.239 11.888C148.42 12.0693 148.511 12.2987 148.511 12.576V13.6H149.647C149.903 13.6 150.116 13.6853 150.287 13.856C150.457 14.0267 150.543 14.24 150.543 14.496C150.543 14.7413 150.457 14.9493 150.287 15.12C150.116 15.28 149.903 15.36 149.647 15.36H148.511V19.696C148.511 19.92 148.569 20.0853 148.687 20.192C148.804 20.288 148.964 20.336 149.167 20.336C149.252 20.336 149.369 20.3147 149.519 20.272C149.647 20.2187 149.769 20.192 149.887 20.192ZM154.114 21.024C154.114 21.3013 154.023 21.536 153.842 21.728C153.66 21.9093 153.431 22 153.154 22C152.876 22 152.647 21.9093 152.466 21.728C152.284 21.536 152.194 21.3013 152.194 21.024V14.416C152.194 14.1387 152.284 13.9093 152.466 13.728C152.647 13.536 152.876 13.44 153.154 13.44C153.431 13.44 153.66 13.536 153.842 13.728C154.023 13.9093 154.114 14.1387 154.114 14.416V21.024ZM153.138 12.4C152.775 12.4 152.519 12.3413 152.37 12.224C152.22 12.1067 152.146 11.8987 152.146 11.6V11.296C152.146 10.9973 152.226 10.7893 152.386 10.672C152.546 10.5547 152.802 10.496 153.154 10.496C153.527 10.496 153.788 10.5547 153.938 10.672C154.087 10.7893 154.162 10.9973 154.162 11.296V11.6C154.162 11.9093 154.082 12.1227 153.922 12.24C153.772 12.3467 153.511 12.4 153.138 12.4ZM162.663 13.456C162.919 13.456 163.132 13.5413 163.303 13.712C163.474 13.872 163.559 14.0747 163.559 14.32C163.559 14.448 163.516 14.608 163.431 14.8L160.439 21.392C160.364 21.5733 160.252 21.7173 160.103 21.824C159.964 21.9307 159.804 21.9893 159.623 22L159.479 22.016C159.298 22.016 159.127 21.9627 158.967 21.856C158.818 21.7387 158.7 21.584 158.615 21.392L155.639 14.8C155.564 14.6293 155.527 14.4587 155.527 14.288C155.527 14.0747 155.618 13.8827 155.799 13.712C155.98 13.5307 156.204 13.44 156.471 13.44C156.674 13.44 156.86 13.4933 157.031 13.6C157.202 13.7067 157.33 13.856 157.415 14.048L159.623 19.104L161.815 14.064C161.9 13.8613 162.018 13.7067 162.167 13.6C162.316 13.4933 162.482 13.4453 162.663 13.456ZM172.673 17.52C172.662 17.776 172.561 17.984 172.369 18.144C172.177 18.304 171.953 18.384 171.697 18.384H166.417C166.545 19.0133 166.838 19.5093 167.297 19.872C167.756 20.224 168.273 20.4 168.849 20.4C169.286 20.4 169.628 20.3627 169.873 20.288C170.118 20.2027 170.31 20.1173 170.449 20.032C170.598 19.936 170.7 19.872 170.753 19.84C170.945 19.744 171.126 19.696 171.297 19.696C171.521 19.696 171.713 19.776 171.873 19.936C172.033 20.096 172.113 20.2827 172.113 20.496C172.113 20.784 171.964 21.0453 171.665 21.28C171.366 21.5253 170.966 21.7333 170.465 21.904C169.964 22.0747 169.457 22.16 168.945 22.16C168.049 22.16 167.265 21.9733 166.593 21.6C165.932 21.2267 165.42 20.7147 165.057 20.064C164.694 19.4027 164.513 18.6613 164.513 17.84C164.513 16.9227 164.705 16.1173 165.089 15.424C165.473 14.7307 165.98 14.2027 166.609 13.84C167.238 13.4667 167.91 13.28 168.625 13.28C169.329 13.28 169.99 13.472 170.609 13.856C171.238 14.24 171.74 14.7573 172.113 15.408C172.486 16.0587 172.673 16.7627 172.673 17.52ZM168.625 15.04C167.388 15.04 166.657 15.6213 166.433 16.784H170.625V16.672C170.582 16.224 170.364 15.84 169.969 15.52C169.574 15.2 169.126 15.04 168.625 15.04Z" fill="white"/>
<path d="M31.12 12.336L31.202 12.3933L31.204 12.3903L31.12 12.336ZM27.776 17.12L27.694 17.0627L27.676 17.0885V17.12H27.776ZM27.504 21.728L27.5747 21.7987L27.5767 21.7967L27.504 21.728ZM26.16 21.728L26.0872 21.7968L26.0913 21.8007L26.16 21.728ZM25.888 16.896H25.988V16.8625L25.9679 16.8358L25.888 16.896ZM22.56 12.48L22.48 12.54L22.4801 12.5402L22.56 12.48ZM22.592 11.04L22.6568 11.1162L22.6571 11.1159L22.592 11.04ZM24.08 11.2L24.161 11.1413L24.16 11.14L24.08 11.2ZM26.896 15.088L26.815 15.1467L26.8983 15.2617L26.9785 15.1445L26.896 15.088ZM29.536 11.232L29.4541 11.1747L29.4535 11.1755L29.536 11.232ZM31.008 11.04L31.0787 10.9693H31.0787L31.008 11.04ZM31.196 11.744C31.196 11.9378 31.143 12.1163 31.036 12.2817L31.204 12.3903C31.3316 12.193 31.396 11.9769 31.396 11.744H31.196ZM31.038 12.2787L27.694 17.0627L27.858 17.1773L31.202 12.3933L31.038 12.2787ZM27.676 17.12V21.024H27.876V17.12H27.676ZM27.676 21.024C27.676 21.2772 27.5942 21.4869 27.4313 21.6593L27.5767 21.7967C27.7765 21.5851 27.876 21.3255 27.876 21.024H27.676ZM27.4333 21.6573C27.2707 21.8199 27.0774 21.9 26.848 21.9V22.1C27.1306 22.1 27.3747 21.9988 27.5747 21.7987L27.4333 21.6573ZM26.848 21.9C26.6066 21.9 26.4019 21.8189 26.2287 21.6553L26.0913 21.8007C26.3021 21.9998 26.5561 22.1 26.848 22.1V21.9ZM26.2327 21.6593C26.0698 21.4869 25.988 21.2772 25.988 21.024H25.788C25.788 21.3255 25.8875 21.5851 26.0873 21.7967L26.2327 21.6593ZM25.988 21.024V16.896H25.788V21.024H25.988ZM25.9679 16.8358L22.6399 12.4198L22.4801 12.5402L25.8081 16.9562L25.9679 16.8358ZM22.64 12.42C22.457 12.176 22.372 11.9459 22.372 11.728H22.172C22.172 12.0007 22.279 12.272 22.48 12.54L22.64 12.42ZM22.372 11.728C22.372 11.4803 22.4655 11.2787 22.6568 11.1162L22.5272 10.9638C22.2918 11.1639 22.172 11.421 22.172 11.728H22.372ZM22.6571 11.1159C22.8668 10.9362 23.0791 10.852 23.296 10.852V10.652C23.0222 10.652 22.7652 10.7598 22.5269 10.9641L22.6571 11.1159ZM23.296 10.852C23.5554 10.852 23.7896 10.9795 24 11.26L24.16 11.14C23.9224 10.8231 23.634 10.652 23.296 10.652V10.852ZM23.999 11.2587L26.815 15.1467L26.977 15.0293L24.161 11.1413L23.999 11.2587ZM26.9785 15.1445L29.6185 11.2885L29.4535 11.1755L26.8135 15.0315L26.9785 15.1445ZM29.6179 11.2893C29.8287 10.9882 30.0678 10.852 30.336 10.852V10.652C29.9855 10.652 29.6913 10.8358 29.4541 11.1747L29.6179 11.2893ZM30.336 10.852C30.5637 10.852 30.7628 10.9362 30.9373 11.1107L31.0787 10.9693C30.8692 10.7598 30.6203 10.652 30.336 10.652V10.852ZM30.9373 11.1107C31.1101 11.2835 31.196 11.4926 31.196 11.744H31.396C31.396 11.4408 31.2899 11.1805 31.0787 10.9693L30.9373 11.1107ZM39.563 20.032L39.6498 20.0816L39.6502 20.081L39.563 20.032ZM37.979 21.6L37.9304 21.5126L37.9298 21.5129L37.979 21.6ZM33.579 21.6L33.6282 21.5129L33.579 21.6ZM32.011 20.032L31.9238 20.081L31.9242 20.0816L32.011 20.032ZM32.011 15.44L32.0978 15.4896L32.0982 15.489L32.011 15.44ZM33.579 13.856L33.6282 13.9431L33.6292 13.9425L33.579 13.856ZM37.979 13.856L37.9288 13.9425L37.9304 13.9434L37.979 13.856ZM39.563 15.44L39.4758 15.489L39.4762 15.4896L39.563 15.44ZM37.883 16.336L37.794 16.3817L37.7955 16.3844L37.883 16.336ZM37.003 15.376L36.9504 15.4611L36.9516 15.4617L37.003 15.376ZM34.555 15.376L34.5035 15.2902L34.5025 15.2909L34.555 15.376ZM33.675 16.336L33.5869 16.2886L33.5865 16.2894L33.675 16.336ZM33.675 19.12L33.5865 19.1666L33.5875 19.1684L33.675 19.12ZM34.555 20.064L34.5024 20.1491L34.5036 20.1497L34.555 20.064ZM37.003 20.064L36.9515 19.9782L36.9505 19.9789L37.003 20.064ZM37.883 19.12L37.7955 19.0716L37.7945 19.0734L37.883 19.12ZM40.039 17.728C40.039 18.5657 39.8507 19.3166 39.4758 19.983L39.6502 20.081C40.0433 19.3821 40.239 18.5969 40.239 17.728H40.039ZM39.4762 19.9824C39.1012 20.6386 38.5864 21.1482 37.9304 21.5126L38.0276 21.6874C38.7156 21.3051 39.2568 20.7694 39.6498 20.0816L39.4762 19.9824ZM37.9298 21.5129C37.2843 21.8773 36.5707 22.06 35.787 22.06V22.26C36.6033 22.26 37.351 22.0693 38.0282 21.6871L37.9298 21.5129ZM35.787 22.06C34.9924 22.06 34.2735 21.8772 33.6282 21.5129L33.5298 21.6871C34.2072 22.0695 34.9603 22.26 35.787 22.26V22.06ZM33.6282 21.5129C32.9828 21.1486 32.4731 20.639 32.0978 19.9824L31.9242 20.0816C32.3169 20.769 32.8525 21.3047 33.5298 21.6871L33.6282 21.5129ZM32.0982 19.983C31.7233 19.3166 31.535 18.5657 31.535 17.728H31.335C31.335 18.5969 31.5307 19.3821 31.9238 20.081L32.0982 19.983ZM31.535 17.728C31.535 16.8902 31.7233 16.145 32.0978 15.4896L31.9242 15.3904C31.5307 16.079 31.335 16.8591 31.335 17.728H31.535ZM32.0982 15.489C32.4735 14.8218 32.9832 14.3071 33.6282 13.9431L33.5298 13.7689C32.8521 14.1515 32.3165 14.6929 31.9238 15.391L32.0982 15.489ZM33.6292 13.9425C34.2744 13.5679 34.9929 13.38 35.787 13.38V13.18C34.9598 13.18 34.2063 13.3761 33.5288 13.7695L33.6292 13.9425ZM35.787 13.38C36.5702 13.38 37.2834 13.5678 37.9288 13.9425L38.0292 13.7695C37.3519 13.3762 36.6038 13.18 35.787 13.18V13.38ZM37.9304 13.9434C38.586 14.3076 39.1007 14.8222 39.4758 15.489L39.6502 15.391C39.2573 14.6925 38.7161 14.1511 38.0276 13.7686L37.9304 13.9434ZM39.4762 15.4896C39.8507 16.145 40.039 16.8902 40.039 17.728H40.239C40.239 16.8591 40.0433 16.079 39.6498 15.3904L39.4762 15.4896ZM38.319 17.728C38.319 17.1906 38.2037 16.7096 37.9705 16.2876L37.7955 16.3844C38.0103 16.7731 38.119 17.22 38.119 17.728H38.319ZM37.972 16.2904C37.7508 15.859 37.445 15.5246 37.0545 15.2902L36.9516 15.4617C37.3077 15.6754 37.5886 15.981 37.794 16.3816L37.972 16.2904ZM37.0555 15.2909C36.6763 15.0567 36.2526 14.94 35.787 14.94V15.14C36.2174 15.14 36.6044 15.2473 36.9505 15.4611L37.0555 15.2909ZM35.787 14.94C35.3214 14.94 34.8929 15.0566 34.5036 15.2902L34.6065 15.4617C34.9638 15.2474 35.3566 15.14 35.787 15.14V14.94ZM34.5025 15.2909C34.1233 15.5251 33.8183 15.8589 33.587 16.2886L33.763 16.3834C33.9797 15.9811 34.2614 15.6749 34.6075 15.4611L34.5025 15.2909ZM33.5865 16.2894C33.3646 16.711 33.255 17.1914 33.255 17.728H33.455C33.455 17.2193 33.5587 16.7716 33.7635 16.3826L33.5865 16.2894ZM33.255 17.728C33.255 18.2646 33.3646 18.745 33.5865 19.1666L33.7635 19.0734C33.5587 18.6844 33.455 18.2367 33.455 17.728H33.255ZM33.5875 19.1684C33.819 19.5874 34.1239 19.9153 34.5025 20.1491L34.6075 19.9789C34.2607 19.7647 33.979 19.4633 33.7625 19.0716L33.5875 19.1684ZM34.5036 20.1497C34.8929 20.3834 35.3214 20.5 35.787 20.5V20.3C35.3566 20.3 34.9638 20.1926 34.6065 19.9783L34.5036 20.1497ZM35.787 20.5C36.2526 20.5 36.6763 20.3833 37.0555 20.1491L36.9505 19.9789C36.6044 20.1927 36.2174 20.3 35.787 20.3V20.5ZM37.0545 20.1497C37.4443 19.9158 37.7501 19.5872 37.9715 19.1666L37.7945 19.0734C37.5892 19.4634 37.3084 19.7642 36.9516 19.9783L37.0545 20.1497ZM37.9705 19.1684C38.2037 18.7464 38.319 18.2654 38.319 17.728H38.119C38.119 18.236 38.0103 18.6829 37.7955 19.0716L37.9705 19.1684ZM48.7831 13.728L48.7104 13.7967L48.7124 13.7987L48.7831 13.728ZM48.0951 21.184L48.0238 21.1139L48.0232 21.1145L48.0951 21.184ZM42.6871 21.184L42.6152 21.2535L42.6871 21.184ZM42.0151 13.728L42.0859 13.7987L42.0878 13.7967L42.0151 13.728ZM43.3911 13.728L43.3184 13.7967L43.3204 13.7987L43.3911 13.728ZM44.0951 19.936L44.0208 20.0029L44.0219 20.0041L44.0951 19.936ZM46.7031 19.936L46.7763 20.0042L46.7775 20.0029L46.7031 19.936ZM47.4071 13.728L47.4779 13.7987L47.4798 13.7967L47.4071 13.728ZM48.0951 13.54C48.3465 13.54 48.549 13.6258 48.7104 13.7967L48.8558 13.6593C48.6546 13.4462 48.3984 13.34 48.0951 13.34V13.54ZM48.7124 13.7987C48.8734 13.9597 48.9551 14.1628 48.9551 14.416H49.1551C49.1551 14.1145 49.0555 13.859 48.8538 13.6573L48.7124 13.7987ZM48.9551 14.416V18.48H49.1551V14.416H48.9551ZM48.9551 18.48C48.9551 19.613 48.6409 20.4865 48.0238 21.1139L48.1664 21.2541C48.8293 20.5802 49.1551 19.651 49.1551 18.48H48.9551ZM48.0232 21.1145C47.4179 21.7403 46.5458 22.06 45.3911 22.06V22.26C46.5831 22.26 47.5137 21.929 48.167 21.2535L48.0232 21.1145ZM45.3911 22.06C44.2365 22.06 43.3644 21.7403 42.759 21.1145L42.6152 21.2535C43.2686 21.929 44.1991 22.26 45.3911 22.26V22.06ZM42.759 21.1145C42.1523 20.4872 41.8431 19.6134 41.8431 18.48H41.6431C41.6431 19.6506 41.9633 20.5795 42.6152 21.2535L42.759 21.1145ZM41.8431 18.48V14.416H41.6431V18.48H41.8431ZM41.8431 14.416C41.8431 14.1628 41.9249 13.9597 42.0858 13.7987L41.9444 13.6573C41.7427 13.859 41.6431 14.1145 41.6431 14.416H41.8431ZM42.0878 13.7967C42.2492 13.6258 42.4518 13.54 42.7031 13.54V13.34C42.3998 13.34 42.1437 13.4462 41.9424 13.6593L42.0878 13.7967ZM42.7031 13.54C42.9545 13.54 43.157 13.6258 43.3184 13.7967L43.4638 13.6593C43.2626 13.4462 43.0064 13.34 42.7031 13.34V13.54ZM43.3204 13.7987C43.4814 13.9597 43.5631 14.1628 43.5631 14.416H43.7631C43.7631 14.1145 43.6635 13.859 43.4618 13.6573L43.3204 13.7987ZM43.5631 14.416V18.48H43.7631V14.416H43.5631ZM43.5631 18.48C43.5631 19.1431 43.7096 19.6571 44.0208 20.0029L44.1695 19.8691C43.9047 19.5749 43.7631 19.1182 43.7631 18.48H43.5631ZM44.0219 20.0041C44.335 20.3403 44.7978 20.5 45.3911 20.5V20.3C44.8324 20.3 44.4313 20.1503 44.1683 19.8679L44.0219 20.0041ZM45.3911 20.5C45.9945 20.5 46.463 20.3407 46.7763 20.0041L46.6299 19.8679C46.3673 20.15 45.9611 20.3 45.3911 20.3V20.5ZM46.7775 20.0029C47.0887 19.6571 47.2351 19.1431 47.2351 18.48H47.0351C47.0351 19.1182 46.8936 19.5749 46.6288 19.8691L46.7775 20.0029ZM47.2351 18.48V14.416H47.0351V18.48H47.2351ZM47.2351 14.416C47.2351 14.1628 47.3169 13.9597 47.4778 13.7987L47.3364 13.6573C47.1347 13.859 47.0351 14.1145 47.0351 14.416H47.2351ZM47.4798 13.7967C47.6412 13.6258 47.8438 13.54 48.0951 13.54V13.34C47.7918 13.34 47.5357 13.4462 47.3344 13.6593L47.4798 13.7967ZM58.8734 11.056L58.8048 11.1288L58.8734 11.056ZM58.8734 12.4L58.9396 12.475L58.9419 12.4728L58.8734 12.4ZM55.6574 12.64V12.54H55.5574V12.64H55.6574ZM55.3534 21.728L55.4201 21.8026L55.4221 21.8006L55.3534 21.728ZM53.8654 21.728L53.7946 21.7987L53.7967 21.8007L53.8654 21.728ZM53.5774 12.64H53.6774V12.54H53.5774V12.64ZM50.3614 12.384L50.2928 12.4568V12.4568L50.3614 12.384ZM50.3614 11.056L50.2949 10.9812L50.2928 10.9832L50.3614 11.056ZM58.1694 10.9C58.4362 10.9 58.645 10.9783 58.8048 11.1288L58.9419 10.9832C58.7391 10.7923 58.4786 10.7 58.1694 10.7V10.9ZM58.8048 11.1288C58.9637 11.2783 59.0454 11.4748 59.0454 11.728H59.2454C59.2454 11.4266 59.1457 11.175 58.9419 10.9832L58.8048 11.1288ZM59.0454 11.728C59.0454 11.9812 58.9637 12.1777 58.8048 12.3272L58.9419 12.4728C59.1457 12.281 59.2454 12.0294 59.2454 11.728H59.0454ZM58.8072 12.325C58.6475 12.4659 58.4379 12.54 58.1694 12.54V12.74C58.4768 12.74 58.7366 12.6541 58.9395 12.475L58.8072 12.325ZM58.1694 12.54H55.6574V12.74H58.1694V12.54ZM55.5574 12.64V21.024H55.7574V12.64H55.5574ZM55.5574 21.024C55.5574 21.2737 55.4675 21.4821 55.2846 21.6554L55.4221 21.8006C55.6446 21.5899 55.7574 21.329 55.7574 21.024H55.5574ZM55.2867 21.6535C55.1042 21.8167 54.8781 21.9 54.6014 21.9V22.1C54.922 22.1 55.1972 22.0019 55.4201 21.8025L55.2867 21.6535ZM54.6014 21.9C54.3246 21.9 54.105 21.8168 53.934 21.6553L53.7967 21.8007C54.0097 22.0019 54.2808 22.1 54.6014 22.1V21.9ZM53.9361 21.6573C53.7633 21.4845 53.6774 21.2754 53.6774 21.024H53.4774C53.4774 21.3272 53.5835 21.5875 53.7947 21.7987L53.9361 21.6573ZM53.6774 21.024V12.64H53.4774V21.024H53.6774ZM53.5774 12.54H51.0654V12.74H53.5774V12.54ZM51.0654 12.54C50.7986 12.54 50.5898 12.4617 50.4299 12.3112L50.2928 12.4568C50.4956 12.6477 50.7562 12.74 51.0654 12.74V12.54ZM50.4299 12.3112C50.271 12.1617 50.1894 11.9652 50.1894 11.712H49.9894C49.9894 12.0134 50.089 12.265 50.2928 12.4568L50.4299 12.3112ZM50.1894 11.712C50.1894 11.4707 50.2702 11.2791 50.4299 11.1288L50.2928 10.9832C50.0899 11.1742 49.9894 11.4199 49.9894 11.712H50.1894ZM50.4278 11.1307C50.6 10.9777 50.8104 10.9 51.0654 10.9V10.7C50.7657 10.7 50.5068 10.793 50.2949 10.9813L50.4278 11.1307ZM51.0654 10.9H58.1694V10.7H51.0654V10.9ZM65.7831 13.728L65.7104 13.7967L65.7124 13.7987L65.7831 13.728ZM65.0951 21.184L65.0238 21.1139L65.0232 21.1145L65.0951 21.184ZM59.6871 21.184L59.6152 21.2535L59.6871 21.184ZM59.0151 13.728L59.0859 13.7987L59.0878 13.7967L59.0151 13.728ZM60.3911 13.728L60.3184 13.7967L60.3204 13.7987L60.3911 13.728ZM61.0951 19.936L61.0208 20.0029L61.0219 20.0041L61.0951 19.936ZM63.7031 19.936L63.7763 20.0042L63.7775 20.0029L63.7031 19.936ZM64.4071 13.728L64.4779 13.7987L64.4798 13.7967L64.4071 13.728ZM65.0951 13.54C65.3465 13.54 65.549 13.6258 65.7104 13.7967L65.8558 13.6593C65.6546 13.4462 65.3984 13.34 65.0951 13.34V13.54ZM65.7124 13.7987C65.8734 13.9597 65.9551 14.1628 65.9551 14.416H66.1551C66.1551 14.1145 66.0555 13.859 65.8538 13.6573L65.7124 13.7987ZM65.9551 14.416V18.48H66.1551V14.416H65.9551ZM65.9551 18.48C65.9551 19.613 65.6409 20.4865 65.0238 21.1139L65.1664 21.2541C65.8293 20.5802 66.1551 19.651 66.1551 18.48H65.9551ZM65.0232 21.1145C64.4179 21.7403 63.5458 22.06 62.3911 22.06V22.26C63.5831 22.26 64.5137 21.929 65.167 21.2535L65.0232 21.1145ZM62.3911 22.06C61.2365 22.06 60.3644 21.7403 59.759 21.1145L59.6152 21.2535C60.2686 21.929 61.1991 22.26 62.3911 22.26V22.06ZM59.759 21.1145C59.1523 20.4872 58.8431 19.6134 58.8431 18.48H58.6431C58.6431 19.6506 58.9633 20.5795 59.6152 21.2535L59.759 21.1145ZM58.8431 18.48V14.416H58.6431V18.48H58.8431ZM58.8431 14.416C58.8431 14.1628 58.9249 13.9597 59.0858 13.7987L58.9444 13.6573C58.7427 13.859 58.6431 14.1145 58.6431 14.416H58.8431ZM59.0878 13.7967C59.2492 13.6258 59.4518 13.54 59.7031 13.54V13.34C59.3998 13.34 59.1437 13.4462 58.9424 13.6593L59.0878 13.7967ZM59.7031 13.54C59.9545 13.54 60.157 13.6258 60.3184 13.7967L60.4638 13.6593C60.2626 13.4462 60.0064 13.34 59.7031 13.34V13.54ZM60.3204 13.7987C60.4814 13.9597 60.5631 14.1628 60.5631 14.416H60.7631C60.7631 14.1145 60.6635 13.859 60.4618 13.6573L60.3204 13.7987ZM60.5631 14.416V18.48H60.7631V14.416H60.5631ZM60.5631 18.48C60.5631 19.1431 60.7096 19.6571 61.0208 20.0029L61.1695 19.8691C60.9047 19.5749 60.7631 19.1182 60.7631 18.48H60.5631ZM61.0219 20.0041C61.335 20.3403 61.7978 20.5 62.3911 20.5V20.3C61.8324 20.3 61.4313 20.1503 61.1683 19.8679L61.0219 20.0041ZM62.3911 20.5C62.9945 20.5 63.463 20.3407 63.7763 20.0041L63.6299 19.8679C63.3673 20.15 62.9611 20.3 62.3911 20.3V20.5ZM63.7775 20.0029C64.0887 19.6571 64.2351 19.1431 64.2351 18.48H64.0351C64.0351 19.1182 63.8936 19.5749 63.6288 19.8691L63.7775 20.0029ZM64.2351 18.48V14.416H64.0351V18.48H64.2351ZM64.2351 14.416C64.2351 14.1628 64.3169 13.9597 64.4778 13.7987L64.3364 13.6573C64.1347 13.859 64.0351 14.1145 64.0351 14.416H64.2351ZM64.4798 13.7967C64.6412 13.6258 64.8438 13.54 65.0951 13.54V13.34C64.7918 13.34 64.5357 13.4462 64.3344 13.6593L64.4798 13.7967ZM74.5658 13.856L74.5117 13.9401L74.5127 13.9408L74.5658 13.856ZM75.9738 15.424L75.8846 15.4693L75.8852 15.4704L75.9738 15.424ZM75.9897 20.016L76.0789 20.0613L76.0792 20.0607L75.9897 20.016ZM74.5817 21.6L74.6354 21.6844L74.6358 21.6841L74.5817 21.6ZM71.1738 21.856L71.1307 21.9463L71.1333 21.9475L71.1738 21.856ZM70.0537 21.088L70.1245 21.0173L69.9538 20.8466V21.088H70.0537ZM69.7817 21.888L69.8525 21.9587L69.8545 21.9567L69.7817 21.888ZM68.4058 21.888L68.335 21.9587L68.4058 21.888ZM68.4058 10.448L68.4765 10.5187L68.4785 10.5167L68.4058 10.448ZM69.7817 10.448L69.709 10.5167L69.711 10.5187L69.7817 10.448ZM70.0537 14.48H69.9538V14.7651L70.1318 14.5425L70.0537 14.48ZM71.1258 13.648L71.1713 13.737L71.1729 13.7362L71.1258 13.648ZM74.0057 19.632L73.9297 19.5671L74.0057 19.632ZM74.0057 15.808L73.9289 15.872L73.9304 15.8737L74.0057 15.808ZM70.6297 15.808L70.7051 15.8737L70.7058 15.8729L70.6297 15.808ZM70.6297 19.632L70.5537 19.6969L70.6297 19.632ZM72.5658 13.38C73.2833 13.38 73.9311 13.5669 74.5117 13.9401L74.6198 13.7719C74.0058 13.3771 73.3202 13.18 72.5658 13.18V13.38ZM74.5127 13.9408C75.0936 14.3038 75.5509 14.8123 75.8846 15.4693L76.0629 15.3787C75.7139 14.6917 75.2326 14.1548 74.6188 13.7712L74.5127 13.9408ZM75.8852 15.4704C76.2288 16.1264 76.4017 16.8728 76.4017 17.712H76.6017C76.6017 16.8445 76.4227 16.0656 76.0623 15.3776L75.8852 15.4704ZM76.4017 17.712C76.4017 18.5517 76.2339 19.3041 75.9003 19.9713L76.0792 20.0607C76.4283 19.3626 76.6017 18.579 76.6017 17.712H76.4017ZM75.9006 19.9707C75.5668 20.6279 75.1091 21.1421 74.5277 21.5159L74.6358 21.6841C75.249 21.2899 75.73 20.7481 76.0789 20.0613L75.9006 19.9707ZM74.5281 21.5156C73.9579 21.8785 73.326 22.06 72.6297 22.06V22.26C73.3629 22.26 74.0323 22.0682 74.6354 21.6844L74.5281 21.5156ZM72.6297 22.06C72.1314 22.06 71.6598 21.9615 71.2142 21.7645L71.1333 21.9475C71.605 22.1559 72.1041 22.26 72.6297 22.26V22.06ZM71.2167 21.7657C70.7773 21.5564 70.4138 21.3066 70.1245 21.0173L69.983 21.1587C70.291 21.4667 70.6742 21.7289 71.1308 21.9463L71.2167 21.7657ZM69.9538 21.088V21.184H70.1538V21.088H69.9538ZM69.9538 21.184C69.9538 21.4372 69.8719 21.6469 69.709 21.8193L69.8545 21.9567C70.0543 21.7451 70.1538 21.4855 70.1538 21.184H69.9538ZM69.711 21.8173C69.5501 21.9782 69.3469 22.06 69.0938 22.06V22.26C69.3952 22.26 69.6508 22.1604 69.8525 21.9587L69.711 21.8173ZM69.0938 22.06C68.8406 22.06 68.6374 21.9782 68.4765 21.8173L68.335 21.9587C68.5367 22.1604 68.7923 22.26 69.0938 22.26V22.06ZM68.4765 21.8173C68.3163 21.6571 68.2337 21.449 68.2337 21.184H68.0337C68.0337 21.495 68.1326 21.7562 68.335 21.9587L68.4765 21.8173ZM68.2337 21.184V11.136H68.0337V21.184H68.2337ZM68.2337 11.136C68.2337 10.8828 68.3155 10.6797 68.4765 10.5187L68.335 10.3773C68.1333 10.579 68.0337 10.8345 68.0337 11.136H68.2337ZM68.4785 10.5167C68.6399 10.3458 68.8424 10.26 69.0938 10.26V10.06C68.7905 10.06 68.5343 10.1662 68.333 10.3793L68.4785 10.5167ZM69.0938 10.26C69.3451 10.26 69.5476 10.3458 69.709 10.5167L69.8545 10.3793C69.6532 10.1662 69.397 10.06 69.0938 10.06V10.26ZM69.711 10.5187C69.872 10.6797 69.9538 10.8828 69.9538 11.136H70.1538C70.1538 10.8345 70.0542 10.579 69.8525 10.3773L69.711 10.5187ZM69.9538 11.136V14.48H70.1538V11.136H69.9538ZM70.1318 14.5425C70.377 14.236 70.7221 13.9668 71.1713 13.737L71.0802 13.559C70.6121 13.7985 70.2425 14.084 69.9757 14.4175L70.1318 14.5425ZM71.1729 13.7362C71.6176 13.4983 72.0815 13.38 72.5658 13.38V13.18C72.0473 13.18 71.5512 13.307 71.0786 13.5598L71.1729 13.7362ZM72.3258 20.5C73.0372 20.5 73.6252 20.2315 74.0818 19.6969L73.9297 19.5671C73.5117 20.0565 72.9796 20.3 72.3258 20.3V20.5ZM74.0818 19.6969C74.5367 19.1643 74.7617 18.5003 74.7617 17.712H74.5617C74.5617 18.4597 74.3494 19.0757 73.9297 19.5671L74.0818 19.6969ZM74.7617 17.712C74.7617 16.9238 74.5368 16.2646 74.0811 15.7423L73.9304 15.8737C74.3494 16.3541 74.5617 16.9642 74.5617 17.712H74.7617ZM74.0826 15.744C73.636 15.2081 73.0474 14.94 72.3258 14.94V15.14C72.9908 15.14 73.5221 15.3839 73.9289 15.872L74.0826 15.744ZM72.3258 14.94C71.6042 14.94 71.0107 15.2081 70.5537 15.7431L70.7058 15.8729C71.1235 15.3839 71.6607 15.14 72.3258 15.14V14.94ZM70.5544 15.7423C70.0987 16.2646 69.8737 16.9238 69.8737 17.712H70.0737C70.0737 16.9642 70.2861 16.3541 70.7051 15.8737L70.5544 15.7423ZM69.8737 17.712C69.8737 18.5003 70.0988 19.1643 70.5537 19.6969L70.7058 19.5671C70.2861 19.0757 70.0737 18.4597 70.0737 17.712H69.8737ZM70.5537 19.6969C71.0107 20.2319 71.6042 20.5 72.3258 20.5V20.3C71.6607 20.3 71.1235 20.0561 70.7058 19.5671L70.5537 19.6969ZM85.7825 17.52L85.8825 17.5242V17.52H85.7825ZM85.4785 18.144L85.5425 18.2208L85.4785 18.144ZM79.5265 18.384V18.284H79.4041L79.4285 18.4039L79.5265 18.384ZM80.4065 19.872L80.3445 19.9504L80.3456 19.9513L80.4065 19.872ZM82.9825 20.288L83.0116 20.3837L83.0154 20.3824L82.9825 20.288ZM83.5585 20.032L83.6109 20.1172L83.6126 20.1161L83.5585 20.032ZM83.8625 19.84L83.8176 19.7503L83.8111 19.7543L83.8625 19.84ZM84.9825 19.936L84.9118 20.0067L84.9825 19.936ZM84.7745 21.28L84.7127 21.2013L84.711 21.2027L84.7745 21.28ZM83.5745 21.904L83.5423 21.8093L83.5745 21.904ZM79.7025 21.6L79.6533 21.6871L79.6539 21.6874L79.7025 21.6ZM78.1665 20.064L78.0788 20.1121L78.0792 20.1127L78.1665 20.064ZM78.1985 15.424L78.111 15.3756L78.1985 15.424ZM79.7185 13.84L79.7684 13.9266L79.7695 13.926L79.7185 13.84ZM83.7185 13.856L83.6658 13.941L83.6664 13.9414L83.7185 13.856ZM85.2225 15.408L85.3092 15.3582L85.2225 15.408ZM79.5425 16.784L79.4443 16.7651L79.4214 16.884H79.5425V16.784ZM83.7345 16.784V16.884H83.8345V16.784H83.7345ZM83.7345 16.672H83.835L83.834 16.6625L83.7345 16.672ZM85.6826 17.5158C85.6731 17.7444 85.5842 17.9258 85.4145 18.0672L85.5425 18.2208C85.7568 18.0422 85.8706 17.8076 85.8824 17.5242L85.6826 17.5158ZM85.4145 18.0672C85.2409 18.2118 85.0397 18.284 84.8065 18.284V18.484C85.0853 18.484 85.3321 18.3962 85.5425 18.2208L85.4145 18.0672ZM84.8065 18.284H79.5265V18.484H84.8065V18.284ZM79.4285 18.4039C79.5607 19.054 79.8654 19.5717 80.3445 19.9504L80.4685 19.7936C80.0302 19.447 79.7483 18.9727 79.6245 18.3641L79.4285 18.4039ZM80.3456 19.9513C80.8217 20.3167 81.3604 20.5 81.9585 20.5V20.3C81.4046 20.3 80.9087 20.1313 80.4674 19.7927L80.3456 19.9513ZM81.9585 20.5C82.3998 20.5 82.7525 20.4625 83.0116 20.3837L82.9534 20.1923C82.7218 20.2628 82.3919 20.3 81.9585 20.3V20.5ZM83.0154 20.3824C83.264 20.296 83.4636 20.2078 83.6109 20.1172L83.5061 19.9468C83.3761 20.0268 83.1917 20.1094 82.9496 20.1936L83.0154 20.3824ZM83.6126 20.1161C83.7621 20.02 83.8621 19.9568 83.9139 19.9257L83.8111 19.7543C83.7562 19.7872 83.6536 19.852 83.5044 19.9479L83.6126 20.1161ZM83.9072 19.9294C84.0888 19.8386 84.2548 19.796 84.4065 19.796V19.596C84.2168 19.596 84.0202 19.6494 83.8178 19.7506L83.9072 19.9294ZM84.4065 19.796C84.6037 19.796 84.7703 19.8653 84.9118 20.0067L85.0532 19.8653C84.8747 19.6867 84.6573 19.596 84.4065 19.596V19.796ZM84.9118 20.0067C85.0543 20.1492 85.1225 20.3109 85.1225 20.496H85.3225C85.3225 20.2544 85.2307 20.0428 85.0532 19.8653L84.9118 20.0067ZM85.1225 20.496C85.1225 20.7441 84.9956 20.9791 84.7127 21.2014L84.8363 21.3586C85.1508 21.1115 85.3225 20.8239 85.3225 20.496H85.1225ZM84.711 21.2027C84.4244 21.4382 84.0362 21.6412 83.5423 21.8093L83.6067 21.9987C84.1155 21.8255 84.5273 21.6125 84.838 21.3573L84.711 21.2027ZM83.5423 21.8093C83.051 21.9766 82.5552 22.06 82.0545 22.06V22.26C82.5778 22.26 83.0954 22.1727 83.6067 21.9987L83.5423 21.8093ZM82.0545 22.06C81.1727 22.06 80.4059 21.8764 79.7511 21.5126L79.6539 21.6874C80.3431 22.0703 81.1443 22.26 82.0545 22.26V22.06ZM79.7517 21.5129C79.106 21.1484 78.6074 20.6496 78.2538 20.0153L78.0792 20.1127C78.451 20.7797 78.9763 21.3049 79.6533 21.6871L79.7517 21.5129ZM78.2542 20.0159C77.9003 19.3706 77.7225 18.6461 77.7225 17.84H77.5225C77.5225 18.6766 77.7074 19.4347 78.0788 20.1121L78.2542 20.0159ZM77.7225 17.84C77.7225 16.9369 77.9114 16.1488 78.286 15.4724L78.111 15.3756C77.7176 16.0859 77.5225 16.9084 77.5225 17.84H77.7225ZM78.286 15.4724C78.662 14.7935 79.1563 14.2794 79.7684 13.9266L79.6686 13.7534C79.0221 14.1259 78.503 14.6678 78.111 15.3756L78.286 15.4724ZM79.7695 13.926C80.3838 13.5616 81.0382 13.38 81.7345 13.38V13.18C81.0014 13.18 80.3119 13.3717 79.6675 13.754L79.7695 13.926ZM81.7345 13.38C82.4192 13.38 83.0624 13.5664 83.6658 13.941L83.7712 13.771C83.1373 13.3776 82.4578 13.18 81.7345 13.18V13.38ZM83.6664 13.9414C84.2811 14.3164 84.7706 14.8214 85.1358 15.4578L85.3092 15.3582C84.9277 14.6932 84.4145 14.1636 83.7706 13.7706L83.6664 13.9414ZM85.1358 15.4578C85.5003 16.0931 85.6825 16.78 85.6825 17.52H85.8825C85.8825 16.7454 85.6913 16.0242 85.3092 15.3582L85.1358 15.4578ZM81.7345 14.94C81.1006 14.94 80.5843 15.089 80.1962 15.3977C79.8077 15.7069 79.5596 16.1668 79.4443 16.7651L79.6407 16.8029C79.7494 16.2386 79.9787 15.8264 80.3208 15.5543C80.6634 15.2817 81.1311 15.14 81.7345 15.14V14.94ZM79.5425 16.884H83.7345V16.684H79.5425V16.884ZM83.8345 16.784V16.672H83.6345V16.784H83.8345ZM83.834 16.6625C83.7885 16.1843 83.5541 15.7768 83.1415 15.4423L83.0155 15.5977C83.3923 15.9032 83.5952 16.2637 83.635 16.6815L83.834 16.6625ZM83.1415 15.4423C82.7293 15.1081 82.2591 14.94 81.7345 14.94V15.14C82.2126 15.14 82.6384 15.2919 83.0155 15.5977L83.1415 15.4423ZM98.2041 11.296L98.1482 11.3789L98.1495 11.3798L98.2041 11.296ZM99.3881 12.608L99.3001 12.6554L99.3005 12.6561L99.3881 12.608ZM99.3881 16.192L99.4762 16.2394L99.3881 16.192ZM98.2041 17.52L98.2588 17.6038L98.26 17.6029L98.2041 17.52ZM93.8681 18V17.9H93.7681V18H93.8681ZM92.2841 21.728L92.2094 21.7945L92.2113 21.7965L92.2841 21.728ZM92.3001 11.088L92.2294 11.0173L92.3001 11.088ZM97.2441 15.92L97.1797 15.8435L97.1777 15.8453L97.2441 15.92ZM97.7241 15.264L97.6333 15.2221L97.6326 15.2237L97.7241 15.264ZM97.7241 13.552L97.6319 13.591L97.634 13.5953L97.7241 13.552ZM97.2441 12.896L97.1776 12.9709L97.1822 12.9745L97.2441 12.896ZM93.8681 12.64V12.54H93.7681V12.64H93.8681ZM93.8681 16.176H93.7681V16.276H93.8681V16.176ZM96.6521 10.9C97.1745 10.9 97.6726 11.0584 98.1482 11.3789L98.26 11.2131C97.7543 10.8723 97.2178 10.7 96.6521 10.7V10.9ZM98.1495 11.3798C98.6251 11.6899 99.0087 12.1143 99.3001 12.6554L99.4762 12.5606C99.1702 11.9923 98.7645 11.5421 98.2588 11.2122L98.1495 11.3798ZM99.3005 12.6561C99.5906 13.1847 99.7361 13.7653 99.7361 14.4H99.9361C99.9361 13.7334 99.7829 13.1193 99.4758 12.5599L99.3005 12.6561ZM99.7361 14.4C99.7361 15.0237 99.5908 15.6047 99.3001 16.1446L99.4762 16.2394C99.7828 15.6699 99.9361 15.0563 99.9361 14.4H99.7361ZM99.3001 16.1446C99.0086 16.6859 98.6246 17.116 98.1482 17.4371L98.26 17.6029C98.765 17.2626 99.1703 16.8074 99.4762 16.2394L99.3001 16.1446ZM98.1495 17.4362C97.6738 17.7465 97.1752 17.9 96.6521 17.9V18.1C97.217 18.1 97.7531 17.9335 98.2588 17.6038L98.1495 17.4362ZM96.6521 17.9H93.8681V18.1H96.6521V17.9ZM93.7681 18V21.024H93.9681V18H93.7681ZM93.7681 21.024C93.7681 21.2908 93.6898 21.4996 93.5393 21.6595L93.6849 21.7965C93.8758 21.5938 93.9681 21.3332 93.9681 21.024H93.7681ZM93.5393 21.6595C93.3898 21.8183 93.1934 21.9 92.9401 21.9V22.1C93.2416 22.1 93.4931 22.0003 93.6849 21.7965L93.5393 21.6595ZM92.9401 21.9C92.6988 21.9 92.5073 21.8192 92.3569 21.6595L92.2113 21.7965C92.4023 21.9995 92.6481 22.1 92.9401 22.1V21.9ZM92.3589 21.6616C92.2058 21.4894 92.1281 21.279 92.1281 21.024H91.9281C91.9281 21.3237 92.0211 21.5826 92.2094 21.7944L92.3589 21.6616ZM92.1281 21.024V11.776H91.9281V21.024H92.1281ZM92.1281 11.776C92.1281 11.5228 92.2099 11.3197 92.3708 11.1587L92.2294 11.0173C92.0277 11.219 91.9281 11.4745 91.9281 11.776H92.1281ZM92.3708 11.1587C92.5436 10.9859 92.7527 10.9 93.0041 10.9V10.7C92.7009 10.7 92.4406 10.8061 92.2294 11.0173L92.3708 11.1587ZM93.0041 10.9H96.6521V10.7H93.0041V10.9ZM96.6521 16.276C96.8853 16.276 97.1053 16.1772 97.3106 15.9947L97.1777 15.8453C96.9989 16.0042 96.8243 16.076 96.6521 16.076V16.276ZM97.3085 15.9965C97.524 15.815 97.6928 15.5835 97.8157 15.3043L97.6326 15.2237C97.5208 15.4778 97.3696 15.6836 97.1797 15.8435L97.3085 15.9965ZM97.8149 15.3059C97.9488 15.0157 98.0161 14.7135 98.0161 14.4H97.8161C97.8161 14.6839 97.7554 14.9576 97.6333 15.2221L97.8149 15.3059ZM98.0161 14.4C98.0161 14.0865 97.9488 13.789 97.8143 13.5087L97.634 13.5953C97.7554 13.8483 97.8161 14.1162 97.8161 14.4H98.0161ZM97.8162 13.513C97.6934 13.2228 97.524 12.9896 97.3061 12.8175L97.1822 12.9745C97.3696 13.1224 97.5202 13.3265 97.632 13.591L97.8162 13.513ZM97.3106 12.8213C97.1053 12.6388 96.8853 12.54 96.6521 12.54V12.74C96.8243 12.74 96.9989 12.8118 97.1777 12.9707L97.3106 12.8213ZM96.6521 12.54H93.8681V12.74H96.6521V12.54ZM93.7681 12.64V16.176H93.9681V12.64H93.7681ZM93.8681 16.276H96.6521V16.076H93.8681V16.276ZM106.757 13.552L106.692 13.6282L106.694 13.6297L106.757 13.552ZM106.837 14.944L106.905 15.017L106.907 15.0147L106.837 14.944ZM105.685 15.072L105.719 14.9781L105.716 14.9771L105.685 15.072ZM105.461 15.008L105.432 15.1038L105.434 15.1045L105.461 15.008ZM104.309 15.216L104.364 15.2992L104.309 15.216ZM103.669 16L103.579 15.9564L103.578 15.9576L103.669 16ZM103.157 21.728L103.227 21.7987L103.229 21.7967L103.157 21.728ZM101.781 21.728L101.708 21.7967L101.71 21.7987L101.781 21.728ZM101.781 13.728L101.851 13.7987L101.853 13.7967L101.781 13.728ZM103.157 13.728L103.084 13.7967L103.086 13.7987L103.157 13.728ZM103.429 14.624H103.329V15.0067L103.516 14.6729L103.429 14.624ZM104.485 13.632L104.529 13.7219L104.53 13.721L104.485 13.632ZM105.957 13.38C106.257 13.38 106.499 13.4644 106.692 13.6282L106.822 13.4758C106.588 13.2769 106.297 13.18 105.957 13.18V13.38ZM106.694 13.6297C106.899 13.7958 106.993 13.9823 106.993 14.192H107.193C107.193 13.9111 107.063 13.6709 106.82 13.4743L106.694 13.6297ZM106.993 14.192C106.993 14.5062 106.912 14.7274 106.766 14.8733L106.907 15.0147C107.103 14.8192 107.193 14.5391 107.193 14.192H106.993ZM106.768 14.871C106.616 15.0136 106.438 15.084 106.229 15.084V15.284C106.489 15.284 106.716 15.1944 106.905 15.017L106.768 14.871ZM106.229 15.084C106.084 15.084 105.915 15.0501 105.719 14.9782L105.65 15.1658C105.86 15.2432 106.054 15.284 106.229 15.284V15.084ZM105.716 14.9771C105.681 14.9654 105.604 14.9433 105.487 14.9115L105.434 15.1045C105.553 15.1367 105.624 15.1573 105.653 15.1669L105.716 14.9771ZM105.489 14.9122C105.372 14.877 105.245 14.86 105.109 14.86V15.06C105.228 15.06 105.336 15.075 105.432 15.1038L105.489 14.9122ZM105.109 14.86C104.81 14.86 104.524 14.9524 104.253 15.1328L104.364 15.2992C104.606 15.1382 104.853 15.06 105.109 15.06V14.86ZM104.253 15.1328C103.979 15.3157 103.755 15.5926 103.579 15.9564L103.759 16.0436C103.924 15.7034 104.127 15.4576 104.364 15.2992L104.253 15.1328ZM103.578 15.9576C103.411 16.3153 103.329 16.7412 103.329 17.232H103.529C103.529 16.7628 103.607 16.3674 103.759 16.0424L103.578 15.9576ZM103.329 17.232V21.024H103.529V17.232H103.329ZM103.329 21.024C103.329 21.2772 103.247 21.4869 103.084 21.6593L103.229 21.7967C103.429 21.5851 103.529 21.3255 103.529 21.024H103.329ZM103.086 21.6573C102.925 21.8182 102.722 21.9 102.469 21.9V22.1C102.77 22.1 103.026 22.0004 103.227 21.7987L103.086 21.6573ZM102.469 21.9C102.216 21.9 102.012 21.8182 101.851 21.6573L101.71 21.7987C101.912 22.0004 102.167 22.1 102.469 22.1V21.9ZM101.853 21.6593C101.691 21.4869 101.609 21.2772 101.609 21.024H101.409C101.409 21.3255 101.508 21.5851 101.708 21.7967L101.853 21.6593ZM101.609 21.024V14.416H101.409V21.024H101.609ZM101.609 14.416C101.609 14.1628 101.691 13.9597 101.851 13.7987L101.71 13.6573C101.508 13.859 101.409 14.1145 101.409 14.416H101.609ZM101.853 13.7967C102.015 13.6258 102.217 13.54 102.469 13.54V13.34C102.165 13.34 101.909 13.4462 101.708 13.6593L101.853 13.7967ZM102.469 13.54C102.72 13.54 102.923 13.6258 103.084 13.7967L103.229 13.6593C103.028 13.4462 102.772 13.34 102.469 13.34V13.54ZM103.086 13.7987C103.247 13.9597 103.329 14.1628 103.329 14.416H103.529C103.529 14.1145 103.429 13.859 103.227 13.6573L103.086 13.7987ZM103.329 14.416V14.624H103.529V14.416H103.329ZM103.516 14.6729C103.751 14.2537 104.088 13.9371 104.529 13.7219L104.441 13.5421C103.964 13.7749 103.597 14.1197 103.342 14.5751L103.516 14.6729ZM104.53 13.721C104.975 13.4937 105.45 13.38 105.957 13.38V13.18C105.418 13.18 104.912 13.301 104.439 13.543L104.53 13.721ZM115.735 20.032L115.822 20.0816L115.822 20.081L115.735 20.032ZM114.151 21.6L114.102 21.5126L114.102 21.5129L114.151 21.6ZM109.751 21.6L109.8 21.5129L109.751 21.6ZM108.183 20.032L108.096 20.081L108.096 20.0816L108.183 20.032ZM108.183 15.44L108.27 15.4896L108.27 15.489L108.183 15.44ZM109.751 13.856L109.8 13.9431L109.801 13.9425L109.751 13.856ZM114.151 13.856L114.101 13.9425L114.102 13.9434L114.151 13.856ZM115.735 15.44L115.648 15.489L115.648 15.4896L115.735 15.44ZM114.055 16.336L113.966 16.3817L113.967 16.3844L114.055 16.336ZM113.175 15.376L113.122 15.4611L113.123 15.4617L113.175 15.376ZM110.727 15.376L110.675 15.2902L110.674 15.2909L110.727 15.376ZM109.847 16.336L109.759 16.2886L109.758 16.2894L109.847 16.336ZM109.847 19.12L109.758 19.1666L109.759 19.1684L109.847 19.12ZM110.727 20.064L110.674 20.1491L110.675 20.1497L110.727 20.064ZM113.175 20.064L113.123 19.9782L113.122 19.9789L113.175 20.064ZM114.055 19.12L113.967 19.0716L113.966 19.0734L114.055 19.12ZM116.211 17.728C116.211 18.5657 116.023 19.3166 115.648 19.983L115.822 20.081C116.215 19.3821 116.411 18.5969 116.411 17.728H116.211ZM115.648 19.9824C115.273 20.6386 114.758 21.1482 114.102 21.5126L114.199 21.6874C114.888 21.3051 115.429 20.7694 115.822 20.0816L115.648 19.9824ZM114.102 21.5129C113.456 21.8773 112.743 22.06 111.959 22.06V22.26C112.775 22.26 113.523 22.0693 114.2 21.6871L114.102 21.5129ZM111.959 22.06C111.164 22.06 110.445 21.8772 109.8 21.5129L109.702 21.6871C110.379 22.0695 111.132 22.26 111.959 22.26V22.06ZM109.8 21.5129C109.155 21.1486 108.645 20.639 108.27 19.9824L108.096 20.0816C108.489 20.769 109.024 21.3047 109.702 21.6871L109.8 21.5129ZM108.27 19.983C107.895 19.3166 107.707 18.5657 107.707 17.728H107.507C107.507 18.5969 107.703 19.3821 108.096 20.081L108.27 19.983ZM107.707 17.728C107.707 16.8902 107.895 16.145 108.27 15.4896L108.096 15.3904C107.703 16.079 107.507 16.8591 107.507 17.728H107.707ZM108.27 15.489C108.645 14.8218 109.155 14.3071 109.8 13.9431L109.702 13.7689C109.024 14.1515 108.488 14.6929 108.096 15.391L108.27 15.489ZM109.801 13.9425C110.446 13.5679 111.165 13.38 111.959 13.38V13.18C111.132 13.18 110.378 13.3761 109.701 13.7695L109.801 13.9425ZM111.959 13.38C112.742 13.38 113.455 13.5678 114.101 13.9425L114.201 13.7695C113.524 13.3762 112.776 13.18 111.959 13.18V13.38ZM114.102 13.9434C114.758 14.3076 115.273 14.8222 115.648 15.489L115.822 15.391C115.429 14.6925 114.888 14.1511 114.199 13.7686L114.102 13.9434ZM115.648 15.4896C116.023 16.145 116.211 16.8902 116.211 17.728H116.411C116.411 16.8591 116.215 16.079 115.822 15.3904L115.648 15.4896ZM114.491 17.728C114.491 17.1906 114.376 16.7096 114.142 16.2876L113.967 16.3844C114.182 16.7731 114.291 17.22 114.291 17.728H114.491ZM114.144 16.2904C113.923 15.859 113.617 15.5246 113.226 15.2902L113.123 15.4617C113.48 15.6754 113.76 15.981 113.966 16.3816L114.144 16.2904ZM113.227 15.2909C112.848 15.0567 112.424 14.94 111.959 14.94V15.14C112.389 15.14 112.776 15.2473 113.122 15.4611L113.227 15.2909ZM111.959 14.94C111.493 14.94 111.065 15.0566 110.675 15.2902L110.778 15.4617C111.136 15.2474 111.528 15.14 111.959 15.14V14.94ZM110.674 15.2909C110.295 15.5251 109.99 15.8589 109.759 16.2886L109.935 16.3834C110.152 15.9811 110.433 15.6749 110.779 15.4611L110.674 15.2909ZM109.758 16.2894C109.536 16.711 109.427 17.1914 109.427 17.728H109.627C109.627 17.2193 109.731 16.7716 109.935 16.3826L109.758 16.2894ZM109.427 17.728C109.427 18.2646 109.536 18.745 109.758 19.1666L109.935 19.0734C109.731 18.6844 109.627 18.2367 109.627 17.728H109.427ZM109.759 19.1684C109.991 19.5874 110.296 19.9153 110.674 20.1491L110.779 19.9789C110.433 19.7647 110.151 19.4633 109.934 19.0716L109.759 19.1684ZM110.675 20.1497C111.065 20.3834 111.493 20.5 111.959 20.5V20.3C111.528 20.3 111.136 20.1926 110.778 19.9783L110.675 20.1497ZM111.959 20.5C112.424 20.5 112.848 20.3833 113.227 20.1491L113.122 19.9789C112.776 20.1927 112.389 20.3 111.959 20.3V20.5ZM113.226 20.1497C113.616 19.9158 113.922 19.5872 114.143 19.1666L113.966 19.0734C113.761 19.4634 113.48 19.7642 113.123 19.9783L113.226 20.1497ZM114.142 19.1684C114.376 18.7464 114.491 18.2654 114.491 17.728H114.291C114.291 18.236 114.182 18.6829 113.967 19.0716L114.142 19.1684ZM125.531 21.728L125.602 21.7987L125.604 21.7967L125.531 21.728ZM124.155 21.728L124.082 21.7966L124.084 21.7987L124.155 21.728ZM123.883 21.04L123.983 21.0362L123.973 20.7823L123.807 20.9747L123.883 21.04ZM122.795 21.84L122.838 21.9303L122.839 21.9299L122.795 21.84ZM119.371 21.6L119.317 21.6841L119.318 21.6848L119.371 21.6ZM117.947 20.016L117.858 20.0613L117.858 20.0624L117.947 20.016ZM117.947 15.44L118.036 15.4853L118.036 15.4847L117.947 15.44ZM119.339 13.856L119.393 13.9404L119.393 13.9401L119.339 13.856ZM122.747 13.568L122.708 13.6599L122.709 13.6607L122.747 13.568ZM123.883 14.272L123.815 14.3452L123.983 14.5017V14.272H123.883ZM124.155 10.448L124.226 10.5187L124.228 10.5167L124.155 10.448ZM123.307 19.648L123.382 19.7137L123.383 19.7129L123.307 19.648ZM123.307 15.808L123.231 15.8729L123.307 15.808ZM119.931 15.808L120.007 15.8729L119.931 15.808ZM119.915 19.648L119.838 19.712L119.84 19.7137L119.915 19.648ZM124.843 10.26C125.096 10.26 125.299 10.3418 125.46 10.5027L125.602 10.3613C125.4 10.1596 125.144 10.06 124.843 10.06V10.26ZM125.46 10.5027C125.62 10.6629 125.703 10.871 125.703 11.136H125.903C125.903 10.825 125.804 10.5638 125.602 10.3613L125.46 10.5027ZM125.703 11.136V21.024H125.903V11.136H125.703ZM125.703 21.024C125.703 21.2772 125.621 21.4869 125.458 21.6593L125.604 21.7967C125.804 21.5851 125.903 21.3255 125.903 21.024H125.703ZM125.46 21.6573C125.299 21.8182 125.096 21.9 124.843 21.9V22.1C125.144 22.1 125.4 22.0004 125.602 21.7987L125.46 21.6573ZM124.843 21.9C124.59 21.9 124.387 21.8182 124.226 21.6573L124.084 21.7987C124.286 22.0004 124.542 22.1 124.843 22.1V21.9ZM124.228 21.6595C124.076 21.4978 123.993 21.2923 123.983 21.0362L123.783 21.0438C123.795 21.3423 123.893 21.5956 124.082 21.7965L124.228 21.6595ZM123.807 20.9747C123.551 21.2716 123.201 21.5307 122.751 21.7501L122.839 21.9299C123.307 21.7013 123.681 21.4271 123.959 21.1053L123.807 20.9747ZM122.752 21.7497C122.318 21.9566 121.858 22.06 121.371 22.06V22.26C121.887 22.26 122.376 22.1501 122.838 21.9303L122.752 21.7497ZM121.371 22.06C120.653 22.06 120.005 21.8781 119.424 21.5152L119.318 21.6848C119.932 22.0685 120.617 22.26 121.371 22.26V22.06ZM119.425 21.5159C118.843 21.1419 118.38 20.6273 118.036 19.9696L117.858 20.0624C118.218 20.7487 118.704 21.2901 119.317 21.6841L119.425 21.5159ZM118.036 19.9707C117.703 19.3145 117.535 18.5677 117.535 17.728H117.335C117.335 18.595 117.508 19.3735 117.858 20.0613L118.036 19.9707ZM117.535 17.728C117.535 16.8883 117.703 16.1415 118.036 15.4853L117.858 15.3947C117.508 16.0825 117.335 16.861 117.335 17.728H117.535ZM118.036 15.4847C118.37 14.8166 118.823 14.303 119.393 13.9404L119.285 13.7716C118.682 14.1556 118.206 14.698 117.858 15.3953L118.036 15.4847ZM119.393 13.9401C119.974 13.5666 120.611 13.38 121.307 13.38V13.18C120.573 13.18 119.898 13.3774 119.285 13.7719L119.393 13.9401ZM121.307 13.38C121.806 13.38 122.273 13.4735 122.708 13.6599L122.786 13.4761C122.325 13.2785 121.832 13.18 121.307 13.18V13.38ZM122.709 13.6607C123.148 13.8381 123.516 14.0666 123.815 14.3452L123.951 14.1988C123.632 13.9014 123.242 13.6606 122.785 13.4753L122.709 13.6607ZM123.983 14.272V11.136H123.783V14.272H123.983ZM123.983 11.136C123.983 10.8828 124.065 10.6797 124.226 10.5187L124.084 10.3773C123.883 10.579 123.783 10.8345 123.783 11.136H123.983ZM124.228 10.5167C124.389 10.3458 124.592 10.26 124.843 10.26V10.06C124.54 10.06 124.284 10.1662 124.082 10.3793L124.228 10.5167ZM121.611 20.5C122.332 20.5 122.925 20.2379 123.382 19.7137L123.232 19.5823C122.814 20.0608 122.277 20.3 121.611 20.3V20.5ZM123.383 19.7129C123.838 19.1803 124.063 18.5163 124.063 17.728H123.863C123.863 18.4757 123.651 19.0917 123.231 19.5831L123.383 19.7129ZM124.063 17.728C124.063 16.9397 123.838 16.2757 123.383 15.7431L123.231 15.8729C123.651 16.3643 123.863 16.9803 123.863 17.728H124.063ZM123.383 15.7431C122.926 15.2081 122.333 14.94 121.611 14.94V15.14C122.276 15.14 122.813 15.3839 123.231 15.8729L123.383 15.7431ZM121.611 14.94C120.9 14.94 120.312 15.2085 119.855 15.7431L120.007 15.8729C120.425 15.3835 120.957 15.14 121.611 15.14V14.94ZM119.855 15.7431C119.4 16.2757 119.175 16.9397 119.175 17.728H119.375C119.375 16.9803 119.587 16.3643 120.007 15.8729L119.855 15.7431ZM119.175 17.728C119.175 18.5156 119.394 19.1794 119.838 19.712L119.992 19.584C119.582 19.0926 119.375 18.4764 119.375 17.728H119.175ZM119.84 19.7137C120.297 20.2379 120.89 20.5 121.611 20.5V20.3C120.945 20.3 120.408 20.0608 119.99 19.5823L119.84 19.7137ZM135.174 13.728L135.101 13.7967L135.103 13.7987L135.174 13.728ZM134.486 21.184L134.414 21.1139L134.414 21.1145L134.486 21.184ZM129.078 21.184L129.006 21.2535L129.078 21.184ZM128.406 13.728L128.476 13.7987L128.478 13.7967L128.406 13.728ZM129.782 13.728L129.709 13.7967L129.711 13.7987L129.782 13.728ZM130.486 19.936L130.411 20.0029L130.413 20.0041L130.486 19.936ZM133.094 19.936L133.167 20.0042L133.168 20.0029L133.094 19.936ZM133.798 13.728L133.868 13.7987L133.87 13.7967L133.798 13.728ZM134.486 13.54C134.737 13.54 134.94 13.6258 135.101 13.7967L135.246 13.6593C135.045 13.4462 134.789 13.34 134.486 13.34V13.54ZM135.103 13.7987C135.264 13.9597 135.346 14.1628 135.346 14.416H135.546C135.546 14.1145 135.446 13.859 135.244 13.6573L135.103 13.7987ZM135.346 14.416V18.48H135.546V14.416H135.346ZM135.346 18.48C135.346 19.613 135.032 20.4865 134.414 21.1139L134.557 21.2541C135.22 20.5802 135.546 19.651 135.546 18.48H135.346ZM134.414 21.1145C133.809 21.7403 132.936 22.06 131.782 22.06V22.26C132.974 22.26 133.904 21.929 134.558 21.2535L134.414 21.1145ZM131.782 22.06C130.627 22.06 129.755 21.7403 129.15 21.1145L129.006 21.2535C129.659 21.929 130.59 22.26 131.782 22.26V22.06ZM129.15 21.1145C128.543 20.4872 128.234 19.6134 128.234 18.48H128.034C128.034 19.6506 128.354 20.5795 129.006 21.2535L129.15 21.1145ZM128.234 18.48V14.416H128.034V18.48H128.234ZM128.234 14.416C128.234 14.1628 128.316 13.9597 128.476 13.7987L128.335 13.6573C128.133 13.859 128.034 14.1145 128.034 14.416H128.234ZM128.478 13.7967C128.64 13.6258 128.842 13.54 129.094 13.54V13.34C128.79 13.34 128.534 13.4462 128.333 13.6593L128.478 13.7967ZM129.094 13.54C129.345 13.54 129.548 13.6258 129.709 13.7967L129.854 13.6593C129.653 13.4462 129.397 13.34 129.094 13.34V13.54ZM129.711 13.7987C129.872 13.9597 129.954 14.1628 129.954 14.416H130.154C130.154 14.1145 130.054 13.859 129.852 13.6573L129.711 13.7987ZM129.954 14.416V18.48H130.154V14.416H129.954ZM129.954 18.48C129.954 19.1431 130.1 19.6571 130.411 20.0029L130.56 19.8691C130.295 19.5749 130.154 19.1182 130.154 18.48H129.954ZM130.413 20.0041C130.726 20.3403 131.188 20.5 131.782 20.5V20.3C131.223 20.3 130.822 20.1503 130.559 19.8679L130.413 20.0041ZM131.782 20.5C132.385 20.5 132.854 20.3407 133.167 20.0041L133.021 19.8679C132.758 20.15 132.352 20.3 131.782 20.3V20.5ZM133.168 20.0029C133.479 19.6571 133.626 19.1431 133.626 18.48H133.426C133.426 19.1182 133.284 19.5749 133.019 19.8691L133.168 20.0029ZM133.626 18.48V14.416H133.426V18.48H133.626ZM133.626 14.416C133.626 14.1628 133.708 13.9597 133.868 13.7987L133.727 13.6573C133.525 13.859 133.426 14.1145 133.426 14.416H133.626ZM133.87 13.7967C134.032 13.6258 134.234 13.54 134.486 13.54V13.34C134.182 13.34 133.926 13.4462 133.725 13.6593L133.87 13.7967ZM143.444 13.712L143.398 13.8008L143.4 13.8014L143.444 13.712ZM144.068 15.456L144.146 15.5191L144.148 15.5167L144.068 15.456ZM143.108 15.648L143.063 15.7378L143.071 15.7408L143.108 15.648ZM142.788 15.456L142.721 15.5312L142.731 15.5379L142.788 15.456ZM142.5 15.248L142.549 15.1605L142.545 15.1586L142.5 15.248ZM142.02 15.104L142 15.2019L142.001 15.2021L142.02 15.104ZM139.636 15.792L139.563 15.7245L139.563 15.7246L139.636 15.792ZM139.652 19.648L139.578 19.7147L139.579 19.7155L139.652 19.648ZM142.58 20.208L142.536 20.1186L142.58 20.208ZM142.836 20.048L142.894 20.1299L142.895 20.1289L142.836 20.048ZM143.156 19.856L143.197 19.9474L143.156 19.856ZM144.132 20.048L144.057 20.1139L144.059 20.1164L144.132 20.048ZM143.924 21.424L143.984 21.504L143.924 21.424ZM142.74 21.968L142.766 22.0648L142.768 22.0642L142.74 21.968ZM138.996 21.584L138.944 21.669L138.944 21.6694L138.996 21.584ZM137.556 20L137.467 20.0447L137.467 20.0453L137.556 20ZM137.572 15.424L137.484 15.3765L137.484 15.3776L137.572 15.424ZM139.076 13.856L139.127 13.9424L139.128 13.9417L139.076 13.856ZM141.252 13.38C142.15 13.38 142.863 13.5227 143.398 13.8007L143.49 13.6233C142.917 13.3253 142.168 13.18 141.252 13.18V13.38ZM143.4 13.8014C143.933 14.0682 144.176 14.413 144.176 14.832H144.376C144.376 14.3124 144.065 13.9104 143.489 13.6226L143.4 13.8014ZM144.176 14.832C144.176 15.0454 144.114 15.2319 143.989 15.3953L144.148 15.5167C144.3 15.3175 144.376 15.088 144.376 14.832H144.176ZM143.991 15.3929C143.871 15.5397 143.719 15.612 143.524 15.612V15.812C143.778 15.812 143.988 15.7136 144.146 15.5191L143.991 15.3929ZM143.524 15.612C143.361 15.612 143.236 15.5914 143.146 15.5552L143.071 15.7408C143.194 15.7899 143.347 15.812 143.524 15.812V15.612ZM143.153 15.5586C143.051 15.5076 142.949 15.4462 142.846 15.3741L142.731 15.5379C142.841 15.6151 142.952 15.6817 143.064 15.7374L143.153 15.5586ZM142.855 15.3813C142.754 15.2919 142.652 15.218 142.549 15.1606L142.452 15.3354C142.54 15.3847 142.631 15.4495 142.722 15.5307L142.855 15.3813ZM142.545 15.1586C142.426 15.0992 142.256 15.0492 142.04 15.0059L142.001 15.2021C142.211 15.2442 142.361 15.2901 142.456 15.3374L142.545 15.1586ZM142.041 15.0061C141.835 14.9628 141.662 14.94 141.524 14.94V15.14C141.643 15.14 141.8 15.1599 142 15.2019L142.041 15.0061ZM141.524 14.94C140.702 14.94 140.044 15.1988 139.563 15.7245L139.71 15.8595C140.146 15.3826 140.747 15.14 141.524 15.14V14.94ZM139.563 15.7246C139.094 16.2373 138.864 16.9084 138.864 17.728H139.064C139.064 16.9476 139.282 16.3281 139.71 15.8594L139.563 15.7246ZM138.864 17.728C138.864 18.5175 139.101 19.1822 139.578 19.7147L139.727 19.5813C139.287 19.0898 139.064 18.4745 139.064 17.728H138.864ZM139.579 19.7155C140.057 20.2387 140.671 20.5 141.412 20.5V20.3C140.724 20.3 140.165 20.0599 139.726 19.5805L139.579 19.7155ZM141.412 20.5C141.94 20.5 142.348 20.436 142.625 20.2974L142.536 20.1186C142.301 20.236 141.93 20.3 141.412 20.3V20.5ZM142.625 20.2974C142.696 20.2622 142.786 20.2055 142.894 20.1299L142.779 19.9661C142.674 20.0398 142.593 20.0898 142.536 20.1186L142.625 20.2974ZM142.895 20.1289C143.009 20.0462 143.109 19.9863 143.197 19.9474L143.116 19.7646C143.011 19.811 142.899 19.8791 142.778 19.9671L142.895 20.1289ZM143.197 19.9474C143.277 19.9119 143.379 19.892 143.508 19.892V19.692C143.36 19.692 143.228 19.7148 143.116 19.7646L143.197 19.9474ZM143.508 19.892C143.752 19.892 143.93 19.9688 144.057 20.1139L144.208 19.9821C144.036 19.7859 143.798 19.692 143.508 19.692V19.892ZM144.059 20.1164C144.2 20.2659 144.272 20.4589 144.272 20.704H144.472C144.472 20.4158 144.385 20.1714 144.205 19.9796L144.059 20.1164ZM144.272 20.704C144.272 20.916 144.15 21.1298 143.864 21.344L143.984 21.504C144.296 21.2702 144.472 21.004 144.472 20.704H144.272ZM143.864 21.344C143.578 21.5585 143.196 21.7353 142.713 21.8718L142.768 22.0642C143.266 21.9234 143.673 21.7375 143.984 21.504L143.864 21.344ZM142.715 21.8712C142.233 21.9969 141.719 22.06 141.172 22.06V22.26C141.735 22.26 142.266 22.1951 142.766 22.0648L142.715 21.8712ZM141.172 22.06C140.367 22.06 139.66 21.872 139.048 21.4986L138.944 21.6694C139.591 22.064 140.335 22.26 141.172 22.26V22.06ZM139.049 21.499C138.447 21.125 137.979 20.611 137.646 19.9547L137.467 20.0453C137.817 20.733 138.309 21.275 138.944 21.669L139.049 21.499ZM137.646 19.9553C137.312 19.2877 137.144 18.5459 137.144 17.728H136.944C136.944 18.5741 137.118 19.3469 137.467 20.0447L137.646 19.9553ZM137.144 17.728C137.144 16.8779 137.317 16.1262 137.661 15.4704L137.484 15.3776C137.123 16.0658 136.944 16.8501 136.944 17.728H137.144ZM137.66 15.4715C138.015 14.8151 138.503 14.3062 139.127 13.9424L139.026 13.7696C138.37 14.1525 137.855 14.6889 137.484 15.3765L137.66 15.4715ZM139.128 13.9417C139.751 13.5679 140.458 13.38 141.252 13.38V13.18C140.425 13.18 139.682 13.3761 139.025 13.7703L139.128 13.9417ZM150.287 20.416L150.208 20.478L150.213 20.4838L150.287 20.416ZM149.999 21.712L150.051 21.797L150.052 21.7965L149.999 21.712ZM147.263 21.584L147.209 21.6681L147.211 21.6696L147.263 21.584ZM146.591 15.36H146.691V15.26H146.591V15.36ZM145.215 13.856L145.283 13.929L145.285 13.9267L145.215 13.856ZM146.591 13.6V13.7H146.691V13.6H146.591ZM146.863 11.888L146.792 11.8173L146.863 11.888ZM148.239 11.888L148.166 11.9567L148.168 11.9587L148.239 11.888ZM148.511 13.6H148.411V13.7H148.511V13.6ZM150.287 13.856L150.216 13.9267L150.287 13.856ZM150.287 15.12L150.355 15.193L150.357 15.1907L150.287 15.12ZM148.511 15.36V15.26H148.411V15.36H148.511ZM148.687 20.192L148.619 20.2661L148.623 20.2694L148.687 20.192ZM149.519 20.272L149.546 20.3688L149.557 20.3643L149.519 20.272ZM149.887 20.292C149.997 20.292 150.104 20.3454 150.208 20.4778L150.365 20.3542C150.235 20.1879 150.075 20.092 149.887 20.092V20.292ZM150.213 20.4838C150.32 20.5998 150.379 20.7601 150.379 20.976H150.579C150.579 20.7226 150.509 20.5095 150.36 20.3482L150.213 20.4838ZM150.379 20.976C150.379 21.2191 150.247 21.4367 149.945 21.6275L150.052 21.7965C150.391 21.582 150.579 21.3089 150.579 20.976H150.379ZM149.946 21.627C149.654 21.8084 149.32 21.9 148.943 21.9V22.1C149.354 22.1 149.725 21.9996 150.051 21.797L149.946 21.627ZM148.943 21.9C148.295 21.9 147.754 21.7643 147.314 21.4984L147.211 21.6696C147.689 21.9583 148.267 22.1 148.943 22.1V21.9ZM147.317 21.4999C146.913 21.2405 146.691 20.684 146.691 19.776H146.491C146.491 20.7027 146.716 21.3515 147.209 21.6681L147.317 21.4999ZM146.691 19.776V15.36H146.491V19.776H146.691ZM146.591 15.26H145.855V15.46H146.591V15.26ZM145.855 15.26C145.623 15.26 145.436 15.184 145.285 15.0333L145.144 15.1747C145.335 15.3654 145.574 15.46 145.855 15.46V15.26ZM145.285 15.0333C145.135 14.8826 145.059 14.6953 145.059 14.464H144.859C144.859 14.7447 144.953 14.9841 145.144 15.1747L145.285 15.0333ZM145.059 14.464C145.059 14.2448 145.134 14.069 145.283 13.929L145.146 13.783C144.954 13.963 144.859 14.1925 144.859 14.464H145.059ZM145.285 13.9267C145.436 13.776 145.623 13.7 145.855 13.7V13.5C145.574 13.5 145.335 13.5946 145.144 13.7853L145.285 13.9267ZM145.855 13.7H146.591V13.5H145.855V13.7ZM146.691 13.6V12.576H146.491V13.6H146.691ZM146.691 12.576C146.691 12.3228 146.772 12.1197 146.933 11.9587L146.792 11.8173C146.59 12.019 146.491 12.2745 146.491 12.576H146.691ZM146.933 11.9587C147.106 11.7859 147.315 11.7 147.567 11.7V11.5C147.264 11.5 147.003 11.6061 146.792 11.8173L146.933 11.9587ZM147.567 11.7C147.806 11.7 148.004 11.7849 148.166 11.9567L148.311 11.8193C148.111 11.6071 147.861 11.5 147.567 11.5V11.7ZM148.168 11.9587C148.329 12.1197 148.411 12.3228 148.411 12.576H148.611C148.611 12.2745 148.511 12.019 148.309 11.8173L148.168 11.9587ZM148.411 12.576V13.6H148.611V12.576H148.411ZM148.511 13.7H149.647V13.5H148.511V13.7ZM149.647 13.7C149.878 13.7 150.065 13.776 150.216 13.9267L150.357 13.7853C150.167 13.5946 149.927 13.5 149.647 13.5V13.7ZM150.216 13.9267C150.367 14.0774 150.443 14.2647 150.443 14.496H150.643C150.643 14.2153 150.548 13.9759 150.357 13.7853L150.216 13.9267ZM150.443 14.496C150.443 14.7153 150.368 14.8977 150.216 15.0493L150.357 15.1907C150.547 15.0009 150.643 14.7674 150.643 14.496H150.443ZM150.218 15.047C150.068 15.188 149.88 15.26 149.647 15.26V15.46C149.926 15.46 150.164 15.372 150.355 15.193L150.218 15.047ZM149.647 15.26H148.511V15.46H149.647V15.26ZM148.411 15.36V19.696H148.611V15.36H148.411ZM148.411 19.696C148.411 19.9362 148.474 20.1336 148.619 20.266L148.754 20.118C148.665 20.0371 148.611 19.9038 148.611 19.696H148.411ZM148.623 20.2694C148.764 20.3843 148.949 20.436 149.167 20.436V20.236C148.979 20.236 148.844 20.1917 148.75 20.1146L148.623 20.2694ZM149.167 20.436C149.266 20.436 149.394 20.4116 149.546 20.3682L149.491 20.1758C149.345 20.2177 149.238 20.236 149.167 20.236V20.436ZM149.557 20.3643C149.675 20.3151 149.785 20.292 149.887 20.292V20.092C149.754 20.092 149.618 20.1222 149.48 20.1797L149.557 20.3643ZM153.842 21.728L153.912 21.7987L153.914 21.7967L153.842 21.728ZM152.466 21.728L152.393 21.7967L152.395 21.7987L152.466 21.728ZM152.466 13.728L152.536 13.7987L152.538 13.7967L152.466 13.728ZM153.842 13.728L153.769 13.7967L153.771 13.7987L153.842 13.728ZM152.37 12.224L152.308 12.3026L152.37 12.224ZM152.386 10.672L152.445 10.7526L152.386 10.672ZM153.938 10.672L153.876 10.7506L153.938 10.672ZM153.922 12.24L153.98 12.3214L153.981 12.3206L153.922 12.24ZM154.014 21.024C154.014 21.2772 153.932 21.4869 153.769 21.6593L153.914 21.7967C154.114 21.5851 154.214 21.3255 154.214 21.024H154.014ZM153.771 21.6573C153.61 21.8182 153.407 21.9 153.154 21.9V22.1C153.455 22.1 153.711 22.0004 153.912 21.7987L153.771 21.6573ZM153.154 21.9C152.9 21.9 152.697 21.8182 152.536 21.6573L152.395 21.7987C152.597 22.0004 152.852 22.1 153.154 22.1V21.9ZM152.538 21.6593C152.375 21.4869 152.294 21.2772 152.294 21.024H152.094C152.094 21.3255 152.193 21.5851 152.393 21.7967L152.538 21.6593ZM152.294 21.024V14.416H152.094V21.024H152.294ZM152.294 14.416C152.294 14.1628 152.375 13.9597 152.536 13.7987L152.395 13.6573C152.193 13.859 152.094 14.1145 152.094 14.416H152.294ZM152.538 13.7967C152.7 13.6258 152.902 13.54 153.154 13.54V13.34C152.85 13.34 152.594 13.4462 152.393 13.6593L152.538 13.7967ZM153.154 13.54C153.405 13.54 153.608 13.6258 153.769 13.7967L153.914 13.6593C153.713 13.4462 153.457 13.34 153.154 13.34V13.54ZM153.771 13.7987C153.932 13.9597 154.014 14.1628 154.014 14.416H154.214C154.214 14.1145 154.114 13.859 153.912 13.6573L153.771 13.7987ZM154.014 14.416V21.024H154.214V14.416H154.014ZM153.138 12.3C152.78 12.3 152.553 12.2409 152.431 12.1454L152.308 12.3026C152.485 12.4417 152.77 12.5 153.138 12.5V12.3ZM152.431 12.1454C152.317 12.0558 152.246 11.8857 152.246 11.6H152.046C152.046 11.9116 152.123 12.1576 152.308 12.3026L152.431 12.1454ZM152.246 11.6V11.296H152.046V11.6H152.246ZM152.246 11.296C152.246 11.0125 152.321 10.8431 152.445 10.7526L152.326 10.5914C152.13 10.7356 152.046 10.9822 152.046 11.296H152.246ZM152.445 10.7526C152.579 10.6544 152.808 10.596 153.154 10.596V10.396C152.795 10.396 152.512 10.455 152.326 10.5914L152.445 10.7526ZM153.154 10.596C153.523 10.596 153.755 10.6553 153.876 10.7506L153.999 10.5934C153.822 10.454 153.531 10.396 153.154 10.396V10.596ZM153.876 10.7506C153.99 10.8402 154.062 11.0103 154.062 11.296H154.262C154.262 10.9844 154.184 10.7384 153.999 10.5934L153.876 10.7506ZM154.062 11.296V11.6H154.262V11.296H154.062ZM154.062 11.6C154.062 11.8957 153.985 12.0695 153.862 12.1594L153.981 12.3206C154.178 12.1758 154.262 11.9229 154.262 11.6H154.062ZM153.863 12.1586C153.741 12.2458 153.508 12.3 153.138 12.3V12.5C153.514 12.5 153.803 12.4475 153.98 12.3214L153.863 12.1586ZM162.663 13.456L162.657 13.556H162.663V13.456ZM163.303 13.712L163.232 13.7827L163.234 13.785L163.303 13.712ZM163.431 14.8L163.522 14.8413L163.522 14.8406L163.431 14.8ZM160.439 21.392L160.348 21.3506L160.346 21.3539L160.439 21.392ZM160.103 21.824L160.045 21.7426L160.042 21.7447L160.103 21.824ZM159.623 22L159.617 21.9L159.612 21.9006L159.623 22ZM159.479 22.016V22.1166L159.49 22.1154L159.479 22.016ZM158.967 21.856L158.905 21.9349L158.911 21.9392L158.967 21.856ZM158.615 21.392L158.706 21.3514L158.706 21.3509L158.615 21.392ZM155.639 14.8L155.547 14.8401L155.548 14.8411L155.639 14.8ZM155.799 13.712L155.867 13.7849L155.87 13.7827L155.799 13.712ZM157.031 13.6L157.084 13.5152L157.031 13.6ZM157.415 14.048L157.507 14.008L157.506 14.0074L157.415 14.048ZM159.623 19.104L159.531 19.144L159.623 19.3543L159.715 19.1439L159.623 19.104ZM161.815 14.064L161.907 14.1039L161.907 14.1028L161.815 14.064ZM162.663 13.556C162.894 13.556 163.081 13.632 163.232 13.7827L163.374 13.6413C163.183 13.4506 162.944 13.356 162.663 13.356V13.556ZM163.234 13.785C163.384 13.925 163.459 14.1008 163.459 14.32H163.659C163.659 14.0485 163.563 13.819 163.371 13.639L163.234 13.785ZM163.459 14.32C163.459 14.4278 163.422 14.573 163.339 14.7594L163.522 14.8406C163.61 14.643 163.659 14.4682 163.659 14.32H163.459ZM163.34 14.7587L160.348 21.3507L160.53 21.4333L163.522 14.8413L163.34 14.7587ZM160.346 21.3539C160.278 21.5191 160.178 21.6476 160.045 21.7426L160.161 21.9054C160.327 21.787 160.45 21.6275 160.531 21.4301L160.346 21.3539ZM160.042 21.7447C159.92 21.8387 159.779 21.8906 159.617 21.9002L159.629 22.0998C159.829 22.088 160.009 22.0226 160.164 21.9033L160.042 21.7447ZM159.612 21.9006L159.468 21.9166L159.49 22.1154L159.634 22.0994L159.612 21.9006ZM159.479 21.916C159.318 21.916 159.167 21.8692 159.022 21.7728L158.911 21.9392C159.087 22.0561 159.277 22.116 159.479 22.116V21.916ZM159.029 21.7774C158.893 21.6711 158.786 21.5301 158.706 21.3514L158.523 21.4326C158.615 21.6379 158.742 21.8062 158.905 21.9346L159.029 21.7774ZM158.706 21.3509L155.73 14.7589L155.548 14.8411L158.524 21.4331L158.706 21.3509ZM155.73 14.7599C155.661 14.6007 155.627 14.4437 155.627 14.288H155.427C155.427 14.4737 155.468 14.6579 155.547 14.8401L155.73 14.7599ZM155.627 14.288C155.627 14.1069 155.702 13.94 155.867 13.7848L155.73 13.6392C155.533 13.8253 155.427 14.0424 155.427 14.288H155.627ZM155.87 13.7827C156.031 13.6209 156.23 13.54 156.471 13.54V13.34C156.179 13.34 155.929 13.4404 155.728 13.6413L155.87 13.7827ZM156.471 13.54C156.655 13.54 156.823 13.5881 156.978 13.6848L157.084 13.5152C156.897 13.3985 156.692 13.34 156.471 13.34V13.54ZM156.978 13.6848C157.131 13.7804 157.246 13.914 157.323 14.0886L157.506 14.0074C157.413 13.798 157.272 13.6329 157.084 13.5152L156.978 13.6848ZM157.323 14.088L159.531 19.144L159.715 19.064L157.507 14.008L157.323 14.088ZM159.715 19.1439L161.907 14.1039L161.723 14.0241L159.531 19.0641L159.715 19.1439ZM161.907 14.1028C161.987 13.9138 162.093 13.7753 162.225 13.6814L162.109 13.5186C161.942 13.638 161.814 13.8089 161.723 14.0252L161.907 14.1028ZM162.225 13.6814C162.356 13.5878 162.499 13.5465 162.657 13.5558L162.669 13.3562C162.464 13.3441 162.276 13.3988 162.109 13.5186L162.225 13.6814ZM172.673 17.52L172.773 17.5242V17.52H172.673ZM172.369 18.144L172.433 18.2208L172.369 18.144ZM166.417 18.384V18.284H166.295L166.319 18.4039L166.417 18.384ZM167.297 19.872L167.235 19.9504L167.236 19.9513L167.297 19.872ZM169.873 20.288L169.902 20.3837L169.906 20.3824L169.873 20.288ZM170.449 20.032L170.502 20.1172L170.503 20.1161L170.449 20.032ZM170.753 19.84L170.708 19.7503L170.702 19.7543L170.753 19.84ZM171.873 19.936L171.802 20.0067L171.873 19.936ZM171.665 21.28L171.603 21.2013L171.602 21.2027L171.665 21.28ZM170.465 21.904L170.433 21.8093L170.465 21.904ZM166.593 21.6L166.544 21.6871L166.545 21.6874L166.593 21.6ZM165.057 20.064L164.969 20.1121L164.97 20.1127L165.057 20.064ZM165.089 15.424L165.002 15.3756L165.089 15.424ZM166.609 13.84L166.659 13.9266L166.66 13.926L166.609 13.84ZM170.609 13.856L170.556 13.941L170.557 13.9414L170.609 13.856ZM172.113 15.408L172.2 15.3582L172.113 15.408ZM166.433 16.784L166.335 16.7651L166.312 16.884H166.433V16.784ZM170.625 16.784V16.884H170.725V16.784H170.625ZM170.625 16.672H170.726L170.725 16.6625L170.625 16.672ZM172.573 17.5158C172.564 17.7444 172.475 17.9258 172.305 18.0672L172.433 18.2208C172.647 18.0422 172.761 17.8076 172.773 17.5242L172.573 17.5158ZM172.305 18.0672C172.132 18.2118 171.93 18.284 171.697 18.284V18.484C171.976 18.484 172.223 18.3962 172.433 18.2208L172.305 18.0672ZM171.697 18.284H166.417V18.484H171.697V18.284ZM166.319 18.4039C166.451 19.054 166.756 19.5717 167.235 19.9504L167.359 19.7936C166.921 19.447 166.639 18.9727 166.515 18.3641L166.319 18.4039ZM167.236 19.9513C167.712 20.3167 168.251 20.5 168.849 20.5V20.3C168.295 20.3 167.799 20.1313 167.358 19.7927L167.236 19.9513ZM168.849 20.5C169.29 20.5 169.643 20.4625 169.902 20.3837L169.844 20.1923C169.612 20.2628 169.283 20.3 168.849 20.3V20.5ZM169.906 20.3824C170.155 20.296 170.354 20.2078 170.502 20.1172L170.397 19.9468C170.267 20.0268 170.082 20.1094 169.84 20.1936L169.906 20.3824ZM170.503 20.1161C170.653 20.02 170.753 19.9568 170.805 19.9257L170.702 19.7543C170.647 19.7872 170.544 19.852 170.395 19.9479L170.503 20.1161ZM170.798 19.9294C170.979 19.8386 171.145 19.796 171.297 19.796V19.596C171.107 19.596 170.911 19.6494 170.708 19.7506L170.798 19.9294ZM171.297 19.796C171.494 19.796 171.661 19.8653 171.802 20.0067L171.944 19.8653C171.765 19.6867 171.548 19.596 171.297 19.596V19.796ZM171.802 20.0067C171.945 20.1492 172.013 20.3109 172.013 20.496H172.213C172.213 20.2544 172.121 20.0428 171.944 19.8653L171.802 20.0067ZM172.013 20.496C172.013 20.7441 171.886 20.9791 171.603 21.2014L171.727 21.3586C172.041 21.1115 172.213 20.8239 172.213 20.496H172.013ZM171.602 21.2027C171.315 21.4382 170.927 21.6412 170.433 21.8093L170.497 21.9987C171.006 21.8255 171.418 21.6125 171.729 21.3573L171.602 21.2027ZM170.433 21.8093C169.942 21.9766 169.446 22.06 168.945 22.06V22.26C169.468 22.26 169.986 22.1727 170.497 21.9987L170.433 21.8093ZM168.945 22.06C168.063 22.06 167.297 21.8764 166.642 21.5126L166.545 21.6874C167.234 22.0703 168.035 22.26 168.945 22.26V22.06ZM166.642 21.5129C165.997 21.1484 165.498 20.6496 165.144 20.0153L164.97 20.1127C165.342 20.7797 165.867 21.3049 166.544 21.6871L166.642 21.5129ZM165.145 20.0159C164.791 19.3706 164.613 18.6461 164.613 17.84H164.413C164.413 18.6766 164.598 19.4347 164.969 20.1121L165.145 20.0159ZM164.613 17.84C164.613 16.9369 164.802 16.1488 165.177 15.4724L165.002 15.3756C164.608 16.0859 164.413 16.9084 164.413 17.84H164.613ZM165.177 15.4724C165.553 14.7935 166.047 14.2794 166.659 13.9266L166.559 13.7534C165.913 14.1259 165.394 14.6678 165.002 15.3756L165.177 15.4724ZM166.66 13.926C167.274 13.5616 167.929 13.38 168.625 13.38V13.18C167.892 13.18 167.202 13.3717 166.558 13.754L166.66 13.926ZM168.625 13.38C169.31 13.38 169.953 13.5664 170.556 13.941L170.662 13.771C170.028 13.3776 169.348 13.18 168.625 13.18V13.38ZM170.557 13.9414C171.172 14.3164 171.661 14.8214 172.026 15.4578L172.2 15.3582C171.818 14.6932 171.305 14.1636 170.661 13.7706L170.557 13.9414ZM172.026 15.4578C172.391 16.0931 172.573 16.78 172.573 17.52H172.773C172.773 16.7454 172.582 16.0242 172.2 15.3582L172.026 15.4578ZM168.625 14.94C167.991 14.94 167.475 15.089 167.087 15.3977C166.698 15.7069 166.45 16.1668 166.335 16.7651L166.531 16.8029C166.64 16.2386 166.869 15.8264 167.211 15.5543C167.554 15.2817 168.022 15.14 168.625 15.14V14.94ZM166.433 16.884H170.625V16.684H166.433V16.884ZM170.725 16.784V16.672H170.525V16.784H170.725ZM170.725 16.6625C170.679 16.1843 170.445 15.7768 170.032 15.4423L169.906 15.5977C170.283 15.9032 170.486 16.2637 170.526 16.6815L170.725 16.6625ZM170.032 15.4423C169.62 15.1081 169.15 14.94 168.625 14.94V15.14C169.103 15.14 169.529 15.2919 169.906 15.5977L170.032 15.4423Z" fill="white"/>
</svg>
