<svg width="9" height="8" viewBox="0 0 9 8" fill="none" xmlns="http://www.w3.org/2000/svg">
<g clip-path="url(#clip0)">
<path fill-rule="evenodd" clip-rule="evenodd" d="M5.32292 3.89964L8.28493 0.937948C8.49226 0.730619 8.491 0.398451 8.28493 0.192071C8.07855 -0.0152575 7.74639 -0.0127292 7.54032 0.192071L4.57862 3.15377L1.61692 0.192071C1.40959 -0.0152575 1.07742 -0.0139932 0.872308 0.192071C0.664979 0.399715 0.666244 0.731567 0.872308 0.937948L3.83432 3.89964L0.872308 6.86008C0.664979 7.06741 0.666244 7.39958 0.872308 7.60565C1.07869 7.81329 1.41085 7.81203 1.61692 7.60565L4.57862 4.64395L7.54032 7.60565C7.74765 7.81329 8.07982 7.81203 8.28493 7.60565C8.49226 7.39832 8.491 7.06615 8.28493 6.86008L5.32292 3.89964Z" fill="#626262"/>
</g>
<defs>
<clipPath id="clip0">
<rect width="8" height="8" fill="white" transform="translate(0.5)"/>
</clipPath>
</defs>
</svg>
